<svg id="Flat" height="512" viewBox="0 0 512 512" width="512" xmlns="http://www.w3.org/2000/svg"><path d="m64 24h112a0 0 0 0 1 0 0v80a0 0 0 0 1 0 0h-168a0 0 0 0 1 0 0v-24a56 56 0 0 1 56-56z" fill="#d0d2d4"/><path d="m440 80a56 56 0 0 0 -56-56h-320a56 56 0 0 1 56 56v352a56 56 0 0 0 56 56h208a56 56 0 0 0 56-56z" fill="#e9eef2"/><g fill="#d0d2d4"><path d="m168 144h224v32h-224z"/><path d="m384 216h-208a8 8 0 0 1 0-16h208a8 8 0 0 1 0 16z"/><path d="m248 248h-72a8 8 0 0 1 0-16h72a8 8 0 0 1 0 16z"/><path d="m248 280h-72a8 8 0 0 1 0-16h72a8 8 0 0 1 0 16z"/><path d="m248 312h-72a8 8 0 0 1 0-16h72a8 8 0 0 1 0 16z"/><path d="m392 392h-120a8 8 0 0 1 0-16h120a8 8 0 0 1 0 16z"/></g><circle cx="336" cy="296" fill="#ffd33a" r="48"/><path d="m336 232a64 64 0 1 0 64 64 64.072 64.072 0 0 0 -64-64zm0 112a48 48 0 1 1 48-48 48.051 48.051 0 0 1 -48 48z" fill="#ffb632"/><path d="m352 304a15.974 15.974 0 0 1 -8 13.84v2.16a8 8 0 0 1 -16 0 8 8 0 0 1 0-16h8a15.99 15.99 0 0 1 -8-29.84v-2.16a8 8 0 0 1 16 0 8 8 0 0 1 0 16h-8a16.021 16.021 0 0 1 16 16z" fill="#ffb632"/><path d="m192 120a8 8 0 0 1 -8-8v-48a8 8 0 0 1 8-8h16a24 24 0 0 1 0 48h-8v8a8 8 0 0 1 -8 8zm8-32h8a8 8 0 0 0 0-16h-8z" fill="#3dc285"/><path d="m287.96 103.24c-.02-.23-.05-.45-.09-.68-.01-.06-.02-.12-.03-.17-.04-.19-.09-.39-.15-.58a6 6 0 0 0 -.32-.93l-15.94-39.85a8 8 0 0 0 -14.86 0l-15.94 39.85a6 6 0 0 0 -.32.93c-.06.19-.11.39-.15.58-.01.05-.02.11-.03.17-.04.23-.07.45-.09.68a6.339 6.339 0 0 0 -.04.76v8a8 8 0 0 0 16 0h16a8 8 0 0 0 16 0v-8a6.339 6.339 0 0 0 -.04-.76zm-28.14-7.24 4.18-10.46 4.18 10.46z" fill="#3dc285"/><path d="m312 120a8 8 0 0 1 -8-8v-48a8 8 0 0 1 16 0v48a8 8 0 0 1 -8 8z" fill="#3dc285"/><path d="m352 120h-8a8 8 0 0 1 -8-8v-48a8 8 0 0 1 8-8h8a32 32 0 0 1 0 64zm0-48v32a16 16 0 0 0 0-32z" fill="#3dc285"/><path d="m496 424h-264v8a56 56 0 0 1 -56 56h256a64 64 0 0 0 64-64z" fill="#d0d2d4"/></svg>