<svg xmlns="http://www.w3.org/2000/svg" viewBox="0 0 2590.79 1656.99"><defs><style>.cls-1{fill:#ebf3fa;}.cls-2,.cls-7{fill:#aec3ff;}.cls-2{opacity:0.3;}.cls-3{fill:#2e3552;}.cls-4,.cls-5{fill:#cde0fb;}.cls-5{opacity:0.5;}.cls-6{fill:#f78248;}.cls-8{fill:#94b0ed;}.cls-9{fill:#24406d;}.cls-10{fill:#ff9e55;}.cls-11{fill:#ed7d2b;}.cls-12{fill:#ffb27d;}.cls-13{fill:#ed975d;}.cls-14{fill:#233862;}.cls-15{fill:#163560;}.cls-16{fill:#1d3356;}.cls-17{fill:#f2ccaa;}.cls-18{fill:#2b478b;}.cls-19{fill:#fff;}.cls-20{fill:#e8945b;}.cls-21{fill:#ffe5d4;}</style></defs><g id="Layer_2" data-name="Layer 2"><g id="_лой_1" data-name="‘лой_1"><path class="cls-1" d="M214.22,1654S-100.21,1348.83,99.83,989.77s468.71-178.49,455.7-596.41,617.88-453.81,818.7-332.64,199.6,267.12,614.16,218.84S2482.14,633.8,2374.29,839C2221.27,1130,2799,1082,2435,1654Z"/><path class="cls-2" d="M1595,935.88s66.81-283.17,292.19-314.3c0,0,43.85-5.39,58.46,42.9s-72.59,48.63-126.49,68.06S1639.64,834.3,1595,935.88Z"/><path class="cls-2" d="M1589.89,882.89s-23.44-234.56,141-317.8c0,0,32.18-15.69,56.09,17.46s-42.8,56.39-79,85.47S1597.31,793.3,1589.89,882.89Z"/><rect class="cls-3" y="1649.87" width="2590.79" height="7.12" rx="2.99"/><path class="cls-4" d="M373.83,1441c-34.8-79.29,91.42-147.41,91.42-147.41s166.33,53.83,190.21,39.07-133.22-73.8-133.22-73.8c38.76-37.92,187.39-72.68,187.39-72.68s100.25,138.35,119.76,118.16-95-118-95-118c50.51-20.56,126.71-3.68,126.71-3.68C970.79,1221.79,915,1360.66,915,1360.66s35.78,47.2,106.85,77.14h0s14.29,4.59,34.19,15.93l-11.09,8.93c-3.3-2.24-6.62-4.31-10-6.18a.09.09,0,0,0-.06,0l-.14-.08c-2.14-1.1-5.2-2.66-9-4.53h0c-8.73-3.9-15-7-19.26-9.33l0,0c-26.92-12.65-63.4-28-77.73-25.83a27.9,27.9,0,0,0-1.73-7c.55,2.24,1.13,4.56,1.73,7,13.78,56-75.68,139.21-137.3,170.95s-50.59-1.73-41.61-48.88,73.78-88.82,83.77-112.51-23.43-12.43-56.5,18.68-22.31,80.56-74.89,131.86S520,1555.85,520,1555.85c49.16-19.47,102.19-98,94-113.7s-111.53,69.71-131.07,78.75S408.63,1520.33,373.83,1441Z"/><path class="cls-4" d="M1963,1536.37c50.76-59.9-41.29-151.77-41.29-151.77s-158.48,3.73-175.41-15.28,134.87-29.65,134.87-29.65c-23.86-43-144-111.67-144-111.67s-122.93,94.28-134.66,71.69,113.11-77.93,113.11-77.93c-38.57-30.94-109.16-36-109.16-36-105.45,5.55-92.88,140.68-92.88,140.68s-43.31,31.75-112.83,39.38h0s-13.61.28-33.83,5l7.32,10.64q5.17-1.65,10.24-2.8a.08.08,0,0,1,.07,0l.14,0c2.15-.4,5.21-1,9-1.62h0c8.59-1.13,14.8-2.17,19.15-3.12h0c26.67-4,62.34-7.92,74.24-2.32a25.27,25.27,0,0,1,3.31-5.64c-1,1.8-2.15,3.67-3.31,5.64-26.46,45.07,29.73,140.56,75.07,184.1s44.4,11.58,48.81-31.71-41.13-96.28-43.67-119.46,23.57-4.74,44.26,30.86-1.47,75.78,31,134,163.79,29,163.79,29c-37.68-29.65-63.45-111.58-52.24-123.14s78.88,89.45,93.52,102.36S1912.19,1596.26,1963,1536.37Z"/><path class="cls-5" d="M700.07,376.14c52.32-87.79,204.32-13.23,204.32-13.23s62.31,196.71,92.87,209.54-20.43-178.59-20.43-178.59c63,11.24,198.3,130.21,198.3,130.21s-64.19,191.18-31.41,196.09S1191.92,548,1191.92,548c54.38,34.44,90.41,119.22,90.41,119.22,37.69,132.2-134,173.77-134,173.77s-20.82,66.73-.86,155.55h0s5.39,16.88,8.14,43.77l-16.19-4.53q-.15-7.07-.87-13.79a.13.13,0,0,0,0-.09,1.23,1.23,0,0,1,0-.19c-.41-2.81-1-6.82-1.78-11.71v0s0,0,0,0c-2.24-11.07-3.57-19.15-4.24-24.91a0,0,0,0,1,0,0c-6.32-34.54-16.58-80.11-28.49-92.4a32.48,32.48,0,0,0,5.54-6.45l-5.54,6.45c-44.33,51.62-185.63,22.73-258.39-14.71s-33-49.79,18.44-73.49,135.93,10,165.53,3.34-4.12-31-56.68-41.47-92.7,33.81-178,18.45S690,595.26,690,595.26c52.41,33.88,164.19,31,173.69,12.34s-143.45-59.36-165.54-72S647.75,463.94,700.07,376.14Z"/><path class="cls-6" d="M1284.27,536.83a40,40,0,0,1,3-15.73,36.57,36.57,0,0,1,8.58-12.51,39.39,39.39,0,0,1,13.34-8.25,49.09,49.09,0,0,1,17.57-3,50.19,50.19,0,0,1,17.71,3,39.11,39.11,0,0,1,13.47,8.25,36.73,36.73,0,0,1,8.59,12.51,40.2,40.2,0,0,1,3,15.73,39.31,39.31,0,0,1-3,15.6,37.19,37.19,0,0,1-8.59,12.38,39.27,39.27,0,0,1-13.47,8.25,50.42,50.42,0,0,1-17.71,3,49.31,49.31,0,0,1-17.57-3,39.55,39.55,0,0,1-13.34-8.25,37,37,0,0,1-8.58-12.38A39.14,39.14,0,0,1,1284.27,536.83Zm74.24-73.39H1295.1l-9-216.65h81.37Z"/><path class="cls-7" d="M1092.81,325a30.74,30.74,0,0,1,2.34-12.07,28.23,28.23,0,0,1,6.59-9.6A30.32,30.32,0,0,1,1112,297a37.58,37.58,0,0,1,13.48-2.28,38.51,38.51,0,0,1,13.59,2.28,30.2,30.2,0,0,1,10.34,6.33A28.37,28.37,0,0,1,1156,313a30.91,30.91,0,0,1,2.33,12.07,30.19,30.19,0,0,1-2.33,12,28.57,28.57,0,0,1-6.59,9.5,30,30,0,0,1-10.34,6.33,38.51,38.51,0,0,1-13.59,2.28,37.58,37.58,0,0,1-13.48-2.28,30.17,30.17,0,0,1-10.24-6.33,28.42,28.42,0,0,1-6.59-9.5A30,30,0,0,1,1092.81,325Zm57-56.32h-48.66l-6.9-166.28h62.46Z"/><path class="cls-7" d="M2038.19,606a30.7,30.7,0,0,1,2.33-12.07,28.23,28.23,0,0,1,6.59-9.6,30.17,30.17,0,0,1,10.24-6.33,37.62,37.62,0,0,1,13.48-2.28,38.51,38.51,0,0,1,13.59,2.28,30,30,0,0,1,10.34,6.33,28.23,28.23,0,0,1,6.59,9.6,30.88,30.88,0,0,1,2.33,12.07,30.19,30.19,0,0,1-2.33,12,28.42,28.42,0,0,1-6.59,9.5,30.1,30.1,0,0,1-10.34,6.33,38.74,38.74,0,0,1-13.59,2.28,37.84,37.84,0,0,1-13.48-2.28,30.32,30.32,0,0,1-10.24-6.33,28.42,28.42,0,0,1-6.59-9.5A30,30,0,0,1,2038.19,606Zm57-56.32H2046.5l-6.89-166.28h62.45Z"/><path class="cls-7" d="M1931.14,1029.15a327.06,327.06,0,0,1-35.83,53.43h0c-13.6,16.24-27.52,28.58-39.27,32.76l-.09,0c-.61.21-1.22.41-1.82.57a.15.15,0,0,1-.09,0h0a21.32,21.32,0,0,1-6.83.88c-38.55-1.73-79.19-84.45-79.19-84.45s1-9.8,8.55-16.73c6.55-6,11.58-7.62,11.58-7.62s41.53,42.65,51.67,45.72c6.39,1.92,14.77-27.86,26.79-65.26s54.26-46.62,54.26-46.62S1963.61,969,1931.14,1029.15Z"/><path class="cls-8" d="M1895.31,1082.58h0c-13.6,16.24-27.52,28.58-39.27,32.76l-.09,0-1.82.57-.1,0h0c.42-.28,13-6.8,15-18.91,2-12.36-11.07-22.48,21.81-41.61C1910,1044.3,1895.31,1082.58,1895.31,1082.58Z"/><path class="cls-9" d="M1865.21,1649.87h90.37c6.48-4.39-1.74-47.32-1.74-47.32s-24.67-9.36-28.93,9.67-31.41,25.07-45.78,27.39C1869.3,1641.21,1866.19,1646.61,1865.21,1649.87Z"/><path class="cls-10" d="M2003,1204.89s-2.85,52.72-6.41,113.81c-2.57,43.8-5.49,91.91-8,127.94-.34,4.78-.67,9.35-1,13.67-.09,1.34-.19,2.67-.29,4-6.48,80.79-28.11,151.57-28.11,151.57-25.41,5.35-36.88-4.44-36.88-4.44s-17.51-205.18-24-287.93c-4.77-60.91-8.83-149.6-8.83-149.6Z"/><path class="cls-11" d="M1996.61,1318.7c-2.57,43.8-5.49,91.91-8,127.94-16.61-39.18-50.55-191.9-50.55-191.9Z"/><path class="cls-9" d="M1999.24,1649.87h90.37c6.48-4.39-1.75-47.32-1.75-47.32s-24.66-9.36-28.92,9.67-31.42,25.07-45.78,27.39C2003.33,1641.21,2000.22,1646.61,1999.24,1649.87Z"/><path class="cls-10" d="M1914.07,1194.41s64.54,160.64,85.17,221.53c14.7,43.37,56.14,195.53,56.14,195.53s18,5.49,33.17-5.11c0,0,15.42-155.46-15.73-199.29-16.52-23.26-4.1-241.76-71.1-243.63S1914.07,1194.41,1914.07,1194.41Z"/><path class="cls-7" d="M2046.22,1142.74c-.27,22.84-.52,39.61-.46,43.85.18,13.82-8.66,16.94-17.77,19.05,0,0-8.42,1.81-19,3.61-10.4,1.74-22.94,3.46-31.8,3.4a286.77,286.77,0,0,1-83.23-13.7c-8.53,0-12.42-13.18-13.82-31.6-.94-12.46,2.9-136.75,3.39-167.78.33-22.26,12.55-42.83,16-45.84,31.64-28,125-24.45,141.82-5.15,4.15,4.77,5.36,50.78,5.5,101.19C2046.86,1082.22,2046.53,1116.48,2046.22,1142.74Z"/><path class="cls-12" d="M1990.16,937.5c-11.92,12.92-52,11-50.77-.27.16-1.39.42-9.64.55-10.92.1-1,.2-2,.28-3,.28-2.78.5-5.24.68-7.36.53-6.18.7-9.53.7-9.53h0c1.15-.33,26.89-7.64,39.7-10.67,4.3-1,7.14-1.55,7.1-1.17C1984.51,923.36,1994.06,933.26,1990.16,937.5Z"/><path class="cls-13" d="M1982.7,904.26s-10.76,10.92-41.8,11.71c.53-6.18.7-9.53.7-9.53h0c1.15-.33,26.89-7.64,39.7-10.67C1983.59,896.7,1980.6,902.71,1982.7,904.26Z"/><path class="cls-12" d="M1933.73,904.91a96.92,96.92,0,0,0,17.89,4.16c14.65,2,33.92.82,40-16.92,10.19-29.84,23.22-47.74-6.79-59.92-16.06-6.53-26.34-6.87-33.32-4.38-6.06,2.14-9.64,6.44-12.35,10.68C1933.32,847.67,1921.6,899.68,1933.73,904.91Z"/><path class="cls-14" d="M1941.4,815.44c-10.72,7-7.22,23.53,5.41,25.76,7.57,1.33,13.92,1.59,17.6,3.23,7.46,3.31,13.87,6.83,12.11,18.41-.6,3.93-2.52,8.73,7.62,6.35a4.89,4.89,0,0,1,3.68.22c4.2,2.49-1.17,14.58-2.79,17.2,0,0-2.33,8.66,2.84,12.87.63.51,10.79,4.95,35.29-32.54,3.85-5.88,7.53-19.14,1.58-31.91s-22.51-28.91-53.72-28.91C1962.9,806.12,1950.69,809.34,1941.4,815.44Z"/><path class="cls-8" d="M2046.22,1142.74c-4.56,21.19-3.4,21.41-10.39,15.85-28.5-22.65-20.17-34.52-13.84-54.15s-15.9-50.33,0-63.42c15.54-12.79,24.4,7.83,24.78,8.75C2046.86,1082.22,2046.53,1116.48,2046.22,1142.74Z"/><path class="cls-12" d="M2045.52,1140s-10.74,17.57-17.78,17-16.55-3.25-22,2-14.33,18.74-11.86,22.34,12.41.41,19.55-3.53,18.38,1.94,24.38-2.54,20.34-22.23,20.34-22.23Z"/><path class="cls-7" d="M2041.27,948.58s89.15,83.88,77.57,139.69c-5.27,25.43-21.64,46.88-65.26,81.61,0,0-20.64-14.26-25.17-25.84,0,0,39.59-55.77,38.06-65.27-1.87-11.62-28.9-40.77-38.6-45.3S2019.06,958.31,2041.27,948.58Z"/><path class="cls-12" d="M2027.74,1157s-9.4-4.11-12.42-5.87-2.35,1.09-1.43,2.51,3.44,4.62,7.13,5A11.77,11.77,0,0,0,2027.74,1157Z"/><path class="cls-15" d="M460.14,974.67c-3.22-6.22,70.32-28.6,71.48,32.75,0,0,137.77-3.39,72-80.18-22.77-26.58-20.43-48.56-19.75-69s-14.18-79.93-65.17-73.94c0,0-13.36-5.44-30,3.21C450.77,807.15,365.86,997.29,460.14,974.67Z"/><path class="cls-12" d="M685.37,1031s9-13.65,16.19-13.92,20.62-4,19.55-1.34-9.37,2.95-10.18,4.55,12.32,4,16.06,4.29,12.59,0,12.32,1.87-15.92,9.64-27,8.57-24.69,3.21-24.69,3.21Z"/><path class="cls-7" d="M555.68,1035.4a134,134,0,0,0,13.72,20.74c10.65,13.35,27.08,28.76,47.71,31.81,9.86,1.45,19.49-.67,28.35-4.6h0c25.06-11.12,43.9-36.7,43.9-36.7,4.41-12.05-2.81-20.21-2.81-20.21s-50.6,11.38-55.41,9-34.45-68.13-39.78-79.08c-11.34-23.26-29.34-29.94-29.34-29.94Z"/><path class="cls-8" d="M569.4,1056.14c10.65,13.35,27.08,28.76,47.71,31.81,9.86,1.45,19.49-.67,28.35-4.6-1,.12-26,3.22-36-14.63-10.17-18.2-21.17-47.11-36.29-37.47C566.67,1035.41,567,1045.74,569.4,1056.14Z"/><path class="cls-16" d="M366.93,1581.5s-15.43,14.09-12.42,24.1,16.94,16.69,18.82,28.92,9.42,18.91,16.19,18.91h32.31s5-8.61-7.06-11.21-16.59-17-15.83-30.31-1.13-31.15-1.13-31.15l-25.61-5.93Z"/><path class="cls-16" d="M497.59,1587.49s-5.55,59.68,1.23,63l86.73-.17s0-10-13.93-12.24-38.4-10.38-42.55-28.55S497.59,1587.49,497.59,1587.49Z"/><path class="cls-7" d="M430.87,995.14a346.12,346.12,0,0,0,0,40.09c.86,14.5,15.52,33.91,17.6,38.71,5.22,12,11.11,14,11.11,14l45.54,11.16,16,3.92,50.5-15.08s23-64.2,13.76-100.33-23.34-61.24-23.34-61.24-34.23-13.5-94.86-3.42Z"/><path class="cls-17" d="M444.2,1041.15c.86,14.49,2.19,28,4.27,32.79,5.22,12,11.11,14,11.11,14l45.54,11.16,19.78-5.81s-66-10-58.71-66.82Z"/><path class="cls-14" d="M568.42,1097.69s25,77.84,26.61,104.34-47.8,376.46-49.79,388.67c-1.87,11.51-16.17,18.84-16.17,18.84s-6.57,3.88-16,1.23c-13-3.67-17.13-8.07-17.13-8.07s-19.47-249.59-7.42-338.75a1413.85,1413.85,0,0,0,12.19-166.26Z"/><path class="cls-18" d="M462.47,1095.37s-38.14,51.18-41.7,85.78-5.58,156.12-13.16,189.85-35.41,98.63-35.41,203.83c0,0,2.9,6,11.83,9.24a96.12,96.12,0,0,0,10.4,2.88,16.35,16.35,0,0,0,18.29-8.68c18.82-37.89,78.76-160.1,81.84-185.46,2.17-18,21.1-136.77,62.38-206.48,9.92-16.74-6.08-83.3-6.08-83.3Z"/><path class="cls-14" d="M572.41,1085.68s-10,7.94-30,8.34c-23.82.48-82.85-6.07-82.85-6.07a48.73,48.73,0,0,0-2.51,15.06s72.09,18.19,113.86,2.66C570.93,1105.67,576.31,1095.53,572.41,1085.68Z"/><path class="cls-19" d="M537.27,1102.24c0-6.78,4.88-12.3,10.87-12.3s10.87,5.52,10.87,12.3-4.87,12.31-10.87,12.31S537.27,1109,537.27,1102.24Zm3.61,0c0,4.8,3.26,8.7,7.26,8.7s7.27-3.9,7.27-8.7-3.26-8.7-7.27-8.7S540.88,1097.45,540.88,1102.24Z"/><path class="cls-6" d="M389.64,1106.43l58.54,51a10.15,10.15,0,0,0,14.32-1l74.7-85.78a10.16,10.16,0,0,0-1-14.33l-58.54-51a10.15,10.15,0,0,0-14.33,1l-74.69,85.78A10.15,10.15,0,0,0,389.64,1106.43Z"/><path class="cls-12" d="M476.24,1100c.83.22,31.1,3.78,31.1,10,0,7.23-8.87,16.92-17.23,16.46-3.39-.18-19-14.54-19-14.54Z"/><path class="cls-12" d="M491.78,919.65c3.45-8.35,5.45-21.07,5.4-36.81l2.28.45,38.45,7.61S537,903,537,914.4v.28c0,9.9,6.68,19.83-9.19,23.76C522.91,939.65,484.55,937.19,491.78,919.65Z"/><path class="cls-20" d="M537.91,890.9S537,903,537,914.4c-21.51-.61-32.89-20.23-37.55-31.11Z"/><path class="cls-12" d="M545.09,901.69s-50.9.84-50.93-30.86-6.63-53,25.87-54.83,38.82,10.22,41.4,20.8S558.33,900.66,545.09,901.69Z"/><path class="cls-15" d="M543.21,815.23s-13.94,37.19-35.32,42.69-30.67-.23-30.67-.23,16.41-13,19.81-35.78C497,821.91,532.7,797.52,543.21,815.23Z"/><path class="cls-15" d="M539.75,818.25s10.34,3.86,14.59,11.4a51.25,51.25,0,0,1,6.88,29.1s10.5-25.28-1.3-39.58C547.41,804,539.75,818.25,539.75,818.25Z"/><path class="cls-12" d="M476.24,1100s7.25-2.33,12.1-1.65,8.43-.1,8.43,1.26-6.25,2-7.58,2.64S476.24,1100,476.24,1100Z"/><path class="cls-7" d="M467.19,923s-36.13,2.54-50,36.2-40.12,90.2-40.12,99.71,14.68,38.82,93.51,55.68c0,0,8.15-8.58,7.66-15.36,0,0-49.21-42.27-49.08-47.21.25-9.34,8.07-21.68,51.27-64.9C492.2,975.33,467.19,923,467.19,923Z"/><path class="cls-6" d="M1476.9,636.08H1086.47a35.65,35.65,0,0,0-25.18,10.42L785.22,922.58a35.6,35.6,0,0,0-10.43,25.18v390.43a35.61,35.61,0,0,0,10.43,25.18l276.07,276.07a35.61,35.61,0,0,0,25.18,10.43H1476.9a35.6,35.6,0,0,0,25.18-10.43l276.08-276.07a35.66,35.66,0,0,0,10.43-25.18V947.76a35.64,35.64,0,0,0-10.43-25.18L1502.08,646.5A35.63,35.63,0,0,0,1476.9,636.08Z"/><path class="cls-21" d="M1449.44,1599.12h-335.5a50.83,50.83,0,0,1-36.18-15L840.52,1346.9a50.83,50.83,0,0,1-15-36.18V975.22a50.83,50.83,0,0,1,15-36.18l237.23-237.23a50.83,50.83,0,0,1,36.18-15h335.5a50.82,50.82,0,0,1,36.17,15l237.24,237.24a50.82,50.82,0,0,1,15,36.17v335.5a50.83,50.83,0,0,1-15,36.18l-237.24,237.23A50.79,50.79,0,0,1,1449.44,1599.12Zm-335.5-877.51a16.27,16.27,0,0,0-11.58,4.8L865.13,963.65a16.22,16.22,0,0,0-4.8,11.57v335.5a16.26,16.26,0,0,0,4.79,11.58l237.24,237.24a16.26,16.26,0,0,0,11.58,4.79h335.5a16.3,16.3,0,0,0,11.58-4.79l237.23-237.24a16.26,16.26,0,0,0,4.79-11.58V975.22a16.26,16.26,0,0,0-4.79-11.57L1461,726.41a16.3,16.3,0,0,0-11.58-4.8Z"/><path class="cls-21" d="M1552.28,1155.74l-6.83-5.92a41.44,41.44,0,0,0-58.26,4.19l-38.6,44.59a9.11,9.11,0,0,1-16-6h0a97.79,97.79,0,0,0-.56-10.46V901.47A33.61,33.61,0,0,0,1398.52,868h-2.47a33.61,33.61,0,0,0-33.52,33.52v182.69a8,8,0,0,1-8,8h0a8.86,8.86,0,0,1-8.86-8.86V866.07a32.5,32.5,0,0,0-32.4-32.4h-4.72a32.5,32.5,0,0,0-32.4,32.4v218.69a7.43,7.43,0,0,1-7.43,7.43h0a9.46,9.46,0,0,1-9.46-9.46V908.4a33.61,33.61,0,0,0-33.51-33.52h-2.48a33.61,33.61,0,0,0-33.52,33.52v175.75a8,8,0,0,1-8,8h0a8.85,8.85,0,0,1-8.85-8.85V945.84a33.62,33.62,0,0,0-33.52-33.52h-2.47a33.62,33.62,0,0,0-33.52,33.52v241.43c0,.67,0,1.33.06,2,0,1.12-.06,2.25-.06,3.38v132.89c0,54,44.19,98.2,98.2,98.2H1334.4a98.35,98.35,0,0,0,82.59-45.24,208,208,0,0,1,17.4-23.5l122.08-141A41.41,41.41,0,0,0,1552.28,1155.74Z"/></g></g></svg>