<svg xmlns="http://www.w3.org/2000/svg" viewBox="0 0 2981.59 1666.89"><defs><style>.cls-1{isolation:isolate;}.cls-2{fill:#eafcfc;}.cls-3{fill:#29446d;}.cls-4{fill:#184655;}.cls-5{fill:#3c8f7c;}.cls-6{fill:#355389;}.cls-7{fill:#327765;}.cls-8{fill:#50bfa5;}.cls-9{fill:#96d9c9;}.cls-10{fill:#fae0b2;}.cls-11,.cls-14{fill:#f7cc7f;}.cls-12,.cls-20{fill:#fff;}.cls-13{fill:#86b1f2;}.cls-14{mix-blend-mode:multiply;}.cls-15{fill:#b75742;}.cls-16{fill:#f47458;}.cls-17{fill:#f48c7f;}.cls-18{fill:#f7a491;}.cls-19{fill:#13375b;}.cls-20{opacity:0.8;}</style></defs><g class="cls-1"><g id="Layer_2" data-name="Layer 2"><g id="Layer_1-2" data-name="Layer 1"><path class="cls-2" d="M1109.08,12.5s727.76,102.38,660,286.06,362.15-65.24,533.72,1c122.14,47.15,73.31,190.68,132.4,248.51,135.48,132.6,274-34.38,446.48,65.81s-25.93,1015.44-96.14,1015.31l-2532.43,17-31.82,1s-284.85-268.86-108.31-426,28.16-230.3,6.71-291c-24.64-69.74,4.15-267.85,255.44-355,182.13-63.18,187-284.06,179.62-324.14C554.77,251,484.33-66,1109.08,12.5Z"/><path class="cls-3" d="M1965.75,1058c.07-2.37,3.34-4.2,5.07-2.11s1.66.68,3.34,5.2a146.8,146.8,0,0,0,20.21,36.51c15.85,21,31.54,31.63,49.35,42.14-7.34-16.5-12.26-34.12-12.88-51.88-.23-6.48-.1-13.19,2.67-19.13.78-1.66,3.76-1.32,4.06.53,1.49,9.17-.71,16.08,2.26,32.49,7.1,39.15,35.19,80.67,62.28,109.75-5.19-49.22-7.71-105.17,1.58-154.83,1.52-8.14,3.95-15.89,6.2-23.85.53-1.87,3.19-1.07,2.87.79-.47,2.65-4.9,36.82-5.17,39.18-4.29,37.81-3.43,79.7-.09,117.91a236,236,0,0,0,41.66-96.3c2-10.25,2.46-20.83,5.19-30.9.38-1.38,2.67-1.53,3,0,2.8,15.08-2.81,41.75-6.89,56.24a231.26,231.26,0,0,1-39.64,79.19c-.71.92,29.08,230.69,28.28,233.6-1.35,4.9-9.92,8.35-11.24-.36-.55-3.54-16.91-143.25-24.3-208-2.79-1.53-4.59-4.26-11.77-12.31-16.61-18.64-33-41.83-44-63.7-6.59-.37-54.18-23.47-77.79-76.08-.68-1.52-3.74-8.64-4.18-10.23A12,12,0,0,1,1965.75,1058Z"/><path class="cls-4" d="M2118.58,983.49c-.54-7.07-.83-14.3-.83-21.66,0-82.07,34.91-148.6,78-148.6s78,66.53,78,148.6q0,11-.82,21.66Z"/><path class="cls-5" d="M2030.34,947q-.83-15-.83-30.55c0-115.74,34.91-209.56,78-209.56s78,93.82,78,209.56q0,15.57-.83,30.55Z"/><path class="cls-5" d="M2058.88,1075.39q.82-10.62.83-21.67c0-82.06-34.91-148.59-78-148.59s-78,66.53-78,148.59q0,11,.82,21.67Z"/><path class="cls-4" d="M2183.67,1075.39q1-15,1-30.55c0-115.74-44.26-209.57-98.85-209.57S1987,929.1,1987,1044.84q0,15.56,1,30.55Z"/><path class="cls-5" d="M2107.78,835.27c27.28,0,51.66,29.77,67.74,76.45a55.47,55.47,0,0,1,25.92-6.59c48.44,0,87.71,66.53,87.71,148.59q0,11-.93,21.67H2021q-.91-15-.93-30.55C2020.07,929.1,2059.34,835.27,2107.78,835.27Z"/><path class="cls-5" d="M1929,1333c-200.33,17.12-460,115.13-718.75,192.31,478.4,52.08,1181.52,137.09,1225.24,138.21l-74-.07,104.41,1.72,284.92-4C2617.86,1571.87,2129.3,1315.83,1929,1333Z"/><rect class="cls-6" x="240.77" y="1284.15" width="14.74" height="163.39"/><polygon class="cls-7" points="248.14 967.19 200.02 1356.03 296.27 1356.03 248.14 967.19"/><polygon class="cls-8" points="217.47 1215 286.1 1273.83 283.46 1252.52 219.6 1197.77 217.47 1215"/><polygon class="cls-8" points="228.02 1129.77 270.04 1144.13 268.07 1128.17 229.84 1115.1 228.02 1129.77"/><rect class="cls-6" x="428.75" y="1244.45" width="14.58" height="255.37"/><polygon class="cls-7" points="439.85 789.15 368.02 1304.62 511.69 1304.62 439.85 789.15"/><polygon class="cls-8" points="372.58 1271.91 501.47 1231.29 499.52 1217.31 374.71 1256.65 372.58 1271.91"/><polygon class="cls-8" points="395.27 1109.07 480.68 1082.15 478.74 1068.17 397.4 1093.81 395.27 1109.07"/><path class="cls-9" d="M95.23,1658.9s298.92-236.18,684.36-250.69c129.43-4.87,1592.18,251.36,1655.86,253.69Z"/><path class="cls-3" d="M2766.45,1474.83c11.34-29.5,22.45-59,30.51-89.7,24.81-94.44,18.82-163.28,17.89-196.37-.12-4.37,6.9-5.57,7.51-1.06,2.11,15.53,2.58,31.32,2.68,47a594.88,594.88,0,0,1-4.83,79.45c18.19,4.74,35.41-2.36,49.49-15.11,24.27-22,32.94-51.26,36.75-83.7.39-3.31.51-6.45,3.21-8.37.6-1.7,3.09-2.22,3.7.32,3.85,4,2,11.89,1.39,17-8,69.09-50,102.58-83.82,102.29a48.43,48.43,0,0,1-12.25-1.34q-3.66,24.8-9.41,49.18c-7.3,30.95-17.55,60.81-28.83,90.39-38.56,101.16-50.86,152.84-61.82,182.11-1.66,5.89-10.36,3.43-8.84-2.53C2710.32,1642.25,2740.41,1542.59,2766.45,1474.83Z"/><path class="cls-3" d="M2612,1208.89c.36-2.18,1.63-3.62,2.12-5.66.64-2.69,5-3,5.48,0,.27,1.69,1.2,2.73,1.57,4.46,1.17,5.6-1.67,37.07,5.75,85.24,2,12.8,4.16,25.53,8.42,37.75,6.89,19.76,19.45,41,35.06,54.51a827.38,827.38,0,0,1,5.57-84.43q3-25.17,7.69-50.06,2.26-12.14,4.9-24.17c1.85-8.43,3.58-16.51,7.62-24.14,1.23-2.34,4.75-1.25,4.76,1.35,0,7.48-1.48,14.37-3,21.63s-3,14.5-4.36,21.78c-10,53.94-13.81,101.83-13.77,155.84,16.55-20.81,31-45.73,41.73-70.21a323.75,323.75,0,0,0,25.17-93.22q1.52-13.49,1.82-27.08.15-7,.29-14c0-2.41,1-9.68,5-7.55,3.73,2,3.38,6.33,3.69,10.15.34,4.16.37,8.31.32,12.49q-.15,12-1.27,24c-5.37,57.7-27.14,114.74-60.25,161.48-5.05,7.12-10.26,14.76-16.39,21,1.41,92.36,15.13,209,15.37,218.35a37,37,0,0,1-.71,6.19c-.63,4.2-6.14,3.22-7.26,0-2.13-6.08-1.91-8.45-5.08-42.14-5.66-60.09-12-197.73-12-203.31-19.66-14.12-33.58-35.85-42.68-58.54-4.82-12-7.65-24.43-9.78-37.25C2610.53,1259.62,2610.75,1216,2612,1208.89Z"/><path class="cls-4" d="M2747.07,1133.51a184.36,184.36,0,0,1-1.13-20.38c0-77.24,48-139.85,107.2-139.85s107.21,62.61,107.21,139.85a181.93,181.93,0,0,1-1.14,20.38Z"/><path class="cls-5" d="M2625.75,1099.14c-.75-9.38-1.13-19-1.13-28.75,0-108.92,48-197.22,107.2-197.22s107.2,88.3,107.2,197.22c0,9.77-.39,19.37-1.13,28.75Z"/><path class="cls-4" d="M2836.57,1220c.94-9.39,1.44-19,1.44-28.75,0-108.93-60.85-197.23-135.9-197.23s-135.9,88.3-135.9,197.23q0,14.64,1.43,28.75Z"/><path class="cls-5" d="M2732.22,994c37.52,0,71,28,93.14,72a105.25,105.25,0,0,1,35.64-6.21c66.6,0,120.59,62.61,120.59,139.85a162.82,162.82,0,0,1-1.28,20.39h-367.4c-.84-9.39-1.28-19-1.28-28.75C2611.63,1082.32,2665.62,994,2732.22,994Z"/><rect class="cls-10" x="585.23" y="1147.1" width="1234.56" height="414.94"/><polygon class="cls-11" points="1067.97 1562.05 581.56 1562.05 581.56 1147.62 826.6 699.71 1067.97 1147.1 1067.97 1562.05"/><rect class="cls-11" x="1477.1" y="1539.32" width="96.82" height="34.69"/><rect class="cls-12" x="1125.73" y="1221.35" width="116.8" height="232.6"/><rect class="cls-13" x="1081.08" y="1288.36" width="211.75" height="98.57" transform="translate(2524.61 150.7) rotate(90)"/><rect class="cls-12" x="1236.08" y="1221.35" width="116.8" height="232.6"/><rect class="cls-13" x="1185.78" y="1288.36" width="211.75" height="98.57" transform="translate(2629.31 46) rotate(90)"/><rect class="cls-12" x="711.19" y="1221.35" width="116.8" height="232.6"/><rect class="cls-13" x="666.54" y="1288.36" width="211.75" height="98.57" transform="translate(2110.06 565.24) rotate(90)"/><rect class="cls-12" x="821.53" y="1221.35" width="116.8" height="232.6"/><rect class="cls-13" x="771.24" y="1288.36" width="211.75" height="98.57" transform="translate(2214.76 460.54) rotate(90)"/><path class="cls-12" d="M826.93,1097.61H748.49v-77.76a78.44,78.44,0,0,1,78.44-78.44h0Z"/><path class="cls-13" d="M756.51,1090.61v-76a66.2,66.2,0,0,1,66.2-66.2h0v142.2Z"/><path class="cls-12" d="M901,1097.61H822.59V941.41h0A78.44,78.44,0,0,1,901,1019.85Z"/><path class="cls-13" d="M826.82,1090.61V948.41h0a66.19,66.19,0,0,1,66.19,66.2v76Z"/><rect class="cls-12" x="1539.61" y="1221.35" width="116.8" height="232.6"/><rect class="cls-13" x="1494.96" y="1288.36" width="211.75" height="98.57" transform="translate(2938.49 -263.19) rotate(90)"/><rect class="cls-12" x="1649.96" y="1221.35" width="116.8" height="232.6"/><rect class="cls-13" x="1599.66" y="1288.36" width="211.75" height="98.57" transform="translate(3043.19 -367.89) rotate(90)"/><rect class="cls-11" x="1087.31" y="1465.64" width="96.82" height="34.69"/><rect class="cls-11" x="1145.71" y="1516.18" width="96.82" height="34.69"/><rect class="cls-14" x="581.56" y="1398.36" width="48.41" height="34.69"/><rect class="cls-14" x="581.48" y="1453.95" width="80.66" height="34.69"/><rect class="cls-14" x="581.48" y="1342.77" width="80.66" height="34.69"/><rect class="cls-14" x="638.94" y="1124" width="96.82" height="34.69"/><rect class="cls-14" x="672.15" y="1172.68" width="96.82" height="34.69"/><rect class="cls-14" x="1019.55" y="1228.26" width="48.41" height="34.69"/><rect class="cls-14" x="971.14" y="1291.6" width="96.82" height="34.69"/><rect class="cls-14" x="1019.55" y="1354.94" width="48.41" height="34.69"/><rect class="cls-14" x="886.73" y="1477.09" width="96.82" height="34.69"/><rect class="cls-14" x="954.1" y="1033.5" width="96.82" height="34.69"/><rect class="cls-14" x="971.14" y="978.63" width="96.82" height="34.69"/><rect class="cls-14" x="838.32" y="818.86" width="96.82" height="34.69"/><rect class="cls-14" x="963.97" y="1544.19" width="96.82" height="34.69"/><rect class="cls-11" x="1404.63" y="1261.16" width="96.82" height="34.69"/><rect class="cls-11" x="1491.2" y="1130.27" width="96.82" height="34.69"/><rect class="cls-11" x="1325.18" y="1164.96" width="96.82" height="34.69"/><rect class="cls-11" x="1142.81" y="1129.76" width="96.82" height="34.69"/><rect class="cls-11" x="1369.01" y="1316.03" width="96.82" height="34.69"/><rect class="cls-11" x="1407.51" y="1370.89" width="96.82" height="34.69"/><rect class="cls-11" x="1350.71" y="1478.38" width="96.82" height="34.69"/><rect class="cls-11" x="1557.9" y="1481.61" width="96.83" height="34.69"/><rect class="cls-11" x="1758.29" y="1170.28" width="61.51" height="34.69"/><rect class="cls-11" x="1794.48" y="1243.82" width="25.31" height="34.69"/><rect class="cls-11" x="1771.38" y="1466.62" width="48.41" height="34.69"/><rect class="cls-15" x="561.42" y="1561.53" width="1277.94" height="29.8"/><rect class="cls-16" x="580.99" y="1591.33" width="1238.8" height="72.82"/><path class="cls-17" d="M826.6,666.42l-275.8,481.2h30.76l245-427.54,238.09,427.54h37.71S831.09,674.34,826.6,666.42Z"/><polygon class="cls-15" points="1869.61 1147.62 1102.4 1147.62 826.6 666.42 1593.81 666.42 1869.61 1147.62"/><path class="cls-7" d="M2556.21,1412.68l17.49-22.35c12.65-16.81,10.07-40.1-5.76-52h0c-39.9-30-98.09-20-130,22.41l-23.31,31c-10.21,13.58-26.28,19.94-41.3,17.9-13.64-1.85-27.59,4.47-36.26,16l-12.29,16.33a74.5,74.5,0,0,0-13.24,60.91,45.17,45.17,0,0,1-8.28,36.93l-17.4,23.13c-19.23,25.57-15.31,61,8.77,79.09l13.73,10.33c24.07,18.1,59.18,12.05,78.41-13.52h0c20.34-35.27,43.94-46.71,63-49.06a106.17,106.17,0,0,0,71.64-41.64l2.46-3.26a105.43,105.43,0,0,0,19.06-84.77C2540.29,1447.24,2542.34,1431.11,2556.21,1412.68Z"/><path class="cls-8" d="M2210,1658.24s90.6-118.66,147-138.21c40-13.87,12.4,44.94,12.4,44.94s91.58-100.44,128.53-90.52c33.88,9.1,0,77.36,0,77.36s38.16-37.79,84.43-37.79-35.76,141.53-35.76,141.53Z"/><path class="cls-9" d="M2497.9,1657.57s62.53-176.32,138.9-157.25c61.89,15.46,17,109.84,20.8,106.07s37-60.1,90.68-60.1-16.49,76-16.49,76,114.43-35.74,123.39,1.79c7.44,31.14-34.15,33.47-34.15,33.47Z"/><path class="cls-4" d="M2362.22,1222.11c.53-12.9-1.36-25.63-7.1-37.64-4.95-10.33-17.18-16.19-28.33-16.2-35.42,0-39.92,47-62.47,65.07-6.89,5.54-14.59,10.05-21.11,16-24.07,22.05-13.22,62.88,8.88,82.22,15.34,13.42,39.44,21.05,58.34,10.55,9.87-5.47,17.36-14.57,22.7-24.55,7.57-14.15,12.45-30.48,17.84-45.57C2356.71,1256,2361.51,1239.25,2362.22,1222.11Z"/><path class="cls-18" d="M2244.25,1157.46c1.84-.87,4.38,8.29,6.38,8.58s.83-12,2.49-12.62c3.05-1.14,2.09,13.38,3.53,12.94s3.16-15.36,5.85-14-3.41,15.29-1.65,15.5,4.49-13.51,8.26-13.67c2-.08-7.66,22.87-6.3,25.27s10.21-3.83,11.82-2-16.92,10-17.46,11.4-10,32.94-11.51,43.64c3.63.89,27,9.54,30.44,10.3,0,0,.19,13.09-1.79,22.29-11.42-3.2-49.51-14.54-51.21-17.44-5.18-8.83,15.71-53.46,20-61.16s2.25-11.63,3.34-16.65S2242.4,1158.34,2244.25,1157.46Z"/><path class="cls-18" d="M2289.82,1654.46c2.94-2.17,5.32-3.6,14.73-8.16.61-.3,2.84-1.73,3.65-2.22a28.56,28.56,0,0,0,5.86-5.19c1.68-1.88,2.49-7.91,2.87-12.71-1-10.74-16.53-182.9-19.81-201.54-3.38-19.23,1.77-48.58,1.77-48.58l12-4.53,22.8,79-1.8,60.14s5.36,17.34,6,27.7-7.75,94.44-7.75,94.44h0a44.52,44.52,0,0,0,.45,7.43c.62,3.14,4.07,9.62,2.48,12.58s-3.38,3.7-3.38,3.7l-41,.66C2286.55,1657.23,2288,1655.79,2289.82,1654.46Z"/><path class="cls-18" d="M2352,1369.89s14.22,21.46,17.61,39.22-2.49,72.33,4,95.6c3.53,12.6,16.9,32,18.93,48.33s9.1,63.26,9.1,63.26h0c1.07,4.93,2.75,11,4.92,13.87,1.33,1.74,3.77,3.93,5.36,7.07,2.49,4.88,1.11,12.16-.72,16.16-.94,2.06.07,2-2.08,2.71a13.15,13.15,0,0,1-15.79-7.43,37.86,37.86,0,0,1-3.1-13.66,63.8,63.8,0,0,0-2.24-14.44h0l-45.47-111.53-32.91-96.25-8.43-49.57Z"/><path class="cls-4" d="M2392.11,1645.48c9.84,1.8,16.39-4,19.79-8.29,2.51,4.89,3.72,12.19,1.89,16.21-1.62,3.54-6.36,3.44-10.09,3.58-3.94.14-7-2-8.95-5.49A33.47,33.47,0,0,1,2392.11,1645.48Z"/><path class="cls-4" d="M2308.2,1644.08c10.84,2.78,18.84.89,23.32-.92,1.16,3.28,2.69,7.4,1.88,9.77-1,2.91-2.41,3.57-3.66,3.6-9.9.26-36.25.61-43.79.71a1.23,1.23,0,0,1-1-2C2286.86,1653,2307.4,1644.57,2308.2,1644.08Z"/><path class="cls-19" d="M2342.76,1507l-2.56.17h-.14l-2.54.15h-.15l-2.56.13h-.14l-2.61.1c-9.71.32-21.7.2-29.4-1.11-3.92-39.27-5.38-75.12-6.83-83.05-3.16-17.23,1.16-76.74,1.16-76.74l54.58,5.82s5.71,2.54,20.06,37.77c10,24.47-3,90,3.75,113.22C2375.38,1503.41,2360.3,1505.76,2342.76,1507Z"/><path class="cls-15" d="M2273.13,1239.81s37.62,2.75,49.28,5.48c12,2.81,14.36,25.85,6.94,34.26s-66.29-11.52-66.29-11.52Z"/><path class="cls-16" d="M2340.58,1242.4s19.56-1.21,27.3,7-17.17,73-18.57,83.48a42.81,42.81,0,0,0,2.26,19.55s-42.24,15-55.38,6.58c0,0-1.22-63.16.19-70.62s14.14-37,17-40S2340.58,1242.4,2340.58,1242.4Z"/><path class="cls-18" d="M2334.07,1217s.1.56.28,1.51c.87,4.57,4.23,19.74,6.5,23.91,2.74,5-9.39,21.1-21.06,19.14-3.48-.58,2.93-14.76,2.62-16.27-.59-2.87-1.39-6.79-2.2-10.81-.47-2.27-.93-4.57-1.37-6.73l-2.27-11.17Z"/><path class="cls-16" d="M2334.35,1218.51c-.18-1-.28-1.51-.28-1.51l-17.5-.42,2.27,11.17c.43,2.14.9,4.43,1.36,6.69a16.58,16.58,0,0,0,8.35-4.07,21.41,21.41,0,0,0,6.33-9.15C2334.66,1220.15,2334.48,1219.22,2334.35,1218.51Z"/><path class="cls-18" d="M2322.29,1178.35s8.25-.92,13.42,5.58,10.74,26.58-2.1,37.51-25.53-1.44-27.41-14.55S2303.58,1177.88,2322.29,1178.35Z"/><path class="cls-18" d="M2302.4,1206.69c1.53,2.9,4.1,4.5,5.74,3.58s1.73-4,.2-6.9-4.11-4.5-5.75-3.58S2300.86,1203.8,2302.4,1206.69Z"/><path class="cls-4" d="M2321.37,1176.21s11,19.1,18.9,20,8.91,11,8.91,11-2.81-23.39-10.62-27.9S2321.37,1176.21,2321.37,1176.21Z"/><path class="cls-18" d="M2338.2,1201c-.64,3.39.65,6.5,2.88,7s4.56-2,5.2-5.34-.65-6.51-2.88-6.95S2338.84,1197.6,2338.2,1201Z"/><path class="cls-15" d="M2440.32,1449.27a128.94,128.94,0,0,0-17.22-15.62c-8.65-6.28-16.7-9.43-26.9-6-9.33,3.39-13.82,8.85-17.51,12.26,0,0-7.94,8.57-12.68,17l6.77,2.92c1.1-3.7,5.4-12.18,10.84-18.5,6.6-7.76,12.92-9.95,12.89-9.94a23.72,23.72,0,0,1,7-1.63,18.31,18.31,0,0,1,2.91.07c11.52,1.32,24.36,16.69,27.83,23.59Z"/><path class="cls-16" d="M2378.93,1512.4l66.13-7.6a11.84,11.84,0,0,0,10.28-14.82l-15.23-48.42-74,8.5-.57,51A11.85,11.85,0,0,0,2378.93,1512.4Z"/><path class="cls-15" d="M2365.56,1501l.57-51,15-1.72-.57,51a11.86,11.86,0,0,0,13.38,11.36l-15,1.72A11.85,11.85,0,0,1,2365.56,1501Z"/><path class="cls-12" d="M2327.37,1209.83l-11.25,1.61s.87,4.24,5.84,3.67C2328,1214.42,2327.37,1209.83,2327.37,1209.83Z"/><path class="cls-15" d="M2410.66,1437.21l-1.52-3.76-2.63,1.9-1.8,5.18,1.28,1S2409.53,1438.13,2410.66,1437.21Z"/><path class="cls-18" d="M2397.8,1412.36c.07-.31-12.25-52.62-17.24-64.19s-24.34-65.3-24.34-65.3l19.65-7.95s18.85,43.47,26.22,62.48,6.95,55.11,7.28,65c0,.14,1.08,8.37,1.08,8.51h0a16,16,0,0,0,.6,2.18,30.74,30.74,0,0,1,1.19,4.09,12.37,12.37,0,0,0,1.08,1.89c.3.48,1,7.2,1.12,8.29a16.09,16.09,0,0,1-.33,3.54l.26,4.5c.2,3.31-3.24,2.44-3.24,2.44.09,1.56-.46,2.37-1.34,2.67a6.93,6.93,0,0,1-2.08.1c-.16.07-.23.56-.23.56.09,1-1,1.76-1.75,1.9a3.32,3.32,0,0,1-2.38-.77c-.36-.43-.61-.37-.61-.37-.74.62-3.53.6-4.18-.3s-1.24-5.66-1.53-6.08a5.13,5.13,0,0,1-1-1.85c-.09-.68-2.38-5.55-2.51-6.52s1.28-4.25,1.6-6.22,2.23-5,2.69-5.9a7.41,7.41,0,0,0,0-2.7Z"/><path class="cls-16" d="M2367,1317.26s-22.1-33.06-24.09-45.2,9-27.18,20.11-26,30.23,56.48,30.23,56.48Z"/><polygon class="cls-10" points="207.45 1661.33 166.43 1661.33 166.43 1398.97 186.94 1377.46 207.45 1398.97 207.45 1661.33"/><polygon class="cls-10" points="329.86 1661.33 288.84 1661.33 288.84 1398.97 309.35 1377.46 329.86 1398.97 329.86 1661.33"/><polygon class="cls-10" points="268.65 1661.33 227.63 1661.33 227.63 1398.97 248.14 1377.46 268.65 1398.97 268.65 1661.33"/><polygon class="cls-10" points="144.93 1661.33 103.91 1661.33 103.91 1398.97 124.42 1377.46 144.93 1398.97 144.93 1661.33"/><polygon class="cls-10" points="83.73 1661.33 42.71 1661.33 42.71 1398.97 63.22 1377.46 83.73 1398.97 83.73 1661.33"/><rect class="cls-10" x="65.33" y="1464.83" width="307.59" height="14.45"/><polygon class="cls-10" points="394.22 1661.33 353.2 1661.33 353.2 1398.97 373.71 1377.46 394.22 1398.97 394.22 1661.33"/><polygon class="cls-10" points="516.63 1661.33 475.61 1661.33 475.61 1398.97 496.12 1377.46 516.63 1398.97 516.63 1661.33"/><polygon class="cls-10" points="455.43 1661.33 414.41 1661.33 414.41 1398.97 434.92 1377.46 455.43 1398.97 455.43 1661.33"/><rect class="cls-10" x="368.02" y="1464.83" width="191.67" height="14.45"/><polygon class="cls-10" points="581 1661.33 539.98 1661.33 539.98 1398.97 560.49 1377.46 581 1398.97 581 1661.33"/><path class="cls-5" d="M423.8,1629.62a37.43,37.43,0,0,0,.53-6.29c0-23.81-22.31-43.1-49.83-43.1s-49.84,19.29-49.84,43.1a37.43,37.43,0,0,0,.53,6.29Z"/><path class="cls-8" d="M480.21,1619a75.85,75.85,0,0,0,.52-8.86c0-33.58-22.31-60.79-49.83-60.79s-49.84,27.21-49.84,60.79a73.71,73.71,0,0,0,.53,8.86Z"/><path class="cls-8" d="M462,1656.27a37.31,37.31,0,0,1-.53-6.28c0-23.81,22.31-43.11,49.84-43.11s49.83,19.3,49.83,43.11a38.38,38.38,0,0,1-.52,6.28Z"/><path class="cls-5" d="M382.2,1656.27a58.85,58.85,0,0,1-.67-8.86c0-33.57,28.29-60.79,63.18-60.79s63.18,27.22,63.18,60.79a58.85,58.85,0,0,1-.67,8.86Z"/><path class="cls-8" d="M430.71,1586.62c-17.44,0-33,8.63-43.3,22.18a71.42,71.42,0,0,0-16.57-1.92c-31,0-56.06,19.3-56.06,43.11a33.59,33.59,0,0,0,.6,6.28H486.17a66.25,66.25,0,0,0,.6-8.86C486.77,1613.84,461.67,1586.62,430.71,1586.62Z"/><path class="cls-5" d="M214.67,1528.23c-14.67-22.92-17.41-50.6-17.12-69.78a178.88,178.88,0,0,1,4.2-36.58l-1.07-.37a181.6,181.6,0,0,0-4.23,36.83c-.29,19.37,2.48,47.33,17.33,70.53Z"/><path class="cls-5" d="M205.36,1418.06a15.68,15.68,0,0,1-5.45,11.1,18.17,18.17,0,0,1-3.65-12.49,15.65,15.65,0,0,1,5.45-11.09A18.12,18.12,0,0,1,205.36,1418.06Z"/><path class="cls-5" d="M195.44,1428.94a18.09,18.09,0,0,1,2.47,12.75,16.42,16.42,0,0,1-10-7.65,18.09,18.09,0,0,1-2.47-12.75A16.45,16.45,0,0,1,195.44,1428.94Z"/><path class="cls-5" d="M189.83,1441.74a17.73,17.73,0,0,1,7.49,10.49,14.49,14.49,0,0,1-11.85-2.1,17.68,17.68,0,0,1-7.49-10.48A14.52,14.52,0,0,1,189.83,1441.74Z"/><path class="cls-5" d="M191.56,1459.57a12.9,12.9,0,0,1,5.47,9.19,10.28,10.28,0,0,1-9.83-.81,12.89,12.89,0,0,1-5.48-9.19A10.33,10.33,0,0,1,191.56,1459.57Z"/><path class="cls-5" d="M204.2,1438.45a12.45,12.45,0,0,1,10.58-.61,13.29,13.29,0,0,1-6.62,8.58,12.49,12.49,0,0,1-10.58.62A13.28,13.28,0,0,1,204.2,1438.45Z"/><path class="cls-5" d="M203.82,1450.76a12.45,12.45,0,0,1,10.58-.61,13.29,13.29,0,0,1-6.62,8.58,12.47,12.47,0,0,1-10.59.62A13.33,13.33,0,0,1,203.82,1450.76Z"/><path class="cls-5" d="M193.77,1479.15a6.73,6.73,0,0,1,4.24,3.25,5.54,5.54,0,0,1-4.86,1.13,6.73,6.73,0,0,1-4.24-3.25A5.51,5.51,0,0,1,193.77,1479.15Z"/><path class="cls-5" d="M208.62,1544.42c-33.57-8-59.18-32.86-74.74-52.28a222.3,222.3,0,0,1-26-40.71l-1.37.7a224.21,224.21,0,0,0,26.22,41c15.72,19.61,41.59,44.7,75.58,52.83Z"/><path class="cls-5" d="M108.28,1444a22.18,22.18,0,0,1,3.73,16.57,20.36,20.36,0,0,1-14-8.76,22.18,22.18,0,0,1-3.73-16.57A20.32,20.32,0,0,1,108.28,1444Z"/><path class="cls-5" d="M107.39,1464.85a20.53,20.53,0,0,1,13,10.23,20.36,20.36,0,0,1-16.28,2.46,20.57,20.57,0,0,1-13-10.22A20.34,20.34,0,0,1,107.39,1464.85Z"/><path class="cls-5" d="M112.37,1483.3a20,20,0,0,1,16.13,2.88,21.36,21.36,0,0,1-13.54,9.88,20.08,20.08,0,0,1-16.14-2.88A21.34,21.34,0,0,1,112.37,1483.3Z"/><path class="cls-5" d="M125.74,1500.07a20.08,20.08,0,0,1,16.14,2.88,21.35,21.35,0,0,1-13.54,9.88A20.06,20.06,0,0,1,112.2,1510,21.36,21.36,0,0,1,125.74,1500.07Z"/><path class="cls-5" d="M121.74,1472.19a21.8,21.8,0,0,1,4.78-15,19,19,0,0,1,6.28,13.6,21.75,21.75,0,0,1-4.78,15A19,19,0,0,1,121.74,1472.19Z"/><path class="cls-5" d="M135.69,1489.54a21.87,21.87,0,0,1,4.56-15,19,19,0,0,1,6.48,13.48,21.87,21.87,0,0,1-4.56,15A19,19,0,0,1,135.69,1489.54Z"/><path class="cls-5" d="M147.22,1516.61a8.27,8.27,0,0,1,6.91-1,8.91,8.91,0,0,1-3.92,6,8.19,8.19,0,0,1-6.91,1A9,9,0,0,1,147.22,1516.61Z"/><path class="cls-5" d="M297.49,1591.84l1.46-.09c-2.1-38.41,12-74.54,24.19-98.09a255.61,255.61,0,0,1,27.29-42.39l-1.07-1.1a257.75,257.75,0,0,0-27.46,42.66C309.6,1516.58,295.38,1553,297.49,1591.84Z"/><path class="cls-5" d="M356.73,1449.07c-3.31,5.58-8.07,9-12.9,10a28,28,0,0,1,3.68-17.94c3.31-5.58,8.07-9.05,12.9-10A28,28,0,0,1,356.73,1449.07Z"/><path class="cls-5" d="M339,1455.76a27.54,27.54,0,0,1-5.16,17.45c-3.66-3.72-6.11-9.54-6.34-16.28a27.55,27.55,0,0,1,5.15-17.46C336.33,1443.2,338.77,1449,339,1455.76Z"/><path class="cls-5" d="M324.86,1467.76a27.51,27.51,0,0,1,1.82,18.09c-4.72-1.22-9.11-4.93-11.84-10.68a27.51,27.51,0,0,1-1.82-18.09C317.74,1458.29,322.13,1462,324.86,1467.76Z"/><path class="cls-5" d="M315.14,1497.26a11.5,11.5,0,0,1,1.27,7.51,7.74,7.74,0,0,1-5.26-4.06,11.47,11.47,0,0,1-1.27-7.52A7.76,7.76,0,0,1,315.14,1497.26Z"/><path class="cls-5" d="M310.94,1507.85a11.44,11.44,0,0,1,1.28,7.51,7.72,7.72,0,0,1-5.26-4.06,11.48,11.48,0,0,1-1.28-7.52A7.74,7.74,0,0,1,310.94,1507.85Z"/><path class="cls-5" d="M342.84,1473.5A15.19,15.19,0,0,1,355,1480a16.16,16.16,0,0,1-12.65,6.1,15.2,15.2,0,0,1-12.12-6.46A16.18,16.18,0,0,1,342.84,1473.5Z"/><path class="cls-5" d="M334.8,1488.47a15.23,15.23,0,0,1,12.12,6.46,16.22,16.22,0,0,1-12.66,6.1,15.21,15.21,0,0,1-12.12-6.46A16.18,16.18,0,0,1,334.8,1488.47Z"/><path class="cls-5" d="M321.49,1508.86a9.91,9.91,0,0,1,7.89,4.21,10.53,10.53,0,0,1-8.24,4,9.87,9.87,0,0,1-7.88-4.2A10.56,10.56,0,0,1,321.49,1508.86Z"/><path class="cls-5" d="M172.3,1654.81c0-6.39,38.6,1.15,41.81-7.56s-33.06-9.21-33.06-21,18.49-3.52,29.33-3.52-21.41-5-21.41-9.21,11.32-2,11.32-6.42-59.41-7.76-52.45-18.6,38.88,3.16,47.65-2.45-46.84-11.72-48.22-20.06,41,7.14,47,1.14-67-27.55-63.92-43.39,55.31,20.29,68.37,16.4-65.87-59.5-47.53-81.17,53.37,71.72,65.32,68.38-15-59-2.76-68.69,47.25,78.39,49.46,96.47,6.66-38.9,25.84-45.57.56,35.3,3.89,48.09,18.9-32.8,39.89-29.46-37.94,45-32.1,57.25,51.33-40.82,65.59-26.56-54.8,53.82-51,64.65,45.21-7.73,57.14,4.2-44.51,19.51-52,19.51-36.09,9.41-8.15,7.56S172.3,1661.2,172.3,1654.81Z"/><path class="cls-8" d="M282.34,1662.19s46.48,2.5,60-6,2.85-15.15,2.85-15.15,43-.94,42.88-11.12-10.53-9.6-10.53-9.6,21.7-14.74,17.65-23.94c-6.22-14.12-41.56,10.47-41.56,10.47s11.59-13.76,2.23-17C330.18,1581,282.34,1662.19,282.34,1662.19Z"/><path class="cls-9" d="M395.21,1596.35c4.05,9.2-17.65,23.94-17.65,23.94s15.66-.21,13.12,9.7-41.91,13.2-41.91,13.2,13.75,2.68.22,11.21-66.65,7.79-66.65,7.79Z"/><path class="cls-5" d="M101.84,1619.46a85.59,85.59,0,0,0,.44-8.7c0-33-18.76-59.7-41.89-59.7s-41.89,26.73-41.89,59.7a85.59,85.59,0,0,0,.44,8.7Z"/><path class="cls-8" d="M149.24,1604.79q.45-6,.45-12.27c0-46.5-18.76-84.19-41.89-84.19S65.91,1546,65.91,1592.52q0,6.26.44,12.27Z"/><path class="cls-8" d="M133.91,1656.38a85.72,85.72,0,0,1-.45-8.7c0-33,18.76-59.7,41.89-59.7s41.89,26.73,41.89,59.7a85.74,85.74,0,0,1-.44,8.7Z"/><path class="cls-5" d="M66.87,1656.38c-.37-4-.57-8.1-.57-12.27,0-46.5,23.78-84.19,53.11-84.19s53.1,37.69,53.1,84.19q0,6.26-.56,12.27Z"/><path class="cls-8" d="M107.64,1559.92c-14.66,0-27.75,12-36.4,30.71A38.06,38.06,0,0,0,57.32,1588c-26,0-47.12,26.73-47.12,59.7a75.45,75.45,0,0,0,.5,8.7H154.26q.5-6,.5-12.27C154.76,1597.61,133.66,1559.92,107.64,1559.92Z"/><rect class="cls-15" y="1656.31" width="2878.77" height="10.57"/><path class="cls-20" d="M1165.09,327.16A56.68,56.68,0,0,0,1095.57,285,83.44,83.44,0,0,0,995.2,240.65a102.79,102.79,0,0,0-184.7,18,70.52,70.52,0,0,0-104.83,61.68c0,2.31.12,4.59.34,6.85Z"/><path class="cls-20" d="M1959.39,487.16a39.29,39.29,0,0,1,48.2-29.21,57.83,57.83,0,0,1,69.58-30.76,71.26,71.26,0,0,1,128,12.46,48.89,48.89,0,0,1,72.67,42.76c0,1.6-.08,3.19-.23,4.75Z"/><path class="cls-20" d="M1216.68,530.16a50.72,50.72,0,0,1,62.18-37.69,74.6,74.6,0,0,1,89.77-39.68,91.94,91.94,0,0,1,165.2,16.07A63.09,63.09,0,0,1,1627.59,524c0,2.07-.11,4.11-.3,6.13Z"/></g></g></g></svg>