<svg xmlns="http://www.w3.org/2000/svg" viewBox="0 0 106.8 148.33"><defs><style>.cls-1{fill:#5c79bc;}.cls-2{fill:#a4def6;}.cls-3{fill:#46c6e6;}.cls-4{fill:#6fcff3;}</style></defs><g id="Layer_2" data-name="Layer 2"><g id="Capa_1" data-name="Capa 1"><path class="cls-1" d="M13.29,22.56s2.48-2.27,7.2,1.84L22.69,21S17.38,16.79,13.29,22.56Z"/><path class="cls-1" d="M21.94,12.59S19,16.23,23.23,20.38l-2.85,2.88S13.86,15.26,21.94,12.59Z"/><path class="cls-2" d="M9.92,110.7a25,25,0,0,1,13.21-10.1l19.34-7.17H60.93l19.34,7.17a25,25,0,0,1,13.2,10.1Z"/><path class="cls-3" d="M76.92,148.33H106.8c0-5.1-.34-12.38-.34-12.38-1.75-30.55-24-35.35-24-35.35-17.36-4.21-7.9,22.65-7.9,22.65C74.09,129.72,75.05,138.43,76.92,148.33Z"/><rect class="cls-2" x="39.03" y="75.29" width="25.35" height="24.71"/><path class="cls-4" d="M64.37,86.78V75.29H39V81C46.25,87,55,87.76,64.37,86.78Z"/><path class="cls-1" d="M91.36,148.33c.48-13.32.33-17,.21-21.53-.26-10.12-2.42-18.68-9.1-26.2h0L64.37,94.7s3.8,6.65-12.81,6.65c0,0-10.94-.42-12.53-6.65l-18.36,5.9S5,104.45,2.3,121l9.22,16.95-.33,10.41Z"/><path class="cls-1" d="M84.07,44.4c.72-5.68-.49-11.12-.43-16.73,0-3.76-.69-9.43-5.37-9.9-6.47-.67-8.47,10.52-8.85,15.36-.53,6.69,1.13,13.91,2.41,20.44.47,2.36.42,7.08,3.08,8.22,2.27,1,4.59-1.32,5.76-3C83.47,54.64,83.47,49.16,84.07,44.4Z"/><path class="cls-2" d="M79.27,71.85c-2.56,10-7.08,12.79-7.08,12.79l-6,1.18C62.66,85.38,56.66,84,56.66,84c-13.83-4.7-17.83-6-20-11.22C36.59,72.52,25.79,35,25.79,35,24,15.7,44.23,11.69,47.28,11.18c3-.69,22.26-6,27.94,12.49A100.65,100.65,0,0,1,79.27,71.85Z"/><path class="cls-1" d="M85.62,5c1.1,6,.07,14.29-4.57,18.12-5,4.15-9.37,3-15.44,4.37-6.31,1.4-12.77,2-19.11,3.18-4.44.86-9.57,1.36-11.61,6.07a31.85,31.85,0,0,0-1.41,20.41c1.51,5.06,2,10,3.63,16.55A58.78,58.78,0,0,1,26.93,62c-2.86-5-2.86-5-6.08-13.78-1.89-5.12-3.52-9.63-3.77-14.91-.31-6.82,3-9.79,6.63-16.05A24.65,24.65,0,0,1,38.19,5.46S69.91,7.25,69.32,0c0,0,7.61,2,6.16,7,0,0,8-1.45,6.28-7A7.43,7.43,0,0,1,85.62,5Z"/><path class="cls-2" d="M34.75,55.84s-3.42-7.44-8.79-3c0,0-2.44,1.9.57,6.89,0,0,4.37,7.16,9.61,3.19Z"/><path class="cls-1" d="M34.21,38.48s0,13.33,2.47,20.4l-2.59.51S32.72,50.25,28,50.14Z"/><path class="cls-3" d="M27.93,148.33H0s.1-6.63.11-7.1a131.41,131.41,0,0,1,1.8-19.51c1.68-9.19,6.14-17.33,16-19.67,4.49-1.06,8.48,1.66,10.92,5.35C28.79,107.4,33.23,112.88,27.93,148.33Z"/></g></g></svg>