<svg xmlns="http://www.w3.org/2000/svg" xmlns:xlink="http://www.w3.org/1999/xlink" viewBox="0 0 845.2 583.05"><defs><style>.cls-1{fill:none;}.cls-2{fill:#0d3f67;}.cls-3{clip-path:url(#clip-path);}.cls-4{fill:#1ee3cf;}.cls-5{fill:#7861ff;}.cls-6{fill:#f2f4f6;}</style><clipPath id="clip-path" transform="translate(60.71 48)"><rect class="cls-1" width="750" height="500"/></clipPath></defs><g id="Layer_2" data-name="Layer 2"><g id="BACKGROUND"><rect class="cls-2" x="60.71" y="48" width="750" height="500"/></g><g id="OBJECTS"><g class="cls-3"><polygon class="cls-4" points="169.34 489.09 157.39 479.13 145.44 489.09 133.49 479.13 121.54 489.09 109.6 479.13 97.65 489.09 85.7 479.13 73.75 489.09 61.8 479.13 51.45 487.76 48.26 483.94 61.8 472.65 73.75 482.61 85.7 472.65 97.65 482.61 109.6 472.65 121.54 482.61 133.49 472.65 145.44 482.61 157.39 472.65 169.34 482.61 181.28 472.65 194.82 483.94 191.64 487.76 181.28 479.13 169.34 489.09"/><polygon class="cls-5" points="169.34 502.03 157.39 492.07 145.44 502.03 133.49 492.07 121.54 502.03 109.6 492.07 97.65 502.03 85.7 492.07 73.75 502.03 61.8 492.07 51.45 500.7 48.26 496.88 61.8 485.59 73.75 495.55 85.7 485.59 97.65 495.55 109.6 485.59 121.54 495.55 133.49 485.59 145.44 495.55 157.39 485.59 169.34 495.55 181.28 485.59 194.82 496.88 191.64 500.7 181.28 492.07 169.34 502.03"/><polygon class="cls-5" points="169.34 514.98 157.39 505.02 145.44 514.98 133.49 505.02 121.54 514.98 109.6 505.02 97.65 514.98 85.7 505.02 73.75 514.98 61.8 505.02 51.45 513.65 48.26 509.82 61.8 498.54 73.75 508.49 85.7 498.54 97.65 508.49 109.6 498.54 121.54 508.49 133.49 498.54 145.44 508.49 157.39 498.54 169.34 508.49 181.28 498.54 194.82 509.82 191.64 513.65 181.28 505.02 169.34 514.98"/><polygon class="cls-6" points="794.08 100.21 782.13 90.25 770.18 100.21 758.24 90.25 746.29 100.21 734.34 90.25 722.39 100.21 710.45 90.25 698.5 100.21 686.55 90.25 676.19 98.88 673.01 95.05 686.55 83.77 698.5 93.73 710.45 83.77 722.39 93.73 734.34 83.77 746.29 93.73 758.24 83.77 770.18 93.73 782.13 83.77 794.08 93.73 806.03 83.77 819.57 95.05 816.38 98.88 806.03 90.25 794.08 100.21"/><polygon class="cls-6" points="794.08 113.15 782.13 103.19 770.18 113.15 758.24 103.19 746.29 113.15 734.34 103.19 722.39 113.15 710.45 103.19 698.5 113.15 686.55 103.19 676.19 111.82 673.01 108 686.55 96.71 698.5 106.67 710.45 96.71 722.39 106.67 734.34 96.71 746.29 106.67 758.24 96.71 770.18 106.67 782.13 96.71 794.08 106.67 806.03 96.71 819.57 108 816.38 111.82 806.03 103.19 794.08 113.15"/><polygon class="cls-5" points="794.08 126.09 782.13 116.14 770.18 126.09 758.24 116.14 746.29 126.09 734.34 116.14 722.39 126.09 710.45 116.14 698.5 126.09 686.55 116.14 676.19 124.77 673.01 120.94 686.55 109.66 698.5 119.61 710.45 109.66 722.39 119.61 734.34 109.66 746.29 119.61 758.24 109.66 770.18 119.61 782.13 109.66 794.08 119.61 806.03 109.66 819.57 120.94 816.38 124.77 806.03 116.14 794.08 126.09"/><path class="cls-6" d="M83.44,118.68a1.5,1.5,0,1,0,1.49-1.5A1.49,1.49,0,0,0,83.44,118.68Z" transform="translate(60.71 48)"/><path class="cls-6" d="M83.44,106a1.5,1.5,0,1,0,1.49-1.49A1.5,1.5,0,0,0,83.44,106Z" transform="translate(60.71 48)"/><path class="cls-6" d="M83.44,93.26a1.5,1.5,0,1,0,1.49-1.49A1.5,1.5,0,0,0,83.44,93.26Z" transform="translate(60.71 48)"/><path class="cls-6" d="M83.44,80.56a1.5,1.5,0,1,0,1.49-1.5A1.49,1.49,0,0,0,83.44,80.56Z" transform="translate(60.71 48)"/><path class="cls-6" d="M83.44,67.85a1.5,1.5,0,1,0,1.49-1.49A1.5,1.5,0,0,0,83.44,67.85Z" transform="translate(60.71 48)"/><path class="cls-6" d="M83.44,55.15a1.5,1.5,0,1,0,1.49-1.5A1.49,1.49,0,0,0,83.44,55.15Z" transform="translate(60.71 48)"/><path class="cls-6" d="M83.44,42.44a1.5,1.5,0,1,0,1.49-1.5A1.49,1.49,0,0,0,83.44,42.44Z" transform="translate(60.71 48)"/><path class="cls-6" d="M83.44,29.73a1.5,1.5,0,1,0,1.49-1.49A1.5,1.5,0,0,0,83.44,29.73Z" transform="translate(60.71 48)"/><path class="cls-6" d="M83.44,17a1.5,1.5,0,1,0,1.49-1.5A1.49,1.49,0,0,0,83.44,17Z" transform="translate(60.71 48)"/><path class="cls-6" d="M83.44,4.32a1.5,1.5,0,1,0,1.49-1.49A1.49,1.49,0,0,0,83.44,4.32Z" transform="translate(60.71 48)"/><path class="cls-6" d="M83.44-8.39a1.5,1.5,0,0,0,1.49,1.5,1.5,1.5,0,0,0,1.5-1.5,1.5,1.5,0,0,0-1.5-1.49A1.49,1.49,0,0,0,83.44-8.39Z" transform="translate(60.71 48)"/><path class="cls-6" d="M83.44-21.09a1.49,1.49,0,0,0,1.49,1.49,1.5,1.5,0,0,0,1.5-1.49,1.5,1.5,0,0,0-1.5-1.5A1.5,1.5,0,0,0,83.44-21.09Z" transform="translate(60.71 48)"/><path class="cls-6" d="M83.44-33.8a1.5,1.5,0,0,0,1.49,1.5,1.5,1.5,0,0,0,1.5-1.5,1.5,1.5,0,0,0-1.5-1.49A1.49,1.49,0,0,0,83.44-33.8Z" transform="translate(60.71 48)"/><path class="cls-6" d="M86.43-46.51A1.5,1.5,0,0,0,84.93-48a1.49,1.49,0,0,0-1.49,1.49A1.5,1.5,0,0,0,84.93-45,1.5,1.5,0,0,0,86.43-46.51Z" transform="translate(60.71 48)"/><path class="cls-4" d="M94.28,118.68a1.5,1.5,0,1,0,1.49-1.5A1.49,1.49,0,0,0,94.28,118.68Z" transform="translate(60.71 48)"/><path class="cls-4" d="M94.28,106a1.5,1.5,0,1,0,1.49-1.49A1.5,1.5,0,0,0,94.28,106Z" transform="translate(60.71 48)"/><path class="cls-4" d="M94.28,93.26a1.5,1.5,0,1,0,1.49-1.49A1.5,1.5,0,0,0,94.28,93.26Z" transform="translate(60.71 48)"/><path class="cls-4" d="M94.28,80.56a1.5,1.5,0,1,0,1.49-1.5A1.49,1.49,0,0,0,94.28,80.56Z" transform="translate(60.71 48)"/><path class="cls-4" d="M94.28,67.85a1.5,1.5,0,1,0,1.49-1.49A1.5,1.5,0,0,0,94.28,67.85Z" transform="translate(60.71 48)"/><path class="cls-4" d="M94.28,55.15a1.5,1.5,0,1,0,1.49-1.5A1.49,1.49,0,0,0,94.28,55.15Z" transform="translate(60.71 48)"/><path class="cls-4" d="M94.28,42.44a1.5,1.5,0,1,0,1.49-1.5A1.49,1.49,0,0,0,94.28,42.44Z" transform="translate(60.71 48)"/><path class="cls-4" d="M94.28,29.73a1.5,1.5,0,1,0,1.49-1.49A1.5,1.5,0,0,0,94.28,29.73Z" transform="translate(60.71 48)"/><path class="cls-4" d="M94.28,17a1.5,1.5,0,1,0,1.49-1.5A1.49,1.49,0,0,0,94.28,17Z" transform="translate(60.71 48)"/><path class="cls-4" d="M94.28,4.32a1.5,1.5,0,1,0,1.49-1.49A1.49,1.49,0,0,0,94.28,4.32Z" transform="translate(60.71 48)"/><path class="cls-4" d="M94.28-8.39a1.5,1.5,0,0,0,1.49,1.5,1.5,1.5,0,0,0,1.5-1.5,1.5,1.5,0,0,0-1.5-1.49A1.49,1.49,0,0,0,94.28-8.39Z" transform="translate(60.71 48)"/><path class="cls-4" d="M94.28-21.09a1.49,1.49,0,0,0,1.49,1.49,1.5,1.5,0,0,0,1.5-1.49,1.5,1.5,0,0,0-1.5-1.5A1.5,1.5,0,0,0,94.28-21.09Z" transform="translate(60.71 48)"/><path class="cls-4" d="M94.28-33.8a1.5,1.5,0,0,0,1.49,1.5,1.5,1.5,0,0,0,1.5-1.5,1.5,1.5,0,0,0-1.5-1.49A1.49,1.49,0,0,0,94.28-33.8Z" transform="translate(60.71 48)"/><path class="cls-4" d="M94.28-46.51A1.5,1.5,0,0,0,95.77-45a1.5,1.5,0,0,0,1.5-1.5A1.5,1.5,0,0,0,95.77-48,1.49,1.49,0,0,0,94.28-46.51Z" transform="translate(60.71 48)"/><path class="cls-6" d="M105.12,118.68a1.49,1.49,0,1,0,1.49-1.5A1.49,1.49,0,0,0,105.12,118.68Z" transform="translate(60.71 48)"/><path class="cls-6" d="M105.12,106a1.49,1.49,0,1,0,1.49-1.49A1.49,1.49,0,0,0,105.12,106Z" transform="translate(60.71 48)"/><path class="cls-6" d="M105.12,93.26a1.49,1.49,0,1,0,1.49-1.49A1.49,1.49,0,0,0,105.12,93.26Z" transform="translate(60.71 48)"/><path class="cls-6" d="M105.12,80.56a1.49,1.49,0,1,0,1.49-1.5A1.49,1.49,0,0,0,105.12,80.56Z" transform="translate(60.71 48)"/><path class="cls-6" d="M105.12,67.85a1.49,1.49,0,1,0,1.49-1.49A1.49,1.49,0,0,0,105.12,67.85Z" transform="translate(60.71 48)"/><path class="cls-6" d="M105.12,55.15a1.49,1.49,0,1,0,1.49-1.5A1.49,1.49,0,0,0,105.12,55.15Z" transform="translate(60.71 48)"/><path class="cls-6" d="M105.12,42.44a1.49,1.49,0,1,0,1.49-1.5A1.49,1.49,0,0,0,105.12,42.44Z" transform="translate(60.71 48)"/><path class="cls-6" d="M105.12,29.73a1.49,1.49,0,1,0,1.49-1.49A1.49,1.49,0,0,0,105.12,29.73Z" transform="translate(60.71 48)"/><path class="cls-6" d="M105.12,17a1.49,1.49,0,1,0,1.49-1.5A1.49,1.49,0,0,0,105.12,17Z" transform="translate(60.71 48)"/><path class="cls-6" d="M105.12,4.32a1.49,1.49,0,1,0,1.49-1.49A1.48,1.48,0,0,0,105.12,4.32Z" transform="translate(60.71 48)"/><path class="cls-6" d="M105.12-8.39a1.49,1.49,0,0,0,1.49,1.5,1.49,1.49,0,0,0,1.49-1.5,1.49,1.49,0,0,0-1.49-1.49A1.49,1.49,0,0,0,105.12-8.39Z" transform="translate(60.71 48)"/><path class="cls-6" d="M105.12-21.09a1.49,1.49,0,0,0,1.49,1.49,1.49,1.49,0,0,0,1.49-1.49,1.49,1.49,0,0,0-1.49-1.5A1.49,1.49,0,0,0,105.12-21.09Z" transform="translate(60.71 48)"/><path class="cls-6" d="M105.12-33.8a1.49,1.49,0,0,0,1.49,1.5,1.49,1.49,0,0,0,1.49-1.5,1.49,1.49,0,0,0-1.49-1.49A1.49,1.49,0,0,0,105.12-33.8Z" transform="translate(60.71 48)"/><path class="cls-6" d="M105.12-46.51a1.49,1.49,0,0,0,1.49,1.5,1.49,1.49,0,0,0,1.49-1.5A1.49,1.49,0,0,0,106.61-48,1.49,1.49,0,0,0,105.12-46.51Z" transform="translate(60.71 48)"/><path class="cls-6" d="M116,118.68a1.5,1.5,0,1,0,1.5-1.5A1.5,1.5,0,0,0,116,118.68Z" transform="translate(60.71 48)"/><path class="cls-6" d="M116,106a1.5,1.5,0,1,0,1.5-1.49A1.5,1.5,0,0,0,116,106Z" transform="translate(60.71 48)"/><path class="cls-6" d="M116,93.26a1.5,1.5,0,1,0,1.5-1.49A1.5,1.5,0,0,0,116,93.26Z" transform="translate(60.71 48)"/><path class="cls-6" d="M116,80.56a1.5,1.5,0,1,0,1.5-1.5A1.5,1.5,0,0,0,116,80.56Z" transform="translate(60.71 48)"/><path class="cls-6" d="M116,67.85a1.5,1.5,0,1,0,1.5-1.49A1.5,1.5,0,0,0,116,67.85Z" transform="translate(60.71 48)"/><path class="cls-6" d="M116,55.15a1.5,1.5,0,1,0,1.5-1.5A1.5,1.5,0,0,0,116,55.15Z" transform="translate(60.71 48)"/><path class="cls-6" d="M116,42.44a1.5,1.5,0,1,0,1.5-1.5A1.5,1.5,0,0,0,116,42.44Z" transform="translate(60.71 48)"/><path class="cls-6" d="M116,29.73a1.5,1.5,0,1,0,1.5-1.49A1.5,1.5,0,0,0,116,29.73Z" transform="translate(60.71 48)"/><path class="cls-6" d="M116,17a1.5,1.5,0,1,0,1.5-1.5A1.5,1.5,0,0,0,116,17Z" transform="translate(60.71 48)"/><path class="cls-6" d="M116,4.32a1.5,1.5,0,1,0,1.5-1.49A1.49,1.49,0,0,0,116,4.32Z" transform="translate(60.71 48)"/><path class="cls-6" d="M116-8.39a1.5,1.5,0,0,0,1.5,1.5,1.5,1.5,0,0,0,1.49-1.5,1.49,1.49,0,0,0-1.49-1.49A1.5,1.5,0,0,0,116-8.39Z" transform="translate(60.71 48)"/><path class="cls-6" d="M116-21.09a1.5,1.5,0,0,0,1.5,1.49,1.49,1.49,0,0,0,1.49-1.49,1.5,1.5,0,0,0-1.49-1.5A1.5,1.5,0,0,0,116-21.09Z" transform="translate(60.71 48)"/><path class="cls-6" d="M116-33.8a1.5,1.5,0,0,0,1.5,1.5,1.5,1.5,0,0,0,1.49-1.5,1.49,1.49,0,0,0-1.49-1.49A1.5,1.5,0,0,0,116-33.8Z" transform="translate(60.71 48)"/><path class="cls-6" d="M116-46.51a1.5,1.5,0,0,0,1.5,1.5,1.5,1.5,0,0,0,1.49-1.5A1.49,1.49,0,0,0,117.45-48,1.5,1.5,0,0,0,116-46.51Z" transform="translate(60.71 48)"/><path class="cls-4" d="M575.63,533.56a1.5,1.5,0,1,0,1.49-1.5A1.49,1.49,0,0,0,575.63,533.56Z" transform="translate(60.71 48)"/><path class="cls-4" d="M575.63,520.85a1.5,1.5,0,1,0,1.49-1.49A1.5,1.5,0,0,0,575.63,520.85Z" transform="translate(60.71 48)"/><path class="cls-4" d="M575.63,508.14a1.5,1.5,0,1,0,1.49-1.49A1.5,1.5,0,0,0,575.63,508.14Z" transform="translate(60.71 48)"/><path class="cls-4" d="M575.63,495.44a1.5,1.5,0,1,0,1.49-1.5A1.49,1.49,0,0,0,575.63,495.44Z" transform="translate(60.71 48)"/><path class="cls-4" d="M575.63,482.73a1.5,1.5,0,1,0,1.49-1.49A1.5,1.5,0,0,0,575.63,482.73Z" transform="translate(60.71 48)"/><path class="cls-4" d="M575.63,470a1.5,1.5,0,1,0,1.49-1.5A1.49,1.49,0,0,0,575.63,470Z" transform="translate(60.71 48)"/><path class="cls-4" d="M575.63,457.32a1.5,1.5,0,1,0,1.49-1.5A1.49,1.49,0,0,0,575.63,457.32Z" transform="translate(60.71 48)"/><path class="cls-4" d="M575.63,444.61a1.5,1.5,0,1,0,1.49-1.49A1.5,1.5,0,0,0,575.63,444.61Z" transform="translate(60.71 48)"/><path class="cls-4" d="M575.63,431.91a1.5,1.5,0,1,0,1.49-1.5A1.49,1.49,0,0,0,575.63,431.91Z" transform="translate(60.71 48)"/><path class="cls-4" d="M575.63,419.2a1.5,1.5,0,1,0,1.49-1.49A1.5,1.5,0,0,0,575.63,419.2Z" transform="translate(60.71 48)"/><path class="cls-4" d="M575.63,406.49a1.5,1.5,0,1,0,1.49-1.49A1.5,1.5,0,0,0,575.63,406.49Z" transform="translate(60.71 48)"/><path class="cls-4" d="M575.63,393.79a1.5,1.5,0,1,0,1.49-1.5A1.49,1.49,0,0,0,575.63,393.79Z" transform="translate(60.71 48)"/><path class="cls-4" d="M575.63,381.08a1.5,1.5,0,1,0,1.49-1.49A1.5,1.5,0,0,0,575.63,381.08Z" transform="translate(60.71 48)"/><path class="cls-4" d="M578.62,368.38a1.5,1.5,0,1,0-1.5,1.49A1.5,1.5,0,0,0,578.62,368.38Z" transform="translate(60.71 48)"/><path class="cls-4" d="M586.47,533.56a1.5,1.5,0,1,0,1.49-1.5A1.49,1.49,0,0,0,586.47,533.56Z" transform="translate(60.71 48)"/><path class="cls-4" d="M586.47,520.85a1.5,1.5,0,1,0,1.49-1.49A1.5,1.5,0,0,0,586.47,520.85Z" transform="translate(60.71 48)"/><path class="cls-4" d="M586.47,508.14a1.5,1.5,0,1,0,1.49-1.49A1.5,1.5,0,0,0,586.47,508.14Z" transform="translate(60.71 48)"/><path class="cls-4" d="M586.47,495.44a1.5,1.5,0,1,0,1.49-1.5A1.49,1.49,0,0,0,586.47,495.44Z" transform="translate(60.71 48)"/><path class="cls-4" d="M586.47,482.73a1.5,1.5,0,1,0,1.49-1.49A1.5,1.5,0,0,0,586.47,482.73Z" transform="translate(60.71 48)"/><path class="cls-4" d="M586.47,470a1.5,1.5,0,1,0,1.49-1.5A1.49,1.49,0,0,0,586.47,470Z" transform="translate(60.71 48)"/><path class="cls-4" d="M586.47,457.32a1.5,1.5,0,1,0,1.49-1.5A1.49,1.49,0,0,0,586.47,457.32Z" transform="translate(60.71 48)"/><path class="cls-4" d="M586.47,444.61a1.5,1.5,0,1,0,1.49-1.49A1.5,1.5,0,0,0,586.47,444.61Z" transform="translate(60.71 48)"/><path class="cls-4" d="M586.47,431.91a1.5,1.5,0,1,0,1.49-1.5A1.49,1.49,0,0,0,586.47,431.91Z" transform="translate(60.71 48)"/><path class="cls-4" d="M586.47,419.2a1.5,1.5,0,1,0,1.49-1.49A1.5,1.5,0,0,0,586.47,419.2Z" transform="translate(60.71 48)"/><path class="cls-4" d="M586.47,406.49A1.5,1.5,0,1,0,588,405,1.5,1.5,0,0,0,586.47,406.49Z" transform="translate(60.71 48)"/><path class="cls-4" d="M586.47,393.79a1.5,1.5,0,1,0,1.49-1.5A1.49,1.49,0,0,0,586.47,393.79Z" transform="translate(60.71 48)"/><path class="cls-4" d="M586.47,381.08a1.5,1.5,0,1,0,1.49-1.49A1.5,1.5,0,0,0,586.47,381.08Z" transform="translate(60.71 48)"/><path class="cls-4" d="M586.47,368.38a1.5,1.5,0,1,0,1.49-1.5A1.49,1.49,0,0,0,586.47,368.38Z" transform="translate(60.71 48)"/><path class="cls-5" d="M597.3,533.56a1.5,1.5,0,1,0,1.5-1.5A1.5,1.5,0,0,0,597.3,533.56Z" transform="translate(60.71 48)"/><path class="cls-5" d="M597.3,520.85a1.5,1.5,0,1,0,1.5-1.49A1.5,1.5,0,0,0,597.3,520.85Z" transform="translate(60.71 48)"/><path class="cls-5" d="M597.3,508.14a1.5,1.5,0,1,0,1.5-1.49A1.5,1.5,0,0,0,597.3,508.14Z" transform="translate(60.71 48)"/><path class="cls-5" d="M597.3,495.44a1.5,1.5,0,1,0,1.5-1.5A1.5,1.5,0,0,0,597.3,495.44Z" transform="translate(60.71 48)"/><path class="cls-5" d="M597.3,482.73a1.5,1.5,0,1,0,1.5-1.49A1.5,1.5,0,0,0,597.3,482.73Z" transform="translate(60.71 48)"/><path class="cls-5" d="M597.3,470a1.5,1.5,0,1,0,1.5-1.5A1.5,1.5,0,0,0,597.3,470Z" transform="translate(60.71 48)"/><path class="cls-5" d="M597.3,457.32a1.5,1.5,0,1,0,1.5-1.5A1.49,1.49,0,0,0,597.3,457.32Z" transform="translate(60.71 48)"/><path class="cls-5" d="M597.3,444.61a1.5,1.5,0,1,0,1.5-1.49A1.5,1.5,0,0,0,597.3,444.61Z" transform="translate(60.71 48)"/><path class="cls-5" d="M597.3,431.91a1.5,1.5,0,1,0,1.5-1.5A1.5,1.5,0,0,0,597.3,431.91Z" transform="translate(60.71 48)"/><path class="cls-5" d="M597.3,419.2a1.5,1.5,0,1,0,1.5-1.49A1.5,1.5,0,0,0,597.3,419.2Z" transform="translate(60.71 48)"/><path class="cls-5" d="M597.3,406.49a1.5,1.5,0,1,0,1.5-1.49A1.5,1.5,0,0,0,597.3,406.49Z" transform="translate(60.71 48)"/><path class="cls-5" d="M597.3,393.79a1.5,1.5,0,1,0,1.5-1.5A1.5,1.5,0,0,0,597.3,393.79Z" transform="translate(60.71 48)"/><path class="cls-5" d="M597.3,381.08a1.5,1.5,0,1,0,1.5-1.49A1.5,1.5,0,0,0,597.3,381.08Z" transform="translate(60.71 48)"/><path class="cls-5" d="M597.3,368.38a1.5,1.5,0,1,0,1.5-1.5A1.5,1.5,0,0,0,597.3,368.38Z" transform="translate(60.71 48)"/><path class="cls-4" d="M608.14,533.56a1.5,1.5,0,1,0,1.5-1.5A1.5,1.5,0,0,0,608.14,533.56Z" transform="translate(60.71 48)"/><path class="cls-4" d="M608.14,520.85a1.5,1.5,0,1,0,1.5-1.49A1.5,1.5,0,0,0,608.14,520.85Z" transform="translate(60.71 48)"/><path class="cls-4" d="M608.14,508.14a1.5,1.5,0,1,0,1.5-1.49A1.5,1.5,0,0,0,608.14,508.14Z" transform="translate(60.71 48)"/><path class="cls-4" d="M608.14,495.44a1.5,1.5,0,1,0,1.5-1.5A1.5,1.5,0,0,0,608.14,495.44Z" transform="translate(60.71 48)"/><path class="cls-4" d="M608.14,482.73a1.5,1.5,0,1,0,1.5-1.49A1.5,1.5,0,0,0,608.14,482.73Z" transform="translate(60.71 48)"/><path class="cls-4" d="M608.14,470a1.5,1.5,0,1,0,1.5-1.5A1.5,1.5,0,0,0,608.14,470Z" transform="translate(60.71 48)"/><path class="cls-4" d="M608.14,457.32a1.5,1.5,0,1,0,1.5-1.5A1.49,1.49,0,0,0,608.14,457.32Z" transform="translate(60.71 48)"/><path class="cls-4" d="M608.14,444.61a1.5,1.5,0,1,0,1.5-1.49A1.5,1.5,0,0,0,608.14,444.61Z" transform="translate(60.71 48)"/><path class="cls-4" d="M608.14,431.91a1.5,1.5,0,1,0,1.5-1.5A1.5,1.5,0,0,0,608.14,431.91Z" transform="translate(60.71 48)"/><path class="cls-4" d="M608.14,419.2a1.5,1.5,0,1,0,1.5-1.49A1.5,1.5,0,0,0,608.14,419.2Z" transform="translate(60.71 48)"/><path class="cls-4" d="M608.14,406.49a1.5,1.5,0,1,0,1.5-1.49A1.5,1.5,0,0,0,608.14,406.49Z" transform="translate(60.71 48)"/><path class="cls-4" d="M608.14,393.79a1.5,1.5,0,1,0,1.5-1.5A1.5,1.5,0,0,0,608.14,393.79Z" transform="translate(60.71 48)"/><path class="cls-4" d="M608.14,381.08a1.5,1.5,0,1,0,1.5-1.49A1.5,1.5,0,0,0,608.14,381.08Z" transform="translate(60.71 48)"/><path class="cls-4" d="M608.14,368.38a1.5,1.5,0,1,0,1.5-1.5A1.5,1.5,0,0,0,608.14,368.38Z" transform="translate(60.71 48)"/><path class="cls-4" d="M82.94,254,42.39,294.52l40.55,40.55,40.55-40.55ZM55.33,294.52l27.61-27.61,27.61,27.61L82.94,322.13Z" transform="translate(60.71 48)"/><path class="cls-4" d="M743.94,370l-40.55,40.55,40.55,40.55,40.55-40.55Zm-27.61,40.55,27.61-27.61,27.61,27.61-27.61,27.61Z" transform="translate(60.71 48)"/><path class="cls-5" d="M493.05,256.24l-52.19,52.2,52.19,52.19,52.2-52.19Zm-35.54,52.2,35.54-35.54,35.54,35.54L493.05,344Z" transform="translate(60.71 48)"/><path class="cls-6" d="M442.38-16l-52.19,52.2,52.19,52.19,52.2-52.19Zm-35.54,52.2L442.38.68l35.55,35.55L442.38,71.77Z" transform="translate(60.71 48)"/><path class="cls-4" d="M363.76,115.37,332,147.18,363.76,179l31.81-31.81ZM342.1,147.18l21.66-21.66,21.66,21.66-21.66,21.66Z" transform="translate(60.71 48)"/><path class="cls-5" d="M430.37,178.38,428.25,177l1.42-2.12a3.41,3.41,0,0,0-5.67-3.79l-1.42,2.13-2.13-1.42a3.41,3.41,0,1,0-3.78,5.67l2.12,1.42L417.38,181a3.41,3.41,0,0,0,5.67,3.78l1.41-2.13,2.13,1.42a3.41,3.41,0,1,0,3.78-5.67Z" transform="translate(60.71 48)"/><path class="cls-5" d="M291.35,29.85l-2.12-1.42,1.41-2.13A3.41,3.41,0,0,0,285,22.52l-1.41,2.13-2.13-1.42a3.41,3.41,0,1,0-3.78,5.67l2.12,1.42-1.42,2.12A3.41,3.41,0,0,0,284,36.23l1.42-2.13,2.13,1.42a3.41,3.41,0,1,0,3.78-5.67Z" transform="translate(60.71 48)"/><path class="cls-5" d="M203.22,430.77l-2.13-1.42,1.42-2.12a3.41,3.41,0,0,0-5.67-3.79l-1.42,2.13-2.13-1.42a3.41,3.41,0,0,0-3.78,5.67l2.13,1.42-1.42,2.12a3.41,3.41,0,1,0,5.67,3.79l1.42-2.13,2.12,1.42a3.41,3.41,0,1,0,3.79-5.67Z" transform="translate(60.71 48)"/><path class="cls-6" d="M113.28,204.77l-2.13-1.42,1.42-2.12a3.41,3.41,0,0,0-5.67-3.79l-1.42,2.13-2.12-1.42a3.41,3.41,0,0,0-3.79,5.67l2.13,1.42-1.42,2.12a3.41,3.41,0,0,0,5.67,3.79l1.42-2.13,2.13,1.42a3.41,3.41,0,0,0,3.78-5.67Z" transform="translate(60.71 48)"/><path class="cls-4" d="M575.47,3.64l-2.13-1.42L574.76.09a3.41,3.41,0,0,0-.94-4.73,3.41,3.41,0,0,0-4.73.95l-1.42,2.12L565.55-3a3.41,3.41,0,0,0-4.73,1,3.41,3.41,0,0,0,.94,4.72l2.13,1.42-1.42,2.13A3.41,3.41,0,1,0,568.14,10l1.42-2.12,2.13,1.42a3.41,3.41,0,0,0,3.78-5.67Z" transform="translate(60.71 48)"/><path class="cls-6" d="M525.45,410.15l-2.53.39-.39-2.52a3.41,3.41,0,1,0-6.73,1.05l.39,2.52-2.53.4a3.41,3.41,0,1,0,1.06,6.73l2.52-.39.4,2.52a3.41,3.41,0,1,0,6.73-1.05l-.39-2.52,2.52-.4a3.41,3.41,0,1,0-1-6.73Z" transform="translate(60.71 48)"/><path class="cls-5" d="M449.75,458.31a5.22,5.22,0,0,1,4.37,5.12v17.68a3.68,3.68,0,0,1-3.67,3.67H432.77a5.42,5.42,0,0,1-.81-.06,5.16,5.16,0,0,1-4.36-5.4,5.52,5.52,0,0,1,5.69-4.89h10.48V464a5.52,5.52,0,0,1,4.89-5.69,5.69,5.69,0,0,1,1.09.05m.63-4a9.6,9.6,0,0,0-1.94-.09c-5,.26-8.75,4.75-8.74,9.75v6.42h-6.41c-5,0-9.5,3.75-9.76,8.75a9.26,9.26,0,0,0,7.8,9.63,9.76,9.76,0,0,0,1.44.11h17.68a7.74,7.74,0,0,0,7.74-7.75V463.43a9.26,9.26,0,0,0-7.81-9.14Z" transform="translate(60.71 48)"/><path class="cls-5" d="M671.44,366.38a5.21,5.21,0,0,1,4.37,5.11v17.68a3.68,3.68,0,0,1-3.68,3.68H654.46a4.43,4.43,0,0,1-.81-.07,5.17,5.17,0,0,1-4.36-5.39,5.53,5.53,0,0,1,5.69-4.9h10.48V372a5.52,5.52,0,0,1,4.89-5.69,5.65,5.65,0,0,1,1.09.05m.63-4a9.56,9.56,0,0,0-1.94-.1c-5,.27-8.74,4.75-8.74,9.76v6.41H655c-5,0-9.49,3.76-9.75,8.75a9.23,9.23,0,0,0,7.79,9.63,7.63,7.63,0,0,0,1.44.11h17.68a7.74,7.74,0,0,0,7.74-7.75V371.49a9.25,9.25,0,0,0-7.81-9.13Z" transform="translate(60.71 48)"/><path class="cls-6" d="M573.26,241.11a5.21,5.21,0,0,1,5.11-4.37h17.68a3.68,3.68,0,0,1,3.68,3.68v17.68a5.54,5.54,0,0,1-.07.81,5.17,5.17,0,0,1-5.39,4.36,5.53,5.53,0,0,1-4.9-5.69V247.09H578.9a5.52,5.52,0,0,1-5.69-4.89,4.92,4.92,0,0,1,0-1.09m-4-.63a9.5,9.5,0,0,0-.1,1.93c.27,5,4.75,8.75,9.76,8.75h6.41v6.41c0,5,3.75,9.49,8.75,9.75a9.24,9.24,0,0,0,9.63-7.79,8.57,8.57,0,0,0,.11-1.44V240.41a7.75,7.75,0,0,0-7.75-7.75H578.37a9.25,9.25,0,0,0-9.13,7.81Z" transform="translate(60.71 48)"/><path class="cls-5" d="M305.24,106.47a5.21,5.21,0,0,1-4.37-5.11V83.68A3.68,3.68,0,0,1,304.55,80h17.67a5.32,5.32,0,0,1,.81.06,5.16,5.16,0,0,1,4.36,5.39,5.53,5.53,0,0,1-5.69,4.9H311.22v10.48a5.53,5.53,0,0,1-4.89,5.69,5,5,0,0,1-1.1,0m-.63,4a9.6,9.6,0,0,0,1.94.1c5-.27,8.75-4.75,8.75-9.76V94.42h6.41c5,0,9.5-3.75,9.76-8.75a9.25,9.25,0,0,0-7.8-9.63,8.57,8.57,0,0,0-1.44-.11H304.54a7.75,7.75,0,0,0-7.74,7.75v17.68a9.24,9.24,0,0,0,7.8,9.13Z" transform="translate(60.71 48)"/><path class="cls-6" d="M116,380.28a5.22,5.22,0,0,1,.52-6.71l12.5-12.5a3.67,3.67,0,0,1,5.2,0l12.51,12.49a5,5,0,0,1,.52.62,5.16,5.16,0,0,1-.73,6.9,5.52,5.52,0,0,1-7.48-.56L134.47,376l-2.88-2.87L128.72,376l-4.53,4.53a5.19,5.19,0,0,1-8.22-.24m-3.29,2.4a9.19,9.19,0,0,0,1.3,1.43c3.72,3.35,9.55,2.83,13.08-.71l4.54-4.54,4.53,4.53c3.54,3.54,9.37,4.06,13.09.71a9.25,9.25,0,0,0,1.29-12.32,8.74,8.74,0,0,0-.94-1.09l-12.5-12.5a7.75,7.75,0,0,0-11,0L113.62,370.7a9.24,9.24,0,0,0-.94,12Z" transform="translate(60.71 48)"/><path class="cls-4" d="M60.27,155.2a5.21,5.21,0,0,1-5.11,4.37H37.48a3.68,3.68,0,0,1-3.68-3.68V138.22a4.43,4.43,0,0,1,.07-.81,5.15,5.15,0,0,1,5.39-4.36,5.54,5.54,0,0,1,4.9,5.69v10.48H54.63a5.52,5.52,0,0,1,5.69,4.89,5.61,5.61,0,0,1,0,1.09m4,.63a9.5,9.5,0,0,0,.1-1.93c-.27-5-4.76-8.75-9.76-8.75H48.22v-6.41c0-5-3.76-9.49-8.76-9.75a9.25,9.25,0,0,0-9.63,7.8,9.52,9.52,0,0,0-.11,1.43V155.9a7.75,7.75,0,0,0,7.75,7.75H55.16a9.25,9.25,0,0,0,9.13-7.81Z" transform="translate(60.71 48)"/><path class="cls-4" d="M348.13,338.1a5.19,5.19,0,0,1,.53-6.7l12.49-12.51a3.69,3.69,0,0,1,5.2,0l12.51,12.5a6.09,6.09,0,0,1,.53.61,5.18,5.18,0,0,1-.73,6.9,5.54,5.54,0,0,1-7.49-.56l-4.53-4.53-2.88-2.88-2.88,2.88-4.53,4.53c-2.12,2.12-5.48,2.38-7.48.57a5.11,5.11,0,0,1-.74-.81m-3.29,2.4a10.32,10.32,0,0,0,1.3,1.44c3.73,3.34,9.55,2.82,13.09-.72l4.53-4.53,4.53,4.53c3.55,3.54,9.37,4.06,13.09.71a9.25,9.25,0,0,0,1.29-12.33,9.57,9.57,0,0,0-.93-1.09L369.23,316a7.75,7.75,0,0,0-11,0l-12.5,12.51a9.25,9.25,0,0,0-.94,12Z" transform="translate(60.71 48)"/><path class="cls-5" d="M719.93,124.26a5.22,5.22,0,0,1,.53-6.7l12.5-12.5a3.68,3.68,0,0,1,5.2,0l12.5,12.5a4.45,4.45,0,0,1,.53.62,5.17,5.17,0,0,1-.73,6.9,5.54,5.54,0,0,1-7.49-.57L738.44,120l-2.88-2.87L732.69,120l-4.54,4.54a5.53,5.53,0,0,1-7.48.57,5.77,5.77,0,0,1-.74-.82m-3.28,2.4a8.82,8.82,0,0,0,1.3,1.44c3.72,3.35,9.54,2.83,13.08-.72l4.53-4.53,4.54,4.53c3.54,3.54,9.36,4.06,13.08.71a9.25,9.25,0,0,0,1.3-12.32,8.83,8.83,0,0,0-.94-1.1L741,102.18a7.74,7.74,0,0,0-11,0l-12.5,12.5a9.25,9.25,0,0,0-.93,12Z" transform="translate(60.71 48)"/><path class="cls-6" d="M634.41,118.86l-1.17-2.27,2.27-1.18a3.41,3.41,0,1,0-3.14-6l-2.27,1.18-1.17-2.27a3.41,3.41,0,1,0-6,3.13l1.17,2.27-2.27,1.18a3.41,3.41,0,0,0,3.13,6.05l2.27-1.18,1.18,2.27a3.41,3.41,0,0,0,6-3.13Z" transform="translate(60.71 48)"/><path class="cls-6" d="M291.2,211.63l-2.52.39-.4-2.53a3.41,3.41,0,1,0-6.73,1.06l.39,2.52-2.52.4a3.41,3.41,0,1,0,1.05,6.73l2.52-.39.4,2.52a3.41,3.41,0,0,0,6.73-1.05l-.39-2.52,2.52-.4a3.41,3.41,0,1,0-1.05-6.73Z" transform="translate(60.71 48)"/><path class="cls-6" d="M375.71,401.76l-66,35a38.41,38.41,0,0,0,2.32,6.49l67.78-35.89A38.6,38.6,0,0,0,375.71,401.76Z" transform="translate(60.71 48)"/><path class="cls-6" d="M366.68,394.2,308.49,425a38,38,0,0,0,.33,7.53l63.91-33.84A38.66,38.66,0,0,0,366.68,394.2Z" transform="translate(60.71 48)"/><path class="cls-6" d="M340.79,465l40.81-21.61a38.59,38.59,0,0,0,3-9.29l-53.15,28.15A38.58,38.58,0,0,0,340.79,465Z" transform="translate(60.71 48)"/><path class="cls-6" d="M327,460l58.18-30.81a38.14,38.14,0,0,0-.33-7.54L321,455.45A38.2,38.2,0,0,0,327,460Z" transform="translate(60.71 48)"/><path class="cls-6" d="M364.81,461a38.21,38.21,0,0,0,12.7-10.84l-28.8,15.26A38.16,38.16,0,0,0,364.81,461Z" transform="translate(60.71 48)"/><path class="cls-6" d="M318,452.4l66-35a37.86,37.86,0,0,0-2.32-6.49l-67.77,35.9A38.3,38.3,0,0,0,318,452.4Z" transform="translate(60.71 48)"/><path class="cls-6" d="M352.88,389.16l-40.81,21.61a39,39,0,0,0-3,9.3l53.16-28.15A38.68,38.68,0,0,0,352.88,389.16Z" transform="translate(60.71 48)"/><path class="cls-6" d="M328.87,393.15A38.1,38.1,0,0,0,316.16,404L345,388.72A38.32,38.32,0,0,0,328.87,393.15Z" transform="translate(60.71 48)"/><path class="cls-4" d="M719,212.23l-70-49a42.64,42.64,0,0,0-5.39,5.74l71.9,50.26A44.6,44.6,0,0,0,719,212.23Z" transform="translate(60.71 48)"/><path class="cls-4" d="M722,199.09,660.28,156a43.24,43.24,0,0,0-7.5,4.27l67.79,47.38A43.52,43.52,0,0,0,722,199.09Z" transform="translate(60.71 48)"/><path class="cls-4" d="M636.43,209.69,679.73,240a44.15,44.15,0,0,0,11-1.81l-56.39-39.42A44,44,0,0,0,636.43,209.69Z" transform="translate(60.71 48)"/><path class="cls-4" d="M634.36,193l61.73,43.15a43.9,43.9,0,0,0,7.5-4.27L635.8,184.51A44.54,44.54,0,0,0,634.36,193Z" transform="translate(60.71 48)"/><path class="cls-4" d="M653,232.06a43.87,43.87,0,0,0,17.66,7.28L640.12,218A43.83,43.83,0,0,0,653,232.06Z" transform="translate(60.71 48)"/><path class="cls-4" d="M637.35,179.89l70.06,49a44.69,44.69,0,0,0,5.39-5.75l-71.9-50.25A43.82,43.82,0,0,0,637.35,179.89Z" transform="translate(60.71 48)"/><path class="cls-4" d="M719.94,182.42l-43.3-30.26a44.24,44.24,0,0,0-11,1.82L722,193.39A44.22,44.22,0,0,0,719.94,182.42Z" transform="translate(60.71 48)"/><path class="cls-4" d="M703.35,160.06a43.67,43.67,0,0,0-17.66-7.28l30.56,21.36A43.72,43.72,0,0,0,703.35,160.06Z" transform="translate(60.71 48)"/><path class="cls-4" d="M28,84.23l-70-49A42.64,42.64,0,0,0-47.42,41l71.9,50.26A44.6,44.6,0,0,0,28,84.23Z" transform="translate(60.71 48)"/><path class="cls-4" d="M31,71.09-30.72,28a43.24,43.24,0,0,0-7.5,4.27L29.57,79.6A43.52,43.52,0,0,0,31,71.09Z" transform="translate(60.71 48)"/><path class="cls-4" d="M-54.57,81.69-11.27,112a44.15,44.15,0,0,0,11-1.81L-56.65,70.72A44,44,0,0,0-54.57,81.69Z" transform="translate(60.71 48)"/><path class="cls-4" d="M-56.64,65,5.09,108.17a43.9,43.9,0,0,0,7.5-4.27L-55.2,56.51A44.54,44.54,0,0,0-56.64,65Z" transform="translate(60.71 48)"/><path class="cls-4" d="M-38,104.06a43.87,43.87,0,0,0,17.66,7.28L-50.88,90A43.83,43.83,0,0,0-38,104.06Z" transform="translate(60.71 48)"/><path class="cls-4" d="M-53.65,51.89l70.06,49A44.69,44.69,0,0,0,21.8,95.1L-50.1,44.85A43.82,43.82,0,0,0-53.65,51.89Z" transform="translate(60.71 48)"/><path class="cls-4" d="M28.94,54.42l-43.3-30.26a44.24,44.24,0,0,0-11,1.82L31,65.39A44.22,44.22,0,0,0,28.94,54.42Z" transform="translate(60.71 48)"/><path class="cls-4" d="M12.35,32.06A43.67,43.67,0,0,0-5.31,24.78L25.25,46.14A43.72,43.72,0,0,0,12.35,32.06Z" transform="translate(60.71 48)"/><path class="cls-5" d="M233.88,166.15l-82.52,22.27a43.83,43.83,0,0,0,.95,7.83L237,173.39A44.14,44.14,0,0,0,233.88,166.15Z" transform="translate(60.71 48)"/><path class="cls-5" d="M225.73,155.43,153,175.05a44,44,0,0,0-1.53,8.5L231.33,162A44.08,44.08,0,0,0,225.73,155.43Z" transform="translate(60.71 48)"/><path class="cls-5" d="M178.91,227.84l51-13.76a44.53,44.53,0,0,0,5.68-9.61l-66.43,17.92A44,44,0,0,0,178.91,227.84Z" transform="translate(60.71 48)"/><path class="cls-5" d="M164.8,218.72l72.71-19.62a43.19,43.19,0,0,0,1.54-8.49L159.2,212.16A44.08,44.08,0,0,0,164.8,218.72Z" transform="translate(60.71 48)"/><path class="cls-5" d="M206.71,229.48a43.69,43.69,0,0,0,16.92-8.86l-36,9.71A43.56,43.56,0,0,0,206.71,229.48Z" transform="translate(60.71 48)"/><path class="cls-5" d="M156.65,208l82.51-22.27a43.7,43.7,0,0,0-.94-7.82l-84.69,22.85A43,43,0,0,0,156.65,208Z" transform="translate(60.71 48)"/><path class="cls-5" d="M211.62,146.31l-51,13.77a43.9,43.9,0,0,0-5.68,9.61l66.42-17.93A44.11,44.11,0,0,0,211.62,146.31Z" transform="translate(60.71 48)"/><path class="cls-5" d="M183.82,144.67a43.75,43.75,0,0,0-16.92,8.86l36-9.71A43.71,43.71,0,0,0,183.82,144.67Z" transform="translate(60.71 48)"/><polygon class="cls-6" points="282.75 308.58 266.94 310 274.4 322.09 282.75 308.58"/><polygon class="cls-6" points="465.89 316.05 474.6 302.78 460.5 301.12 465.89 316.05"/><polygon class="cls-4" points="494.53 426.62 484.23 438.7 498.01 442.1 494.53 426.62"/><polygon class="cls-4" points="653.19 377.59 667.69 384.06 667.06 369.87 653.19 377.59"/><polygon class="cls-4" points="283.5 157.03 298 163.5 297.38 149.31 283.5 157.03"/><polygon class="cls-5" points="571.49 198.57 559.55 188.1 555.95 201.84 571.49 198.57"/><path class="cls-5" d="M185.38,337.09a1,1,0,1,0,1,1A1,1,0,0,0,185.38,337.09Z" transform="translate(60.71 48)"/><circle class="cls-5" cx="254.38" cy="386.07" r="0.98"/><circle class="cls-5" cx="262.67" cy="386.07" r="0.98"/><circle class="cls-5" cx="270.96" cy="386.07" r="0.98"/><circle class="cls-5" cx="279.25" cy="386.07" r="0.98"/><circle class="cls-5" cx="287.54" cy="386.07" r="0.98"/><circle class="cls-5" cx="295.83" cy="386.07" r="0.98"/><circle class="cls-5" cx="304.12" cy="386.07" r="0.98"/><circle class="cls-5" cx="312.41" cy="386.07" r="0.98"/><path class="cls-5" d="M260,337.09a1,1,0,1,0,1,1A1,1,0,0,0,260,337.09Z" transform="translate(60.71 48)"/><path class="cls-5" d="M268.28,337.09a1,1,0,1,0,1,1A1,1,0,0,0,268.28,337.09Z" transform="translate(60.71 48)"/><path class="cls-5" d="M276.57,337.09a1,1,0,1,0,1,1A1,1,0,0,0,276.57,337.09Z" transform="translate(60.71 48)"/><path class="cls-5" d="M284.86,337.09a1,1,0,1,0,1,1A1,1,0,0,0,284.86,337.09Z" transform="translate(60.71 48)"/><path class="cls-5" d="M293.15,339a1,1,0,1,0-1-1A1,1,0,0,0,293.15,339Z" transform="translate(60.71 48)"/><path class="cls-5" d="M185.38,344.16a1,1,0,1,0,1,1A1,1,0,0,0,185.38,344.16Z" transform="translate(60.71 48)"/><path class="cls-5" d="M193.67,344.16a1,1,0,1,0,1,1A1,1,0,0,0,193.67,344.16Z" transform="translate(60.71 48)"/><path class="cls-5" d="M202,344.16a1,1,0,1,0,1,1A1,1,0,0,0,202,344.16Z" transform="translate(60.71 48)"/><path class="cls-5" d="M210.25,344.16a1,1,0,1,0,1,1A1,1,0,0,0,210.25,344.16Z" transform="translate(60.71 48)"/><path class="cls-5" d="M218.54,344.16a1,1,0,1,0,1,1A1,1,0,0,0,218.54,344.16Z" transform="translate(60.71 48)"/><path class="cls-5" d="M226.83,344.16a1,1,0,1,0,1,1A1,1,0,0,0,226.83,344.16Z" transform="translate(60.71 48)"/><path class="cls-5" d="M235.12,344.16a1,1,0,1,0,1,1A1,1,0,0,0,235.12,344.16Z" transform="translate(60.71 48)"/><path class="cls-5" d="M243.41,344.16a1,1,0,1,0,1,1A1,1,0,0,0,243.41,344.16Z" transform="translate(60.71 48)"/><path class="cls-5" d="M251.7,344.16a1,1,0,1,0,1,1A1,1,0,0,0,251.7,344.16Z" transform="translate(60.71 48)"/><path class="cls-5" d="M260,344.16a1,1,0,1,0,1,1A1,1,0,0,0,260,344.16Z" transform="translate(60.71 48)"/><path class="cls-5" d="M268.28,344.16a1,1,0,1,0,1,1A1,1,0,0,0,268.28,344.16Z" transform="translate(60.71 48)"/><path class="cls-5" d="M276.57,344.16a1,1,0,1,0,1,1A1,1,0,0,0,276.57,344.16Z" transform="translate(60.71 48)"/><path class="cls-5" d="M284.86,344.16a1,1,0,1,0,1,1A1,1,0,0,0,284.86,344.16Z" transform="translate(60.71 48)"/><path class="cls-5" d="M293.15,344.16a1,1,0,1,0,1,1A1,1,0,0,0,293.15,344.16Z" transform="translate(60.71 48)"/><path class="cls-5" d="M185.38,351.24a1,1,0,0,0,0,1.95,1,1,0,1,0,0-1.95Z" transform="translate(60.71 48)"/><path class="cls-5" d="M193.67,351.24a1,1,0,0,0,0,1.95,1,1,0,1,0,0-1.95Z" transform="translate(60.71 48)"/><path class="cls-5" d="M202,351.24a1,1,0,0,0,0,1.95,1,1,0,1,0,0-1.95Z" transform="translate(60.71 48)"/><path class="cls-5" d="M210.25,351.24a1,1,0,0,0,0,1.95,1,1,0,1,0,0-1.95Z" transform="translate(60.71 48)"/><path class="cls-5" d="M218.54,351.24a1,1,0,0,0,0,1.95,1,1,0,1,0,0-1.95Z" transform="translate(60.71 48)"/><path class="cls-5" d="M226.83,351.24a1,1,0,0,0,0,1.95,1,1,0,1,0,0-1.95Z" transform="translate(60.71 48)"/><path class="cls-5" d="M235.12,351.24a1,1,0,0,0,0,1.95,1,1,0,1,0,0-1.95Z" transform="translate(60.71 48)"/><path class="cls-5" d="M243.41,351.24a1,1,0,0,0,0,1.95,1,1,0,1,0,0-1.95Z" transform="translate(60.71 48)"/><path class="cls-5" d="M251.7,351.24a1,1,0,0,0,0,1.95,1,1,0,1,0,0-1.95Z" transform="translate(60.71 48)"/><path class="cls-5" d="M260,351.24a1,1,0,0,0,0,1.95,1,1,0,1,0,0-1.95Z" transform="translate(60.71 48)"/><path class="cls-5" d="M268.28,351.24a1,1,0,0,0,0,1.95,1,1,0,1,0,0-1.95Z" transform="translate(60.71 48)"/><path class="cls-5" d="M276.57,351.24a1,1,0,0,0,0,1.95,1,1,0,1,0,0-1.95Z" transform="translate(60.71 48)"/><path class="cls-5" d="M284.86,351.24a1,1,0,0,0,0,1.95,1,1,0,1,0,0-1.95Z" transform="translate(60.71 48)"/><path class="cls-5" d="M293.15,351.24a1,1,0,1,0,1,1A1,1,0,0,0,293.15,351.24Z" transform="translate(60.71 48)"/><path class="cls-5" d="M185.38,358.31a1,1,0,0,0,0,1.95,1,1,0,1,0,0-1.95Z" transform="translate(60.71 48)"/><path class="cls-5" d="M193.67,358.31a1,1,0,0,0,0,1.95,1,1,0,1,0,0-1.95Z" transform="translate(60.71 48)"/><path class="cls-5" d="M202,358.31a1,1,0,0,0,0,1.95,1,1,0,1,0,0-1.95Z" transform="translate(60.71 48)"/><path class="cls-5" d="M210.25,358.31a1,1,0,0,0,0,1.95,1,1,0,1,0,0-1.95Z" transform="translate(60.71 48)"/><path class="cls-5" d="M218.54,358.31a1,1,0,0,0,0,1.95,1,1,0,1,0,0-1.95Z" transform="translate(60.71 48)"/><path class="cls-5" d="M226.83,358.31a1,1,0,0,0,0,1.95,1,1,0,1,0,0-1.95Z" transform="translate(60.71 48)"/><path class="cls-5" d="M235.12,358.31a1,1,0,0,0,0,1.95,1,1,0,1,0,0-1.95Z" transform="translate(60.71 48)"/><path class="cls-5" d="M243.41,358.31a1,1,0,0,0,0,1.95,1,1,0,1,0,0-1.95Z" transform="translate(60.71 48)"/><path class="cls-5" d="M251.7,358.31a1,1,0,0,0,0,1.95,1,1,0,1,0,0-1.95Z" transform="translate(60.71 48)"/><path class="cls-5" d="M260,358.31a1,1,0,0,0,0,1.95,1,1,0,1,0,0-1.95Z" transform="translate(60.71 48)"/><path class="cls-5" d="M268.28,358.31a1,1,0,0,0,0,1.95,1,1,0,1,0,0-1.95Z" transform="translate(60.71 48)"/><path class="cls-5" d="M276.57,358.31a1,1,0,0,0,0,1.95,1,1,0,1,0,0-1.95Z" transform="translate(60.71 48)"/><path class="cls-5" d="M284.86,358.31a1,1,0,0,0,0,1.95,1,1,0,1,0,0-1.95Z" transform="translate(60.71 48)"/><path class="cls-5" d="M293.15,358.31a1,1,0,1,0,1,1A1,1,0,0,0,293.15,358.31Z" transform="translate(60.71 48)"/><path class="cls-6" d="M448.27,198.75a1,1,0,1,0,0,1.95,1,1,0,0,0,0-1.95Z" transform="translate(60.71 48)"/><path class="cls-6" d="M456.56,198.75a1,1,0,1,0,0,1.95,1,1,0,0,0,0-1.95Z" transform="translate(60.71 48)"/><path class="cls-6" d="M464.85,198.75a1,1,0,1,0,0,1.95,1,1,0,0,0,0-1.95Z" transform="translate(60.71 48)"/><path class="cls-6" d="M473.14,198.75a1,1,0,1,0,0,1.95,1,1,0,0,0,0-1.95Z" transform="translate(60.71 48)"/><path class="cls-6" d="M481.43,198.75a1,1,0,1,0,0,1.95,1,1,0,0,0,0-1.95Z" transform="translate(60.71 48)"/><path class="cls-6" d="M489.72,198.75a1,1,0,1,0,0,1.95,1,1,0,0,0,0-1.95Z" transform="translate(60.71 48)"/><path class="cls-6" d="M498,198.75a1,1,0,1,0,0,1.95,1,1,0,0,0,0-1.95Z" transform="translate(60.71 48)"/><path class="cls-6" d="M506.3,198.75a1,1,0,1,0,0,1.95,1,1,0,0,0,0-1.95Z" transform="translate(60.71 48)"/><path class="cls-6" d="M514.59,198.75a1,1,0,1,0,0,1.95,1,1,0,0,0,0-1.95Z" transform="translate(60.71 48)"/><path class="cls-6" d="M522.88,198.75a1,1,0,1,0,0,1.95,1,1,0,0,0,0-1.95Z" transform="translate(60.71 48)"/><path class="cls-6" d="M531.17,198.75a1,1,0,1,0,0,1.95,1,1,0,0,0,0-1.95Z" transform="translate(60.71 48)"/><path class="cls-6" d="M539.46,198.75a1,1,0,1,0,0,1.95,1,1,0,0,0,0-1.95Z" transform="translate(60.71 48)"/><path class="cls-6" d="M547.75,198.75a1,1,0,1,0,0,1.95,1,1,0,0,0,0-1.95Z" transform="translate(60.71 48)"/><path class="cls-6" d="M556,200.7a1,1,0,0,0,0-1.95,1,1,0,1,0,0,1.95Z" transform="translate(60.71 48)"/><path class="cls-6" d="M448.27,205.82a1,1,0,1,0,0,2,1,1,0,0,0,0-2Z" transform="translate(60.71 48)"/><path class="cls-6" d="M456.56,205.82a1,1,0,1,0,0,2,1,1,0,0,0,0-2Z" transform="translate(60.71 48)"/><path class="cls-6" d="M464.85,205.82a1,1,0,1,0,0,2,1,1,0,0,0,0-2Z" transform="translate(60.71 48)"/><path class="cls-6" d="M473.14,205.82a1,1,0,1,0,0,2,1,1,0,0,0,0-2Z" transform="translate(60.71 48)"/><path class="cls-6" d="M481.43,205.82a1,1,0,1,0,0,2,1,1,0,0,0,0-2Z" transform="translate(60.71 48)"/><path class="cls-6" d="M489.72,205.82a1,1,0,1,0,0,2,1,1,0,0,0,0-2Z" transform="translate(60.71 48)"/><path class="cls-6" d="M498,205.82a1,1,0,1,0,0,2,1,1,0,0,0,0-2Z" transform="translate(60.71 48)"/><path class="cls-6" d="M506.3,205.82a1,1,0,1,0,0,2,1,1,0,0,0,0-2Z" transform="translate(60.71 48)"/><path class="cls-6" d="M514.59,205.82a1,1,0,1,0,0,2,1,1,0,0,0,0-2Z" transform="translate(60.71 48)"/><path class="cls-6" d="M522.88,205.82a1,1,0,1,0,0,2,1,1,0,0,0,0-2Z" transform="translate(60.71 48)"/><path class="cls-6" d="M531.17,205.82a1,1,0,1,0,0,2,1,1,0,0,0,0-2Z" transform="translate(60.71 48)"/><path class="cls-6" d="M539.46,205.82a1,1,0,1,0,0,2,1,1,0,0,0,0-2Z" transform="translate(60.71 48)"/><path class="cls-6" d="M547.75,205.82a1,1,0,1,0,0,2,1,1,0,0,0,0-2Z" transform="translate(60.71 48)"/><path class="cls-6" d="M556,205.82a1,1,0,1,0,0,2,1,1,0,0,0,0-2Z" transform="translate(60.71 48)"/><circle class="cls-6" cx="508.98" cy="261.87" r="0.98"/><circle class="cls-6" cx="517.27" cy="261.87" r="0.98"/><path class="cls-6" d="M464.85,212.89a1,1,0,1,0,0,2,1,1,0,0,0,0-2Z" transform="translate(60.71 48)"/><path class="cls-6" d="M473.14,212.89a1,1,0,1,0,0,2,1,1,0,0,0,0-2Z" transform="translate(60.71 48)"/><path class="cls-6" d="M481.43,212.89a1,1,0,1,0,0,2,1,1,0,0,0,0-2Z" transform="translate(60.71 48)"/><path class="cls-6" d="M489.72,212.89a1,1,0,1,0,0,2,1,1,0,0,0,0-2Z" transform="translate(60.71 48)"/><path class="cls-6" d="M498,212.89a1,1,0,1,0,0,2,1,1,0,0,0,0-2Z" transform="translate(60.71 48)"/><path class="cls-6" d="M506.3,212.89a1,1,0,1,0,0,2,1,1,0,0,0,0-2Z" transform="translate(60.71 48)"/><path class="cls-6" d="M514.59,212.89a1,1,0,1,0,0,2,1,1,0,0,0,0-2Z" transform="translate(60.71 48)"/><path class="cls-6" d="M522.88,212.89a1,1,0,1,0,0,2,1,1,0,0,0,0-2Z" transform="translate(60.71 48)"/><path class="cls-6" d="M531.17,212.89a1,1,0,1,0,0,2,1,1,0,0,0,0-2Z" transform="translate(60.71 48)"/><path class="cls-6" d="M539.46,212.89a1,1,0,1,0,0,2,1,1,0,0,0,0-2Z" transform="translate(60.71 48)"/><path class="cls-6" d="M547.75,212.89a1,1,0,1,0,0,2,1,1,0,0,0,0-2Z" transform="translate(60.71 48)"/><circle class="cls-6" cx="616.74" cy="261.87" r="0.98"/><circle class="cls-6" cx="508.98" cy="268.94" r="0.98"/><circle class="cls-6" cx="517.27" cy="268.94" r="0.98"/><path class="cls-6" d="M464.85,220a1,1,0,1,0,0,1.95,1,1,0,0,0,0-1.95Z" transform="translate(60.71 48)"/><path class="cls-6" d="M473.14,220a1,1,0,1,0,0,1.95,1,1,0,0,0,0-1.95Z" transform="translate(60.71 48)"/><path class="cls-6" d="M481.43,220a1,1,0,1,0,0,1.95,1,1,0,0,0,0-1.95Z" transform="translate(60.71 48)"/><path class="cls-6" d="M489.72,220a1,1,0,1,0,0,1.95,1,1,0,0,0,0-1.95Z" transform="translate(60.71 48)"/><path class="cls-6" d="M498,220a1,1,0,1,0,0,1.95,1,1,0,0,0,0-1.95Z" transform="translate(60.71 48)"/><path class="cls-6" d="M506.3,220a1,1,0,1,0,0,1.95,1,1,0,0,0,0-1.95Z" transform="translate(60.71 48)"/><path class="cls-6" d="M514.59,220a1,1,0,1,0,0,1.95,1,1,0,0,0,0-1.95Z" transform="translate(60.71 48)"/><path class="cls-6" d="M522.88,220a1,1,0,1,0,0,1.95,1,1,0,0,0,0-1.95Z" transform="translate(60.71 48)"/><path class="cls-6" d="M531.17,220a1,1,0,1,0,0,1.95,1,1,0,0,0,0-1.95Z" transform="translate(60.71 48)"/><path class="cls-6" d="M539.46,220a1,1,0,1,0,0,1.95,1,1,0,0,0,0-1.95Z" transform="translate(60.71 48)"/><path class="cls-6" d="M547.75,220a1,1,0,1,0,0,1.95,1,1,0,0,0,0-1.95Z" transform="translate(60.71 48)"/><circle class="cls-6" cx="616.74" cy="268.94" r="0.98"/><path class="cls-6" d="M-59.73,192.75a1,1,0,0,0-1,1,1,1,0,0,0,1,1,1,1,0,0,0,1-1A1,1,0,0,0-59.73,192.75Z" transform="translate(60.71 48)"/><path class="cls-6" d="M-51.44,192.75a1,1,0,0,0-1,1,1,1,0,0,0,1,1,1,1,0,0,0,1-1A1,1,0,0,0-51.44,192.75Z" transform="translate(60.71 48)"/><path class="cls-6" d="M-43.15,192.75a1,1,0,0,0-1,1,1,1,0,0,0,1,1,1,1,0,0,0,1-1A1,1,0,0,0-43.15,192.75Z" transform="translate(60.71 48)"/><path class="cls-6" d="M-34.86,192.75a1,1,0,0,0-1,1,1,1,0,0,0,1,1,1,1,0,0,0,1-1A1,1,0,0,0-34.86,192.75Z" transform="translate(60.71 48)"/><path class="cls-6" d="M-26.57,192.75a1,1,0,0,0-1,1,1,1,0,0,0,1,1,1,1,0,0,0,1-1A1,1,0,0,0-26.57,192.75Z" transform="translate(60.71 48)"/><path class="cls-6" d="M-18.28,192.75a1,1,0,0,0-1,1,1,1,0,0,0,1,1,1,1,0,0,0,1-1A1,1,0,0,0-18.28,192.75Z" transform="translate(60.71 48)"/><path class="cls-6" d="M-10,192.75a1,1,0,0,0-1,1,1,1,0,0,0,1,1,1,1,0,0,0,1-1A1,1,0,0,0-10,192.75Z" transform="translate(60.71 48)"/><path class="cls-6" d="M-1.7,192.75a1,1,0,0,0-1,1,1,1,0,0,0,1,1,1,1,0,0,0,1-1A1,1,0,0,0-1.7,192.75Z" transform="translate(60.71 48)"/><path class="cls-6" d="M6.59,192.75a1,1,0,1,0,0,1.95,1,1,0,0,0,0-1.95Z" transform="translate(60.71 48)"/><path class="cls-6" d="M14.88,192.75a1,1,0,1,0,0,1.95,1,1,0,0,0,0-1.95Z" transform="translate(60.71 48)"/><path class="cls-6" d="M23.17,192.75a1,1,0,1,0,0,1.95,1,1,0,0,0,0-1.95Z" transform="translate(60.71 48)"/><path class="cls-6" d="M31.46,192.75a1,1,0,1,0,0,1.95,1,1,0,0,0,0-1.95Z" transform="translate(60.71 48)"/><path class="cls-6" d="M39.75,192.75a1,1,0,1,0,0,1.95,1,1,0,0,0,0-1.95Z" transform="translate(60.71 48)"/><path class="cls-6" d="M48,194.7a1,1,0,0,0,0-1.95,1,1,0,1,0,0,1.95Z" transform="translate(60.71 48)"/><path class="cls-6" d="M-59.73,199.82a1,1,0,0,0-1,1,1,1,0,0,0,1,1,1,1,0,0,0,1-1A1,1,0,0,0-59.73,199.82Z" transform="translate(60.71 48)"/><path class="cls-6" d="M-51.44,199.82a1,1,0,0,0-1,1,1,1,0,0,0,1,1,1,1,0,0,0,1-1A1,1,0,0,0-51.44,199.82Z" transform="translate(60.71 48)"/><path class="cls-6" d="M-43.15,199.82a1,1,0,0,0-1,1,1,1,0,0,0,1,1,1,1,0,0,0,1-1A1,1,0,0,0-43.15,199.82Z" transform="translate(60.71 48)"/><path class="cls-6" d="M-34.86,199.82a1,1,0,0,0-1,1,1,1,0,0,0,1,1,1,1,0,0,0,1-1A1,1,0,0,0-34.86,199.82Z" transform="translate(60.71 48)"/><path class="cls-6" d="M-26.57,199.82a1,1,0,0,0-1,1,1,1,0,0,0,1,1,1,1,0,0,0,1-1A1,1,0,0,0-26.57,199.82Z" transform="translate(60.71 48)"/><path class="cls-6" d="M-18.28,199.82a1,1,0,0,0-1,1,1,1,0,0,0,1,1,1,1,0,0,0,1-1A1,1,0,0,0-18.28,199.82Z" transform="translate(60.71 48)"/><path class="cls-6" d="M-10,199.82a1,1,0,0,0-1,1,1,1,0,0,0,1,1,1,1,0,0,0,1-1A1,1,0,0,0-10,199.82Z" transform="translate(60.71 48)"/><path class="cls-6" d="M-1.7,199.82a1,1,0,0,0-1,1,1,1,0,0,0,1,1,1,1,0,0,0,1-1A1,1,0,0,0-1.7,199.82Z" transform="translate(60.71 48)"/><path class="cls-6" d="M6.59,199.82a1,1,0,1,0,0,2,1,1,0,0,0,0-2Z" transform="translate(60.71 48)"/><path class="cls-6" d="M14.88,199.82a1,1,0,1,0,0,2,1,1,0,0,0,0-2Z" transform="translate(60.71 48)"/><path class="cls-6" d="M23.17,199.82a1,1,0,1,0,0,2,1,1,0,0,0,0-2Z" transform="translate(60.71 48)"/><path class="cls-6" d="M31.46,199.82a1,1,0,1,0,0,2,1,1,0,0,0,0-2Z" transform="translate(60.71 48)"/><path class="cls-6" d="M39.75,199.82a1,1,0,1,0,0,2,1,1,0,0,0,0-2Z" transform="translate(60.71 48)"/><path class="cls-6" d="M48,199.82a1,1,0,1,0,0,2,1,1,0,0,0,0-2Z" transform="translate(60.71 48)"/><circle class="cls-6" cx="0.98" cy="255.87" r="0.98"/><circle class="cls-6" cx="9.27" cy="255.87" r="0.98"/><path class="cls-6" d="M-43.15,206.89a1,1,0,0,0-1,1,1,1,0,0,0,1,1,1,1,0,0,0,1-1A1,1,0,0,0-43.15,206.89Z" transform="translate(60.71 48)"/><path class="cls-6" d="M-34.86,206.89a1,1,0,0,0-1,1,1,1,0,0,0,1,1,1,1,0,0,0,1-1A1,1,0,0,0-34.86,206.89Z" transform="translate(60.71 48)"/><path class="cls-6" d="M-26.57,206.89a1,1,0,0,0-1,1,1,1,0,0,0,1,1,1,1,0,0,0,1-1A1,1,0,0,0-26.57,206.89Z" transform="translate(60.71 48)"/><path class="cls-6" d="M-18.28,206.89a1,1,0,0,0-1,1,1,1,0,0,0,1,1,1,1,0,0,0,1-1A1,1,0,0,0-18.28,206.89Z" transform="translate(60.71 48)"/><path class="cls-6" d="M-10,206.89a1,1,0,0,0-1,1,1,1,0,0,0,1,1,1,1,0,0,0,1-1A1,1,0,0,0-10,206.89Z" transform="translate(60.71 48)"/><circle class="cls-6" cx="-1.7" cy="207.87" r="0.98" transform="translate(57.12 48) rotate(-0.99)"/><circle class="cls-6" cx="67.29" cy="255.87" r="0.98"/><path class="cls-6" d="M14.88,206.89a1,1,0,1,0,0,2,1,1,0,0,0,0-2Z" transform="translate(60.71 48)"/><path class="cls-6" d="M23.17,206.89a1,1,0,1,0,0,2,1,1,0,0,0,0-2Z" transform="translate(60.71 48)"/><path class="cls-6" d="M31.46,206.89a1,1,0,1,0,0,2,1,1,0,0,0,0-2Z" transform="translate(60.71 48)"/><circle class="cls-6" cx="100.45" cy="255.87" r="0.98"/><circle class="cls-6" cx="108.74" cy="255.87" r="0.98"/><circle class="cls-6" cx="0.98" cy="262.94" r="0.98"/><circle class="cls-6" cx="9.27" cy="262.94" r="0.98"/><path class="cls-6" d="M-43.15,214a1,1,0,0,0-1,1,1,1,0,0,0,1,1,1,1,0,0,0,1-1A1,1,0,0,0-43.15,214Z" transform="translate(60.71 48)"/><path class="cls-6" d="M-34.86,214a1,1,0,0,0-1,1,1,1,0,0,0,1,1,1,1,0,0,0,1-1A1,1,0,0,0-34.86,214Z" transform="translate(60.71 48)"/><path class="cls-6" d="M-26.57,214a1,1,0,0,0-1,1,1,1,0,0,0,1,1,1,1,0,0,0,1-1A1,1,0,0,0-26.57,214Z" transform="translate(60.71 48)"/><path class="cls-6" d="M-18.28,214a1,1,0,0,0-1,1,1,1,0,0,0,1,1,1,1,0,0,0,1-1A1,1,0,0,0-18.28,214Z" transform="translate(60.71 48)"/><path class="cls-6" d="M-10,214a1,1,0,0,0-1,1,1,1,0,0,0,1,1,1,1,0,0,0,1-1A1,1,0,0,0-10,214Z" transform="translate(60.71 48)"/><circle class="cls-6" cx="-1.7" cy="214.94" r="0.98" transform="translate(57 48) rotate(-0.99)"/><circle class="cls-6" cx="67.29" cy="262.94" r="0.98"/><path class="cls-6" d="M14.88,214a1,1,0,1,0,0,1.95,1,1,0,0,0,0-1.95Z" transform="translate(60.71 48)"/><path class="cls-6" d="M23.17,214a1,1,0,1,0,0,1.95,1,1,0,0,0,0-1.95Z" transform="translate(60.71 48)"/><path class="cls-6" d="M31.46,214a1,1,0,1,0,0,1.95,1,1,0,0,0,0-1.95Z" transform="translate(60.71 48)"/><circle class="cls-6" cx="100.45" cy="262.94" r="0.98"/><circle class="cls-6" cx="108.74" cy="262.94" r="0.98"/><path class="cls-5" d="M668.27,307.75a1,1,0,1,0,0,1.95,1,1,0,0,0,0-1.95Z" transform="translate(60.71 48)"/><path class="cls-5" d="M676.56,307.75a1,1,0,1,0,0,1.95,1,1,0,0,0,0-1.95Z" transform="translate(60.71 48)"/><path class="cls-5" d="M684.85,307.75a1,1,0,1,0,0,1.95,1,1,0,0,0,0-1.95Z" transform="translate(60.71 48)"/><path class="cls-5" d="M693.14,307.75a1,1,0,1,0,0,1.95,1,1,0,0,0,0-1.95Z" transform="translate(60.71 48)"/><path class="cls-5" d="M701.43,307.75a1,1,0,1,0,0,1.95,1,1,0,0,0,0-1.95Z" transform="translate(60.71 48)"/><path class="cls-5" d="M709.72,307.75a1,1,0,1,0,0,1.95,1,1,0,0,0,0-1.95Z" transform="translate(60.71 48)"/><path class="cls-5" d="M718,307.75a1,1,0,1,0,0,1.95,1,1,0,0,0,0-1.95Z" transform="translate(60.71 48)"/><path class="cls-5" d="M726.3,307.75a1,1,0,1,0,0,1.95,1,1,0,0,0,0-1.95Z" transform="translate(60.71 48)"/><path class="cls-5" d="M734.59,307.75a1,1,0,1,0,0,1.95,1,1,0,0,0,0-1.95Z" transform="translate(60.71 48)"/><path class="cls-5" d="M742.88,307.75a1,1,0,1,0,0,1.95,1,1,0,0,0,0-1.95Z" transform="translate(60.71 48)"/><path class="cls-5" d="M751.17,307.75a1,1,0,1,0,0,1.95,1,1,0,0,0,0-1.95Z" transform="translate(60.71 48)"/><path class="cls-5" d="M759.46,307.75a1,1,0,1,0,0,1.95,1,1,0,0,0,0-1.95Z" transform="translate(60.71 48)"/><path class="cls-5" d="M767.75,307.75a1,1,0,1,0,0,1.95,1,1,0,0,0,0-1.95Z" transform="translate(60.71 48)"/><path class="cls-5" d="M776,309.7a1,1,0,0,0,0-1.95,1,1,0,1,0,0,1.95Z" transform="translate(60.71 48)"/><path class="cls-5" d="M668.27,314.82a1,1,0,1,0,0,1.95,1,1,0,0,0,0-1.95Z" transform="translate(60.71 48)"/><path class="cls-5" d="M676.56,314.82a1,1,0,1,0,0,1.95,1,1,0,0,0,0-1.95Z" transform="translate(60.71 48)"/><path class="cls-5" d="M684.85,314.82a1,1,0,1,0,0,1.95,1,1,0,0,0,0-1.95Z" transform="translate(60.71 48)"/><path class="cls-5" d="M693.14,314.82a1,1,0,1,0,0,1.95,1,1,0,0,0,0-1.95Z" transform="translate(60.71 48)"/><path class="cls-5" d="M701.43,314.82a1,1,0,1,0,0,1.95,1,1,0,0,0,0-1.95Z" transform="translate(60.71 48)"/><path class="cls-5" d="M709.72,314.82a1,1,0,1,0,0,1.95,1,1,0,0,0,0-1.95Z" transform="translate(60.71 48)"/><path class="cls-5" d="M718,314.82a1,1,0,1,0,0,1.95,1,1,0,0,0,0-1.95Z" transform="translate(60.71 48)"/><path class="cls-5" d="M726.3,314.82a1,1,0,1,0,0,1.95,1,1,0,0,0,0-1.95Z" transform="translate(60.71 48)"/><path class="cls-5" d="M734.59,314.82a1,1,0,1,0,0,1.95,1,1,0,0,0,0-1.95Z" transform="translate(60.71 48)"/><path class="cls-5" d="M742.88,314.82a1,1,0,1,0,0,1.95,1,1,0,0,0,0-1.95Z" transform="translate(60.71 48)"/><path class="cls-5" d="M751.17,314.82a1,1,0,1,0,0,1.95,1,1,0,0,0,0-1.95Z" transform="translate(60.71 48)"/><path class="cls-5" d="M759.46,314.82a1,1,0,1,0,0,1.95,1,1,0,0,0,0-1.95Z" transform="translate(60.71 48)"/><path class="cls-5" d="M767.75,314.82a1,1,0,1,0,0,1.95,1,1,0,0,0,0-1.95Z" transform="translate(60.71 48)"/><path class="cls-5" d="M776,314.82a1,1,0,1,0,0,1.95,1,1,0,0,0,0-1.95Z" transform="translate(60.71 48)"/><circle class="cls-5" cx="728.98" cy="370.87" r="0.98"/><circle class="cls-5" cx="737.27" cy="370.87" r="0.98"/><path class="cls-5" d="M684.85,321.89a1,1,0,1,0,0,1.95,1,1,0,0,0,0-1.95Z" transform="translate(60.71 48)"/><path class="cls-5" d="M693.14,321.89a1,1,0,1,0,0,1.95,1,1,0,0,0,0-1.95Z" transform="translate(60.71 48)"/><path class="cls-5" d="M701.43,321.89a1,1,0,1,0,0,1.95,1,1,0,0,0,0-1.95Z" transform="translate(60.71 48)"/><path class="cls-5" d="M709.72,321.89a1,1,0,1,0,0,1.95,1,1,0,0,0,0-1.95Z" transform="translate(60.71 48)"/><path class="cls-5" d="M718,321.89a1,1,0,1,0,0,1.95,1,1,0,0,0,0-1.95Z" transform="translate(60.71 48)"/><path class="cls-5" d="M726.3,321.89a1,1,0,1,0,0,1.95,1,1,0,0,0,0-1.95Z" transform="translate(60.71 48)"/><path class="cls-5" d="M734.59,321.89a1,1,0,1,0,0,1.95,1,1,0,0,0,0-1.95Z" transform="translate(60.71 48)"/><path class="cls-5" d="M742.88,321.89a1,1,0,1,0,0,1.95,1,1,0,0,0,0-1.95Z" transform="translate(60.71 48)"/><path class="cls-5" d="M751.17,321.89a1,1,0,1,0,0,1.95,1,1,0,0,0,0-1.95Z" transform="translate(60.71 48)"/><path class="cls-5" d="M759.46,321.89a1,1,0,1,0,0,1.95,1,1,0,0,0,0-1.95Z" transform="translate(60.71 48)"/><path class="cls-5" d="M767.75,321.89a1,1,0,1,0,0,1.95,1,1,0,0,0,0-1.95Z" transform="translate(60.71 48)"/><circle class="cls-5" cx="836.74" cy="370.87" r="0.98"/><circle class="cls-5" cx="728.98" cy="377.94" r="0.98"/><circle class="cls-5" cx="737.27" cy="377.94" r="0.98"/><path class="cls-5" d="M684.85,329a1,1,0,1,0,0,2,1,1,0,0,0,0-2Z" transform="translate(60.71 48)"/><path class="cls-5" d="M693.14,329a1,1,0,1,0,0,2,1,1,0,0,0,0-2Z" transform="translate(60.71 48)"/><path class="cls-5" d="M701.43,329a1,1,0,1,0,0,2,1,1,0,0,0,0-2Z" transform="translate(60.71 48)"/><path class="cls-5" d="M709.72,329a1,1,0,1,0,0,2,1,1,0,0,0,0-2Z" transform="translate(60.71 48)"/><path class="cls-5" d="M718,329a1,1,0,1,0,0,2,1,1,0,0,0,0-2Z" transform="translate(60.71 48)"/><path class="cls-5" d="M726.3,329a1,1,0,1,0,0,2,1,1,0,0,0,0-2Z" transform="translate(60.71 48)"/><path class="cls-5" d="M734.59,329a1,1,0,1,0,0,2,1,1,0,0,0,0-2Z" transform="translate(60.71 48)"/><path class="cls-5" d="M742.88,329a1,1,0,1,0,0,2,1,1,0,0,0,0-2Z" transform="translate(60.71 48)"/><path class="cls-5" d="M751.17,329a1,1,0,1,0,0,2,1,1,0,0,0,0-2Z" transform="translate(60.71 48)"/><path class="cls-5" d="M759.46,329a1,1,0,1,0,0,2,1,1,0,0,0,0-2Z" transform="translate(60.71 48)"/><path class="cls-5" d="M767.75,329a1,1,0,1,0,0,2,1,1,0,0,0,0-2Z" transform="translate(60.71 48)"/><circle class="cls-5" cx="836.74" cy="377.94" r="0.98"/><polygon class="cls-5" points="384.73 310.98 369.24 312.38 367.84 327.87 352.35 329.28 350.75 346.84 355.71 347.29 356.93 333.86 372.42 332.46 373.83 316.97 389.31 315.56 389.32 315.49 384.74 310.9 384.73 310.98"/><polygon class="cls-5" points="378.4 321.54 376.99 337.03 361.5 338.44 359.9 355.99 364.86 356.44 366.08 343.02 381.57 341.61 382.98 326.12 398.47 324.71 398.48 324.64 393.89 320.06 393.88 320.13 378.4 321.54"/><polygon class="cls-6" points="274.77 106.43 273.36 90.94 257.87 89.54 256.47 74.05 238.91 72.45 238.46 77.41 251.88 78.63 253.29 94.12 268.78 95.53 270.19 111.02 270.26 111.02 274.85 106.44 274.77 106.43"/><polygon class="cls-6" points="264.21 100.1 248.72 98.69 247.31 83.2 229.76 81.6 229.31 86.56 242.73 87.78 244.14 103.27 259.63 104.68 261.04 120.17 261.11 120.17 265.69 115.59 265.62 115.59 264.21 100.1"/><polygon class="cls-5" points="93.77 418.43 92.36 402.94 76.87 401.54 75.47 386.05 57.91 384.45 57.46 389.41 70.88 390.63 72.29 406.12 87.78 407.53 89.19 423.01 89.26 423.02 93.85 418.44 93.77 418.43"/><polygon class="cls-5" points="83.21 412.1 67.72 410.69 66.31 395.2 48.76 393.6 48.31 398.56 61.73 399.78 63.14 415.27 78.63 416.68 80.04 432.17 80.11 432.18 84.69 427.59 84.62 427.58 83.21 412.1"/><polygon class="cls-6" points="750.77 542.43 749.36 526.94 733.87 525.54 732.47 510.05 714.91 508.45 714.46 513.41 727.88 514.63 729.29 530.12 744.78 531.53 746.19 547.01 746.26 547.02 750.85 542.44 750.77 542.43"/><polygon class="cls-6" points="740.21 536.1 724.72 534.69 723.31 519.2 705.76 517.6 705.31 522.56 718.73 523.78 720.14 539.27 735.63 540.68 737.04 556.17 737.11 556.17 741.69 551.59 741.62 551.59 740.21 536.1"/><polygon class="cls-4" points="604.62 114.87 589.13 116.28 587.72 131.76 572.23 133.17 570.64 150.73 575.59 151.18 576.81 137.75 592.3 136.35 593.71 120.86 609.2 119.45 609.21 119.38 604.62 114.79 604.62 114.87"/><polygon class="cls-4" points="598.28 125.43 596.87 140.92 581.38 142.32 579.79 159.88 584.75 160.33 585.97 146.91 601.46 145.5 602.86 130.01 618.35 128.6 618.36 128.53 613.78 123.94 613.77 124.02 598.28 125.43"/><polygon class="cls-4" points="317.08 514.55 301.59 515.96 300.18 531.45 284.69 532.86 283.1 550.41 288.05 550.86 289.27 537.44 304.76 536.03 306.17 520.54 321.66 519.14 321.67 519.06 317.08 514.48 317.08 514.55"/><polygon class="cls-4" points="310.74 525.11 309.33 540.6 293.84 542.01 292.25 559.57 297.2 560.02 298.43 546.59 313.92 545.18 315.32 529.7 330.81 528.29 330.82 528.21 326.24 523.63 326.23 523.71 310.74 525.11"/><path class="cls-6" d="M251.17,398.55a2.75,2.75,0,1,0,2.74,2.75A2.75,2.75,0,0,0,251.17,398.55Z" transform="translate(60.71 48)"/><path class="cls-6" d="M261.56,404a2.75,2.75,0,1,0-2.74-2.74A2.74,2.74,0,0,0,261.56,404Z" transform="translate(60.71 48)"/><path class="cls-6" d="M251.17,409a2.74,2.74,0,1,0,2.74,2.74A2.75,2.75,0,0,0,251.17,409Z" transform="translate(60.71 48)"/><path class="cls-6" d="M261.56,409a2.74,2.74,0,1,0,2.74,2.74A2.74,2.74,0,0,0,261.56,409Z" transform="translate(60.71 48)"/><path class="cls-5" d="M8.71,245a2.74,2.74,0,1,0,2.74,2.74A2.75,2.75,0,0,0,8.71,245Z" transform="translate(60.71 48)"/><circle class="cls-5" cx="79.81" cy="295.76" r="2.74"/><path class="cls-5" d="M8.71,255.41a2.75,2.75,0,1,0,2.74,2.75A2.75,2.75,0,0,0,8.71,255.41Z" transform="translate(60.71 48)"/><path class="cls-5" d="M19.1,255.41a2.75,2.75,0,1,0,2.74,2.75A2.74,2.74,0,0,0,19.1,255.41Z" transform="translate(60.71 48)"/><path class="cls-4" d="M523.4,481a2.75,2.75,0,1,0,2.74,2.74A2.75,2.75,0,0,0,523.4,481Z" transform="translate(60.71 48)"/><path class="cls-4" d="M533.79,486.44a2.75,2.75,0,1,0-2.74-2.75A2.74,2.74,0,0,0,533.79,486.44Z" transform="translate(60.71 48)"/><path class="cls-4" d="M523.4,491.34a2.75,2.75,0,1,0,2.74,2.75A2.75,2.75,0,0,0,523.4,491.34Z" transform="translate(60.71 48)"/><path class="cls-4" d="M533.79,491.34a2.75,2.75,0,1,0,2.74,2.75A2.75,2.75,0,0,0,533.79,491.34Z" transform="translate(60.71 48)"/><path class="cls-4" d="M695.26-3.62a2.75,2.75,0,0,0-2.75,2.74,2.75,2.75,0,0,0,2.75,2.75A2.75,2.75,0,0,0,698-.88,2.74,2.74,0,0,0,695.26-3.62Z" transform="translate(60.71 48)"/><path class="cls-4" d="M705.65,1.87a2.74,2.74,0,0,0,2.74-2.75,2.74,2.74,0,0,0-2.74-2.74,2.74,2.74,0,0,0-2.74,2.74A2.75,2.75,0,0,0,705.65,1.87Z" transform="translate(60.71 48)"/><path class="cls-4" d="M695.26,6.77A2.75,2.75,0,1,0,698,9.52,2.75,2.75,0,0,0,695.26,6.77Z" transform="translate(60.71 48)"/><path class="cls-4" d="M705.65,6.77a2.75,2.75,0,1,0,2.74,2.75A2.75,2.75,0,0,0,705.65,6.77Z" transform="translate(60.71 48)"/><path class="cls-4" d="M347.9,211.4a2.75,2.75,0,1,0,2.74,2.74A2.74,2.74,0,0,0,347.9,211.4Z" transform="translate(60.71 48)"/><path class="cls-4" d="M358.29,216.89a2.75,2.75,0,1,0-2.74-2.75A2.75,2.75,0,0,0,358.29,216.89Z" transform="translate(60.71 48)"/><path class="cls-4" d="M347.9,221.79a2.75,2.75,0,1,0,2.74,2.75A2.74,2.74,0,0,0,347.9,221.79Z" transform="translate(60.71 48)"/><path class="cls-4" d="M358.29,221.79a2.75,2.75,0,1,0,2.75,2.75A2.75,2.75,0,0,0,358.29,221.79Z" transform="translate(60.71 48)"/><path class="cls-4" d="M326.75-7.26A2.75,2.75,0,0,0,324-4.51a2.74,2.74,0,0,0,2.74,2.74,2.74,2.74,0,0,0,2.74-2.74A2.74,2.74,0,0,0,326.75-7.26Z" transform="translate(60.71 48)"/><path class="cls-4" d="M337.15-1.77a2.74,2.74,0,0,0,2.74-2.74,2.75,2.75,0,0,0-2.74-2.75,2.75,2.75,0,0,0-2.75,2.75A2.75,2.75,0,0,0,337.15-1.77Z" transform="translate(60.71 48)"/><path class="cls-4" d="M326.75,3.14a2.74,2.74,0,1,0,2.74,2.74A2.74,2.74,0,0,0,326.75,3.14Z" transform="translate(60.71 48)"/><path class="cls-4" d="M337.15,3.14a2.74,2.74,0,1,0,2.74,2.74A2.75,2.75,0,0,0,337.15,3.14Z" transform="translate(60.71 48)"/><path class="cls-5" d="M576.56,154.09a2.75,2.75,0,1,0,2.74,2.75A2.75,2.75,0,0,0,576.56,154.09Z" transform="translate(60.71 48)"/><path class="cls-5" d="M587,159.58a2.75,2.75,0,1,0-2.74-2.74A2.74,2.74,0,0,0,587,159.58Z" transform="translate(60.71 48)"/><circle class="cls-5" cx="637.26" cy="215.23" r="2.74"/><circle class="cls-5" cx="586.95" cy="167.23" r="2.74" transform="translate(41.56 143.61) rotate(-9.16)"/><path class="cls-5" d="M713.82,272a2.75,2.75,0,1,0,2.75,2.74A2.74,2.74,0,0,0,713.82,272Z" transform="translate(60.71 48)"/><path class="cls-5" d="M724.22,277.47a2.75,2.75,0,1,0-2.74-2.75A2.75,2.75,0,0,0,724.22,277.47Z" transform="translate(60.71 48)"/><path class="cls-5" d="M713.82,282.37a2.75,2.75,0,1,0,2.75,2.75A2.75,2.75,0,0,0,713.82,282.37Z" transform="translate(60.71 48)"/><path class="cls-5" d="M724.22,282.37a2.75,2.75,0,1,0,2.74,2.75A2.74,2.74,0,0,0,724.22,282.37Z" transform="translate(60.71 48)"/><path class="cls-6" d="M392.76,86.82a2.74,2.74,0,1,0,2.75,2.74A2.74,2.74,0,0,0,392.76,86.82Z" transform="translate(60.71 48)"/><path class="cls-6" d="M403.16,92.3a2.74,2.74,0,1,0-2.74-2.74A2.74,2.74,0,0,0,403.16,92.3Z" transform="translate(60.71 48)"/><path class="cls-6" d="M392.76,97.21a2.75,2.75,0,1,0,2.75,2.75A2.75,2.75,0,0,0,392.76,97.21Z" transform="translate(60.71 48)"/><path class="cls-6" d="M403.16,97.21A2.75,2.75,0,1,0,405.9,100,2.74,2.74,0,0,0,403.16,97.21Z" transform="translate(60.71 48)"/><path class="cls-6" d="M43.82-2.13A2.75,2.75,0,1,0,46.56.62,2.75,2.75,0,0,0,43.82-2.13Z" transform="translate(60.71 48)"/><path class="cls-6" d="M54.21,3.36A2.75,2.75,0,1,0,51.47.62,2.74,2.74,0,0,0,54.21,3.36Z" transform="translate(60.71 48)"/><path class="cls-6" d="M43.82,8.27A2.74,2.74,0,1,0,46.56,11,2.75,2.75,0,0,0,43.82,8.27Z" transform="translate(60.71 48)"/><path class="cls-6" d="M54.21,8.27A2.74,2.74,0,1,0,57,11,2.74,2.74,0,0,0,54.21,8.27Z" transform="translate(60.71 48)"/><circle class="cls-5" cx="214.71" cy="153.4" r="2.74"/><circle class="cls-5" cx="225.1" cy="153.4" r="2.74"/><circle class="cls-5" cx="214.71" cy="163.8" r="2.74"/><circle class="cls-5" cx="225.1" cy="163.8" r="2.74"/><path class="cls-4" d="M161.7,291.35a2.74,2.74,0,1,0,2.75,2.74A2.74,2.74,0,0,0,161.7,291.35Z" transform="translate(60.71 48)"/><circle class="cls-4" cx="232.8" cy="342.09" r="2.74"/><path class="cls-4" d="M161.7,301.74a2.75,2.75,0,1,0,2.75,2.74A2.74,2.74,0,0,0,161.7,301.74Z" transform="translate(60.71 48)"/><circle class="cls-4" cx="232.8" cy="352.48" r="2.74"/></g></g></g></svg>