<?xml version="1.0"?>
<svg xmlns="http://www.w3.org/2000/svg" xmlns:xlink="http://www.w3.org/1999/xlink" xmlns:svgjs="http://svgjs.com/svgjs" version="1.1" width="512" height="512" x="0" y="0" viewBox="0 0 512 512" style="enable-background:new 0 0 512 512" xml:space="preserve" class=""><g><g xmlns="http://www.w3.org/2000/svg"><path d="m497 201h-22.785c-5.339-21.312-13.722-41.546-25.026-60.407l16.115-16.115c5.858-5.858 5.858-15.355 0-21.213l-56.569-56.569c-5.858-5.858-15.355-5.858-21.213 0l-16.115 16.115c-18.859-11.304-39.096-19.687-60.407-25.026v-22.785c0-8.284-6.716-15-15-15h-80c-8.284 0-15 6.716-15 15v22.785c-21.311 5.338-41.548 13.722-60.407 25.026l-16.115-16.115c-5.858-5.858-15.355-5.858-21.213 0l-56.568 56.569c-5.858 5.858-5.858 15.355 0 21.213l16.114 16.115c-11.304 18.86-19.687 39.094-25.026 60.407h-22.785c-8.284 0-15 6.716-15 15v80c0 8.284 6.716 15 15 15h22.785c5.339 21.313 13.722 41.547 25.026 60.407l-16.115 16.115c-5.858 5.858-5.858 15.355 0 21.213l56.569 56.568c5.858 5.858 15.355 5.858 21.213 0l16.115-16.115c18.86 11.303 39.097 19.687 60.407 25.025v22.787c0 8.284 6.716 15 15 15h80c8.284 0 15-6.716 15-15v-22.786c21.31-5.338 41.547-13.722 60.407-25.025l16.115 16.114c5.858 5.858 15.355 5.858 21.213 0l56.569-56.568c5.858-5.858 5.858-15.355 0-21.213l-16.115-16.115c11.304-18.861 19.687-39.095 25.025-60.407h22.786c8.284 0 15-6.716 15-15v-80c0-8.284-6.716-15-15-15zm-241 210c-85.467 0-155-69.533-155-155s69.533-155 155-155 155 69.533 155 155-69.533 155-155 155z" fill="#4b4b5a" data-original="#000000" style="" class=""/><circle cx="256" cy="236" r="35" fill="#4b4b5a" data-original="#000000" style="" class=""/><path d="m256 301c-34.763 0-63.236 27.431-64.918 61.784 18.933 11.553 41.162 18.216 64.918 18.216s45.985-6.663 64.918-18.216c-1.682-34.353-30.155-61.784-64.918-61.784z" fill="#4b4b5a" data-original="#000000" style="" class=""/><path d="m256 131c-68.925 0-125 56.075-125 125 0 32.759 12.673 62.609 33.366 84.922 6.89-25.146 23.873-46.163 46.309-58.394-12.125-11.815-19.675-28.302-19.675-46.528 0-35.841 29.159-65 65-65s65 29.159 65 65c0 18.226-7.55 34.713-19.675 46.527 22.436 12.232 39.419 33.248 46.309 58.394 20.693-22.312 33.366-52.162 33.366-84.921 0-68.925-56.075-125-125-125z" fill="#4b4b5a" data-original="#000000" style="" class=""/></g></g></svg>
