<svg xmlns="http://www.w3.org/2000/svg" viewBox="0 0 2604.43 1817.29"><defs><style>.cls-1,.cls-22{fill:#9bc1f9;}.cls-1{opacity:0.1;}.cls-2{fill:#256653;}.cls-3{fill:#3c8f7c;}.cls-4{fill:#327f6b;}.cls-5{fill:#50bfa5;}.cls-6{fill:#96d9c9;}.cls-7{fill:#f8a492;}.cls-8{fill:#355389;}.cls-9{fill:#fe875e;}.cls-10{fill:#13375b;}.cls-11{fill:#f7cc7f;}.cls-12{fill:#f48c7f;}.cls-13{fill:#f47458;}.cls-14{fill:#184655;}.cls-15{fill:#f7a491;}.cls-16{fill:#466eb6;}.cls-17{fill:#fff;}.cls-18{fill:#dd513a;}.cls-19{fill:#e0973f;}.cls-20{fill:#0e2e35;}.cls-21{fill:#6a97ce;}</style></defs><g id="Layer_2" data-name="Layer 2"><g id="Layer_1-2" data-name="Layer 1"><path class="cls-1" d="M223.19,1806H2500.66c188.77-157.47,91.62-631.31-66-727.37-169.72-103.4,99.79-461-161.67-577.06-170.7-75.78-442.2,6.82-405.68-195.94C1917.9,24.43,1326-47.6,889.91,28.18,418.46,110.12,849,513,330.53,594.14,63.93,635.88,115.45,993,140.31,1066.75,162,1131,305.2,1233,106.13,1373.34-185.78,1579.18,216.31,1802.17,223.19,1806Z"/><path class="cls-2" d="M2246.17,603.28s-37.28,81.16-62.37,115.45-49,67.07-69,162.23-16.58,104.72-22.06,129.3-41.14,124.16-41.34,142.42-72.06,122.21-90.47,170.87-51,118.15-49.18,153.53l8.19-2.08s6.68-82.5,63.48-165.88,48.68-99.12,113.18-142S2202.76,1006,2202.76,1006s65.62-128.52,62.57-195.34S2279.69,683.61,2246.17,603.28Z"/><path class="cls-2" d="M2158.86,478.44s-2.17,53.32-19.37,85-32,50.91-35.13,85.18-13.93,122.61-61.88,165.74-54.08,172.37-90.59,211.46-41.27,67.2-34.53,134.25S1947,1320,1894,1441.32l-12-30.17s37.88-99.78,28.71-158.21-41.09-146.71-29.4-189-31.76-50.61-5.6-114.65,15.41-86.29,51-141.66c0,0,3.65-2.59,13-49.44s84.83-132.71,119.6-162S2144.32,519.87,2158.86,478.44Z"/><path class="cls-3" d="M2017.21,742.43s-41.65,71.3-42.24,117.19,4.37,83.23-16.7,146.07S1979,1108.27,1967,1143s-13,75.78-12.62,106.93-47.7,134.26-55,186.46,2,52.38,2,52.38,8-68.92,19-91.71,44.69-101.37,52.55-131.77,29.15-49.91,47.52-101.39S2065,1069,2063,996,2090.37,845.8,2017.21,742.43Z"/><path class="cls-3" d="M1929,1440.9s19.43-90.49,101.32-99.53,130,7.16,187.86-58.95,91.46-171,109.94-189.09c0,0-29.07-15-77.4,30.22s-82.27,79.46-110.25,105.76-50.7,9.16-80.23,26.5c-24.76,14.53-56.77,56.54-70.87,78.54a99.07,99.07,0,0,1-16.25,19.46c-5.67,5.24-12.43,11.66-16.77,16.38-8.67,9.45-33.68,71-33.68,71Z"/><path class="cls-3" d="M1900.17,1424.94s28.86-110.67,9.53-164.83-79.85-94.23-77.42-128.25,41.29-126,9.61-194.42c0,0-12,61.06-23.91,74.64s-93.38,68.36-78.93,140.71,93.68,89.25,113.19,110.55,45.85,21.27,46,35.43,5.31,65.65-3.44,116.46Z"/><path class="cls-4" d="M1931.73,1350.87l40.55-116.79s23.81-93.95,37.62-172.29,7.31-319.36,7.31-319.36-41.65,71.3-42.24,117.19,4.37,83.23-16.7,146.07S1979,1108.27,1967,1143s-13,75.78-12.62,106.93-47.7,134.26-55,186.46c-4,28.6-3,41.57-1.29,47.46C1891.53,1438.16,1931.73,1350.87,1931.73,1350.87Z"/><path class="cls-4" d="M2131.45,1281.3c-36.17,7.22-68.51,4.76-111.45,36.72s-68.19,66.09-68.19,66.09-19.31,34.49-27.28,52.68c-1.15,2.78-1.83,4.44-1.83,4.44l6.33-.33s19.43-90.49,101.32-99.53,130,7.16,187.86-58.95,91.46-171,109.94-189.09c0,0-61.54,47.87-99.56,90.24S2167.62,1274.07,2131.45,1281.3Z"/><path class="cls-4" d="M1818,1012.08c-11.88,13.59-93.38,68.36-78.93,140.71s93.68,89.25,113.19,110.55,45.85,21.27,46,35.43,5.31,65.65-3.44,116.46l2.33,4.24c4.28-19.83,10.21-50,12.15-73,3.15-37.23-2.89-52.65-14.85-82.81s-86.34-91.61-105-123.91,35.94-86.3,48-112.37,4.37-90,4.37-90S1829.85,998.5,1818,1012.08Z"/><path class="cls-5" d="M2011.3,1371.47,2024,1340.7c9.87-22.63,35.15-33.43,56.45-24.13h0c53.68,23.43,77,88.65,52.13,145.68l-18.2,41.69c-8,18.26-5.2,38.36,5.55,52.52,9.77,12.87,11.36,30.76,4.59,46.27l-9.59,22a87.44,87.44,0,0,1-54.57,48.69,53,53,0,0,0-33,29.77l-13.59,31.12c-15,34.4-53.45,50.83-85.83,36.7l-18.48-8.07c-32.39-14.14-46.47-53.49-31.45-87.9h0c24.28-41.14,22.35-71.84,13.74-92.67a124.58,124.58,0,0,1,1.18-97.21l1.92-4.4a123.69,123.69,0,0,1,75.58-68.39C1985.19,1407.68,2000.48,1396.27,2011.3,1371.47Z"/><path class="cls-6" d="M1782.08,1806c26.05-33.78,168.9-214.72,262.05-244.88C2146.94,1527.8,2050,1660,2050,1660s182.39-199.44,249.32-181.46c61.36,16.48,0,140.1,0,140.1s69.1-68.46,152.91-68.46c81.55,0-57,242.78-64.46,255.78Z"/><path class="cls-3" d="M2331.75,1414.52a1202.06,1202.06,0,0,0-160,383l-5.1-1.37A1209.31,1209.31,0,0,1,2326,1416.38c17.29-27,36-59.07,68.34-69.61.62-.2.86.75.26,1C2365.05,1358.88,2347.92,1389.26,2331.75,1414.52Z"/><path class="cls-3" d="M2189.71,1802.37a1501.62,1501.62,0,0,1,304.89-308.93c1.2-.91,2.83,1.19,1.62,2.12A1500.22,1500.22,0,0,0,2196,1804.06Z"/><path class="cls-3" d="M2338.56,1342.35c1.92,2.82,9.26,10.18,11.42,19.84,2.89,9.17.61,20.65.36,20.25-.55.23,8.5-7.42,11.33-19.59,3.66-11.68,1.09-27.87-3.46-33.23-7.86-12.13-21.6-13.36-24.27-7.48C2331.11,1328,2334.7,1335.93,2338.56,1342.35Z"/><path class="cls-3" d="M2356.39,1446.23c-2.79-2-10-9.46-19.62-11.81-9.11-3.07-20.64-1-20.24-.76-.24.55,7.59-8.35,19.82-10.93,11.74-3.43,27.88-.55,33.15,4.11,12,8.1,12.93,21.86,7,24.41C2370.6,1454,2362.73,1450.22,2356.39,1446.23Z"/><path class="cls-3" d="M2329.48,1491.76c-2.78-2-10-9.46-19.62-11.8-9.11-3.08-20.63-1-20.23-.77-.24.55,7.59-8.35,19.81-10.93,11.74-3.43,27.88-.55,33.16,4.11,12,8.1,12.93,21.86,7,24.41C2343.7,1499.5,2335.82,1495.75,2329.48,1491.76Z"/><path class="cls-3" d="M2425.45,1597.37c-2.79-2-10-9.46-19.62-11.8-9.11-3.08-20.63-1-20.24-.77-.24.55,7.59-8.35,19.82-10.93,11.74-3.43,27.88-.55,33.15,4.11,12,8.1,12.93,21.86,7,24.41C2439.66,1605.11,2431.79,1601.36,2425.45,1597.37Z"/><path class="cls-3" d="M2474.48,1554.18c-2.79-2-10-9.46-19.62-11.81-9.11-3.08-20.64-1-20.24-.76-.24.55,7.59-8.35,19.81-10.94,11.75-3.42,27.89-.54,33.16,4.11,12,8.1,12.93,21.86,7,24.42C2488.69,1561.91,2480.82,1558.16,2474.48,1554.18Z"/><path class="cls-3" d="M2300.91,1393.87c2.34,2.48,10.75,8.59,14.41,17.8,4.31,8.59,3.86,20.29,3.55,19.93-.51.32,7.22-8.67,8.09-21.13,1.78-12.11-3.3-27.69-8.65-32.27-9.67-10.74-23.43-9.79-25.14-3.56C2291.29,1380.86,2296.09,1388.14,2300.91,1393.87Z"/><path class="cls-3" d="M2261.35,1445.5c3.33,1.77,15,5,20.81,13.68,6.62,7.74,7.47,21,7,20.72-.63.57,8.29-12.78,7.9-27.07.83-14.27-7.65-29.48-15.12-32.29-13.83-7.83-31.53-.85-33,6.84C2247.32,1435.12,2254.41,1441.18,2261.35,1445.5Z"/><path class="cls-3" d="M2219.71,1523.71c3.58,1.18,15.59,2.38,22.82,10,7.83,6.52,10.88,19.44,10.41,19.25-.52.66,6-14,3.24-28-1.59-14.21-12.5-27.78-20.34-29.3-15-5.38-31.22,4.47-31.36,12.29C2204.13,1515.83,2212.15,1520.62,2219.71,1523.71Z"/><path class="cls-3" d="M2342.93,1578.19c2.6,1.63,11.88,4.89,16.15,12.31,4.94,6.67,4.87,17.5,4.53,17.25-.54.43,7.47-9.92,8-21.56,1.48-11.57-4.54-24.42-10.46-27.14-10.81-7.15-25.6-2.48-27.22,3.69C2332.1,1568.94,2337.53,1574.28,2342.93,1578.19Z"/><path class="cls-3" d="M2407.07,1360.66c-1.56-1.29-5.49-6-11.08-7.85-5.26-2.22-12.17-1.5-11.94-1.33-.17.31,4.85-4.61,12.2-5.61,7.09-1.51,16.51.9,19.43,3.89,6.73,5.31,6.69,13.49,3.07,14.74S2410.65,1363.29,2407.07,1360.66Z"/><path class="cls-3" d="M2392.13,1327.42c.07,2,1.43,8-.55,13.57-1.45,5.52-6.24,10.55-6.23,10.28-.35-.06,6.61-1,11.88-6.25,5.53-4.69,9.38-13.63,8.79-17.76-.1-8.57-6.6-13.54-9.8-11.43S2392.23,1323,2392.13,1327.42Z"/><path class="cls-3" d="M2509.78,1510.18c-1.56-1.28-5.5-6-11.08-7.84-5.26-2.22-12.17-1.5-11.94-1.34-.17.32,4.85-4.6,12.2-5.6,7.09-1.51,16.51.9,19.43,3.88,6.73,5.32,6.69,13.5,3.07,14.75S2513.36,1512.82,2509.78,1510.18Z"/><path class="cls-3" d="M2491.76,1476.66c.23,2,2.08,7.9.56,13.57-1,5.62-5.35,11-5.37,10.75-.35,0,6.5-1.57,11.33-7.19,5.13-5.14,8.23-14.35,7.31-18.42-.81-8.54-7.69-13-10.71-10.6S2491.49,1472.23,2491.76,1476.66Z"/><path class="cls-3" d="M2479.22,1693.28c-76.1,8.34-147,41.93-215.19,74.68-46,22.09-43.68,28.38-53.06,31.67a1.88,1.88,0,0,1-2.29-2.58c3.6-7.14,13.05-12,19.63-16.08a253.94,253.94,0,0,1,23.77-13c17.36-8.43,35.18-16,52.88-23.7,36-15.65,72.61-30.37,110.65-40.33a388.15,388.15,0,0,1,63.56-11.33c.4,0,.44.57,0,.62Z"/><path class="cls-3" d="M2410.63,1669.68c.5,3.13,3.75,12.19,1.75,21.14-1.19,8.83-7.64,17.55-7.69,17.12-.55,0,10-2.87,17.22-12,7.68-8.34,11.92-22.92,10.22-29.21-1.81-13.27-12.84-19.72-17.39-15.84S2409.93,1662.78,2410.63,1669.68Z"/><path class="cls-3" d="M2343.6,1693.69c.49,3.12,3.75,12.18,1.74,21.14-1.19,8.83-7.64,17.55-7.68,17.11-.56,0,10.05-2.87,17.22-12,7.67-8.34,11.91-22.93,10.21-29.22-1.8-13.27-12.83-19.72-17.39-15.84S2342.9,1686.79,2343.6,1693.69Z"/><path class="cls-3" d="M2275.49,1724.05c.49,3.12,3.74,12.18,1.74,21.14-1.19,8.83-7.64,17.55-7.69,17.11-.55,0,10.05-2.87,17.23-12,7.67-8.34,11.91-22.93,10.21-29.22-1.81-13.26-12.84-19.72-17.39-15.84S2274.78,1717.15,2275.49,1724.05Z"/><path class="cls-3" d="M2430.65,1732.32c-1.38-2.58-4-11.07-10.52-16.55-5.8-5.85-15.42-8.67-15.21-8.33-.39.33,9-3.49,19.36-.8,10.31,1.86,21.58,10.24,23.83,15.83,6.08,10.78,1.55,21.69-4,21.38S2434,1737.79,2430.65,1732.32Z"/><path class="cls-3" d="M2360.92,1757c-1.38-2.58-4-11.07-10.52-16.55-5.8-5.85-15.42-8.67-15.21-8.33-.39.33,9-3.49,19.36-.8,10.31,1.86,21.58,10.24,23.84,15.83,6.07,10.78,1.54,21.69-4,21.38S2364.25,1762.47,2360.92,1757Z"/><path class="cls-3" d="M2483.75,1706.91c-1.2-1.44-4-6.42-8.79-9-4.42-2.91-10.83-3.41-10.65-3.22-.2.26,5.19-3.38,12.05-3.06,6.72-.19,14.9,3.58,17.06,6.79,5.24,6,3.83,13.42.33,13.95S2486.57,1709.91,2483.75,1706.91Z"/><path class="cls-3" d="M2475.7,1674.13c-.27,1.85,0,7.56-2.78,12.27-2.24,4.78-7.44,8.57-7.39,8.31-.31-.11,6.2.17,11.87-3.69,5.83-3.36,10.83-10.85,11-14.71,1.35-7.83-3.75-13.45-7-12.06S2476.54,1670.1,2475.7,1674.13Z"/><path class="cls-3" d="M515.92,1228c-89.41-79.73-135.38-194.22-158.21-276.24-24.77-89-28.38-160.09-28.42-160.8l-4.86-.3c0,.72,3.66,72.3,28.59,161.93,23,82.82,69.49,198.49,160,279.2Z"/><path class="cls-3" d="M339.48,770.39c4.4,20.5.72,39.87-8.68,53.85-14.73-10.85-26.32-28.22-30.73-48.72s-.71-39.87,8.68-53.85C323.49,732.51,335.07,749.89,339.48,770.39Z"/><path class="cls-3" d="M312.05,828.77c15.41,14.33,24.41,33.16,26.16,51.28-16.91.77-35.52-6.09-50.92-20.42s-24.41-33.16-26.16-51.29C278,807.57,296.65,814.44,312.05,828.77Z"/><path class="cls-3" d="M304.83,890.1A78.47,78.47,0,0,1,349,925.63c-13.89,8.93-32.5,11.49-51.65,5.49a78.5,78.5,0,0,1-44.14-35.54C267.07,886.66,285.68,884.09,304.83,890.1Z"/><path class="cls-3" d="M334.31,963.88c15.16,4.79,27.29,17,34.16,32.47-11.5,9.66-26.56,13.32-41.72,8.54s-27.29-17-34.16-32.47C304.09,962.76,319.14,959.1,334.31,963.88Z"/><path class="cls-3" d="M360.2,858.58a52.42,52.42,0,0,1,43-15.49,58.78,58.78,0,0,1-16.67,44.62,52.47,52.47,0,0,1-43,15.49A58.81,58.81,0,0,1,360.2,858.58Z"/><path class="cls-3" d="M374,911.46a52.45,52.45,0,0,1,43-15.5,58.79,58.79,0,0,1-16.67,44.62,52.46,52.46,0,0,1-43,15.5A58.76,58.76,0,0,1,374,911.46Z"/><path class="cls-5" d="M462,1336.16c-82.57-12-153.23-61-198-99.87-48.57-42.24-77.93-82.16-78.22-82.56l-2.94,1.69c.29.4,29.87,40.62,78.75,83.15,45.17,39.31,116.56,88.72,200.16,100.91Z"/><path class="cls-5" d="M183.86,1137.84c10.43,10.22,15.71,22.9,15.62,34.63-12.73-.65-26.13-6.31-36.56-16.53s-15.71-22.9-15.62-34.64A57.27,57.27,0,0,1,183.86,1137.84Z"/><path class="cls-5" d="M190.32,1182.3c14.45,2.42,26.91,9.9,34.88,19.77-9.53,6.94-23,10.09-37.44,7.67s-26.91-9.91-34.88-19.78C162.41,1183,175.86,1179.87,190.32,1182.3Z"/><path class="cls-5" d="M209.65,1220.72a54.65,54.65,0,0,1,39.29,3.72c-4.65,10.52-14.48,19.15-27.92,23a54.66,54.66,0,0,1-39.29-3.72C186.38,1233.21,196.22,1224.58,209.65,1220.72Z"/><path class="cls-5" d="M255.1,1252.3c10.65-3,22.4-.58,32.32,5.76a30.22,30.22,0,0,1-21,21c-10.65,3-22.39.58-32.31-5.76A30.22,30.22,0,0,1,255.1,1252.3Z"/><path class="cls-5" d="M229.75,1181.15a36.49,36.49,0,0,1,19.07-25.52,40.92,40.92,0,0,1,7.43,32.33,36.51,36.51,0,0,1-19.07,25.52A40.92,40.92,0,0,1,229.75,1181.15Z"/><path class="cls-5" d="M258.08,1206.58a36.56,36.56,0,0,1,19.07-25.53,41,41,0,0,1,7.43,32.34,36.51,36.51,0,0,1-19.07,25.52A40.93,40.93,0,0,1,258.08,1206.58Z"/><path class="cls-6" d="M511.76,1583.29c-95.25,36.16-200.09,17.06-271.27-5.33-77.28-24.31-132.69-57.63-133.24-58l-2.11,4c.55.34,56.37,33.92,134.15,58.4,71.88,22.62,177.81,41.9,274.23,5.29Z"/><path class="cls-6" d="M95.53,1500.65a68.79,68.79,0,0,1,37.57,35.09c-14,7.13-31.65,8.2-48.94,1.49a68.79,68.79,0,0,1-37.57-35.09C60.54,1495,78.24,1493.94,95.53,1500.65Z"/><path class="cls-6" d="M129.27,1554.21a60.92,60.92,0,0,1,49.12,3.77,58.51,58.51,0,0,1-35.26,33.39A60.9,60.9,0,0,1,94,1587.61,58.56,58.56,0,0,1,129.27,1554.21Z"/><path class="cls-6" d="M173.09,1591.89c12-13.42,28.2-20.11,44.11-19.81a63.18,63.18,0,0,1-15.84,47.31c-12,13.42-28.2,20.11-44.11,19.81A63.19,63.19,0,0,1,173.09,1591.89Z"/><path class="cls-6" d="M234.4,1611.34c12-13.41,28.2-20.1,44.11-19.8a63.2,63.2,0,0,1-15.84,47.31c-12,13.41-28.21,20.1-44.12,19.81A63.26,63.26,0,0,1,234.4,1611.34Z"/><path class="cls-6" d="M176.72,1548.49c-10.55-13.73-15.25-30.28-14.13-45.29,13.89,1.62,28.09,9.69,38.63,23.42s15.25,30.28,14.13,45.29C201.46,1570.29,187.26,1562.22,176.72,1548.49Z"/><path class="cls-6" d="M240.41,1568.42c-10.75-13.57-15.7-30.06-14.83-45.12,13.88,1.38,28.18,9.21,38.93,22.78s15.7,30.07,14.82,45.13C265.45,1589.83,251.15,1582,240.41,1568.42Z"/><path class="cls-6" d="M315,1616.67a23.73,23.73,0,0,1,15-14.17,27.21,27.21,0,0,1,.88,21.61,23.73,23.73,0,0,1-15,14.17A27.21,27.21,0,0,1,315,1616.67Z"/><path class="cls-3" d="M716.18,1799S837.53,1319,797.29,1270.82c-55.62-66.65-101.49,154.44-106,135.66-42.51-177.34-53.83-404.25-191-428.26-77.95-13.66,18,168.73,12.24,218.06S366.31,1081.83,280.94,996s-129.45-31.48-75.51,76.41c52.16,104.33,220.89,218.34,186.11,231.87S145.6,1183.1,119.75,1240.7c-31.71,70.62,285,166.72,255.2,182.59s-181.2-36.39-177.07,17.61,207.64,52,204.16,75.75c-5.63,38.46-140.23-48.6-146.14,4.62-6.05,54.43,177.07,44.5,173.9,87-1.83,24.39-41.12-12.41-46.91,21.39-13.2,77.05,228.2,170.92,228.2,170.92Z"/><path class="cls-5" d="M808.71,1801.91s-115.49-177.07-171.07-210.5c-59.21-35.62-14.13,71-14.13,71s-121-144-154.64-114.74-3.11,63.14-3.11,63.14-108.64-32.19-128.16,7.68c-30,61.28,148.85,112.09,148.85,112.09s-76.78-.82-62.65,40.55C445.1,1833.55,808.71,1801.91,808.71,1801.91Z"/><path class="cls-6" d="M337.6,1618.52c19.52-39.87,128.16-7.68,128.16-7.68s-30.53-33.88,3.11-63.14S599.3,1606,599.3,1606s-10.14-72.22,62.75-8.6c52.06,45.44,146.66,204.49,146.66,204.49Z"/><path class="cls-6" d="M668.52,1357.32l5.18-3.54c-94-142.41-122.73-311.47-130.25-428.23-8.16-126.7,6.17-220.87,6.31-221.81l-6.42-1.87c-.15,1-14.58,95.75-6.39,223.21C544.52,1042.83,573.49,1213.4,668.52,1357.32Z"/><path class="cls-6" d="M568.27,681.56c.21,28.6-9.72,52.25-25.56,66.44a127.5,127.5,0,0,1-26.59-76.68c-.2-28.61,9.72-52.26,25.56-66.45A127.45,127.45,0,0,1,568.27,681.56Z"/><path class="cls-6" d="M517.34,745.86c16,25.29,22.61,53.69,20,78.06-22-6.26-44.15-23.19-60.18-48.48s-22.6-53.69-20-78.07C479.17,703.63,501.31,720.56,517.34,745.86Z"/><path class="cls-6" d="M491.65,822.68A125.17,125.17,0,0,1,539,887.93c-20.28,5.67-45,1-68-15a125.13,125.13,0,0,1-47.39-65.25C443.91,802,468.58,806.63,491.65,822.68Z"/><path class="cls-6" d="M521.74,956.8a52.18,52.18,0,0,1,21.62,26c-8.26,3.08-18.64,2-28.7-4.06a52.15,52.15,0,0,1-21.63-26C501.29,949.66,511.67,950.79,521.74,956.8Z"/><path class="cls-6" d="M529.91,1006.48a52.22,52.22,0,0,1,21.63,26c-8.26,3.07-18.65,1.94-28.71-4.06a52.23,52.23,0,0,1-21.63-26C509.46,999.35,519.85,1000.48,529.91,1006.48Z"/><path class="cls-6" d="M571.44,805.38C590,794.84,611.76,795,631,803.66c-3.23,21.47-14.81,40.46-33.4,51s-40.32,10.43-59.6,1.72C541.27,834.9,552.85,815.91,571.44,805.38Z"/><path class="cls-6" d="M575.15,880.22c18.59-10.53,40.32-10.42,59.61-1.71-3.24,21.47-14.82,40.46-33.4,51s-40.33,10.42-59.61,1.71C545,909.75,556.56,890.75,575.15,880.22Z"/><path class="cls-6" d="M571.46,987.34c12.1-6.85,26.25-6.78,38.8-1.11-2.11,14-9.64,26.33-21.74,33.19s-26.25,6.78-38.8,1.11C551.82,1006.56,559.36,994.2,571.46,987.34Z"/><path class="cls-7" d="M1898.27,1409.63c10.93,1.78,10.28,3.56,11.69,3.75,1.66.22,21.38-9.68,21.38-9.68s58.33-28.79,61.42-30.46l42.1-53,32.44,15S2020,1391.55,2017,1394s-86.62,31.81-93.9,34.64c0,0-7.33,6.7-12.07,10.75s-11.09,5.65-12.61,6.57a52.68,52.68,0,0,1-12.85,4.51c-6.37,1.39-1.06-2.94-1.06-2.94s11.27-4.76,10.72-5.62c-.43-.67-6.42,2.31-13.46,3.92-1.8.41-3.59.82-5.23,1.17-4.32.93-6.22-1.54-1.88-3.26a42.45,42.45,0,0,1,6-2c2.09-.44,3.85-1.54,5.54-2.18,3.36-1.28,5.83-2.17,5.69-2.28s.31-.9-1.63-.52c-2.33.46-7,2.55-10.5,2.94-2,.23-6.06,1-6.06,1s-7.24.69-7.29-.32c-.11-2.22,4.35-3.45,7.08-3.4a28.4,28.4,0,0,1,6.06-1.51s8.39-3.32,7.9-4.56c-.19-.49-5.27.27-10.67.64-5.7.39-9.82.39-10.13-.72-.48-1.75,4.06-2.41,4.06-2.41s4-.58,5.31-.88c1.53-.35,6-1.77,6-1.77s15.43-5.67,14.88-6.8-3.11-3.53-4.2-3.52-3,1.09-4.12,1.1-3.43-.21-3.6-1.58,5.88-4.2,5.88-4.2S1895.12,1409.12,1898.27,1409.63Z"/><path class="cls-8" d="M2005.56,1353.08s10.51,9.54,14.87,12.68c3.64,2.61,21.33,11.14,21.33,11.14s17.61-27,25.31-40.48c9.34-16.41,15.81-40.8,13.6-41.46-6.2-1.86-14.72-3-22.6.62C2030.83,1308.08,2005.56,1353.08,2005.56,1353.08Z"/><path class="cls-9" d="M1908.48,1423.72c-4.68.74-9.46-.15-11.53-4.43C1896.49,1424.37,1904.18,1426.89,1908.48,1423.72Z"/><path class="cls-10" d="M603,1234.6c.65-15.7-1.65-31.21-8.64-45.82-6-12.58-20.91-19.72-34.49-19.73-43.12-.06-48.61,57.16-76.06,79.23-8.38,6.74-17.76,12.23-25.69,19.51-29.31,26.85-16.11,76.56,10.8,100.11,18.67,16.33,48,25.62,71,12.84,12-6.66,21.13-17.74,27.63-29.89,9.22-17.23,15.16-37.11,21.72-55.48C596.33,1275.82,602.18,1255.47,603,1234.6Z"/><path class="cls-11" d="M610.09,1310.63c-13.47-40.86-31.25-40.22-31.25-40.22l14.36,87c8.32-2.27,19.15-7.33,27.46-9.68C617.91,1334.81,613.4,1320.69,610.09,1310.63Z"/><path class="cls-12" d="M678.16,1450l-49.24-37.56s-5-35.05-11.59-66.14c-8.31,2.34-15.81,8.86-24.13,11.13l12.53,69.64,64.53,33.3,18.23,23.42,4.15-24Z"/><path class="cls-13" d="M1127,1391.31a84.84,84.84,0,0,1,42,11.08,45.2,45.2,0,0,0,5.08,2.45c37.84,15.54,79.24-13.24,79.24-54.15V1149.52H1052.2c-40.91,0-69.69-41.41-54.15-79.24a43.69,43.69,0,0,1,2.45-5.09A85.3,85.3,0,0,0,922.23,938c-44.3,2-80,38.44-81.21,82.77a84.91,84.91,0,0,0,10.45,43.42,46.51,46.51,0,0,1,2.42,5.16c15.42,38.46-13.82,80.22-55.26,80.22H599.19v458.39c0,108.13,87.66,195.78,195.79,195.78h458.39v-200.5c0-41.11-41.54-70.07-79.61-54.58a46.53,46.53,0,0,0-5.11,2.43A85.29,85.29,0,1,1,1127,1391.31Z"/><path class="cls-11" d="M1563,1279.72a84.76,84.76,0,0,1,13-41.48,44.72,44.72,0,0,0,2.69-5c17.29-37.07-9.53-79.77-50.39-81.68l-200.95-9.4-9.4,201c-1.91,40.86-44.61,67.67-81.68,50.38a44.54,44.54,0,0,1-5-2.68,85.3,85.3,0,0,0-130.76,72.24c0,44.35,34.66,81.68,78.88,85a85,85,0,0,0,43.86-8.42,47.25,47.25,0,0,1,5.28-2.17c39.13-13.61,79.48,17.55,77.54,58.94l-9.31,199.22,457.89,21.41c108,5,199.67-78.42,204.72-186.43l21.4-457.89-200.28-9.36c-41.07-1.92-71.93,38.21-58.24,77a43.59,43.59,0,0,0,2.19,5.21,85.3,85.3,0,1,1-161.5,34.15Z"/><path class="cls-5" d="M1003.07,963.31a84.86,84.86,0,0,1-9,42.54,44.14,44.14,0,0,0-2.2,5.2c-13.62,38.57,17.21,78.48,58.06,76.42l200.92-10.1-10.1-200.92c-2.06-40.85,37.85-71.68,76.42-58.06a44.13,44.13,0,0,1,5.2,2.19A85.29,85.29,0,0,0,1445.57,736c-4.27-44.14-42.41-77.94-86.74-76.95A84.89,84.89,0,0,0,1316,671.69a46.81,46.81,0,0,1-5,2.68c-37.63,17.33-80.8-9.78-82.89-51.16l-10-199.19L760.24,447c-108,5.43-191.14,97.38-185.71,205.37l23,457.81,200.25-10.07c41.06-2.06,67.89-45,50.51-82.25a45.62,45.62,0,0,0-2.68-5,85.3,85.3,0,1,1,157.44-49.62Z"/><path class="cls-14" d="M1414.3,852.42a84.83,84.83,0,0,1-42-11.08,46.05,46.05,0,0,0-5.08-2.45c-37.84-15.54-79.24,13.24-79.24,54.15v201.17h201.17c40.91,0,69.69,41.41,54.15,79.25a44.32,44.32,0,0,1-2.45,5.08,85.3,85.3,0,0,0,78.27,127.24c44.3-2,80-38.44,81.21-82.77a85,85,0,0,0-10.45-43.42,44.77,44.77,0,0,1-2.42-5.16c-15.42-38.46,13.82-80.22,55.25-80.22h199.45V635.82c0-108.13-87.66-195.78-195.79-195.78H1287.94v200.5c0,41.11,41.53,70.07,79.61,54.58a45.5,45.5,0,0,0,5.1-2.43,85.3,85.3,0,1,1,41.65,159.73Z"/><path class="cls-15" d="M468.25,1740.09s-3,21.12-8.26,27.93c-1.76,2.29-5,5.18-7.06,9.32-3.28,6.43-1.47,16,.95,21.29,1.24,2.71-.09,2.7,2.73,3.58a17.34,17.34,0,0,0,20.82-9.8,50,50,0,0,0,4.08-18c.89-19.17,6.84-28.92,6.84-28.92Z"/><path class="cls-15" d="M559.69,1749.75s1.87,23.81.35,31.55c-.81,4.15-5.35,12.68-3.27,16.58s4.46,4.87,4.46,4.87l54,.87c2.94.05,1-1.84-1.38-3.59-3.88-2.86-7-4.75-19.4-10.76-.81-.39-3.76-2.27-4.82-2.92a37.43,37.43,0,0,1-7.72-6.83c-3.87-4.33-4.21-25.3-4.21-25.3Z"/><path class="cls-8" d="M601.87,1433.19s6.8,38.66,2.34,64-25.88,260.33-25.88,260.33l-23.81,1.34s-5-98.15-4.09-111.8,8-36.49,8-36.49L556,1531.33l30-104.11Z"/><path class="cls-16" d="M531.92,1425.05s-18.75,28.28-23.21,51.68,3.28,95.31-5.31,126c-4.65,16.59-22.26,42.23-24.93,63.68S465.28,1744,465.28,1744l23.8,4.73,55.29-140.32,43.37-126.83,11.11-65.32Z"/><path class="cls-11" d="M547.09,1264.18s-24.82-1.58-34.63,9.14,21.77,95.57,23.56,109.22-9.1,49.94-9.1,49.94,58.29,11.76,75,.71c0,0,1.79-98.16,0-107.91s-16.66-49.4-20.23-53.3S547.09,1264.18,547.09,1264.18Z"/><path class="cls-15" d="M555.35,1231s-.13.73-.36,2c-1.11,6-5.37,25.82-8.25,31.27-3.47,6.6,11.91,27.61,26.72,25,4.41-.77-3.72-19.31-3.33-21.28.75-3.76,1.76-8.89,2.8-14.15.58-3,1.18-6,1.74-8.81l2.87-14.61Z"/><path class="cls-13" d="M555,1232.92c.23-1.24.36-2,.36-2l22.19-.56L574.67,1245c-.56,2.81-1.15,5.81-1.73,8.76a20.81,20.81,0,0,1-10.6-5.33,28,28,0,0,1-8-12C554.59,1235.06,554.82,1233.85,555,1232.92Z"/><path class="cls-15" d="M570.29,1180.39s-10.46-1.21-17,7.29-13.62,34.78,2.66,49.07,32.38-1.89,34.77-19S594,1179.77,570.29,1180.39Z"/><path class="cls-15" d="M595.52,1217.46c-1.95,3.79-5.21,5.89-7.29,4.69s-2.19-5.25-.25-9,5.21-5.88,7.29-4.68S597.46,1213.67,595.52,1217.46Z"/><path class="cls-10" d="M571.46,1177.58s-14,25-24,26.15-11.3,14.43-11.3,14.43,3.57-30.6,13.47-36.5S571.46,1177.58,571.46,1177.58Z"/><path class="cls-13" d="M479.05,1788.19c-13,2.37-21.6-5.23-26.09-10.92-3.29,6.44-4.9,16.06-2.48,21.36,2.14,4.67,8.38,4.53,13.29,4.72,5.2.19,9.21-2.7,11.79-7.24A43.35,43.35,0,0,0,479.05,1788.19Z"/><path class="cls-13" d="M589.61,1786.35c-14.28,3.67-24.83,1.17-30.73-1.21-1.52,4.32-3.54,9.75-2.47,12.87,1.31,3.83,3.17,4.7,4.82,4.74,13,.35,47.76.81,57.7.94a1.62,1.62,0,0,0,1.26-2.67C617.73,1798.07,590.67,1787,589.61,1786.35Z"/><path class="cls-15" d="M550.11,1210c.81,4.44-.83,8.51-3.66,9.09s-5.78-2.54-6.59-7,.82-8.51,3.65-9.09S549.29,1205.57,550.11,1210Z"/><path class="cls-17" d="M566.43,1225.38l12.62.57s-.51,4.78-6.06,4.69C566.21,1230.53,566.43,1225.38,566.43,1225.38Z"/><path class="cls-18" d="M1642.39,219.26c1.57.06,5.88,1.5,12.17,13.4,8,15.2,19.8,61.1,19.8,61.1l-35.08,13.06-4.51-9.58-7.42-73.76S1642,219.24,1642.39,219.26Z"/><path class="cls-13" d="M1596,212.64c10,0,34.85,2.94,46.37,6.62,0,0,8.46,72.73-7.62,128-3.6,12.37,3,51.28,3,51.28l-103.94-1.37s12.31-94.07,7.68-109.27-4.75-68.15-4.75-68.15.71-.11,23.35-4A235.16,235.16,0,0,1,1596,212.64Z"/><path class="cls-15" d="M1583.91,533.54s2.3,26.54,6.53,33.89-.22,19.84-.45,21.56-8.9,4.16-22.69,2.69-13.58-4.65-12.46-9.8,8.45-11.76,8.9-16.66-4.23-22.53-4.23-22.53Z"/><path class="cls-19" d="M1626,376.64s71.75-4,87.77,5.72-11.38,57.32-11.38,57.32-49.92-2.3-147.72,3.35c-23.15,1.33-25.15-60.38-20.82-65.49S1626,376.64,1626,376.64Z"/><path class="cls-18" d="M1565.58,593.74c-14.21-1.51-12.45-8.49-11.31-13.79.72-3.32,4.79-7.23,7.22-10.92,1.27,1,3.34,2.79,9.51,4.62,6.4,1.89,15.19-1.86,20.78-4.2a68.2,68.2,0,0,1,1.9,18.32C1593.45,589.54,1579.78,595.26,1565.58,593.74Z"/><path class="cls-11" d="M1573.42,428c2.86,21.69,17.06,129.68,17.06,129.68l-32.94,4.08s-40.49-141-38.42-162.51,17.24-23.37,17.24-23.37S1565.83,370.55,1573.42,428Z"/><path class="cls-15" d="M1535.6,227.83c9.72-3.64,14.48,83.92,15.79,120,17.21,1.66,47.2,0,54.67-.55,3.51-.26,11.61-3.23,15.11-3.68a34.73,34.73,0,0,1,8.58-.41c.65.11,18.59,7.45,20.12,9.06,1.91,2,7.05,7,6.18,9.2s-9.89-6.06-9.89-6.06l-4.42-2.48c5.5,5.37,16,12.43,14.46,15s-10.92-4.66-17.65-9.54c5.77,5.21,13,14.55,11.3,16-1.49,1.31-9.65-9.5-18.37-12.61-3.24-1.15-6.46,2-9,2.43-1.87.28-4.76.88-6.59.36l-9.44-2.67c-3.22.29-3.3,2.19-6.55,2.88-3.77.8-10,1.65-14.77,2.82-27.66,6.76-36.88,9.9-45.35,9.9C1514.12,377.42,1512.64,236.45,1535.6,227.83Z"/><path class="cls-18" d="M1517.16,310c-1.82-36.92-1.55-82.42,19.14-90.18,8.17-3.07,22.56,15.35,20,90.93C1545.23,311.7,1529,312.44,1517.16,310Z"/><path class="cls-15" d="M1680.21,556.24s-2.87,9.21,2.27,15.31,26.53,12.07,29.34,15.37,2.59,6.11,2.59,6.11l-60-1.65.66-18.13,2.76-13Z"/><path class="cls-18" d="M1686.22,574.58s-15.42,6.24-22.87,2.55-7.22-4.72-9.38-3.34-2.93,18.37-2.93,18.37l67.48,2c4.7-.11,7.07-3.57,3.26-6.53a54.44,54.44,0,0,0-7.36-4.37C1709.14,580.21,1686.22,574.58,1686.22,574.58Z"/><path class="cls-11" d="M1677.94,393.65c4.64-9.76,15.18-22.47,33.74-14.82,17.71,7.3,22.46,25.24,16.87,43.61s-42.35,126.37-43.63,141.22l-29.36.19s5.34-85.51,6.64-106.18C1663.46,437.78,1669.91,410.54,1677.94,393.65Z"/><path d="M1725.6,294.18h-98.14a6.4,6.4,0,0,0-5.92,4l-30.22,73.95h-54.1a2.75,2.75,0,0,0-2.74,2.75h0a2.74,2.74,0,0,0,2.74,2.74h154a10.74,10.74,0,0,0,9.81-6.37l30.42-68A6.42,6.42,0,0,0,1725.6,294.18Z"/><path class="cls-17" d="M1672.76,337.24c-.66,3.32-3.55,5.54-6.45,5s-4.71-3.75-4-7.07,3.55-5.54,6.45-5S1673.42,333.92,1672.76,337.24Z"/><path class="cls-20" d="M1619.34,123.81a75.55,75.55,0,0,1-8.68-3.48c-3.18-1.53-7.29-3.33-9.9-3.73-5.47-.85-14.88-.28-20.08,5.35-6.47,7-18,1.27-15.65,38.05,2.62,41.63,25.76,37.06,26.33,36.35S1612,169.72,1612,169.72s7,15.36,7,14.8S1654.87,135.77,1619.34,123.81Z"/><path class="cls-15" d="M1601.77,199.43l2,14.87s4.48,21.43-1.28,25.56S1578,213.69,1578,213.69l2-37.69Z"/><path class="cls-13" d="M1579.34,188.22c4.76,12.85,16.08,20.75,24.13,23.82l-1.7-12.61L1580,176Z"/><path class="cls-15" d="M1600.59,135a19.83,19.83,0,0,1,22.84,20,150.88,150.88,0,0,1-1.67,19.08c-2.65,17.17-14.37,32.29-22.11,30.94s-27.24-16.16-23.81-40.59C1578,149.38,1587.78,137.05,1600.59,135Z"/><path class="cls-15" d="M1581.22,167.38c-.66,3.78-3.68,6.4-6.76,5.87s-5-4-4.39-7.81,3.68-6.4,6.76-5.87S1581.87,163.61,1581.22,167.38Z"/><path class="cls-20" d="M1576.83,159.57s9.36,2.33,12.84-3.69,15.9-19,31.7-13.64-13.9-13.1-15.16-13.1l-16.43-.11s-11.7,9.62-12.12,10.68-3.79,12.57-3.79,12.57Z"/><path class="cls-17" d="M1594,184.71l17,3.25s-1.62,6.42-9.16,5.21C1592.65,191.69,1594,184.71,1594,184.71Z"/><path class="cls-7" d="M1305.69,1371.18a17.53,17.53,0,0,0,1.86,4.5c5.34,9.73,17.74,23.61,17.74,23.61l9.59-21.61s-1.56-6.79-4.27-16.49C1321.34,1363.61,1312.52,1365,1305.69,1371.18Z"/><path class="cls-10" d="M1360.68,1352.44s-53.49,23-55.22,22.6c-1.12-.29-22-35.15-22.17-67.94-.1-15.14,15.62-33.36,33.17-29.75,8.83,1.81,8.7,4.27,21.77,23.26S1360.68,1352.44,1360.68,1352.44Z"/><path class="cls-15" d="M1406.35,1765.47s-1.27,21-1.28,21c-.46,2.67-2.3,9.26-2.3,11.69,0,9.11,43.26-7.74,33.56-11.78-.88-.36-5.47-3.12-5.76-6.22-.45-4.78-1.57-14.45-1.57-14.45Z"/><path class="cls-18" d="M1436.23,1786.35s-10.16,2.78-15.36,3.48-12.06-5.17-15.74-3.58c-4.05,1.74-3.89,17.44-3.89,17.44s54.46,4.47,69.78-.15C1477.08,1801.7,1457,1792.84,1436.23,1786.35Z"/><path class="cls-15" d="M1317.86,1765.47s-1.27,21-1.28,21c-.47,2.67-2.3,9.26-2.3,11.69,0,9.11,43.26-7.74,33.56-11.78-.88-.36-6.84-5.19-7.13-8.29-.44-4.77-.2-12.38-.2-12.38Z"/><path class="cls-18" d="M1347.73,1786.35s-10.15,2.78-15.35,3.48-12.06-5.17-15.74-3.58c-4.05,1.74-4.21,17.44-4.21,17.44s54.71,5.21,70.1-.15C1388.5,1801.45,1368.5,1792.84,1347.73,1786.35Z"/><path class="cls-15" d="M1331.08,1382.83l38.1-53.38c.16-.46.5-1.42,1-2.88,1.92-5.3,5.91-16.32,9.39-27.28l0-.12c1.09-3.83,3.41-10.51,5.65-17,2.49-7.19,5.58-16.11,5.69-17.63l-.52-1.35c-1.39-3.62-3.28-12.26-4-16-.42-2.39-.85-8.21,2-8.21,4.47,0,2.34,5.81,4.4,9.43a91.33,91.33,0,0,0,3.1-12.09l.75-11.35c.14-.85-.77-7.11,2.37-7.11h.15c2.81.21,2.75,6.86,3.92,18.12.37-1.3.74-2.86,1-4.29a41.65,41.65,0,0,1,1-5.94c-.56-3.14-.24-8.09,3.11-7.62,1.67.23,1.53,7.14,1.53,7.14,0,.94-.12,8.24-.06,9.69.34-2.45,1.68-12.9,4.3-12.9,2.17,0,2.35,2.81,2.3,5,0,1.31-1.39,12.63-1.47,14,1-1.72,2.24-11.69,3.25-11.69,4.24,0,2.71,14.18,1.15,17.87a18.09,18.09,0,0,0-.48,2,35,35,0,0,1-3.63,10.55c-2.66,4.55-6.33,11.79-6.89,12.9-.41,2.26-1.69,10.39-3.29,20.62-.69,4.37-1.44,9.17-2.22,14.14h0c-.14,1.08-.93,4.5-4,17.33-4.12,17.56-4.55,18.32-4.73,18.64-1.79,3.17-42.87,58.95-44.62,61.33l-1,1.4Z"/><path class="cls-13" d="M1401.94,1258.35s-3.09-7.91-8.6-7.93a6.34,6.34,0,0,1,5.72,1C1401.7,1253.49,1401.94,1258.35,1401.94,1258.35Z"/><path class="cls-15" d="M1321.87,1243.07l-4.9,31s18.69,15,29.58,11.84c9.14-2.65,2.87-14.6,2.87-14.6s-4.87-16.56-3.37-25.24S1321.87,1243.07,1321.87,1243.07Z"/><path class="cls-9" d="M1325.4,1252.44a76.27,76.27,0,0,0,21.15,6c-.69-4.35-1.09-8.94-.5-12.33.69-4-4.41-4.95-10.1-4.81-7.44.63-14.08,1.8-14.08,1.8l-.94,6A15.25,15.25,0,0,0,1325.4,1252.44Z"/><path class="cls-15" d="M1298.29,1207.29c-.77,0,7.39,34.65,20,40.61s31.46,2.86,35-6.48c3.91-10.32-10.35-45.67-28.1-50.16S1298.29,1207.29,1298.29,1207.29Z"/><path class="cls-10" d="M1312.9,1175.45a39.83,39.83,0,0,0-16.27,18c-4.73,2.25-10.46,7.1-13.21,20.19-3.38,16.1,8.64,28.51,21.38,32.24s14.71,12.16,14.71,12.16L1321,1249s-2.83-7.9-7.09-11.86,2-9.71,2.57-14.41c.42-3.62-2.24-10.65-1.66-16.59,0,0,7.08-10.73,14.06-13.38C1340.72,1188.19,1325.84,1168,1312.9,1175.45Z"/><path class="cls-15" d="M1318.27,1228.71c1.65,4,1,8-1.51,8.88s-5.83-1.62-7.48-5.62-1-8,1.5-8.88S1316.62,1224.71,1318.27,1228.71Z"/><path class="cls-7" d="M1365.3,1383.68l73.49-12s-8.37-21-11.35-21-55.57,23-55.57,23l-4.18,8.39Z"/><path class="cls-14" d="M1327.65,1434.07s-7.33,35.44-4.34,62.32,3.22,122.33,3.22,122.33l-11.4,152.74,27,.59s32.08-152.67,31.48-148.75,10.76-107.49,10.76-107.49l-38.24-85.1Z"/><path class="cls-10" d="M1334.82,1432.39s-4.78,31.91,1.2,45.91,51.25,151.33,51.84,162.52,15.66,135,15.66,135l31.45-.88,6.81-137.6-14.25-172.94-13.83-43.73Z"/><path class="cls-15" d="M1317,1274.08s7.76,5.09,15,4.5,17.46-7.26,17.46-7.26l-1.42-4.82s-18.71-2.73-19.19-2.43S1317,1274.08,1317,1274.08Z"/><path class="cls-7" d="M1399.64,1349.61s27.8,26.24,40.35,21.76,17.73-19.79-12.88-42.19C1399.71,1309.13,1399.64,1349.61,1399.64,1349.61Z"/><path class="cls-8" d="M1418.47,1382c-4.12-22.46-34-92.37-36.44-105.25-1.17-6.26-17.31-6.4-32.69-5.58-16.24.86-32.37,2.91-32.37,2.91s-14.38,2.37-20.7,8.29-8,22.32,1.08,53.44c7.18,24.57,16.08,38.06,20.48,56,.9,6,1.66,11.92,2.67,18.84,1.62,26.76,0,62.1,0,62.1s78.28,16.24,107.55-8.4C1428,1464.3,1422.71,1405,1418.47,1382Z"/><path class="cls-16" d="M1438.43,1333.7s-30.71,25.35-32.5,25.35c-1.16,0-43.83-31.39-53.68-57.18-5.45-14.26,6-30.21,19-30.16,9,0,13.07,2.37,31,17.48S1438.43,1333.7,1438.43,1333.7Z"/><path class="cls-10" d="M898.15,202c5-12.11,10.15-24.24,23.21-30.38,10.57-5,21.61-3.09,31,4,26.6,20,3.42,42,33.71,80,9.41,11.79,20.8,21.31,26.44,35.12,7.89,19.34-1.51,28.62-16.58,37.89C923.84,372.93,886.05,282,887.41,261.13,888.42,245.65,894.91,209.83,898.15,202Z"/><path class="cls-15" d="M823.33,437.85c3-.48,10.42-5.77,13-6.25,2-.37,6.38-1,8.25-1.31,2.27-8.52,13.85-54.93,15.15-68.54,1.41-14.74,11.83-78.51,11.83-78.51l27,4.91S887.37,337.21,884.27,361c-2.66,20.43-25.08,66.37-27.93,71.22,0,.12,0,.23,0,.35-.43,7.21-3.91,4.81-3.91,4.81l-5.64,1.44s-20,1.92-21.28,2.4S820.29,438.33,823.33,437.85Z"/><path class="cls-21" d="M895.12,246c-19.08,6.47-29.93,58.34-29.93,58.34s29.94,8.35,37.61,4c0,0,8.71-38.59,11.83-37.24Z"/><path class="cls-15" d="M747.53,527.47a203.76,203.76,0,0,0-9.14,32c-.13.87,1.09,5,1,6-11.72,16-28.56,19.48-43,20.5,7.36-7.18,18.17-14,18.69-16.27a282.79,282.79,0,0,0,7.45-42.09C731.48,531.74,737.58,528.44,747.53,527.47Z"/><path class="cls-2" d="M913.59,355.21l25.78,72.63s-41.43,7.8-56.93,10.64-102,6.62-104.24,8.16c-1.62,1.14-19.5,59-27.49,90.85-9.06,2-24.57-.4-32.82-3.24,4.46-45.63,20.56-117.91,25.71-125.78C752,395.66,913.59,355.21,913.59,355.21Z"/><path class="cls-15" d="M812.85,559.31a203.38,203.38,0,0,0-3,33.17c0,.87,2,4.75,2.07,5.65-8.52,17.9-24.41,24.49-38.4,28.2,5.88-8.44,15.22-17.15,15.3-19.48a281.43,281.43,0,0,0-.56-42.75C797.89,566.5,803.26,562.13,812.85,559.31Z"/><path class="cls-4" d="M943.69,359l10,17.08a49,49,0,0,1-24.54,70.37l-.45.18c-14.68,5.69-99,25.63-100.86,27.55-1.39,1.42-8.11,61.58-10,94.4-8.53,3.65-24.22,4.21-32.85,3-4.17-45.65-1.9-119.67,1.69-128.37C792.54,429,943.69,359,943.69,359Z"/><path class="cls-10" d="M808.58,593c2.25-2.48,10.49,11.17,12.55,14.08,2.32,3.27,1.66,5.74,1.38,6.25-.73,1.35-44.19,26.92-54.79,28.74a5.3,5.3,0,0,1-3.17-.84c-4.15-3.67,14.92-30.75,23.48-34.3C793.57,604.61,798.48,604.13,808.58,593Z"/><path class="cls-10" d="M737,560c2.67-2,8.21,12.94,9.69,16.18,1.66,3.65.55,6,.18,6.41-1,1.19-48.45,18.16-59.2,18a5.29,5.29,0,0,1-3-1.43c-3.38-4.37,20.42-27.4,29.5-29.29C720.07,568.59,725,569.05,737,560Z"/><path class="cls-22" d="M913.22,245.82h0a7.29,7.29,0,0,1-1.93-.4c-3.54-.63-11.29-1.56-17.31,1-7.34,3.1-18.7,32-18,61.66.27,4.54.54,8.6.78,11.43,1.85,22.41,8.28,64.46,8.63,64.69,8.74,5.63,61.51-16.2,65.14-21s5.76-63.05,7.53-65.95l3.46-50.66C955.38,244.76,922.6,245.75,913.22,245.82Z"/><path class="cls-15" d="M934.61,227.16s-3.4,17.58-2.72,24.51S929.3,280.94,914.62,281s-2.78-28.4-1.4-35.19S914.93,218,914.93,218Z"/><path class="cls-13" d="M914.63,228.55c.22-5.76.3-10.55.3-10.55l19.68,9.16s-.7,3.59-1.4,8.17C924.6,237.06,918.36,233.88,914.63,228.55Z"/><path class="cls-15" d="M941.8,178.66A24.39,24.39,0,0,1,952.15,192c2.77,9.12-.38,32.64-20,38.32s-28.07-13-24-27.51S921,169.78,941.8,178.66Z"/><path class="cls-15" d="M905.7,197.14c.38,3.91,2.54,6.9,4.82,6.68s3.81-3.58,3.43-7.49-2.54-6.9-4.82-6.68S905.31,193.23,905.7,197.14Z"/><path class="cls-10" d="M939.5,177.47s3.55,26.24,12,31,4.93,16.38,4.93,16.38,7.69-27,1-35.72S939.5,177.47,939.5,177.47Z"/><path class="cls-15" d="M946.51,212.22c-2.3,3.42-2.29,7.45,0,9s6.05.05,8.35-3.37,2.29-7.45,0-9S948.81,208.8,946.51,212.22Z"/><path class="cls-17" d="M918,213.68l13.81,3.47s-1.66,5.24-7.78,3.89C916.55,219.4,918,213.68,918,213.68Z"/><path class="cls-5" d="M986.51,435.66l59.51-3s-24.42,17.55-24.92,17.55-19.45-7.48-20.28-7.48S986.51,435.66,986.51,435.66Z"/><path class="cls-15" d="M2178,1766.33s1.16,20.64,1.17,20.68c.43,2.62,2.11,9.1,2.11,11.48,0,9-39.71-7.6-30.81-11.56.81-.36,5-3.08,5.29-6.12.41-4.7,1.45-14.19,1.45-14.19Z"/><path class="cls-11" d="M2150.05,1787s9.33,2.73,14.1,3.42,11.07-5.08,14.45-3.52c3.72,1.71,3.57,17.13,3.57,17.13s-50,4.39-64.05-.15C2112.55,1802.1,2131,1793.39,2150.05,1787Z"/><path class="cls-15" d="M2244.08,1765.26s1.17,20.64,1.17,20.68c.43,2.62,2.12,9.1,2.12,11.48,0,8.95-39.71-7.6-30.81-11.56.8-.36,6.28-5.1,6.54-8.15.41-4.69.19-12.16.19-12.16Z"/><path class="cls-11" d="M2216.66,1785.77a141.42,141.42,0,0,0,14.1,3.42c4.77.69,11.06-5.07,14.44-3.52,3.72,1.72,3.87,17.14,3.87,17.14s-49.64,2-64.35-.15C2178.94,1801.8,2197.6,1792.15,2216.66,1785.77Z"/><path class="cls-8" d="M2232.3,1437.4s6.73,34.82,4,61.22-3,120.2-3,120.2l12.65,150-27,.63s-29.45-150-28.9-146.14-9.87-105.61-9.87-105.61l35.1-83.61Z"/><path class="cls-16" d="M2222.89,1414.91s30.49,32.12,19.15,67.19c-4.56,14.09-47.05,148.68-47.59,159.68s-14.37,132.59-14.37,132.59l-28.88-.87L2145,1638.31l8.25-182.15,17.52-30.72Z"/><path class="cls-13" d="M2037.8,1310.4c10-11.14,31.71-27,31.71-27s12.94-11.05,18.22-12.87c7.77-2.68,21.07-9.82,40.31,19.34,13.77,20.87,100.66,128.92,114.92,132.55L2149.82,1467c-2.55-21.28-48.58-61.49-55.21-69C2079.81,1381.24,2028.35,1321,2037.8,1310.4Z"/><path class="cls-15" d="M2042.14,1265.13l29,17s.81,24.77-8.67,31.2c-8,5.4-14-7.56-14-7.56s-10.79-15-19-19.6S2042.14,1265.13,2042.14,1265.13Z"/><path class="cls-13" d="M2047,1276a60.83,60.83,0,0,1-7.53,18.79c-3.2-3.46-6.79-6.85-10-8.67-3.78-2.15-1.38-6.79,2.31-11.17,5.21-5.42,10.34-9.85,10.34-9.85l5.58,3.26C2048.08,1270.51,2047.37,1274.31,2047,1276Z"/><path class="cls-15" d="M2027,1222.56c.49-.6,24.34,29.09,21.4,43s-17.36,26.63-27.38,23.14c-11.09-3.87-31.69-38.82-24.3-55.79S2027,1222.56,2027,1222.56Z"/><path class="cls-10" d="M2000.92,1213.2c10.39-5.79,27.35-7.45,40-.81,15.58,8.15,19.12,28.68,14.25,41.2s.7,19.59.7,19.59l-8.26-4.82s-4.83-7.54-5.46-13.54-9.39-5-13.67-7.67c-3.29-2.1-7.49-8.91-12.82-12.45,0,0-13.42-1.64-20,2.06C1984.43,1243.07,1986,1221.48,2000.92,1213.2Z"/><path class="cls-15" d="M2035.22,1252.16c-.08,4.45,2,8.09,4.7,8.14s4.9-3.53,5-8-2-8.1-4.7-8.14S2035.29,1247.7,2035.22,1252.16Z"/><path class="cls-17" d="M2010.79,1275.79l12.63-9.44s3.33,5.11-2.1,9.42C2014.7,1281,2010.79,1275.79,2010.79,1275.79Z"/><path class="cls-7" d="M1979.08,1463.61c3.16-4.62,4.54-11.29,8.91-16.38a39.15,39.15,0,0,1,6.47-5.55c21-12.31,75.84-44,78-46.5,2.53-2.92,39.93-65.06,39.93-65.06l-33.59-7.61-32.83,58c-2.74,2.17-54.85,40.69-54.85,40.69s-10.36,8.09-16,11.88a45.24,45.24,0,0,1-8.06,3.6c-3.06,1.06-8.89,4-10.06,5-1.37,1.21-4.11,3.78-5.74,5.35s-3.6,3.35-4.37,4.29a11.47,11.47,0,0,1-3,1.88,1.94,1.94,0,0,0,.33,3.59c1.59.45,3.75-.55,5.08-1.17,3.77-1.78,8.38-6.56,8.63-6s-4.44,10.84-4.9,12.05-5.83,13.16-6.11,15.82,1.33,3.28,2.53,2.31c1-.84,9.67-16.8,9.67-16.8s1.1-2,1.53-.87-7.39,15.67-8.15,18.05-.15,4.33,2,3.5c2.67-1,10.07-17,10.07-17s1-2,1.61-1.3-6.2,12.92-6.27,14.33,1.19,2.8,3,1.62c2.18-1.39,8.66-15.72,8.66-15.72s.8-.95,1-.28-4.85,11.51-4.47,13.09a1.27,1.27,0,0,0,1.52,1.06C1972.41,1479.46,1975.91,1468.23,1979.08,1463.61Z"/><path class="cls-8" d="M2103.16,1363s-10.94-3.48-18-6.7c-4.69-2.15-25.19-12.35-25.19-12.35s8.83-37.28,14.81-50.69c21.92-49.19,46.84-15.26,50.22-7.35C2132.6,1303.54,2103.16,1363,2103.16,1363Z"/><path class="cls-17" d="M1339,1234.13l10.41-7.79s2.75,4.21-1.73,7.77C1342.26,1238.45,1339,1234.13,1339,1234.13Z"/><path class="cls-14" d="M2561.19,1803H142.5c-3,0-5.48,3.13-5.48,7h0c0,3.86,2.45,7,5.48,7H2561.19c3,0,5.47-3.12,5.47-7h0C2566.66,1806.08,2564.21,1803,2561.19,1803Z"/><path class="cls-15" d="M1047.37,432.61c-.25-.63-.8-.64-1.36-.66a137.4,137.4,0,0,1-16.34-1.22,11.59,11.59,0,0,1-2.62-.67,6.81,6.81,0,0,0-4.52-.16,9.2,9.2,0,0,1-2.51.26c-2.74,0-10.58-2.68-14.6-3.38a2.36,2.36,0,0,1-1.88-1.76c-4-15.66-12.45-50.79-13.56-62.35-1.4-14.77-11.61-81.39-11.61-81.39l-27.3,7.62s11.24,49.17,14.35,73c2.39,18.41,20.8,57.48,26.56,68.71,2.82,8.37,9.14,8.6,10.61,8.78a3.37,3.37,0,0,1,2.16,1.15,15,15,0,0,0,3.45,3,8.06,8.06,0,0,1,2.35,2.34c1.16,1.69,2.2,3.46,3.22,5.24.68,1.17,1.4,1.55,2.41,1.27a2.15,2.15,0,0,0,1.58-2.42,10.94,10.94,0,0,0-1.64-5.38,2.92,2.92,0,0,1,.22-3.89,12.37,12.37,0,0,1,2-2.28,3.55,3.55,0,0,1,2.79-1,44.67,44.67,0,0,0,6,1.11l1.65.34.9.19c.14,0,3,.35,4,.35.8,0,2.09.06,3.19.11a17.93,17.93,0,0,0,3.18-.47,3.86,3.86,0,0,0,2.55-1c.29-.27.58-.57.43-1a1,1,0,0,0-.89-.67,40.16,40.16,0,0,1-4-.67c1,0,4.16-.08,5.17-.1a4.75,4.75,0,0,0,3.47-1.53C1047.19,433.64,1047.61,433.24,1047.37,432.61Z"/><path class="cls-22" d="M961.84,246.47c13.47-2.45,24.58,57.84,24.58,57.84s-29.93,8.35-37.6,4c0,0-8.71-38.59-11.83-37.24Z"/><path class="cls-15" d="M636.05,1330c.89-2.56-11.53-4.62-12.19-7.2s15.69-2.79,16.27-5.06c1.08-4.18-17.92-.88-17.55-2.84s19.8-6.32,17.7-9.68-19.67,6.63-20.2,4.36,17.18-7.82,16.86-12.82c-.17-2.67-29.06,13.31-32.41,11.86s3.6-14,.93-15.86-10.32,25.5-12.16,26.41-40.87,23.19-54.76,26.73c-1.69-4.65-5.33-10.92-6.82-15.32-7.8,5.54-13.58,8.33-21.62,13.38,5.82,14.6,14.12,30.59,18.18,32.43,12.36,5.58,60.16-34.07,69.7-40.85s15-4.59,21.48-6.74S635.16,1332.58,636.05,1330Z"/><path class="cls-11" d="M508.43,1351s-10.7-47.25-8.85-61,18.15-26.48,29.44-21.75S545.43,1339,545.43,1339Z"/></g></g></svg>