<svg xmlns="http://www.w3.org/2000/svg" xmlns:xlink="http://www.w3.org/1999/xlink" viewBox="0 0 2408.37 1845.43"><defs><style>.cls-1{isolation:isolate;}.cls-2{fill:url(#linear-gradient);}.cls-3{fill:#e3892b;}.cls-4{fill:url(#linear-gradient-2);}.cls-5{fill:#fff;}.cls-6{fill:#5d96ff;}.cls-7{fill:#f5f7ff;}.cls-8{fill:#323657;}.cls-9{fill:#d6d6d6;}.cls-10{fill:#e8e8e8;}.cls-11{fill:#c2c2c2;}.cls-12{fill:#e0e0e0;}.cls-13{fill:#f0f0f0;}.cls-14{fill:#2273b5;}.cls-15{fill:#4dafff;}.cls-16{fill:#d9d9d9;}.cls-17{fill:#1a598c;}.cls-18{fill:#4ca1f4;}.cls-19{fill:#252840;}.cls-20{fill:#ffbf55;}.cls-21{fill:#eea886;}.cls-22{fill:#5f8cc9;}.cls-23{fill:#3a3f47;}.cls-24{fill:#a77860;}.cls-25{fill:#b08439;}.cls-26{fill:#5e5853;}.cls-27{fill:#91887f;}.cls-28{fill:#6e6760;}.cls-29{fill:#807066;}.cls-30{fill:#6f5be0;}.cls-31{fill:url(#linear-gradient-3);}.cls-32{fill:#2d3038;}.cls-33{fill:#292c47;}.cls-34{fill:#191b2b;}.cls-35{fill:#c6c9cc;}.cls-36{fill:#0f324f;}.cls-37{fill:#e54242;}.cls-38{fill:#1d3b54;}.cls-39{fill:#3f444f;}.cls-40{fill:#b8b8b8;opacity:0.1;}.cls-41{fill:#869ac2;opacity:0.3;}.cls-42{fill:#e2d2ca;}.cls-43{fill:#424773;}.cls-44{fill:#eea987;}.cls-45{fill:#e8734d;}.cls-46{fill:#363a5e;}.cls-47{fill:#313657;}.cls-48{fill:#eddad3;}.cls-49{fill:#cfbeb8;}.cls-50{fill:#494f80;}.cls-51{fill:#707070;}.cls-52{fill:#a1a1a1;}.cls-53{fill:#fae6de;}.cls-54{fill:#d6c5be;}.cls-55{fill:#828282;}.cls-56{mix-blend-mode:hard-light;}.cls-57{fill:#f5f5f5;}.cls-58{fill:#4aafff;}.cls-59{fill:#3788cc;}.cls-60{fill:#e2f3fe;}.cls-61{fill:#c5ccd1;}.cls-62{fill:url(#linear-gradient-4);}</style><linearGradient id="linear-gradient" x1="1505.71" y1="137.59" x2="822.16" y2="998.35" gradientUnits="userSpaceOnUse"><stop offset="0" stop-color="#ff9f55"/><stop offset="1" stop-color="#ffd255"/></linearGradient><linearGradient id="linear-gradient-2" x1="1089.78" y1="1546.33" x2="1089.78" y2="491.39" xlink:href="#linear-gradient"/><linearGradient id="linear-gradient-3" x1="1301.5" y1="945" x2="1377.45" y2="1153.16" gradientTransform="translate(-171.54 247.55) rotate(-9.72)" gradientUnits="userSpaceOnUse"><stop offset="0" stop-color="#40d5e6"/><stop offset="1" stop-color="#57f"/></linearGradient><linearGradient id="linear-gradient-4" x1="1910.3" y1="167.66" x2="2083.22" y2="167.66" xlink:href="#linear-gradient"/></defs><g class="cls-1"><g id="Layer_2" data-name="Layer 2"><g id="Слой_1" data-name="Слой 1"><polygon class="cls-2" points="2143.64 342.91 1165.24 1321.3 1117.1 1369.45 1014.32 1472.23 775.96 1710.59 40.01 974.64 219.04 795.65 438.16 1014.76 648.75 1225.35 775.96 1352.57 903.18 1225.35 1678.37 450.12 1964.61 163.88 2143.64 342.91"/><polygon class="cls-3" points="1165.24 1148.6 1165.24 1321.3 1117.1 1369.45 1014.32 1472.23 1014.32 1148.6 1165.24 1148.6"/><path class="cls-4" d="M1741.41,516.32V745.14L1117.1,1369.45H504.44a66.3,66.3,0,0,1-66.28-66.29V516.32A66.26,66.26,0,0,1,504.44,450H1675.12c1.1,0,2.15,0,3.25.08A66.28,66.28,0,0,1,1741.41,516.32Z"/><polygon class="cls-5" points="1690.39 352.19 1690.39 796.15 1261.19 1225.35 489.17 1225.35 489.17 352.19 1690.39 352.19"/><rect class="cls-6" x="489.18" y="352.18" width="1201.2" height="105.46" transform="translate(2179.56 809.82) rotate(180)"/><rect class="cls-7" x="539.35" y="384.98" width="171.33" height="39.85" rx="14.33"/><path class="cls-8" d="M1742.38,1286.73h.06C1742.18,1286.84,1742.15,1286.85,1742.38,1286.73Z"/><polygon class="cls-9" points="1865.48 1013.61 1985.39 946.55 1944.17 943.83 1865.48 1013.61"/><polygon class="cls-10" points="1865.48 1013.61 1902.38 954.26 1933.34 953.44 1865.48 1013.61"/><polygon class="cls-11" points="1957.81 961.97 1960.22 977.08 1865.48 1013.61 1957.81 961.97"/><path class="cls-12" d="M293.18,918.54c-.39-4.71-.76-9.47-1.09-14.15l3.28-.23c.33,4.66.69,9.41,1.08,14.11ZM1991,903.61l-1.87-2.7a135.63,135.63,0,0,0,13.5-11.19l2.24,2.4A136.78,136.78,0,0,1,1991,903.61ZM291,886.68c-.33-5.91-.62-11.87-.85-17.73l3.28-.13c.23,5.84.52,11.79.84,17.68Zm1726.35-7.42-2.48-2.15a153.16,153.16,0,0,0,10.78-13.85l2.7,1.86A154.91,154.91,0,0,1,2017.32,879.26Zm-1727.77-28c-.14-5.91-.23-11.88-.28-17.75l3.29,0c0,5.84.13,11.8.27,17.69Zm1747.93-1.52-2.94-1.48a106.94,106.94,0,0,0,6.57-16.15l3.13,1A111.4,111.4,0,0,1,2037.48,849.69ZM292.58,815.75l-3.28,0c.06-5.92.17-11.89.33-17.75l3.28.09C292.75,803.9,292.64,809.85,292.58,815.75ZM2048,815.44l-3.26-.38a90,90,0,0,0,.58-10.1c0-2.41-.1-4.85-.3-7.26l3.27-.27c.21,2.5.31,5,.31,7.53A92.05,92.05,0,0,1,2048,815.44Zm-6.11-34.83a104.14,104.14,0,0,0-6.19-16.29l3-1.41a108,108,0,0,1,6.38,16.81Zm-1748.33-.23-3.28-.15c.27-5.91.6-11.88,1-17.72l3.27.21C294.17,768.55,293.84,774.49,293.57,780.38Zm1733.5-31.24a155.26,155.26,0,0,0-10.52-14l2.52-2.11a161.3,161.3,0,0,1,10.74,14.31ZM295.86,745.08l-3.27-.27c.49-5.9,1.05-11.85,1.66-17.67l3.27.34C296.91,733.28,296.35,739.21,295.86,745.08ZM2004.65,722.2l-1.43-1.4a129.3,129.3,0,0,0-11.67-10.09l2-2.61a132.86,132.86,0,0,1,12,10.35l1.45,1.42ZM299.53,709.91l-3.25-.41c.73-5.87,1.53-11.78,2.38-17.58l3.25.47C301.06,698.17,300.26,704.06,299.53,709.91ZM1977.05,701a159,159,0,0,0-15.6-7.91l1.33-3a165.62,165.62,0,0,1,15.92,8.07Zm-32-14.25c-5.3-1.8-10.81-3.47-16.85-5.09l.85-3.17c6.11,1.64,11.69,3.32,17.06,5.15Zm-34-9.24c-5.22-1.15-10.89-2.3-17.33-3.53l.61-3.23c6.47,1.24,12.17,2.4,17.42,3.56ZM304.66,674.93l-3.23-.55c1-5.83,2-11.71,3.15-17.47l3.22.62C306.7,663.27,305.65,669.12,304.66,674.93Zm1571.67-4.13-5.29-.95q-6-1.08-12.16-2.18l.58-3.23q6.11,1.11,12.16,2.18l5.29,1Zm-34.9-6.44c-6.27-1.24-12-2.45-17.39-3.69l.73-3.2c5.4,1.23,11.06,2.43,17.3,3.67Zm-34.65-8c-5.9-1.59-11.64-3.29-17.06-5l1-3.12c5.38,1.74,11.06,3.43,16.91,5Zm-33.82-11c-5.6-2.2-11.1-4.58-16.34-7.07l1.41-3c5.17,2.45,10.6,4.8,16.13,7ZM311.33,640.21l-3.21-.69c1.25-5.79,2.57-11.61,3.94-17.31l3.19.77C313.89,628.65,312.57,634.45,311.33,640.21ZM1740.83,630c-5.16-2.95-10.24-6.12-15.1-9.43l1.85-2.71c4.78,3.26,9.79,6.38,14.88,9.29Zm-29.4-20c-4.57-3.69-9.08-7.63-13.4-11.71l2.26-2.39c4.25,4,8.7,7.91,13.2,11.54ZM319.59,605.84l-3.17-.84c1.51-5.71,3.12-11.47,4.77-17.1l3.15.92C322.7,594.43,321.1,600.16,319.59,605.84Zm1366-20.25c-3.92-4.31-7.78-8.88-11.48-13.58l2.58-2c3.65,4.64,7.47,9.15,11.33,13.4ZM329.51,571.92l-3.13-1c1.8-5.63,3.7-11.29,5.63-16.84l3.1,1.08C333.18,560.68,331.3,566.32,329.51,571.92Zm1334.06-14.23c-3.29-4.78-6.53-9.8-9.63-14.94l2.81-1.69c3.07,5.07,6.27,10,9.52,14.77ZM341.14,538.56l-3.07-1.17c2.09-5.52,4.28-11.08,6.5-16.52l3,1.24C345.4,527.53,343.22,533.06,341.14,538.56Zm1304-11.25c-2.73-5.11-5.41-10.45-8-15.87l3-1.41c2.55,5.38,5.21,10.67,7.92,15.73ZM354.52,505.85l-3-1.32c2.38-5.41,4.87-10.84,7.39-16.15l3,1.41C359.37,495.07,356.89,500.47,354.52,505.85Zm1275.41-10.62c-2.25-5.33-4.47-10.87-6.6-16.48l3.07-1.16c2.11,5.57,4.31,11.07,6.55,16.36ZM369.67,473.94l-2.92-1.49c2.67-5.26,5.46-10.54,8.28-15.71l2.88,1.57C375.11,463.45,372.33,468.71,369.67,473.94ZM1617.34,462c-1.86-5.48-3.69-11.16-5.44-16.89l3.14-1c1.74,5.7,3.56,11.35,5.41,16.79ZM386.59,442.93l-2.83-1.66c3-5.1,6.06-10.21,9.17-15.21l2.79,1.74C392.62,432.77,389.55,437.86,386.59,442.93ZM1607,428.1c-1.53-5.59-3-11.37-4.49-17.18l3.19-.79c1.43,5.78,2.94,11.54,4.47,17.1ZM405.27,412.94l-2.73-1.81c3.26-4.91,6.64-9.84,10-14.65l2.68,1.89C411.88,403.16,408.52,408.06,405.27,412.94Zm1192.91-19.16c-1.56-5.58-3.37-11.19-5.37-16.69l3.08-1.13c2,5.58,3.87,11.28,5.45,16.94ZM425.67,384.1l-2.62-2c3.55-4.71,7.21-9.44,10.89-14l2.56,2.05C432.84,374.72,429.2,379.42,425.67,384.1Zm1160.49-23.28c-2.39-5.27-5-10.57-7.83-15.75l2.89-1.56c2.84,5.25,5.51,10.61,7.93,16ZM447.73,356.51l-2.5-2.12c3.81-4.5,7.75-9,11.69-13.38l2.44,2.2C455.44,347.57,451.53,352,447.73,356.51Zm23.65-26.25L469,328c4.07-4.26,8.26-8.52,12.46-12.66l2.3,2.33C479.59,321.78,475.42,326,471.38,330.26Zm1098-.36c-3.09-4.88-6.42-9.78-9.89-14.56l2.66-1.93c3.51,4.83,6.88,9.79,10,14.74ZM496.51,305.43l-2.24-2.4c4.3-4,8.73-8,13.16-11.93l2.17,2.46C505.19,297.44,500.79,301.43,496.51,305.43Zm1052.25-4c-3.66-4.47-7.55-8.95-11.55-13.31l2.42-2.21c4,4.4,8,8.92,11.67,13.44ZM523,282.08l-2.1-2.53c4.52-3.76,9.17-7.51,13.82-11.16l2,2.58C532.15,274.6,527.53,278.34,523,282.08ZM1525,275.42c-4.12-4.06-8.45-8.11-12.87-12.06l2.19-2.45c4.46,4,8.82,8.07,13,12.17ZM550.78,260.29l-2-2.64c4.71-3.49,9.55-7,14.37-10.36l1.89,2.69C560.27,253.34,555.46,256.81,550.78,260.29Zm947.88-8.39c-4.49-3.67-9.17-7.32-13.91-10.87l2-2.63c4.77,3.58,9.49,7.26,14,11Zm-919-11.84-1.81-2.74c4.9-3.24,9.92-6.46,14.92-9.58l1.73,2.79C589.53,233.63,584.53,236.84,579.66,240.06Zm890.75-9.34c-4.77-3.29-9.72-6.58-14.72-9.76l1.77-2.77c5,3.21,10,6.51,14.82,9.83ZM609.6,221.38l-1.66-2.83c5-3,10.23-5.93,15.41-8.8l1.59,2.87C619.79,215.47,614.63,218.42,609.6,221.38Zm831-9.66c-5-2.95-10.16-5.89-15.36-8.74l1.58-2.87c5.22,2.86,10.42,5.81,15.45,8.78ZM640.5,204.25,639,201.34c5.21-2.72,10.54-5.42,15.84-8l1.44,2.95C651,198.85,645.69,201.54,640.5,204.25Zm769.14-9.51c-5.18-2.63-10.52-5.25-15.88-7.78l1.4-3c5.39,2.55,10.76,5.18,16,7.82Zm-737.41-6.08-1.38-3c5.34-2.46,10.79-4.9,16.22-7.25l1.3,3C683,183.78,677.54,186.21,672.23,188.66Zm705.44-9c-5.33-2.34-10.81-4.66-16.29-6.89l1.24-3c5.5,2.24,11,4.57,16.37,6.92Zm-673-5-1.24-3c5.45-2.21,11-4.4,16.54-6.49l1.17,3.07C715.65,170.23,710.11,172.41,704.69,174.61Zm640.23-8.32c-5.46-2.07-11.05-4.1-16.62-6l1.08-3.1c5.6,2,11.21,4,16.7,6.08Zm-607.15-4.22-1.09-3.1c5.55-2,11.2-3.89,16.81-5.74l1,3.12C748.93,158.19,743.3,160.11,737.77,162.07Zm573.77-7.48c-5.56-1.81-11.25-3.57-16.89-5.26l.94-3.15c5.67,1.7,11.37,3.48,17,5.28ZM771.39,151l-1-3.14c5.63-1.72,11.36-3.4,17.05-5l.89,3.16C782.71,147.63,777,149.3,771.39,151Zm506.25-6.57c-5.64-1.55-11.4-3.06-17.11-4.5l.81-3.19c5.73,1.45,11.51,3,17.17,4.53Zm-472.19-3-.83-3.18c5.68-1.47,11.48-2.91,17.24-4.27l.76,3.19C816.88,138.51,811.1,140,805.45,141.41Zm437.88-5.62c-5.71-1.31-11.52-2.59-17.28-3.79l.67-3.21c5.78,1.2,11.62,2.48,17.35,3.8Zm-403.46-2.54-.69-3.21c5.75-1.24,11.6-2.45,17.39-3.57l.63,3.22C851.43,130.81,845.6,132,839.87,133.25Zm368.82-4.68c-5.75-1.08-11.61-2.12-17.42-3.09l.54-3.24c5.83,1,11.71,2,17.49,3.1Zm-334.1-2.09-.56-3.23c5.77-1,11.66-2,17.51-2.88l.5,3.24C886.21,124.51,880.34,125.47,874.59,126.48Zm299.2-3.75c-5.8-.85-11.7-1.67-17.53-2.41l.41-3.26c5.86.75,11.78,1.56,17.6,2.42Zm-264.26-1.65-.44-3.25c5.83-.78,11.75-1.52,17.6-2.2l.38,3.26C921.24,119.56,915.34,120.3,909.53,121.08Zm229.15-2.84c-5.84-.63-11.76-1.22-17.61-1.74l.3-3.27c5.86.52,11.81,1.11,17.67,1.75Zm-194-1.2-.32-3.27c5.86-.56,11.8-1.08,17.66-1.53l.25,3.27C956.39,116,950.47,116.48,944.64,117Zm158.79-2c-5.84-.41-11.78-.78-17.66-1.08l.17-3.28c5.9.31,11.86.67,17.72,1.09Zm-123.58-.76-.19-3.28c5.86-.34,11.81-.63,17.68-.87l.14,3.28C991.62,113.69,985.69,114,979.85,114.32Zm88.24-1.08c-5.86-.2-11.8-.35-17.67-.44l0-3.28c5.89.09,11.85.24,17.73.44Zm-53-.33-.07-3.28c5.85-.13,11.81-.2,17.69-.22v3.29C1026.88,112.71,1020.94,112.79,1015.11,112.91Z"/><path class="cls-13" d="M2235.18,443.09a102.17,102.17,0,1,0-87.39,184.7q3.12,1.47,6.29,2.72a102.16,102.16,0,0,0,81.1-187.42Zm25.55,125.11a76.52,76.52,0,0,1-97.29,38.52q-2.37-.94-4.71-2a76.6,76.6,0,1,1,102-36.48Z"/><path class="cls-14" d="M2123.64,571,2101,582.87a102.32,102.32,0,0,1,16.11-117.5l18.61,17.53a76.75,76.75,0,0,0-12.07,88.1Z"/><path class="cls-15" d="M2163.44,606.72l-9.36,23.79q-3.16-1.25-6.29-2.72a101.72,101.72,0,0,1-46.8-44.92L2123.64,571a76.27,76.27,0,0,0,35.09,33.68Q2161.07,605.78,2163.44,606.72Z"/><path class="cls-15" d="M2183.26,637.3a101.58,101.58,0,0,1-29.18-6.79l9.36-23.79a76,76,0,0,0,21.88,5.09Z"/><polygon class="cls-15" points="2160.1 704.64 1969.32 704.64 1969.32 700.85 2156.31 700.85 2156.31 620.02 2160.1 620.02 2160.1 704.64"/><rect class="cls-12" x="1969.32" y="661.38" width="100.42" height="22.75"/><rect class="cls-12" y="329.45" width="19.93" height="132.17"/><rect class="cls-12" x="49.49" y="356.3" width="19.93" height="105.31"/><rect class="cls-12" x="98.98" y="336.54" width="19.93" height="125.08"/><rect class="cls-12" x="148.47" y="375.56" width="19.93" height="86.06"/><rect class="cls-12" x="197.96" y="340.59" width="19.93" height="121.02"/><rect class="cls-12" x="247.44" y="322.35" width="19.93" height="139.26"/><rect class="cls-12" x="296.93" y="314.75" width="19.93" height="146.86"/><rect class="cls-6" y="378.69" width="19.93" height="82.92"/><rect class="cls-6" x="49.49" y="395.54" width="19.93" height="66.07"/><rect class="cls-6" x="98.98" y="383.14" width="19.93" height="78.47"/><rect class="cls-6" x="148.47" y="407.62" width="19.93" height="53.99"/><rect class="cls-6" x="197.96" y="385.69" width="19.93" height="75.93"/><rect class="cls-6" x="247.44" y="374.24" width="19.93" height="87.37"/><rect class="cls-6" x="296.93" y="369.48" width="19.93" height="92.14"/><rect class="cls-16" x="333.56" y="123.24" width="115.19" height="16.64"/><rect class="cls-16" x="333.56" y="154" width="163.4" height="16.64"/><path class="cls-13" d="M2403.82,341A77.44,77.44,0,1,0,2258,393.14c.59,1.64,1.22,3.25,1.91,4.83a77.44,77.44,0,0,0,143.92-57Zm-53.36,80.75a58,58,0,0,1-72.79-31.5c-.51-1.18-1-2.39-1.43-3.62a58.06,58.06,0,1,1,74.22,35.12Z"/><path class="cls-17" d="M2275.48,349.76,2257,344a77.56,77.56,0,0,1,71.61-54.35l.58,19.38a58.15,58.15,0,0,0-53.69,40.75Z"/><path class="cls-14" d="M2277.67,390.23,2259.9,398c-.69-1.58-1.32-3.19-1.91-4.83a77,77,0,0,1-1-49.16l18.5,5.78a57.79,57.79,0,0,0,.76,36.85C2276.68,387.84,2277.16,389.05,2277.67,390.23Z"/><path class="cls-15" d="M2271.9,417.24a76.91,76.91,0,0,1-12-19.27l17.77-7.74a57.7,57.7,0,0,0,9,14.46Z"/><rect class="cls-10" x="712.32" y="600.1" width="605.43" height="21.09"/><rect class="cls-10" x="712.32" y="668.82" width="605.43" height="21.09"/><rect class="cls-10" x="712.32" y="735.1" width="605.43" height="21.09"/><rect class="cls-10" x="712.32" y="803.82" width="605.43" height="21.09"/><rect class="cls-10" x="712.32" y="881.02" width="605.43" height="21.09"/><rect class="cls-10" x="712.32" y="949.73" width="605.43" height="21.09"/><rect class="cls-10" x="712.32" y="1016.02" width="605.43" height="21.09"/><rect class="cls-10" x="712.32" y="1084.74" width="605.43" height="21.09"/><rect class="cls-18" x="573.48" y="582.02" width="85.91" height="85.91" rx="17.06"/><rect class="cls-18" x="573.48" y="851.32" width="85.91" height="85.91" rx="17.06"/><path class="cls-5" d="M613.51,915l-23.85-20.71a4.69,4.69,0,0,1,6.16-7.08l16.85,14.65,24-26.82a4.69,4.69,0,1,1,7,6.25Z"/><rect class="cls-18" x="573.48" y="716.14" width="85.91" height="85.91" rx="17.06"/><path class="cls-5" d="M613.51,779.86l-23.85-20.71a4.69,4.69,0,1,1,6.16-7.08l16.85,14.64,24-26.81a4.69,4.69,0,1,1,7,6.25Z"/><rect class="cls-18" x="573.48" y="986.5" width="85.91" height="85.91" rx="17.06"/><path class="cls-5" d="M613.51,1050.22l-23.85-20.71a4.69,4.69,0,1,1,6.16-7.08l16.85,14.65,24-26.82a4.69,4.69,0,1,1,7,6.25Z"/><path class="cls-5" d="M606.41,631.53a21.93,21.93,0,0,1,.22-3.2,11.1,11.1,0,0,1,.83-2.94,9.43,9.43,0,0,1,1.79-2.66,11.9,11.9,0,0,1,3-2.25l2.5-1.34a25.62,25.62,0,0,0,3.06-1.93,12.8,12.8,0,0,0,2.58-2.51,5.09,5.09,0,0,0,1.09-3.16,4.43,4.43,0,0,0-1.75-3.74,6.33,6.33,0,0,0-4-1.35,5.89,5.89,0,0,0-2.58.55,9.49,9.49,0,0,0-2,1.31,8.39,8.39,0,0,0-1.56,1.71l-1.17,1.67L601,606.45a14.52,14.52,0,0,1,6-6.9,17.55,17.55,0,0,1,9.26-2.47,19.62,19.62,0,0,1,5.53.8,14.15,14.15,0,0,1,4.94,2.54,13.29,13.29,0,0,1,3.56,4.51,14.82,14.82,0,0,1,1.38,6.68,13.05,13.05,0,0,1-1.71,6.94,15.25,15.25,0,0,1-5,4.91,32.8,32.8,0,0,1-3.09,1.82,28.56,28.56,0,0,0-2.87,1.67,8.5,8.5,0,0,0-2.11,2,4.33,4.33,0,0,0-.8,2.62Zm.22,17.8v-10.9h9.52v10.9Z"/><path class="cls-19" d="M849.36,564.75a98.27,98.27,0,0,0-15.05,17.63c-7.12,10.68-26,11.24-26.83,25.82s25.69,15,39.61,10.28,16-19,24.44-22.54,12.78-6.44,12.14-13.39-5.31-18.24-5.31-18.24a57.59,57.59,0,0,1-8.3,2C867,566.66,856.64,566.78,849.36,564.75Z"/><path class="cls-20" d="M944.75,169.74s-5.33,31.72-9.63,52.67h0c-1.75,8.5-3.32,15.23-4.3,17.34-1.23,2.67-11.24,13.42-23.49,26-21.5,22.14-49.91,50-49.91,50l-11.1-21.08s25.23-29.58,42.33-49.32c7.92-9.13,14.1-16.15,15.23-17.17,3.57-3.2,7.72-34.72,13.56-60.69S935,127.21,935,127.21Z"/><path class="cls-21" d="M907.33,265.78c-21.5,22.14-49.91,50-49.91,50l-11.1-21.08s25.23-29.58,42.33-49.32C893.9,248,903.52,254.1,907.33,265.78Z"/><path class="cls-19" d="M1045.21,556.06s7.3,8.07,11.62,13,20.86,13.64,20.94,28.18c.1,15.76-12.2,14.38-23.14,13.8s-19.83-8.13-24.43-17.06-16.87-11.27-17.73-18.46,5.68-20.16,5.68-20.16Z"/><path class="cls-22" d="M1019.56,541.92l-1.41,13.41s22.84,9.95,27.06.73l-1-11.95Z"/><path class="cls-22" d="M850.6,555l-1.24,9.72a47.89,47.89,0,0,0,29-.44l.31-8.63Z"/><path class="cls-20" d="M1046.5,311.5c.79,2.82-146.17,0-146.17,0S941,281.91,943.62,274s-10.35-55.34-12-70.77c-1.36-12.35-4.75-67.6,3.38-76,8.51-8.83,39.15-18.07,39.15-18.07l44.67,1.66a70.44,70.44,0,0,1,12.64,4c5.27,2.45,35.41,13.19,40.3,28.24s-30.07,63.47-30.07,63.47-.07,2.17-.17,5.74h0c-.14,4.75-.34,12-.52,19.82-.24,10.15-.44,21.32-.44,29.49C1040.52,280.73,1045.71,308.68,1046.5,311.5Z"/><path class="cls-8" d="M1046.5,311.5s20,29.36,20.27,49.4-7.4,75.62-8,86.63-10.91,102.76-10.91,102.76-8,7.44-32-1.88c0,0-5.29-87-5.86-96.33s-.56-52.22-5.93-58.43S966.28,368,962,364.29s-78,13.94-85.73,15.94c-20,5.19-10.89,40-6.47,55.63,7.41,26.12,13.89,120.45,13.89,120.45s-14.26,6.08-38.14.94c0,0-46.89-170.32-48.39-187.26s-2.25-44.87,113.3-66.1Z"/><path class="cls-21" d="M986.37,12.09s-38.78-8.75-29.92,40.05S974.63,104.77,998,94.67s21.3-41.36,22.48-56.69S998.74,12.62,986.37,12.09Z"/><path class="cls-21" d="M976.11,121.66s17.17,18.21,44.31,1.66c0,0-6.07-39.45-2.88-58.67s-35.41,29.78-35.41,29.78c.51.27.85,2.1.93,4.71a54.16,54.16,0,0,1-.41,7.82C981.85,113.35,979.87,120.09,976.11,121.66Z"/><path class="cls-21" d="M1007.16,45.67c.51-4.31,9-5.88,9.71.57S1013,64,1009.77,62.91,1006.46,51.61,1007.16,45.67Z"/><path class="cls-23" d="M1018.61,63s-1-15.37-6.62-15.85-6.47,5.71-6.47,5.71L999.84,54s1.8-13.48-3.81-15.83-36.33,7.42-40.83,3.46-2.38-31.29,5.76-35,30.62-12.12,47.09-1c0,0,12.84-1.47,14.74,8.9S1022.1,55.32,1018.61,63Z"/><path class="cls-24" d="M982.65,107c28-8.64,30.11-25.49,30.14-25.76-9.22,15.84-29.73,17.94-29.73,17.94A54.16,54.16,0,0,1,982.65,107Z"/><path class="cls-21" d="M1031.88,115s-20.5,40.81-53.63,38.18-5.64-43.66-4.14-44C975.77,108.72,1008.08,100.67,1031.88,115Z"/><path class="cls-20" d="M883.52,309.43S985,322,1046.5,311.5L929,296.82S928.32,299.82,883.52,309.43Z"/><path class="cls-21" d="M959.43,292.2,951.87,296s1.72,12,5.86,15.65l8.49-2.17S964.45,296.34,959.43,292.2Z"/><path class="cls-20" d="M1076.87,267.61c-1.51,1.75-21.46,9.77-44,18.45h0c-30.8,11.86-65.53,23.08-65.53,23.08l-7.91-16.95s36.38-19.77,61-33.63c11.62-6.54,20.59-11.77,21.86-13,4-3.77,5-9.8,2.07-20.33s-9.6-58.91-10.35-64.55,1.88-20.71,16-21.46,21.3,3.23,21.3,3.23,3.54,1.48,6.18,35.73S1080.45,263.47,1076.87,267.61Z"/><path class="cls-25" d="M1041.48,212.23h0c-.14,4.75-.34,12-.52,19.82-13.78-33.77-5.82-60.72-5.68-61.17C1033.79,180,1041.37,211.78,1041.48,212.23Z"/><path class="cls-25" d="M935.12,222.41h0c-1.75,8.5-3.32,15.23-4.3,17.34-4.7-22.77-.47-51.93-.47-51.93C931,201.75,935.12,222.41,935.12,222.41Z"/><path class="cls-21" d="M1032.87,286.06h0c-30.8,11.86-66.65,23.44-66.65,23.44l-6.79-17.31s36.38-19.77,61-33.63C1020.38,258.57,1029.33,262.93,1032.87,286.06Z"/><polygon class="cls-26" points="957.24 310.52 812.99 308.39 885.82 345.38 957.24 310.52"/><polygon class="cls-27" points="885.82 345.38 957.24 317.71 957.24 310.52 880.18 338.32 885.82 345.38"/><path class="cls-21" d="M953.5,296.29s-9-1.4-15.23-2.85c-4.82-1.12-16.81.42-19.86,3.52s-12.76,24.64-14.6,26,.94,4.35,4.17,2.83c0,0,3,9.43,10.27,5.9s12.26-11.24,16.09-12.6,26.1-8.21,26.1-8.21S959.25,294,953.5,296.29Z"/><path class="cls-21" d="M920.61,295.54s-5.79,2.8-7.3,4-7.64,5.84-9.12,6.91,2.24,4.15,13.19-.59S920.61,295.54,920.61,295.54Z"/><polygon class="cls-28" points="885.82 345.38 842.91 228.22 704.59 230.48 745.48 338.44 885.82 345.38"/><path class="cls-29" d="M798.65,280.05c4.23,8.44,3,17.63-2.84,20.53s-13.92-1.6-18.14-10-2.94-17.63,2.85-20.53S794.43,271.61,798.65,280.05Z"/><rect class="cls-12" x="1356.89" y="787.07" width="63.02" height="18.99" rx="3.43"/><rect class="cls-12" x="1356.89" y="832.61" width="63.02" height="18.99" rx="3.43"/><rect class="cls-12" x="1356.89" y="878.15" width="63.02" height="18.99" rx="3.43"/><rect class="cls-12" x="1356.89" y="923.69" width="63.02" height="18.99" rx="3.43"/><rect class="cls-12" x="1356.89" y="969.23" width="63.02" height="18.99" rx="3.43"/><rect class="cls-12" x="1356.89" y="1014.77" width="63.02" height="18.99" rx="3.43"/><rect class="cls-12" x="1445.93" y="787.07" width="17.93" height="18.99" rx="3.43"/><rect class="cls-12" x="1445.93" y="832.61" width="17.93" height="18.99" rx="3.43"/><rect class="cls-12" x="1445.93" y="878.15" width="17.93" height="18.99" rx="3.43"/><rect class="cls-12" x="1445.93" y="923.69" width="17.93" height="18.99" rx="3.43"/><rect class="cls-12" x="1445.93" y="969.23" width="17.93" height="18.99" rx="3.43"/><rect class="cls-12" x="1445.93" y="1014.77" width="17.93" height="18.99" rx="3.43"/><path class="cls-30" d="M1451.37,1037.08s-26.93-61,4.31-56c0,0,10.64,8.79,21.56,26.7,8.26,13.57,25.46,49.48,24.82,61.63s-9.28,21.2-18.6,40.7c0,0-19.4,36.21-20.21,40.57l-20.5-10.65s17.37-34.61,29.61-65Z"/><rect class="cls-31" x="1187.84" y="1104.66" width="364.14" height="55.69" transform="translate(210.87 -215.03) rotate(9.72)"/><rect class="cls-32" x="1173.08" y="1079.16" width="17.5" height="42.27" transform="translate(201.41 -182.73) rotate(9.66)"/><path class="cls-21" d="M1295.48,1554h-5.09s1.7-19.19-3-19.38-16.36,15.62-23.33,18.07-42.71,4.51-42.89-2.07,13.73-9.23,18.06-11.1,25.4-22.4,29.16-24.84,10.19-19.45,10.19-19.45l20-.89s1.13,15.9,2.34,24.31a72.32,72.32,0,0,1,.82,7.88C1301.87,1533.66,1295.48,1554,1295.48,1554Z"/><path class="cls-21" d="M1424,1550.19h-4.24v-17.87c-3.52.3-15.38,11.52-19,14.77s-8.7,3.1-24.15,4.08-16.91-8.27-14.47-11.42,10.35-4.52,14.47-6.49,20.34-20.27,24.67-24.6,7-16.73,7-16.73l18.06,1.57a110.9,110.9,0,0,0,2,20.87h0a.17.17,0,0,1,0,.07c.18.81.37,1.61.58,2.38C1431.52,1526.72,1424,1550.19,1424,1550.19Z"/><path class="cls-33" d="M1357.25,1145.28s-6.83,16.15-7.43,20.22-16.58,42.71-21.2,68.75c-2.77,15.59-10.41,64.4-11,70.6-1.06,10.62-6.06,34.06-6.83,44.91-.43,6.06-30.29,99.14-37.52,147.74,0,0,17.17,2.54,30.08-.87,0,0,26.21-50.23,40.77-121.46,8.77-42.91,16.53-65.78,23.32-83.46s45.26-67.71,49.28-73.33,29.17-36.7,5.35-70.36S1357.25,1145.28,1357.25,1145.28Z"/><path class="cls-33" d="M1443.26,1288.26c-2.18,14.5.11,33.53,4.66,86.52s-8,117.15-8,117.15c-15.72,5.38-33.84,0-33.84,0,.42-3.73,0-129.16,0-140.33s-3.21-23.86-4-36.69c-.57-8.75-4.64-24.86-9.21-41.32-1.37-4.93-2.79-9.88-4.17-14.68h0c-.77-2.69-1.53-5.33-2.27-7.89-6.45-22.36-15.11-108.67-15.11-108.67s48-38.7,71.43-2.27,11.38,62.92,10.55,67.47S1445.44,1273.78,1443.26,1288.26Z"/><path class="cls-34" d="M1423.34,1210.42c-.38.82-24.31,54-30.47,63.17-1.37-4.93-2.79-9.88-4.17-14.68h0S1422.54,1211.59,1423.34,1210.42Z"/><path class="cls-35" d="M1424,1550.19h-4.24v-17.87c-3.52.3-15.38,11.52-19,14.77s-8.7,3.1-24.15,4.08-16.91-8.27-14.47-11.42,10.35-4.52,14.47-6.49c16.53.89,36.7-22.36,46.38-22.31,5.15,0,5.1,2.88,5.26,3.42h0a.17.17,0,0,1,0,.07c.18.81.37,1.61.58,2.38C1431.52,1526.72,1424,1550.19,1424,1550.19Z"/><path class="cls-35" d="M1295.48,1554h-5.09s1.7-19.19-3-19.38-16.36,15.62-23.33,18.07-42.71,4.51-42.89-2.07,13.73-9.23,18.06-11.1c14.74,0,38.72-16.27,46.16-19.56s15.48-1.31,15.48-1.31a72.32,72.32,0,0,1,.82,7.88C1301.87,1533.66,1295.48,1554,1295.48,1554Z"/><path class="cls-21" d="M1399.66,942.66s7.67,20.28,1.71,36c0,0,28.11-1.83,29.17-5.11s-1.13-33.67,2.74-42.65S1399.66,942.66,1399.66,942.66Z"/><path class="cls-30" d="M1397,971.75s-16.61,5.91-24.12,7.55-23.21,9.08-21.93,37.08,6,52.29,7.67,64.32.64,42.66-2.13,57.54c0,0,39.82,10.06,86.66,0,0,0-8.3-25.38-8.09-31.94s27.68-60.6,29-69.13,6.82-46.17-5.75-54.48-22.78-7.22-28.1-10.94S1404.72,969.08,1397,971.75Z"/><path class="cls-30" d="M1461,1182.24c-68,18-122.17.07-122.17.07a168,168,0,0,0,11.2-30.07h0a180.2,180.2,0,0,0,4.19-20.18h0c5.53-37.06-1.68-65.44-1.68-65.44,7.85-64.63,105.64-83.92,113.47-63.43s-15.17,108.52-16.34,116.07S1461,1182.24,1461,1182.24Z"/><path class="cls-21" d="M1424.16,861.29c-11.3-3.88-41.84-8-49.66,38.88s9.21,47.68,26.72,46.35,44.9-33,47-42.6S1456.41,872.35,1424.16,861.29Z"/><path class="cls-36" d="M1380.79,879.29s9.33,20,21.57,26.92c0,0,7.67,21.2,24.27,29.78,0,0,44.06-29.18,18.49-63.87S1383.68,865.06,1380.79,879.29Z"/><path class="cls-21" d="M1401.28,899.29c1-2.44,7.59-6.41,10.55.28s-7.67,18.48-10.58,17.85S1397.52,908.54,1401.28,899.29Z"/><path class="cls-36" d="M1443.63,877.48c1-1.5,30.14-15,36.21,13.22s-23.5,61-28.68,75.15,2.34,47.18,2.34,47.18-17.79-16.82-23.17-34.42C1424.42,959.28,1422.43,910.54,1443.63,877.48Z"/><path class="cls-37" d="M1445.1,876.52s-8.93,7.07-10.08,18.21c0,0-1.68-8.69,1.92-14S1445.1,876.52,1445.1,876.52Z"/><path class="cls-38" d="M1350.07,1152.23c1.86-6.92,4.28-22.08,5.25-28.58h0s4.09-3.05,4.94-5.7c1.46-4.57,12.77-60.58,12.77-60.58S1385,1110,1350.07,1152.23Z"/><path class="cls-21" d="M1301.12,1138.62s-12.16,5.65-15,6.53-8.3-4-28.45-5.45c-1.76-.13-4.87,1.46-4.14,3.79s9.5,8.7,13.25,9.67,21.46,8,30.08,4.55,14.5-14.43,14.5-14.43Z"/><path class="cls-30" d="M1368.14,980.83s-23.3,9.24-24.68,41.62-2.64,49.28-3.91,54.28-3.68,25.08-9.54,37.17c-5.69,11.72-43.16,30.26-43.16,30.26l11.4,14.5s58.85-31.16,62-40.71,16.17-76,17.21-87.19C1378.3,1021.73,1390.21,981.51,1368.14,980.83Z"/><path class="cls-39" d="M1148.3,1064.46c0,.87-.09,1.73-.15,2.6h33.34c.06-.87.09-1.73.12-2.6Zm-371.86-9.21c0,1,0,2,0,3,.06,4.22.24,8.4.6,12.56a198,198,0,0,0,5.65,34.62A201.68,201.68,0,0,0,836,1198.69c1,1,2,2,3,2.93,4,3.82,8.13,7.5,12.44,11A201.65,201.65,0,0,0,979.15,1258c.8,0,1.61,0,2.42,0a201.63,201.63,0,0,0,100.74-28.16,203.46,203.46,0,0,0,89-109.83c1.59-4.76,3-9.57,4.28-14.48a203.19,203.19,0,0,0,4.93-26.82v0c.21-1.94.42-3.88.57-5.86s.33-3.76.42-5.68c.06-.87.09-1.73.12-2.6.09-1.91.15-3.8.18-5.71,0-1.17,0-2.33,0-3.5,0-101.46-74.55-185.51-171.88-200.34-1.88-.3-3.76-.57-5.68-.81-2.09-.24-4.18-.47-6.28-.65-1.88-.18-3.79-.33-5.68-.45-4.36-.3-8.76-.42-13.15-.42-3.74,0-7.45.09-11.13.3-6.31.33-12.53,1-18.69,1.88A203.24,203.24,0,0,0,792.89,975.17c-.3.66-.57,1.35-.84,2s-.54,1.28-.77,1.91c-1.56,3.74-3,7.54-4.25,11.36a199.59,199.59,0,0,0-7.72,30.77c-.5,2.78-.89,5.59-1.28,8.43,0,.48-.09,1-.15,1.47,0,0,0,.06,0,.12a5.83,5.83,0,0,0-.06.72,7.21,7.21,0,0,0-.12.83v.21a1.77,1.77,0,0,0-.06.42,4.48,4.48,0,0,0-.06.63c-.06.51-.12,1-.15,1.53-.3,3.11-.54,6.24-.69,9.38,0,.42-.06.87-.06,1.29l-.09,2.06C776.47,1050.62,776.44,1052.92,776.44,1055.25Zm45.43,63.06-.78-2c-.57-1.47-1.11-2.93-1.65-4.43l-1.22-3.58c-.3-.9-.6-1.8-.87-2.7,0-.06,0-.11-.06-.18a3.17,3.17,0,0,1-.15-.5c-.48-1.5-.9-3-1.31-4.55l-.48-1.76c-.45-1.62-.84-3.26-1.23-4.91,0-.15-.09-.33-.12-.5-.33-1.53-.66-3-1-4.58-.15-.63-.27-1.26-.38-1.88-.36-1.92-.69-3.86-1-5.8-.54-3.41-.93-6.85-1.26-10.32-.12-1.17-.21-2.36-.3-3.56,0,0,0,0,0,0,0-.39,0-.75-.06-1.13-.09-1.62-.18-3.23-.24-4.85v-.48c0-.36,0-.75,0-1.13,0-1.41-.06-2.81-.06-4.22s0-2.63.06-3.92a147.78,147.78,0,0,1,1.08-15.55,15,15,0,0,1,.18-1.61.11.11,0,0,1,0-.09s0,0,0,0a.06.06,0,0,1,0-.09,1.12,1.12,0,0,1,0-.33v-.06c0-.06,0-.09,0-.12a168.17,168.17,0,0,1,25.15-69.28,170.15,170.15,0,0,1,61.47-57.5,164.4,164.4,0,0,1,20.58-9.57c2.24-.87,4.54-1.7,6.84-2.45a165.26,165.26,0,0,1,40.4-8.22c4.49-.39,9-.57,13.58-.57,1.37,0,2.72,0,4.09.06,1.59,0,3.14.09,4.73.15,1.13.06,2.27.15,3.41.24a8.89,8.89,0,0,1,.92.06c1.89.12,3.8.3,5.68.51l1.44.17c.75.09,1.52.18,2.27.3s1.71.21,2.57.36c1.92.27,3.8.6,5.68.93l.51.09c1.47.27,2.93.57,4.4.9.09,0,.18,0,.27.06.59.12,1.22.27,1.82.41,1.38.3,2.72.63,4.07,1a16.79,16.79,0,0,1,1.76.45c1.56.42,3.11.84,4.67,1.32s3,.89,4.42,1.37c.69.21,1.38.45,2,.69,2.93,1,5.83,2.06,8.67,3.23.77.3,1.55.63,2.33,1,1.2.51,2.36,1,3.56,1.56,1,.42,1.91.84,2.84,1.32,1.4.62,2.78,1.31,4.15,2,1.56.78,3.08,1.58,4.58,2.42,1.73.93,3.41,1.88,5.08,2.87,3.47,2,6.82,4.19,10.11,6.46,1.4,1,2.78,1.94,4.16,3,1.73,1.23,3.4,2.51,5,3.83,1.46,1.16,2.93,2.36,4.36,3.59s2.94,2.51,4.37,3.82a169,169,0,0,1,55.38,125.29c0,1.17,0,2.33,0,3.5,0,1.91-.09,3.8-.21,5.71,0,.87-.09,1.73-.15,2.6-.15,1.92-.3,3.8-.51,5.68-.54,5.38-1.35,10.68-2.39,15.91a163.92,163.92,0,0,1-4.28,16.8c-1.34,4.37-2.87,8.68-4.57,12.86a169.53,169.53,0,0,1-54.09,71.32,172.48,172.48,0,0,1-17.83,12,168.44,168.44,0,0,1-82.91,23c-.81,0-1.62,0-2.42,0a169.38,169.38,0,0,1-149.66-89.94c-.75-1.44-1.49-2.87-2.21-4.31l-1.32-2.75c-.54-1.07-1-2.15-1.52-3.26l-.48-1.07c-.42-1-.84-1.92-1.23-2.9Z"/><circle class="cls-40" cx="979.14" cy="1055.26" r="168.81" transform="translate(-459.4 1001.43) rotate(-45)"/><path class="cls-41" d="M1093.15,930S873.3,902.7,829.49,1134.73h0A169.43,169.43,0,0,1,1093.15,930Z"/><polygon class="cls-33" points="359.64 1245.4 433.1 1285.78 506.86 1169.69 417.64 1138.7 359.64 1245.4"/><polygon class="cls-42" points="364.29 1241.92 432.99 1279.68 501.98 1171.12 418.54 1142.13 364.29 1241.92"/><path class="cls-21" d="M339.14,1221.61s12.78-6.11,18.39-9.31,20.05-7.58,21.22-8.62,42.79-3.61,45.32-5.79,5,5.1-5.81,7.47-25.81,8.14-26.63,12.36,11.08,5.21,12.29,8.68-.34,2.7-2,3.45-14.16-6.16-19.64-4.2-13.84-.75-18,.68-24.6,8.31-24.6,8.31Z"/><path class="cls-21" d="M436.68,1271.22s10.74-9.67,15.93-13.71,15-15.94,16.39-16.64,20.07-38.92,23.1-40.45-2.87-6.68-9.3,2.57-17.72,21.14-22,20.27-.6-12.47-3.4-15-2.67-.73-4,.59.28,15.74-3.69,20.13-4.68,13.34-7.67,16.74-17.41,20-17.41,20Z"/><path class="cls-43" d="M205.35,1787.94s-2.32,16.12-2.61,18.55-25.85-1.43-25.85-1.43l-2.07-19.2S202.16,1785.66,205.35,1787.94Z"/><path class="cls-33" d="M203,1804.44s8.1,9.71,15.93,14,20.14,5.91,24.77,10.3c3.34,3.16,12.17,16.79-20.35,16.51s-48.21,1.93-51.7-3.3,5-38.56,5-38.56S184.41,1806.11,203,1804.44Z"/><path class="cls-43" d="M388.47,1787.94s-2.33,16.12-2.62,18.55-25.84-1.43-25.84-1.43l-2.07-19.2S385.27,1785.66,388.47,1787.94Z"/><path class="cls-33" d="M386.13,1804.44s8.09,9.71,15.92,14,36.66,7.71,41.29,12.1c3.34,3.16,8.9,15.9-36.87,14.71-32.51-.84-48.21,1.93-51.69-3.3s5-38.56,5-38.56S367.08,1806.3,386.13,1804.44Z"/><path class="cls-33" d="M226.51,1373.53s-24,38.15-22.22,72.64-8.71,72.14-12.31,108.17c-4,40.16-20.48,135.25-21.08,156.73s2.56,90.09,2.56,90.09l32.94.75s27.67-166.23,34.84-183.19,42.7-137.88,43.89-151.45S226.51,1373.53,226.51,1373.53Z"/><path class="cls-33" d="M352.93,1378.7s18.09,94.52,20.48,115.63,4,102.15,5.18,115.34,8,172.64,14.33,192.24H350.8S318.47,1686,318.47,1631.16s-25-119.22-41.1-155.41-53-37-62.94-104.17C214.43,1371.58,339.51,1357.41,352.93,1378.7Z"/><path class="cls-21" d="M266.58,1052.76s32.24-12,47.1,12.5,13.43,73.65-2.82,79.69-40.65,2.89-49-12.47-15.83-37.54-15.47-52.38S258.12,1057,266.58,1052.76Z"/><path class="cls-21" d="M307.36,1146.08s-1.34,8.7.88,13-41.76,4.4-41.76,4.4-3.57-23.32-10.34-43S307.36,1146.08,307.36,1146.08Z"/><path class="cls-23" d="M256.14,1120.45s3,5,15.43,3.06,27.5-18.42,32.67-20.23,5.23-4.85,5.23-4.85l3.23,4.73,5.5.35s-5-14.75,2.55-20.76-7.85-47.73-47.58-33.84c0,0-30.52,8.41-29.41,25.77S249.31,1111.8,256.14,1120.45Z"/><path class="cls-42" d="M310.85,1158.55s-.14-8.19-3.85-9-41-4.37-45.54-2.58v9.54S270.24,1161.94,310.85,1158.55Z"/><path class="cls-21" d="M308.64,1092.11c-.69-2.91-8.09-11.22-10.93-2.32s4.29,20.89,8.25,19.87S310.41,1099.5,308.64,1092.11Z"/><path class="cls-8" d="M458.75,1255.33h-.06C459,1255.43,459,1255.44,458.75,1255.33Z"/><path class="cls-8" d="M199.42,1464.42s19.77,5.82,53.48,9.54,117.93-1.35,118.46-5.33-18.12-148.28-17.06-155.72,1.63-33.91,1.63-33.91c.42,7.26,7.81,36.89,16.73,53,3.23,5.84,14,24.13,19.25,20,25.23-20.14,64.3-96.06,66.78-96.7-2.08-.9-18.52-8.47-20.82-9.24-2-.67-20.22,18.6-31.25,30.55-4.92,5.32-8.41,9.19-8.41,9.19-3.19-7.16-14.79-52.3-18.39-67.93-8.13-35.23-6.88-36.7-6.88-36.7-24.66-7.46-62.09-22.64-62.09-22.64l-49.39-2s-45.33,10-63.18,18c-1.69.76-1.7,40.44-6.35,50.84l14.8,31.23s8.55,61.85,10.33,89.36C217.87,1358.63,199.42,1464.42,199.42,1464.42Z"/><path class="cls-8" d="M189.88,1276.93c1.29,4.16,7.15,7.68,11,9.22a14.19,14.19,0,0,0,7.91.79l1.93-.35h0l33.85-6.27s7.4-85.29-46.24-105.73C196.86,1175,178,1238.74,189.88,1276.93Z"/><path class="cls-19" d="M200.83,1286.14h0a14.19,14.19,0,0,0,7.91.79l1.93-.35h0L207.33,1243Z"/><path class="cls-19" d="M398.21,1285.82l4.14,17.52s4.48-17.58,4.27-26.71C401.7,1282,398.21,1285.82,398.21,1285.82Z"/><path class="cls-23" d="M257.41,1055.66s-42.25-4.88-.73,65.68Z"/><polygon class="cls-33" points="472.9 1163.47 477.2 1156.09 443.38 1144.42 439.08 1151.76 472.9 1163.47"/><path class="cls-44" d="M901,1230.26s6.7-6.21,5.37-10.86c-1.13-4,.57-8.39,1-10.22.58-2.44.8-10.34,2.62-9.91,3.08.74,2.37,13.36,2.74,16s8.52-6.31,11.31-6.79,16.92,13.86,10.62,19.39-15,7.77-15.91,9a48,48,0,0,1-5.23,4.47Z"/><path class="cls-44" d="M922.27,1209.48s20.42-15.65,22.65-15.55,3,1.25,1.17,2.79-19.29,15.69-19.29,15.69,27.28-14.46,29.12-14.78c1.08-.19,1.9,1.88,1,2.79s-26.3,16.88-26.3,16.88,25.49-13.45,27.12-13.26a2,2,0,0,1,.62,3.65c-1.83,1.12-24.78,15-24.78,15S952.74,1214,954,1215c.78.59,1.88,1.9-3.13,4s-15.93,8.68-15.93,8.68Z"/><path class="cls-45" d="M759.2,1041.52s48.84-4.07,47.5,47.31-9.48,59.1,0,95.4-47.61-20.61-47.61-20.61Z"/><path class="cls-46" d="M610.43,1810.4s-18.13,25.48-15.64,29.51,21.55,4.62,33.16,0,11.89-34.47,17.14-47.3c2.2-5.37-2.51-21.22-9.12-22.37s-13.81,2.23-13.81,2.23S629,1790.54,610.43,1810.4Z"/><path class="cls-21" d="M622,1772.26a124,124,0,0,0-5.21,21.21c-1.16,8.59-12.92,26.83-12.37,29.14s15.48,4.4,21.56-1.55,10-23.25,11.33-33.59a86.67,86.67,0,0,1,2.82-14.4S627.84,1765.92,622,1772.26Z"/><path class="cls-46" d="M768.28,1810.82s-17.49,25.06-15,29.09,21.56,4.62,33.17,0,11.88-34.47,17.13-47.3c2.2-5.37-2.5-21.22-9.12-22.37s-14.37,2.47-14.37,2.47S786.86,1791,768.28,1810.82Z"/><path class="cls-21" d="M780.09,1772.71a177.4,177.4,0,0,1-3.59,20.19c-2.21,8.37-14.1,27.4-13.54,29.71s15.47,4.4,21.55-1.55,10.78-23.17,11.33-33.59a57.55,57.55,0,0,0-1.38-17.23S785.9,1766.37,780.09,1772.71Z"/><path class="cls-47" d="M692.74,1358s-15.56,75.54-19.13,94.56S660,1563.67,659,1579.33s-16.24,74.68-15.52,80.27-24.63,116.47-24.63,116.47,18,1.94,25.12-1c4.89-2,44.2-102,44.2-130,0-38.66,21.59-89.14,24.72-97.94,30.81-86.62,36.46-107.17,40.75-112.39,0,0,.65,7.06,2.11,18.8,1.68,13.5,9,109.9,12.25,122.58s.72,55.56,2.51,77.19,5.1,120.3,5.1,120.3,16.13.7,23.24-3.54c2.38-1.42,10.61-106,11-131.75s.73-61.22,1.43-72.35c6.62-106.63,22.89-121.86-2.74-197.32C760.47,1227.27,692.74,1358,692.74,1358Z"/><polygon class="cls-46" points="645.57 1790.37 645.57 1817.04 642.26 1817.04 642.26 1796.43 645.57 1790.37"/><polygon class="cls-46" points="804.07 1790.37 804.07 1817.04 800.75 1817.04 800.75 1796.43 804.07 1790.37"/><path class="cls-21" d="M738.88,1178.21a204.49,204.49,0,0,0,7.48-21.41c.15-.54.29-1.08.43-1.62.38-1.48.73-3,1.05-4.45.18-.85.34-1.68.49-2.52,1.14-6.24,1.45-12.21,0-16.47-4.74-14,29.69-4.3,29.69-4.3s-6.67,37,0,49.48S738.88,1178.21,738.88,1178.21Z"/><path class="cls-48" d="M797.27,1177.6c3.84-4.8-23.13-6.47-23.13-6.47l-31.45-2.71s-21.63,3.6-38.41,9.41-38.77,37.6-38.77,37.6,30.33,71.21,36.15,91.65-6.59,72.44-6.59,72.44c36.36,19.8,108.17,2.12,108.17,2.12S774.61,1206,797.27,1177.6Z"/><path class="cls-49" d="M810.09,1263.44s-1.41,3-5.29,14.74c-3.95-33-1.89-50.2-1.89-50.2C803.34,1245.62,810.09,1263.44,810.09,1263.44Z"/><path class="cls-21" d="M775.89,1170l-37,30.18,3.82-31.79S764.27,1163.76,775.89,1170Z"/><path class="cls-50" d="M800.32,1297.18c-5.09,21.12,20.66,87.2,20.66,87.2l-43.47,14.72a9.26,9.26,0,0,1-12.1-7.15c-4.9-27.49-17.61-101.2-19-133.88-1.79-40.6,27.77-88.5,27.77-88.5,52.54,9,38.14,88.5,38.14,88.5s-1.91,5-4.46,12.83h0c-.64,2-1.32,4.11-2,6.39C804,1283.18,802.05,1290,800.32,1297.18Z"/><path class="cls-50" d="M739,1170.15l.64-1.73s-26.9,4.09-40.58,10.92-39.85,42.11-39.85,42.11l34.24,45.21c0,34.74-12.09,116.24-12.09,116.24l23.8,9.74a5.69,5.69,0,0,0,7.84-5.17c.38-24.81,1.54-98.29,2.12-127,.71-34.74,25.51-90.93,25.51-90.93C740,1169.76,739.5,1170,739,1170.15Z"/><path class="cls-21" d="M690.18,1333s25.82,1,29.83,0,30.81-12.62,32.42-24.09-62.25,10.28-62.25,10.28Z"/><polygon class="cls-51" points="770.28 1297.19 665.51 1284.92 712.84 1323.43 770.28 1297.19"/><polygon class="cls-52" points="712.84 1323.43 770.28 1303.86 770.28 1297.19 710.91 1316.23 712.84 1323.43"/><polygon class="cls-53" points="744.62 1162.55 724.72 1194.13 715.09 1200.21 737.53 1168.76 744.62 1162.55"/><polygon class="cls-54" points="724.72 1194.13 738.87 1200.21 742.69 1168.42 744.62 1162.55 724.72 1194.13"/><path class="cls-50" d="M693.34,1318.27s-1.08,13.34,0,16.14c0,0-64.62-6.46-70.64-15.49s-5.81-20-5.81-20Z"/><polygon class="cls-52" points="712.84 1323.43 682.29 1209.84 566.12 1197.58 597.96 1302.13 712.84 1323.43"/><path class="cls-50" d="M863.42,1258.49c5.83-4.8,9.25-6.56,16.28-12.61,10.92-9.41,24.89-21.32,24.89-21.32l13.28,19.5s-32.11,28.22-49.18,45h0s-21.6,23.19-26.42,21.14-22-27-35.8-51-19.91-39.31-20.59-49.76,33.9-15.48,33.9-15.48l27.08,59.15s4.82,8.46,7.28,11C854.14,1264.09,860.23,1260.63,863.42,1258.49Z"/><path class="cls-21" d="M764,1046.72c-12.11-2-39.8,1-47.65,32.84a100.38,100.38,0,0,0,1.3,15.88c1.33,7.07-7.09,26.52-5.61,27.7s7.94,3.2,7.94,3.2,4.58,22.82,12.33,23.52,37.69-2,54.6-27.81S812.86,1054.72,764,1046.72Z"/><path class="cls-45" d="M716.33,1079.56s18.21,15.73,37.51,20.69,29.52,26.64,29.52,26.64,34.14-34.06,13.54-67.11S716.36,1041.47,716.33,1079.56Z"/><path class="cls-45" d="M757.39,1101.38s20.21,53,17.84,65.8c0,0,10-1.74,28.59,4C803.82,1171.13,794.83,1076.43,757.39,1101.38Z"/><polygon class="cls-54" points="749.57 1195.08 738.87 1200.21 775.23 1164.16 749.57 1195.08"/><polygon class="cls-53" points="775.23 1164.16 749.57 1195.08 763.61 1207.61 778.76 1170.59 775.23 1164.16"/><path class="cls-24" d="M768.19,1140.14c-.17.27-5.73,8.92-21.4,15,.38-1.48.73-3,1.05-4.45.18-.85.34-1.68.49-2.52C748.33,1148.21,761.3,1145,768.19,1140.14Z"/><path class="cls-55" d="M643.15,1257.33c3.23,6.08,3.18,12.43-.12,14.18s-8.59-1.75-11.82-7.83-3.18-12.43.12-14.19S639.92,1251.25,643.15,1257.33Z"/><path class="cls-50" d="M778.76,1170.59s33.84-4.59,43.7,30.84C822.46,1201.43,779.43,1196.8,778.76,1170.59Z"/><g class="cls-56"><rect class="cls-57" x="1344.97" y="192.83" width="530.3" height="615.91" rx="37.89"/></g><path class="cls-58" d="M1666.9,448.3a135.52,135.52,0,1,0-255.21,91.27c1,2.87,2.14,5.7,3.34,8.45A135.52,135.52,0,0,0,1666.9,448.3Zm-93.39,141.31a101.5,101.5,0,0,1-127.38-55.13c-.9-2.06-1.73-4.18-2.51-6.33a101.61,101.61,0,1,1,129.89,61.46Z"/><path class="cls-17" d="M1442.3,463.65l-32.38-10.11a135.73,135.73,0,0,1,125.32-95.1l1,33.91a101.78,101.78,0,0,0-94,71.3Z"/><path class="cls-14" d="M1446.13,534.48,1415,548c-1.2-2.75-2.31-5.58-3.34-8.45a135,135,0,0,1-1.77-86l32.38,10.11a101.2,101.2,0,0,0,1.32,64.5C1444.4,530.3,1445.23,532.42,1446.13,534.48Z"/><path class="cls-59" d="M1436,581.76A134.88,134.88,0,0,1,1415,548l31.1-13.54a100.71,100.71,0,0,0,15.75,25.3Z"/><path class="cls-58" d="M1784.4,531.08a56.06,56.06,0,1,0-48,101.35c1.14.54,2.29,1,3.45,1.49a56.06,56.06,0,0,0,44.5-102.84Zm14,68.65A42,42,0,0,1,1745,620.87c-.86-.35-1.73-.72-2.58-1.12a42,42,0,1,1,56-20Z"/><path class="cls-17" d="M1723.2,601.27l-12.43,6.51a56.11,56.11,0,0,1,8.84-64.47l10.21,9.62a42.08,42.08,0,0,0-6.62,48.34Z"/><path class="cls-14" d="M1745,620.87l-5.13,13c-1.16-.45-2.31-.95-3.45-1.49a55.76,55.76,0,0,1-25.68-24.65l12.43-6.51a41.9,41.9,0,0,0,19.25,18.48C1743.3,620.15,1744.17,620.52,1745,620.87Z"/><polygon class="cls-60" points="1743.2 674.59 1638.52 674.59 1638.52 672.51 1741.12 672.51 1741.12 632.97 1743.2 632.97 1743.2 674.59"/><rect class="cls-58" x="1409.92" y="650.86" width="93.68" height="12.48"/><rect class="cls-58" x="1638.52" y="650.86" width="55.1" height="12.48"/><rect class="cls-58" x="1388.7" y="245.7" width="44.84" height="9.58"/><rect class="cls-58" x="1575.61" y="281.78" width="69.56" height="9.58"/><rect class="cls-58" x="1485.67" y="281.78" width="42.47" height="9.58"/><rect class="cls-58" x="1388.7" y="281.78" width="84.13" height="9.58"/><rect class="cls-58" x="1447.19" y="245.7" width="66.43" height="9.58"/><rect class="cls-58" x="1541.43" y="281.78" width="18.25" height="9.58"/><rect class="cls-58" x="1595.55" y="246.24" width="49.63" height="9.58"/><rect class="cls-58" x="1662.88" y="281.78" width="42.32" height="9.58"/><rect class="cls-58" x="1529.96" y="246.24" width="52.61" height="9.58"/><rect class="cls-5" x="1543.12" y="732.59" width="134" height="134" rx="25.29"/><rect class="cls-61" x="1603.78" y="772.93" width="12.68" height="53.32"/><rect class="cls-61" x="1603.78" y="772.93" width="12.68" height="53.32" transform="translate(2409.71 -810.52) rotate(90)"/><polygon class="cls-62" points="2080.24 227.25 1967.02 114.04 1913.28 167.78 1910.3 164.8 1967.02 108.07 2083.22 224.27 2080.24 227.25"/></g></g></g></svg>