<svg xmlns="http://www.w3.org/2000/svg" xmlns:xlink="http://www.w3.org/1999/xlink" viewBox="0 0 466.66 444.67"><defs><style>.cls-1,.cls-13,.cls-6,.cls-7{fill:none;}.cls-2{fill:#ffcf42;}.cls-3{fill:#ffa924;}.cls-4{fill:#002e5c;}.cls-5{fill:#e2e5f2;}.cls-6,.cls-7{stroke:#b7b8d9;stroke-miterlimit:10;}.cls-13,.cls-6{stroke-linecap:round;}.cls-6{stroke-width:2.83px;}.cls-7{stroke-width:1.42px;}.cls-8{fill:#cacbe8;}.cls-9{fill:#e2b9a0;}.cls-10{fill:#b3b3d4;}.cls-11{fill:#e29ea0;}.cls-12{clip-path:url(#clip-path);}.cls-13{stroke:#fff;stroke-linejoin:round;}.cls-14{fill:#fff;}.cls-15{fill:#f5f5f5;}.cls-16{clip-path:url(#clip-path-2);}.cls-17{clip-path:url(#clip-path-3);}</style><clipPath id="clip-path"><path class="cls-1" d="M77.81,191.46a8.49,8.49,0,0,1-6.42,10.23l-4.84,1.14a8.49,8.49,0,0,1-10.31-6.28l-3.86-16.36a8.62,8.62,0,0,1,6.38-10.39l4.84-1.14A8.62,8.62,0,0,1,74,175.1Z"/></clipPath><clipPath id="clip-path-2"><path class="cls-1" d="M390.94,291.3c15.63,7.12,35.39,4.76,52.16-1.62a112.2,112.2,0,0,1,2.41,18.14l5.92,126.43L433.22,434,415.48,307.38l-14.86,54.33,3.54,72.54L386,433.56l-7.48-55.63a93,93,0,0,1,1.05-31Z"/></clipPath><clipPath id="clip-path-3"><path class="cls-1" d="M401.43,191.65a8.49,8.49,0,0,0,8.59,8.48h5a8.48,8.48,0,0,0,8.59-8.48V174.84a8.62,8.62,0,0,0-8.59-8.65h-5a8.63,8.63,0,0,0-8.59,8.65Z"/></clipPath></defs><g id="Layer_2" data-name="Layer 2"><g id="BACKGROUND"><path class="cls-2" d="M186.49,443.27s-21.3-28.34-13.12-42.72c8.13,1.08,17.39,16.22,17.39,16.22s-3.06-21.59,5.52-30.17c8.59,8.58,8.88,31.68,8.88,31.68,5.65-24.48,22.62-24.48,22.62-24.48s-1.78,19.84-11.54,29.6c9.87-9.87,29.1-10,29.1-10s-14.29,21-17.68,21c15.23-3.34,24.62,1,24.62,1L233,443h-46.5"/><path class="cls-3" d="M130.36,442.94s6.1-27.89,13-21.29,11.94-35.08,19.57-26.75-3.05,26,12.2,21.91,13.73,7.08,10.93,14.62,14,11.51,14,11.51Z"/><path class="cls-4" d="M160.5,400.55c-.87,3.49-1.67,7-2.43,10.51s-1.43,7.05-2,10.59-1.17,7.09-1.62,10.66-.73,7.15-.9,10.75c.06-3.6.31-7.19.71-10.77s.93-7.14,1.53-10.69C157.05,414.52,158.55,407.47,160.5,400.55Z"/><path class="cls-4" d="M141.34,426.73c-.57,1.31-1.09,2.64-1.61,4s-1,2.67-1.42,4-.83,2.72-1.15,4.11a31.42,31.42,0,0,0-.67,4.22,28.87,28.87,0,0,1,1.56-8.42A52,52,0,0,1,141.34,426.73Z"/><path class="cls-4" d="M181.5,421.8a15,15,0,0,0-2,2.24,29.63,29.63,0,0,0-1.68,2.46,39,39,0,0,0-2.66,5.33,50.6,50.6,0,0,0-1.95,5.63c-.28,1-.5,1.93-.76,2.89l-.64,2.92.5-2.95c.23-1,.43-1.95.69-2.91a47.46,47.46,0,0,1,1.9-5.69,35.76,35.76,0,0,1,2.74-5.33A20.12,20.12,0,0,1,181.5,421.8Z"/><path class="cls-4" d="M196.28,386.6c-.17,4.74-.2,9.48-.17,14.22s.2,9.48.53,14.21.71,9.46,1.46,14.14c.17,1.17.35,2.34.61,3.5s.42,2.33.74,3.47.57,2.3.9,3.44l1.15,3.36a62.62,62.62,0,0,1-3.59-13.74c-.78-4.69-1.24-9.42-1.55-14.15s-.43-9.48-.44-14.23S196,391.33,196.28,386.6Z"/><path class="cls-4" d="M227.78,393.8a67.37,67.37,0,0,0-4.41,5.28c-1.41,1.81-2.73,3.69-4,5.59a88.05,88.05,0,0,0-6.64,12,69.15,69.15,0,0,0-4.56,12.95L207.4,433c-.18,1.13-.32,2.27-.49,3.4l-.25,1.71-.1,1.71-.19,3.44a59.31,59.31,0,0,1,1.6-13.66,69.93,69.93,0,0,1,4.49-13,87.92,87.92,0,0,1,6.75-12A78.21,78.21,0,0,1,227.78,393.8Z"/><path class="cls-4" d="M245.34,413.35c-1.62.74-3.19,1.58-4.74,2.46s-3.07,1.8-4.55,2.78a61.3,61.3,0,0,0-8.34,6.63,41.26,41.26,0,0,0-6.79,8.17,34.66,34.66,0,0,0-2.38,4.76,28.49,28.49,0,0,0-1.46,5.12,28,28,0,0,1,1.33-5.17,33.42,33.42,0,0,1,2.35-4.81,41.37,41.37,0,0,1,6.76-8.28,64.71,64.71,0,0,1,17.82-11.66Z"/><circle class="cls-5" cx="357.33" cy="85.78" r="85.78" transform="translate(44 277.8) rotate(-45)"/><line class="cls-6" x1="352.56" y1="46.11" x2="352.56" y2="443.25"/><path class="cls-5" d="M22.37,69.74H79.59s-1.35-6.51-10.75-6.51c3.63-9.3-16.49-15.35-21.55-6C40.38,41.37,9.36,51.31,22.37,69.74Z"/><path class="cls-5" d="M58.6,112.67h54.64s3.57-16-19.46-9.37c-2.71-17-23.38-18.66-27.32-7.68C53.78,82.94,45.9,108.86,58.6,112.67Z"/><line class="cls-7" x1="299.84" y1="77.44" x2="352.17" y2="114.42"/><line class="cls-7" x1="352.17" y1="92.11" x2="411.3" y2="54.11"/><line class="cls-7" x1="352.17" y1="59.53" x2="318.48" y2="40.77"/><line class="cls-7" x1="389.69" y1="67.99" x2="411.3" y2="85.78"/><line class="cls-7" x1="315.42" y1="88.67" x2="297.1" y2="95.93"/><line class="cls-7" x1="330.03" y1="47.2" x2="333.42" y2="32.11"/></g><g id="OBJECTS"><path class="cls-8" d="M394.33,217.44l12.8,15.86s-4.35,5.17-10.37,11.18c-4.2-4.71-8.68-9.11-13.18-13.47Z"/><path class="cls-9" d="M358.1,214.06l12.95,32.24L383.58,231c4.5,4.36,9,8.76,13.18,13.47-9,8.93-21.61,19.71-29.15,18.12C355,260,347.77,214.91,347.77,214.91Z"/><path class="cls-9" d="M347.76,218.81c-2.2-2-6.78-7.54-6.24-8.21s3.9,1.69,3.9,1.69-3.24-3.42-2.49-4.38,4.53,2.09,4.53,2.09-3.33-3.78-2.37-4.44,4.68,2.88,4.68,2.88-2.82-3.41-2.08-3.95,7.33,3.18,11.82,7"/><path class="cls-9" d="M354.11,223.68s-10.25-6.2-8.61-9.7,5-12.2,13.88-1.2C364.08,218.62,354.11,223.68,354.11,223.68Z"/><path class="cls-4" d="M352.09,210.65a12.3,12.3,0,0,1-1.83-1.55,8.22,8.22,0,0,1-1.45-1.92c.26.31.54.59.82.87l.83.85C351,209.48,351.58,210,352.09,210.65Z"/><path class="cls-4" d="M349.62,212.15a11.76,11.76,0,0,1-2-1.75,11.16,11.16,0,0,1-1.55-2.13Z"/><path class="cls-4" d="M347,213.82a13.72,13.72,0,0,1-1.84-1.65,8.42,8.42,0,0,1-1.46-2c.26.32.55.61.82.91l.85.89C345.89,212.58,346.47,213.17,347,213.82Z"/><path class="cls-9" d="M360.64,216.09s1.2-9.07,0-10.27S357.1,212,357.1,212"/><path class="cls-4" d="M357.84,210.17a7.29,7.29,0,0,0-1.89.71,5.35,5.35,0,0,0-1.56,1.23,4.87,4.87,0,0,0-1,1.7,8.2,8.2,0,0,0-.41,2c0-.34,0-.68,0-1a6,6,0,0,1,.2-1,4.6,4.6,0,0,1,1-1.83A5.43,5.43,0,0,1,357.84,210.17Z"/><path class="cls-4" d="M386.2,227.7c1.17.83,2.27,1.74,3.37,2.64s2.16,1.84,3.18,2.85c-1.17-.83-2.26-1.73-3.37-2.64S387.22,228.71,386.2,227.7Z"/><path class="cls-3" d="M62.85,190.33c.47,4.5-1.78,8.42-5,8.76s-6.26-3-6.73-7.52,1.77-8.42,5-8.76S62.38,185.84,62.85,190.33Z"/><path class="cls-9" d="M6.28,194.28c-2.2-2-6.78-7.54-6.24-8.22s3.9,1.7,3.9,1.7-3.24-3.42-2.49-4.38S6,185.47,6,185.47,2.65,181.69,3.61,181s4.68,2.89,4.68,2.89S5.47,180.5,6.21,180s7.33,3.18,11.82,7"/><path class="cls-9" d="M12.63,199.15S2.38,193,4,189.44s5-12.19,13.89-1.19C22.6,194.09,12.63,199.15,12.63,199.15Z"/><path class="cls-4" d="M37.5,213.7C47,207.07,64.32,202.8,65,217.55L39.25,236.8c-3.87-5.26-8.16-10.11-11.86-15.34C27.39,221.46,34.89,215.53,37.5,213.7Z"/><path class="cls-9" d="M21.38,226.07l6-4.61c3.7,5.23,8,10.08,11.86,15.34l-5.57,4c-5.05,3.62-27.82,17-27-5l-.66-46,12.48-.2Z"/><path class="cls-4" d="M10.61,186.12a12.93,12.93,0,0,1-1.83-1.55,8.22,8.22,0,0,1-1.45-1.92c.26.3.54.58.82.87l.83.85C9.53,185,10.1,185.5,10.61,186.12Z"/><path class="cls-4" d="M8.14,187.62a11.76,11.76,0,0,1-2-1.75,11.35,11.35,0,0,1-1.55-2.14Z"/><path class="cls-4" d="M5.5,189.29a14.52,14.52,0,0,1-1.84-1.66,8.13,8.13,0,0,1-1.45-2c.25.32.54.61.82.91l.84.89C4.42,188.05,5,188.64,5.5,189.29Z"/><path class="cls-2" d="M41.57,235.14c-2.09-2.5-4.1-5.06-6.11-7.61s-4-5.15-5.89-7.78c2.1,2.49,4.1,5.05,6.11,7.6S39.66,232.5,41.57,235.14Z"/><path class="cls-8" d="M36.39,431.82l-1.08,8.66H67.69s-2.25-3.72-11.17-5.37l-.35-3Z"/><rect class="cls-10" x="35.13" y="440.48" width="32.55" height="2.77"/><path class="cls-4" d="M35.79,436.39a4.56,4.56,0,0,1,2.65,1.09,3.3,3.3,0,0,1,.84,1.22,3.09,3.09,0,0,1,.18,1.44,4.35,4.35,0,0,0-.38-1.36,3.51,3.51,0,0,0-.83-1.09,5.17,5.17,0,0,0-1.15-.78A8.31,8.31,0,0,0,35.79,436.39Z"/><path class="cls-4" d="M53.49,431.48c.08,1.84.13,3.69.13,5.54l-.13-.13a27.15,27.15,0,0,1,4.23.26,15.52,15.52,0,0,1,4.08,1.11,19.29,19.29,0,0,0-4.11-.87,36.83,36.83,0,0,0-4.2-.24.13.13,0,0,1-.13-.13C53.36,435.17,53.41,433.32,53.49,431.48Z"/><path class="cls-4" d="M62.76,436.74c-.17.27-.32.55-.48.82s-.29.54-.42.83a13.49,13.49,0,0,0-.67,1.75,3.87,3.87,0,0,1,.1-1,4.92,4.92,0,0,1,.32-.91A4.54,4.54,0,0,1,62.76,436.74Z"/><path class="cls-8" d="M88.86,431.59l-1.08,8.66h32.38s-2.25-3.73-11.17-5.37l-.35-3Z"/><rect class="cls-10" x="87.61" y="440.25" width="32.55" height="2.77"/><path class="cls-4" d="M88.26,436.15a4.57,4.57,0,0,1,2.65,1.1,3.18,3.18,0,0,1,.84,1.21,3.1,3.1,0,0,1,.18,1.44,4.37,4.37,0,0,0-.38-1.35,3.29,3.29,0,0,0-.83-1.09,4.85,4.85,0,0,0-1.15-.78A7.18,7.18,0,0,0,88.26,436.15Z"/><path class="cls-4" d="M106,431.24c.08,1.85.13,3.7.13,5.54l-.13-.13a28.44,28.44,0,0,1,4.23.26,15.16,15.16,0,0,1,4.08,1.12,19.31,19.31,0,0,0-4.11-.88,39.27,39.27,0,0,0-4.2-.24.12.12,0,0,1-.13-.13C105.83,434.94,105.88,433.09,106,431.24Z"/><path class="cls-4" d="M115.23,436.51c-.17.27-.32.54-.47.82a8.06,8.06,0,0,0-.42.83,11.38,11.38,0,0,0-.67,1.74,3.37,3.37,0,0,1,.09-.95,4.67,4.67,0,0,1,.32-.91A4.48,4.48,0,0,1,115.23,436.51Z"/><polygon class="cls-2" points="50.32 277.71 31.5 434.25 61.28 434.25 74.68 313.03 85.87 433.13 112.54 432.63 93.38 277.71 50.32 277.71"/><path class="cls-4" d="M32.19,422.47c4.85-.12,9.7-.09,14.55-.14s9.7,0,14.54.14c-4.84.13-9.69.09-14.54.14S37,422.59,32.19,422.47Z"/><path class="cls-4" d="M86.22,421.89c4.39-.12,8.77-.09,13.16-.14s8.77,0,13.16.14c-4.39.12-8.77.09-13.16.14S90.61,422,86.22,421.89Z"/><polygon class="cls-4" points="55.33 283.9 46.76 353.2 37.91 422.47 46.48 353.17 55.33 283.9"/><path class="cls-4" d="M55.33,297.8a16,16,0,0,0,5.34-.35A10.14,10.14,0,0,0,65.31,295a10.5,10.5,0,0,0,2.74-4.51,6.46,6.46,0,0,0,.34-1.29l.27-1.32.24-2.69c0,.9-.05,1.81-.1,2.71l-.24,1.33a6.74,6.74,0,0,1-.3,1.33l-.45,1.28a10.67,10.67,0,0,1-.63,1.21c-.11.2-.21.41-.33.6l-.43.53a5.54,5.54,0,0,1-.91,1,10.12,10.12,0,0,1-4.79,2.5A14.18,14.18,0,0,1,55.33,297.8Z"/><path class="cls-4" d="M76.87,286c.11,6.12.09,12.24.13,18.36l-.13-.14h3.46l-.13.14c0-6.12,0-12.24.13-18.36.11,6.12.09,12.24.14,18.36a.13.13,0,0,1-.14.13H76.87a.13.13,0,0,1-.13-.13h0C76.78,298.26,76.76,292.14,76.87,286Z"/><path class="cls-4" d="M87.63,286.89a23.4,23.4,0,0,0,.81,3.62,14.54,14.54,0,0,0,1.47,3.38,8.76,8.76,0,0,0,2.45,2.69,7.51,7.51,0,0,0,3.49,1.1,6.93,6.93,0,0,1-3.6-.92A8.49,8.49,0,0,1,89.67,294a13.69,13.69,0,0,1-1.44-3.47A17,17,0,0,1,87.63,286.89Z"/><path class="cls-4" d="M74.68,313c1.65-.68,3.34-1.27,5-1.86s3.39-1.13,5.12-1.6c-1.65.69-3.34,1.27-5,1.87S76.41,312.57,74.68,313Z"/><polygon class="cls-9" points="73.84 211.52 70.03 222.92 59.41 213.36 56.08 187.25 70.5 185.41 73.84 211.52"/><polygon class="cls-4" points="69.77 201.56 72.52 201.21 72.8 203.42 69.77 201.56"/><path class="cls-9" d="M77.81,191.46a8.49,8.49,0,0,1-6.42,10.23l-4.84,1.14a8.49,8.49,0,0,1-10.31-6.28l-3.86-16.36a8.62,8.62,0,0,1,6.38-10.39l4.84-1.14A8.62,8.62,0,0,1,74,175.1Z"/><ellipse class="cls-9" cx="53.44" cy="193.31" rx="3.8" ry="3.68" transform="translate(-42.96 17.44) rotate(-13.28)"/><path class="cls-4" d="M65.1,185.53c.15.66,0,1.25-.37,1.34s-.76-.38-.92-1,0-1.26.37-1.34S64.94,184.88,65.1,185.53Z"/><path class="cls-4" d="M75.5,183.08c.16.65,0,1.25-.36,1.33s-.77-.38-.92-1,0-1.25.36-1.34S75.35,182.42,75.5,183.08Z"/><path class="cls-4" d="M70.94,183.28c.2.81.41,1.6.65,2.39a11.2,11.2,0,0,0,.41,1.15,1.84,1.84,0,0,0,.65.9.27.27,0,0,0,.2,0,1,1,0,0,1,.35-.05.89.89,0,0,1,.64.29,1.71,1.71,0,0,1,.42,1.23,2.18,2.18,0,0,1-.39,1.21,2.07,2.07,0,0,1-1,.73,2.05,2.05,0,0,0,1.18-1.94,1.6,1.6,0,0,0-.39-1.05.61.61,0,0,0-.46-.2.57.57,0,0,0-.26,0,.55.55,0,0,1-.4,0,1.91,1.91,0,0,1-.78-1.06,8.7,8.7,0,0,1-.39-1.19A18.76,18.76,0,0,1,70.94,183.28Z"/><path class="cls-4" d="M62.26,184.75a1.65,1.65,0,0,1,.92-1,1.52,1.52,0,0,1,.7-.12,1.64,1.64,0,0,1,.66.2,2.68,2.68,0,0,0-1.25.18,2.1,2.1,0,0,0-.54.31A3.77,3.77,0,0,0,62.26,184.75Z"/><path class="cls-4" d="M73.05,182.2a1.58,1.58,0,0,1,1.61-1.11,1.5,1.5,0,0,1,.66.2,2.66,2.66,0,0,0-1.24.17,2.23,2.23,0,0,0-.54.31A4,4,0,0,0,73.05,182.2Z"/><path class="cls-4" d="M53.66,195.66a1.29,1.29,0,0,1-.73-.65,1.74,1.74,0,0,1-.11-1,1.93,1.93,0,0,1,1.34-1.46l-.09.2a2.52,2.52,0,0,0-.51-.77,2,2,0,0,0-.79-.46,2,2,0,0,0-1.8.32,1.89,1.89,0,0,1,1.86-.53,2.3,2.3,0,0,1,1.5,1.32.15.15,0,0,1-.07.19h0A1.74,1.74,0,0,0,53,194.05,1.39,1.39,0,0,0,53.66,195.66Z"/><path class="cls-4" d="M57,209c.59-.17,1.19-.34,1.82-.5a10,10,0,0,1,3.41,1.87,7.33,7.33,0,0,0,11.12-2.75l.16-.29c6.94-6.94,12.9-6.21,12.9-6.21l13.51,85-52.15,1.81-2.6-62.3A16.66,16.66,0,0,1,57,209Z"/><path class="cls-4" d="M88.38,221.53c.65,3,1.19,6,1.74,9s1,6,1.45,9c-.65-3-1.18-6-1.73-9S88.8,224.55,88.38,221.53Z"/><path class="cls-11" d="M66.47,191.34c.16.68-.56,1.43-1.6,1.68s-2-.11-2.18-.79.56-1.43,1.6-1.67S66.31,190.66,66.47,191.34Z"/><g class="cls-12"><path class="cls-11" d="M78.76,188.44c.16.68-.55,1.43-1.59,1.68s-2-.11-2.18-.79.55-1.43,1.59-1.67S78.6,187.76,78.76,188.44Z"/></g><path class="cls-4" d="M45.19,223.62c.2,2.34.28,4.69.37,7s.13,4.71.09,7.06c-.19-2.35-.28-4.7-.37-7.05S45.15,226,45.19,223.62Z"/><path class="cls-4" d="M21.38,226.07c.32,1.5.54,3,.76,4.52s.39,3,.47,4.55c-.32-1.5-.53-3-.75-4.52S21.47,227.6,21.38,226.07Z"/><path class="cls-9" d="M19.16,191.55s1.2-9.06,0-10.26-3.54,6.17-3.54,6.17"/><path class="cls-4" d="M16.36,185.64a7,7,0,0,0-1.89.71,5.35,5.35,0,0,0-1.56,1.23,4.7,4.7,0,0,0-1,1.7,7.76,7.76,0,0,0-.42,2c0-.34,0-.69,0-1a5.93,5.93,0,0,1,.2-1,4.63,4.63,0,0,1,1-1.82A5.39,5.39,0,0,1,16.36,185.64Z"/><path class="cls-3" d="M54.53,189.3s5.6-8.2,3.1-14c3.87,2.17,16.89.43,18.55-5.28,1.32-3-1.58-6-3.6-3.52s-6.32-3.59-9.55-.25-9.24-1.53-9.93,4.18c-6.66,1.21-6.46,7.07-3.42,9.17C47.28,182.52,48.26,188.77,54.53,189.3Z"/><polygon class="cls-3" points="56.56 185.55 57.7 191.75 55.34 192.76 52.91 185.93 56.56 185.55"/><path class="cls-4" d="M67.58,193.75a6.67,6.67,0,0,0,1.56.47,5.88,5.88,0,0,0,1.62.07,7.56,7.56,0,0,0,3.08-1,6,6,0,0,1-1.43.87,5.32,5.32,0,0,1-1.63.39A5,5,0,0,1,67.58,193.75Z"/><path class="cls-4" d="M56.08,171.86A31.92,31.92,0,0,0,59.64,173a26.88,26.88,0,0,0,3.67.66,21,21,0,0,0,3.72.12,19.35,19.35,0,0,0,3.68-.6A15.25,15.25,0,0,1,67,174a18.9,18.9,0,0,1-3.76-.06A22.54,22.54,0,0,1,56.08,171.86Z"/><path class="cls-4" d="M60.16,170.86a16.56,16.56,0,0,0,1.47-.94,5.7,5.7,0,0,1,1.62-.69,2.9,2.9,0,0,1,1.77.12,5.91,5.91,0,0,1,1.45,1,2.43,2.43,0,0,0,1.55.44,5.27,5.27,0,0,0,1.63-.44,12,12,0,0,0,2.86-1.92,10.47,10.47,0,0,1-2.77,2.12,5,5,0,0,1-1.7.5,2.68,2.68,0,0,1-1.73-.47,5.9,5.9,0,0,0-1.38-1,2.78,2.78,0,0,0-1.64-.14A13.27,13.27,0,0,0,60.16,170.86Z"/><path class="cls-2" d="M55.61,207.63c2,1.19,4,2.41,5.87,3.8A9.51,9.51,0,0,0,67.72,214a6.75,6.75,0,0,0,3.3-.78A8.22,8.22,0,0,0,73.6,211a19.07,19.07,0,0,0,2.91-6.28,17.43,17.43,0,0,1-2.76,6.39,8.42,8.42,0,0,1-2.62,2.35,7,7,0,0,1-3.41.85,9,9,0,0,1-3.44-.75,11.08,11.08,0,0,1-1.56-.83,4.59,4.59,0,0,1-.71-.54,7,7,0,0,0-.66-.56C59.51,210.19,57.54,208.93,55.61,207.63Z"/><path class="cls-2" d="M45.19,232.35c.64-.92,1.24-1.88,1.83-2.83s1.14-1.93,1.64-2.93A23.08,23.08,0,0,0,51,220.3a14.5,14.5,0,0,1-.72,3.31,27.49,27.49,0,0,1-1.34,3.11A31.91,31.91,0,0,1,45.19,232.35Z"/><path class="cls-2" d="M51,235.14c2.06,3.76,4.25,7.44,6.51,11.09s4.65,7.19,7.19,10.64a89,89,0,0,0,8.18,9.88A40.29,40.29,0,0,0,77.64,271a18.38,18.38,0,0,0,5.63,3,18.36,18.36,0,0,1-5.71-2.91,40.7,40.7,0,0,1-4.84-4.24A88.45,88.45,0,0,1,64.44,257c-2.52-3.47-4.88-7.06-7.12-10.71S52.94,239,51,235.14Z"/><path class="cls-2" d="M52.14,248.15a37.66,37.66,0,0,0,1.24,4.26c.46,1.41.95,2.81,1.47,4.19a82.73,82.73,0,0,0,3.52,8.15,46,46,0,0,0,4.55,7.6,20,20,0,0,0,3,3.23,10,10,0,0,0,3.84,2.13,9.91,9.91,0,0,1-3.93-2,19.51,19.51,0,0,1-3.07-3.22,46,46,0,0,1-4.66-7.58,87.88,87.88,0,0,1-3.44-8.21A59.07,59.07,0,0,1,52.14,248.15Z"/><path class="cls-4" d="M91.47,189.62,78,204.17l7.83,24.17,16.57-21.5C100.83,200.15,97.77,191.79,91.47,189.62Z"/><path class="cls-9" d="M106.14,129.37c-1.64.18-4.54,2.64-5.43,6.38-3.19,13.42-.57,43.36-.57,43.36l-8.67,10.51c6.3,2.17,9.36,10.53,11,17.22l2.87-3.27c6-6.77,10.5-15.44,10.4-24.46-.15-13.16,1.54-33.38-1.09-43.66C113.45,130.85,108.21,129.14,106.14,129.37Z"/><path class="cls-2" d="M89.68,191.55a38.31,38.31,0,0,1,7,7.8A31.45,31.45,0,0,1,99.26,204a22.58,22.58,0,0,1,1.53,5,26.69,26.69,0,0,0-1.73-4.93,34.52,34.52,0,0,0-2.59-4.54,44,44,0,0,0-3.18-4.16A47.88,47.88,0,0,0,89.68,191.55Z"/><rect class="cls-2" x="262.08" y="133.96" width="122.28" height="235.83" rx="14.11"/><rect class="cls-3" x="257.6" y="133.96" width="122.28" height="235.83" rx="14.11"/><circle class="cls-13" cx="318.74" cy="354.28" r="11.29" transform="translate(-99.03 583.57) rotate(-76.78)"/><rect class="cls-5" x="223.41" y="189.21" width="190.66" height="110.86" rx="8.4" transform="translate(563.38 -74.1) rotate(90)"/><circle class="cls-2" cx="336.94" cy="143.53" r="3.53"/><circle class="cls-2" cx="355.56" cy="143.53" r="3"/><path class="cls-2" d="M366.74,143.53a2.1,2.1,0,1,1-2.1-2.09A2.09,2.09,0,0,1,366.74,143.53Z"/><rect class="cls-3" x="381.1" y="155.89" width="3.26" height="52.51" rx="0.79"/><rect class="cls-3" x="381.1" y="213.64" width="3.26" height="14.44" rx="0.79"/><rect class="cls-3" x="81.62" y="133.96" width="122.28" height="235.83" rx="14.11" transform="translate(285.53 503.75) rotate(180)"/><rect class="cls-2" x="86.1" y="133.96" width="122.28" height="235.83" rx="14.11" transform="translate(294.49 503.75) rotate(180)"/><rect class="cls-5" x="35.04" y="196.44" width="224.41" height="110.86" rx="8.4" transform="translate(399.12 104.63) rotate(90)"/><path class="cls-2" d="M134.22,136.24h26.06a9.28,9.28,0,0,1,9.28,9.28v6.36a0,0,0,0,1,0,0H124.94a0,0,0,0,1,0,0v-6.35A9.28,9.28,0,0,1,134.22,136.24Z" transform="translate(294.49 288.11) rotate(180)"/><path class="cls-14" d="M156.85,143.53A3.49,3.49,0,0,0,157.9,146a3.45,3.45,0,0,0,5.86-2.48,3.45,3.45,0,0,0-5.86-2.48A3.51,3.51,0,0,0,156.85,143.53Zm0,0A3.6,3.6,0,0,1,163,141a3.6,3.6,0,0,1-2.58,6.18A3.62,3.62,0,0,1,156.85,143.53Z"/><path class="cls-14" d="M138.76,143.53a3,3,0,0,0,.89,2.11,2.93,2.93,0,1,0,2.11-5,2.92,2.92,0,0,0-3,2.93Zm0,0a3.08,3.08,0,0,1,5.21-2.21,3.11,3.11,0,0,1,.93,2.21,3.15,3.15,0,0,1-.93,2.21,3.08,3.08,0,0,1-5.21-2.21Z"/><path class="cls-14" d="M130.58,143.53a2.08,2.08,0,0,0,.63,1.46,2,2,0,1,0,0-2.92A2.08,2.08,0,0,0,130.58,143.53Zm0,0a2.18,2.18,0,0,1,2.09-2.16,2.15,2.15,0,0,1,1.57.6,2.27,2.27,0,0,1,.67,1.56,2.3,2.3,0,0,1-.67,1.57,2.17,2.17,0,0,1-3.66-1.57Z"/><rect class="cls-2" x="81.62" y="155.89" width="3.26" height="52.51" rx="0.79" transform="translate(166.5 364.29) rotate(180)"/><rect class="cls-2" x="81.62" y="213.64" width="3.26" height="14.44" rx="0.79" transform="translate(166.5 441.72) rotate(180)"/><path class="cls-9" d="M100.23,133.76c.61-3.87,7.18-5.41,12.06-4.41s3.66,10,2.5,11.18-2.25-5.75-2.25-5.75.37,6.66-1.38,6.66-2.25-7-2.25-7-.62,7-2.25,7S105,134,105,134s0,8.06-1.88,7.48-.72-7.48-.72-7.48Z"/><path class="cls-3" d="M141.42,237.28v-4.42a6.12,6.12,0,0,0-6.13-6.13H122.63a6.13,6.13,0,0,0-6.14,6.13v55.36H174.4l0-50.94Z"/><path class="cls-3" d="M324.56,237.28v-4.42a6.13,6.13,0,0,1,6.14-6.13h12.66a6.12,6.12,0,0,1,6.13,6.13v55.36H291.58l0-50.94Z"/><path class="cls-15" d="M316.05,262.29l-35.8-20.67,30-52,29.45,17c1.05,3.91,1.63,6.1,2.68,10Z"/><polygon class="cls-8" points="339.7 206.66 336.03 213.01 342.38 216.68 339.7 206.66"/><rect class="cls-8" x="302.9" y="215.9" width="31.17" height="1.67" transform="translate(151.03 -130.2) rotate(30)"/><rect class="cls-8" x="301.32" y="218.64" width="31.17" height="1.67" transform="translate(152.19 -129.05) rotate(30)"/><rect class="cls-8" x="299.73" y="221.39" width="31.17" height="1.67" transform="translate(153.35 -127.89) rotate(30)"/><rect class="cls-8" x="298.15" y="224.13" width="31.17" height="1.67" transform="translate(154.51 -126.73) rotate(30)"/><rect class="cls-8" x="296.57" y="226.87" width="31.17" height="1.67" transform="translate(155.67 -125.57) rotate(30)"/><rect class="cls-8" x="294.98" y="229.61" width="31.17" height="1.67" transform="translate(156.83 -124.41) rotate(30)"/><rect class="cls-8" x="293.4" y="232.36" width="31.17" height="1.67" transform="translate(157.99 -123.25) rotate(30)"/><rect class="cls-8" x="291.82" y="235.1" width="31.17" height="1.67" transform="translate(159.15 -122.09) rotate(30)"/><rect class="cls-8" x="290.23" y="237.84" width="31.17" height="1.67" transform="translate(160.31 -120.93) rotate(30)"/><rect class="cls-8" x="288.65" y="240.58" width="31.17" height="1.67" transform="translate(161.47 -119.77) rotate(30)"/><rect class="cls-8" x="287.07" y="243.32" width="31.17" height="1.67" transform="translate(162.63 -118.61) rotate(30)"/><path class="cls-2" d="M195,209.55l-38.84,14.14L135.61,167.3l31.95-11.62,9.4,4.38Z"/><polygon class="cls-3" points="167.56 155.68 170.07 162.57 176.96 160.06 167.56 155.68"/><rect class="cls-3" x="146.06" y="177.57" width="31.17" height="1.67" transform="translate(-51.27 66.05) rotate(-20)"/><rect class="cls-3" x="147.15" y="180.55" width="31.17" height="1.67" transform="translate(-52.22 66.6) rotate(-20)"/><rect class="cls-3" x="148.23" y="183.52" width="31.17" height="1.67" transform="translate(-53.17 67.15) rotate(-20)"/><rect class="cls-3" x="149.31" y="186.5" width="31.17" height="1.67" transform="translate(-54.13 67.7) rotate(-20)"/><rect class="cls-3" x="150.4" y="189.47" width="31.17" height="1.67" transform="translate(-55.08 68.25) rotate(-20)"/><rect class="cls-3" x="151.48" y="192.45" width="31.17" height="1.67" transform="translate(-56.03 68.79) rotate(-20)"/><rect class="cls-3" x="152.56" y="195.42" width="31.17" height="1.67" transform="translate(-56.98 69.34) rotate(-20)"/><rect class="cls-3" x="153.65" y="198.4" width="31.17" height="1.67" transform="translate(-57.94 69.89) rotate(-20)"/><rect class="cls-3" x="154.73" y="201.38" width="31.17" height="1.67" transform="translate(-58.89 70.44) rotate(-20)"/><rect class="cls-3" x="155.81" y="204.35" width="31.17" height="1.67" transform="translate(-59.84 70.99) rotate(-20)"/><rect class="cls-3" x="156.89" y="207.33" width="31.17" height="1.67" transform="translate(-60.79 71.54) rotate(-20)"/><path class="cls-14" d="M312.94,224.77,274.1,210.63l20.52-56.38,31.95,11.63,4.38,9.4Z"/><polygon class="cls-8" points="326.57 165.88 324.06 172.77 330.95 175.28 326.57 165.88"/><rect class="cls-3" x="291.84" y="178.65" width="31.17" height="1.67" transform="translate(79.93 -94.32) rotate(20)"/><rect class="cls-3" x="290.76" y="181.63" width="31.17" height="1.67" transform="translate(80.88 -93.77) rotate(20)"/><rect class="cls-3" x="289.67" y="184.6" width="31.17" height="1.67" transform="translate(81.83 -93.22) rotate(20)"/><rect class="cls-3" x="288.59" y="187.58" width="31.17" height="1.67" transform="translate(82.79 -92.67) rotate(20)"/><rect class="cls-3" x="287.51" y="190.55" width="31.17" height="1.67" transform="translate(83.74 -92.12) rotate(20)"/><rect class="cls-3" x="286.43" y="193.53" width="31.17" height="1.67" transform="translate(84.69 -91.57) rotate(20)"/><rect class="cls-3" x="285.34" y="196.51" width="31.17" height="1.67" transform="translate(85.64 -91.02) rotate(20)"/><rect class="cls-3" x="284.26" y="199.48" width="31.17" height="1.67" transform="translate(86.59 -90.47) rotate(20)"/><rect class="cls-3" x="283.18" y="202.46" width="31.17" height="1.67" transform="translate(87.55 -89.92) rotate(20)"/><rect class="cls-3" x="282.09" y="205.43" width="31.17" height="1.67" transform="translate(88.5 -89.37) rotate(20)"/><rect class="cls-3" x="281.01" y="208.41" width="31.17" height="1.67" transform="translate(89.45 -88.82) rotate(20)"/><path class="cls-5" d="M254.58,169.26H213.24v-60h34l7.34,7.33Z"/><polygon class="cls-8" points="247.24 109.26 247.24 116.59 254.57 116.59 247.24 109.26"/><rect class="cls-2" x="218.33" y="127.76" width="31.17" height="1.67"/><rect class="cls-2" x="218.33" y="130.93" width="31.17" height="1.67"/><rect class="cls-2" x="218.33" y="134.09" width="31.17" height="1.67"/><rect class="cls-2" x="218.33" y="137.26" width="31.17" height="1.67"/><rect class="cls-2" x="218.33" y="140.43" width="31.17" height="1.67"/><rect class="cls-2" x="218.33" y="143.59" width="31.17" height="1.67"/><rect class="cls-2" x="218.33" y="146.76" width="31.17" height="1.67"/><rect class="cls-2" x="218.33" y="149.93" width="31.17" height="1.67"/><rect class="cls-2" x="218.33" y="153.09" width="31.17" height="1.67"/><rect class="cls-2" x="218.33" y="156.26" width="31.17" height="1.67"/><rect class="cls-2" x="218.33" y="159.43" width="31.17" height="1.67"/><path class="cls-15" d="M219.5,178.36l-40.71,7.18-10.42-59.09,33.48-5.9,8.5,6Z"/><polygon class="cls-8" points="201.85 120.55 203.13 127.77 210.35 126.5 201.85 120.55"/><rect class="cls-8" x="176.5" y="141.07" width="31.17" height="1.67" transform="translate(-21.72 35.51) rotate(-10)"/><rect class="cls-8" x="177.05" y="144.19" width="31.17" height="1.67" transform="translate(-22.26 35.65) rotate(-10)"/><rect class="cls-8" x="177.6" y="147.31" width="31.17" height="1.67" transform="translate(-22.79 35.8) rotate(-10)"/><rect class="cls-8" x="178.15" y="150.43" width="31.17" height="1.67" transform="translate(-23.32 35.94) rotate(-10)"/><rect class="cls-8" x="178.7" y="153.55" width="31.17" height="1.67" transform="translate(-23.86 36.08) rotate(-10)"/><rect class="cls-8" x="179.25" y="156.66" width="31.17" height="1.67" transform="translate(-24.39 36.23) rotate(-10)"/><rect class="cls-8" x="179.8" y="159.78" width="31.17" height="1.67" transform="translate(-24.92 36.37) rotate(-10)"/><rect class="cls-8" x="180.35" y="162.9" width="31.17" height="1.67" transform="translate(-25.46 36.51) rotate(-10)"/><rect class="cls-8" x="180.9" y="166.02" width="31.17" height="1.67" transform="translate(-25.99 36.65) rotate(-10)"/><rect class="cls-8" x="181.45" y="169.14" width="31.17" height="1.67" transform="matrix(0.98, -0.17, 0.17, 0.98, -26.52, 36.8)"/><rect class="cls-8" x="182" y="172.26" width="31.17" height="1.67" transform="translate(-27.06 36.94) rotate(-10)"/><path class="cls-15" d="M289.66,186.18,249,179l10.42-59.09,33.48,5.91,5.95,8.49Z"/><polygon class="cls-8" points="292.86 125.82 291.59 133.04 298.81 134.31 292.86 125.82"/><rect class="cls-8" x="260.79" y="141.71" width="31.17" height="1.67" transform="translate(28.95 -45.83) rotate(10)"/><rect class="cls-8" x="260.24" y="144.83" width="31.17" height="1.67" transform="translate(29.48 -45.68) rotate(10)"/><rect class="cls-8" x="259.69" y="147.95" width="31.17" height="1.67" transform="translate(30.02 -45.54) rotate(10)"/><rect class="cls-8" x="259.14" y="151.06" width="31.17" height="1.67" transform="translate(30.55 -45.4) rotate(10)"/><rect class="cls-8" x="258.59" y="154.18" width="31.17" height="1.67" transform="translate(31.08 -45.25) rotate(10)"/><rect class="cls-8" x="258.04" y="157.3" width="31.17" height="1.67" transform="translate(31.62 -45.11) rotate(10)"/><rect class="cls-8" x="257.49" y="160.42" width="31.17" height="1.67" transform="matrix(0.98, 0.17, -0.17, 0.98, 32.15, -44.97)"/><rect class="cls-8" x="256.94" y="163.54" width="31.17" height="1.67" transform="translate(32.68 -44.83) rotate(10)"/><rect class="cls-8" x="256.39" y="166.66" width="31.17" height="1.67" transform="translate(33.22 -44.68) rotate(10)"/><rect class="cls-8" x="255.84" y="169.77" width="31.17" height="1.67" transform="translate(33.75 -44.54) rotate(10)"/><rect class="cls-8" x="255.29" y="172.89" width="31.17" height="1.67" transform="translate(34.28 -44.4) rotate(10)"/><path class="cls-15" d="M189.4,240.17l-35.8,20.66-30-52,29.45-17,10,2.69Z"/><polygon class="cls-8" points="153.05 191.87 156.72 198.22 163.06 194.56 153.05 191.87"/><rect class="cls-3" x="135.58" y="214.45" width="31.17" height="1.67" transform="translate(-87.39 104.43) rotate(-30)"/><rect class="cls-3" x="137.17" y="217.19" width="31.17" height="1.67" transform="translate(-88.55 105.59) rotate(-30)"/><rect class="cls-3" x="138.75" y="219.93" width="31.17" height="1.67" transform="translate(-89.71 106.74) rotate(-30)"/><rect class="cls-3" x="140.33" y="222.68" width="31.17" height="1.67" transform="translate(-90.87 107.9) rotate(-30)"/><rect class="cls-3" x="141.92" y="225.42" width="31.17" height="1.67" transform="translate(-92.02 109.06) rotate(-30)"/><rect class="cls-3" x="143.5" y="228.16" width="31.17" height="1.67" transform="translate(-93.18 110.22) rotate(-30)"/><rect class="cls-3" x="145.08" y="230.9" width="31.17" height="1.67" transform="translate(-94.34 111.38) rotate(-30)"/><rect class="cls-3" x="146.67" y="233.64" width="31.17" height="1.67" transform="translate(-95.5 112.54) rotate(-30)"/><rect class="cls-3" x="148.25" y="236.39" width="31.17" height="1.67" transform="matrix(0.87, -0.5, 0.5, 0.87, -96.66, 113.7)"/><rect class="cls-3" x="149.83" y="239.13" width="31.17" height="1.67" transform="translate(-97.82 114.86) rotate(-30)"/><rect class="cls-3" x="151.42" y="241.87" width="31.17" height="1.67" transform="translate(-98.98 116.02) rotate(-30)"/><polygon class="cls-2" points="187.42 242.75 129.55 242.75 116.49 288.22 174.4 288.22 187.42 242.75"/><polygon class="cls-2" points="278.56 242.75 336.43 242.75 349.49 288.22 291.58 288.22 278.56 242.75"/><path class="cls-3" d="M404,431.82l.55,8.66H374.25s2.48-3.72,11.5-5.37l.53-3Z"/><polygon class="cls-8" points="374.08 443.25 404.56 443.25 404.73 440.48 374.25 440.48 374.08 443.25"/><path class="cls-4" d="M404.33,436.39a7.89,7.89,0,0,0-1.35.53,5.28,5.28,0,0,0-1.19.77,3.78,3.78,0,0,0-.9,1.09,4.48,4.48,0,0,0-.47,1.36,3.36,3.36,0,0,1,.28-1.46,3.54,3.54,0,0,1,.9-1.2A4.81,4.81,0,0,1,404.33,436.39Z"/><path class="cls-4" d="M389,431.48c0,1.85-.1,3.7-.21,5.55a.14.14,0,0,1-.14.12,39.83,39.83,0,0,0-4.23.24,20.29,20.29,0,0,0-4.15.87,15.8,15.8,0,0,1,4.12-1.11,29,29,0,0,1,4.27-.26l-.13.12C388.65,435.16,388.81,433.32,389,431.48Z"/><path class="cls-4" d="M379.41,436.74a4.17,4.17,0,0,1,1.06,1.55,4.54,4.54,0,0,1,.26.91,3.69,3.69,0,0,1,0,.94,12.32,12.32,0,0,0-.56-1.75c-.1-.28-.24-.55-.37-.83S379.57,437,379.41,436.74Z"/><path class="cls-3" d="M451.3,431.56l.55,8.66H421.54s2.48-3.72,11.5-5.37l.54-3Z"/><polygon class="cls-8" points="421.37 442.99 451.85 442.99 452.02 440.22 421.54 440.22 421.37 442.99"/><path class="cls-4" d="M451.62,436.12a8.8,8.8,0,0,0-1.35.53,5.69,5.69,0,0,0-1.19.78,3.74,3.74,0,0,0-.9,1.08,4.48,4.48,0,0,0-.47,1.36,3.32,3.32,0,0,1,.28-1.45,3.54,3.54,0,0,1,.9-1.2A4.9,4.9,0,0,1,451.62,436.12Z"/><path class="cls-4" d="M436.3,431.21c0,1.86-.1,3.71-.21,5.55a.15.15,0,0,1-.14.13,35.17,35.17,0,0,0-4.23.24,20.43,20.43,0,0,0-4.15.87,15.8,15.8,0,0,1,4.12-1.11,27.67,27.67,0,0,1,4.27-.27l-.13.13C435.94,434.9,436.1,433.06,436.3,431.21Z"/><path class="cls-4" d="M426.7,436.48a4.09,4.09,0,0,1,1.06,1.54,5,5,0,0,1,.26.91,3.71,3.71,0,0,1,0,.94,12.61,12.61,0,0,0-.56-1.74,7.75,7.75,0,0,0-.37-.83C427,437,426.86,436.75,426.7,436.48Z"/><path class="cls-8" d="M390.94,291.3,398,262.14l-3.68-44.7a35.3,35.3,0,0,1,21.46-10.76c1.29-.14,2.51-.2,3.67-.23a18.27,18.27,0,0,1,19,20.72l-4.54,35,4.47,11.73a109.57,109.57,0,0,1,4.69,15.81C426.33,296.06,406.57,298.42,390.94,291.3Z"/><path class="cls-8" d="M431.34,257.94c.24.24-4.26,11.25-17.51,15.67"/><path class="cls-4" d="M431.34,257.94a9.85,9.85,0,0,1-1.17,2.79,24.73,24.73,0,0,1-1.66,2.55,28.35,28.35,0,0,1-9.1,8,29.79,29.79,0,0,1-5.58,2.37,32.57,32.57,0,0,0,10.38-6.08,29.62,29.62,0,0,0,4.13-4.39,24.8,24.8,0,0,0,1.71-2.48A10.12,10.12,0,0,0,431.34,257.94Z"/><path class="cls-8" d="M429.83,267.52s-3.84,13.75-13.75,13.75"/><path class="cls-4" d="M429.83,267.52a25.5,25.5,0,0,1-1.88,4.85,22,22,0,0,1-2.84,4.37,15,15,0,0,1-4,3.34,10.92,10.92,0,0,1-5,1.19,11.85,11.85,0,0,0,4.92-1.38,15.36,15.36,0,0,0,3.9-3.33,23.39,23.39,0,0,0,2.86-4.29A31.89,31.89,0,0,0,429.83,267.52Z"/><path class="cls-4" d="M428.15,171.56s16.09-9.92,12.21,6.42c-2.46,10.4-.83,21.78,4.44,16.5-3.69,10.63-13.73,7.25-14.56.75-1.1-8.54,5.81-24.66-2.09-19.89"/><ellipse class="cls-3" cx="428.02" cy="173.42" rx="3.33" ry="4.31"/><ellipse class="cls-4" cx="417.91" cy="179.5" rx="16.98" ry="11.99" transform="translate(157.42 552.35) rotate(-78.3)"/><path class="cls-8" d="M400.71,218.46c-1.73,5.81-8.78,13.93-8.48,19.57.2,3.91,3.68,8.58,8.67,7.08"/><path class="cls-4" d="M400.71,218.46a38.55,38.55,0,0,1-3.7,7.75,55.43,55.43,0,0,0-3.85,7.66,10.81,10.81,0,0,0-.82,4.15,8.66,8.66,0,0,0,1.28,4,7.22,7.22,0,0,0,3.1,2.82,6,6,0,0,0,4.18.27,6.1,6.1,0,0,1-4.23-.14,7.38,7.38,0,0,1-3.21-2.85,8.9,8.9,0,0,1-1.35-4.09,10.81,10.81,0,0,1,.79-4.25,52.79,52.79,0,0,1,4-7.66c.72-1.24,1.44-2.48,2.11-3.74A24.15,24.15,0,0,0,400.71,218.46Z"/><path class="cls-4" d="M423.59,212.14a2.22,2.22,0,0,1-.87.9,6.37,6.37,0,0,1-1.12.6,14,14,0,0,1-2.44.74,17.59,17.59,0,0,1-5.07.31,8.8,8.8,0,0,1-4.75-1.74,4.59,4.59,0,0,1-1.41-2.11,6,6,0,0,1-.16-2.52,5,5,0,0,0,1.71,4.46,8.7,8.7,0,0,0,4.64,1.63,18.25,18.25,0,0,0,5-.24,14.51,14.51,0,0,0,2.43-.65,7.3,7.3,0,0,0,1.13-.53A2.26,2.26,0,0,0,423.59,212.14Z"/><path class="cls-4" d="M390.94,291.3c15.63,7.12,35.39,4.76,52.16-1.62a112.2,112.2,0,0,1,2.41,18.14l5.92,126.43L433.22,434,415.48,307.38l-14.86,54.33,3.54,72.54L386,433.56l-7.48-55.63a93,93,0,0,1,1.05-31Z"/><g class="cls-16"><path class="cls-8" d="M407.13,423.36a22.6,22.6,0,0,1-7.27,3.31,6,6,0,0,1-2,.06,3.06,3.06,0,0,1-1.8-.91,5.4,5.4,0,0,1-1-3.85c.05-1.36.42-2.66.38-4A16.92,16.92,0,0,0,395,414c-.59-2.6-1.68-5.06-2.38-7.66a7.86,7.86,0,0,1-.18-4,5.13,5.13,0,0,1,2.59-3,3.73,3.73,0,0,0,2-3.12,12,12,0,0,0-.51-3.93c-.33-1.29-.74-2.56-1.06-3.86a9.67,9.67,0,0,1-.34-4,3.7,3.7,0,0,1,2.67-2.79,12.7,12.7,0,0,1,4-.5,12.85,12.85,0,0,0-3.95.57,3.56,3.56,0,0,0-2.55,2.75,9.57,9.57,0,0,0,.36,3.93c.32,1.29.74,2.56,1.09,3.86a12.45,12.45,0,0,1,.54,4,4.45,4.45,0,0,1-.63,1.93,4.31,4.31,0,0,1-1.51,1.37,4.94,4.94,0,0,0-2.46,2.91,7.58,7.58,0,0,0,.21,3.89c.67,2.57,1.75,5.05,2.33,7.67a16.88,16.88,0,0,1,.46,4c0,1.36-.35,2.68-.4,4a5.24,5.24,0,0,0,.92,3.73,3.94,3.94,0,0,0,3.68.82A22.43,22.43,0,0,0,407.13,423.36Z"/><path class="cls-8" d="M379.84,403.91a8.48,8.48,0,0,0,3.47-1,14.74,14.74,0,0,0,3-2,9.57,9.57,0,0,0,2.29-2.78,3.51,3.51,0,0,0,.1-3.41c-.27-.53-.77-.9-1.11-1.44a4.41,4.41,0,0,1-.61-1.75,11.58,11.58,0,0,1,.15-3.67c.41-2.42,1.2-4.74,1.69-7.11a9,9,0,0,0,.22-1.78c0-.57-.14-1.23-.7-1.38a1.35,1.35,0,0,0-.41-.07,3,3,0,0,1-.49-.09,1.6,1.6,0,0,1-.73-.65,5.55,5.55,0,0,1-.62-1.75c-.47-2.41-.58-4.85-1.14-7.21a12.74,12.74,0,0,0-1.25-3.4,6,6,0,0,0-2.53-2.49,7.23,7.23,0,0,0-3.53-.63,16.19,16.19,0,0,0-3.58.69,16.23,16.23,0,0,1,3.57-.76,7.29,7.29,0,0,1,3.6.58,6,6,0,0,1,2.61,2.53,12.81,12.81,0,0,1,1.29,3.43c.58,2.38.71,4.84,1.19,7.21a5.2,5.2,0,0,0,.6,1.67,1.32,1.32,0,0,0,.61.54,2.5,2.5,0,0,0,.41.07,1.67,1.67,0,0,1,.49.08,1.12,1.12,0,0,1,.71.68,2.4,2.4,0,0,1,.17.94,8.65,8.65,0,0,1-.21,1.84c-.52,2.4-1.32,4.71-1.74,7.1a11.79,11.79,0,0,0-.18,3.6,4.27,4.27,0,0,0,.58,1.67c.3.5.81.89,1.11,1.45a3.71,3.71,0,0,1-.12,3.58,9.66,9.66,0,0,1-2.35,2.81,14.7,14.7,0,0,1-3.08,2A8.43,8.43,0,0,1,379.84,403.91Z"/><path class="cls-8" d="M404.09,369.79a12.61,12.61,0,0,1-6.78,1.8,7.26,7.26,0,0,1-3.33-1.21,8,8,0,0,1-2.35-2.66,9.28,9.28,0,0,1-1.05-3.41,6,6,0,0,1,.09-1.79,17.31,17.31,0,0,0,.46-1.7,47.46,47.46,0,0,0,.14-7.06,28.35,28.35,0,0,1,.15-3.56,6.79,6.79,0,0,1,.43-1.75,1.73,1.73,0,0,1,1.35-1.19,2.54,2.54,0,0,0,1.56-.63,12,12,0,0,0,1.29-1.18c.81-.86,1.57-1.76,2.35-2.65s1.57-1.77,2.42-2.6a12.55,12.55,0,0,1,2.83-2.14,4.21,4.21,0,0,1,3.46-.35,6.08,6.08,0,0,1,2.68,2.26,6,6,0,0,0-2.7-2.2,4.12,4.12,0,0,0-3.37.41,20.48,20.48,0,0,0-5.18,4.74c-.77.9-1.53,1.81-2.34,2.67a11.68,11.68,0,0,1-1.31,1.22,4.37,4.37,0,0,1-.77.49,2.63,2.63,0,0,1-.89.19,1.48,1.48,0,0,0-1.15,1.06,6.44,6.44,0,0,0-.4,1.68,29.68,29.68,0,0,0-.13,3.53,45.6,45.6,0,0,1-.19,7.1,17.06,17.06,0,0,1-.47,1.71,5.57,5.57,0,0,0-.1,1.73,9.31,9.31,0,0,0,1,3.33,7.86,7.86,0,0,0,2.29,2.61,7.27,7.27,0,0,0,3.25,1.22A12.72,12.72,0,0,0,404.09,369.79Z"/><path class="cls-8" d="M383.58,319.11a18.37,18.37,0,0,0,5.11,3.26l2.76,1.29a9,9,0,0,1,2.56,1.68,2.23,2.23,0,0,1,.65,1.42,2.94,2.94,0,0,1-.37,1.51,10.12,10.12,0,0,1-1.89,2.42,11.64,11.64,0,0,0-2.72,5.3c-1.05,3.91-1.07,8.05-2.23,12a9.34,9.34,0,0,1-3.28,5.06,10.08,10.08,0,0,1-5.83,1.51,10,10,0,0,0,5.74-1.62,9.12,9.12,0,0,0,3.19-5c1.12-3.9,1.1-8,2.13-12a11.82,11.82,0,0,1,2.84-5.39,10.3,10.3,0,0,0,1.86-2.36,2.69,2.69,0,0,0,.36-1.4,2.07,2.07,0,0,0-.58-1.3,9,9,0,0,0-2.5-1.66l-2.75-1.31A18.57,18.57,0,0,1,383.58,319.11Z"/><path class="cls-8" d="M410.63,329.36a11.81,11.81,0,0,1-5.9-.35,4.45,4.45,0,0,1-2.29-1.87,3.65,3.65,0,0,1-.22-2.93,7.06,7.06,0,0,1,1.53-2.57l1-1.11a7.72,7.72,0,0,0,.83-1.22,12.16,12.16,0,0,0,1.1-2.75,10,10,0,0,1,1.11-2.79,3,3,0,0,1,2.7-1.16,12.39,12.39,0,0,1,3,.5,44.33,44.33,0,0,1,5.62,2,16.33,16.33,0,0,1,5,3.23,7.37,7.37,0,0,1,1.63,2.55,7.11,7.11,0,0,1,.35,3,23.46,23.46,0,0,1-1.58,5.78,31,31,0,0,0-1.69,5.69,12.18,12.18,0,0,0-.16,3,17.18,17.18,0,0,0,.56,2.91c.53,1.91,1.24,3.77,1.93,5.64a56.42,56.42,0,0,1,1.86,5.69,13.55,13.55,0,0,1,.37,5.94,7.51,7.51,0,0,1-3.34,4.8,16.38,16.38,0,0,1-5.51,2.24,16.61,16.61,0,0,0,5.47-2.29,7.41,7.41,0,0,0,3.24-4.78,13.26,13.26,0,0,0-.39-5.87A56,56,0,0,0,425,347c-.69-1.87-1.42-3.73-2-5.65a17.49,17.49,0,0,1-.58-2.95,12.12,12.12,0,0,1,.14-3,32.57,32.57,0,0,1,1.68-5.74,23.15,23.15,0,0,0,1.55-5.71,6.73,6.73,0,0,0-.33-2.89,6.87,6.87,0,0,0-1.56-2.46,15.82,15.82,0,0,0-4.95-3.19,43.87,43.87,0,0,0-5.58-2.06,12.07,12.07,0,0,0-2.91-.5,2.82,2.82,0,0,0-2.55,1.07,9.75,9.75,0,0,0-1.09,2.73,13.37,13.37,0,0,1-1.12,2.78,8.84,8.84,0,0,1-.86,1.24l-1,1.11a7.08,7.08,0,0,0-1.51,2.51,3.52,3.52,0,0,0,.18,2.84,4.35,4.35,0,0,0,2.22,1.85A11.62,11.62,0,0,0,410.63,329.36Z"/><path class="cls-8" d="M423.41,371.56a3.51,3.51,0,0,0,1.66.44c.58.06,1.15.11,1.73.2a7,7,0,0,1,3.24,1.24,4.74,4.74,0,0,1,1.68,3,11,11,0,0,1-.06,3.49,34.08,34.08,0,0,0-.52,3.42,8.77,8.77,0,0,0,.42,3.38c.67,2.23,2.47,3.83,4.1,5.45a8.29,8.29,0,0,1,2,2.85,5.39,5.39,0,0,1,.08,3.48,26.27,26.27,0,0,0-1,6.84c-.06,1.15-.1,2.31-.22,3.47a7.25,7.25,0,0,1-1,3.33,2.72,2.72,0,0,1-1.41,1,4.6,4.6,0,0,1-1.73.16,13.31,13.31,0,0,1-3.36-.88,13.08,13.08,0,0,0,3.36.81,4.41,4.41,0,0,0,1.7-.19,2.61,2.61,0,0,0,1.32-1,7.13,7.13,0,0,0,.94-3.28c.12-1.15.15-2.3.2-3.46a26.31,26.31,0,0,1,1-6.89,5.13,5.13,0,0,0-.09-3.33,8.24,8.24,0,0,0-2-2.74c-1.6-1.62-3.44-3.27-4.13-5.57a9.07,9.07,0,0,1-.4-3.47,30.06,30.06,0,0,1,.55-3.44,11,11,0,0,0,.08-3.43,4.58,4.58,0,0,0-1.61-2.93,6.77,6.77,0,0,0-3.16-1.28c-.57-.1-1.15-.17-1.72-.24A3.4,3.4,0,0,1,423.41,371.56Z"/><path class="cls-8" d="M454.66,428.31c-1.84-.26-3.68-.52-5.5-.89-.91-.18-1.82-.42-2.71-.69a5.76,5.76,0,0,1-2.44-1.37,1.72,1.72,0,0,1-.37-.63,1.63,1.63,0,0,1,0-.73,2,2,0,0,1,.24-.68,4.07,4.07,0,0,1,.38-.6c.26-.4.64-.71.91-1.07a2.18,2.18,0,0,0,.47-1.21,8.37,8.37,0,0,0-.39-2.7c-.25-.89-.56-1.76-.87-2.63a54.85,54.85,0,0,1-1.67-5.33,14.68,14.68,0,0,1-.39-5.56,9.27,9.27,0,0,1,.86-2.67,9,9,0,0,1,1.7-2.22,14,14,0,0,1,4.78-2.83,14.25,14.25,0,0,0-4.69,2.92,9.07,9.07,0,0,0-1.64,2.21,8.84,8.84,0,0,0-.83,2.61,14.71,14.71,0,0,0,.44,5.48,55.23,55.23,0,0,0,1.71,5.29c.3.88.61,1.76.85,2.66a8.18,8.18,0,0,1,.37,2.79,2.38,2.38,0,0,1-.53,1.34c-.3.38-.65.66-.91,1.05a2.61,2.61,0,0,0-.36.57,1.74,1.74,0,0,0-.24.62,1.53,1.53,0,0,0,0,.64c.1.19.14.42.32.56a5.63,5.63,0,0,0,2.36,1.33c.87.28,1.77.52,2.68.72C451,427.69,452.83,428,454.66,428.31Z"/><path class="cls-8" d="M451.43,386.6a15.32,15.32,0,0,1-7.28.23,16.93,16.93,0,0,1-6.73-2.9,10.57,10.57,0,0,1-2.54-2.67,6.46,6.46,0,0,1-1-3.54,7.22,7.22,0,0,1,1.1-3.53,9.33,9.33,0,0,0,1.3-3.36,32.34,32.34,0,0,0,.17-7.3,25.13,25.13,0,0,1,.09-3.68,8.07,8.07,0,0,1,1.19-3.49,6.58,6.58,0,0,1,2.82-2.35,13.27,13.27,0,0,1,3.54-1,34,34,0,0,1,7.34-.14,34.44,34.44,0,0,0-7.32.28,13.21,13.21,0,0,0-3.49,1,6.46,6.46,0,0,0-2.74,2.3,7.74,7.74,0,0,0-1.12,3.41,23.4,23.4,0,0,0-.07,3.65,33,33,0,0,1-.13,7.36,9.81,9.81,0,0,1-1.36,3.45,7,7,0,0,0-1.09,3.39,6.2,6.2,0,0,0,1,3.42,10,10,0,0,0,2.47,2.64,16.87,16.87,0,0,0,6.64,2.92A15.24,15.24,0,0,0,451.43,386.6Z"/><path class="cls-8" d="M384.53,310.86a9,9,0,0,0,.71,2.38,2.93,2.93,0,0,0,1.66,1.7,2.75,2.75,0,0,0,2.26-.66,10.28,10.28,0,0,0,1.76-1.73c1.07-1.26,1.9-2.74,3.11-3.92a17.56,17.56,0,0,1,4-3c1.47-.82,3-1.46,4.44-2.31a7.24,7.24,0,0,0,3.26-3.56,11.75,11.75,0,0,0,.58-4.9,33,33,0,0,0-.67-4.94,34.15,34.15,0,0,1,.81,4.94,11.76,11.76,0,0,1-.54,5,7.4,7.4,0,0,1-3.32,3.7c-1.44.87-3,1.53-4.42,2.35a17.35,17.35,0,0,0-4,2.92c-1.2,1.15-2,2.6-3.14,3.88a10.72,10.72,0,0,1-1.81,1.75,2.87,2.87,0,0,1-2.39.65,3,3,0,0,1-1.68-1.8A9.26,9.26,0,0,1,384.53,310.86Z"/><path class="cls-8" d="M425.1,288.22a43.87,43.87,0,0,0-1.7,5.51,12.48,12.48,0,0,0-.34,2.85,3.62,3.62,0,0,0,.93,2.58,3.87,3.87,0,0,0,2.62.83,2.11,2.11,0,0,1,1.38.56,5.32,5.32,0,0,1,1,1.11,44.84,44.84,0,0,1,2.61,5.18,22.42,22.42,0,0,0,2.85,5,5.85,5.85,0,0,0,2.21,1.74,3.92,3.92,0,0,0,2.76,0,2.87,2.87,0,0,0,.67-.25c.21-.1.43-.19.64-.31a13.63,13.63,0,0,0,1.19-.79,19.54,19.54,0,0,0,2.14-1.92,43.43,43.43,0,0,0,3.69-4.44,42.24,42.24,0,0,1-3.59,4.53,18.91,18.91,0,0,1-2.14,2,14.11,14.11,0,0,1-1.2.82c-.21.12-.44.21-.66.32a2.81,2.81,0,0,1-.68.26,4.14,4.14,0,0,1-2.9,0,6.07,6.07,0,0,1-2.31-1.79,22.6,22.6,0,0,1-2.93-5,45,45,0,0,0-2.54-5.17,2.92,2.92,0,0,0-2.15-1.58,4.17,4.17,0,0,1-2.75-.91,3.74,3.74,0,0,1-1-2.72,11.6,11.6,0,0,1,.37-2.88A43.49,43.49,0,0,1,425.1,288.22Z"/><path class="cls-8" d="M447.71,313.93a58.49,58.49,0,0,1-5.19,2.76,38.7,38.7,0,0,0-5.19,2.71,2.91,2.91,0,0,0-1.49,2.28,4.33,4.33,0,0,0,1.27,2.5c.33.36.67.7,1,1.11.15.2.26.43.39.64s.19.46.29.7a9.47,9.47,0,0,1,.42,2.94c0,4-1.28,7.78-1.12,11.69A4.85,4.85,0,0,0,439,344a3.6,3.6,0,0,0,2.51,1.24,15.16,15.16,0,0,0,5.76-.85,15,15,0,0,1-5.77,1,3.76,3.76,0,0,1-2.63-1.27,5.12,5.12,0,0,1-.93-2.8c-.18-4,1-7.8,1-11.7a9.77,9.77,0,0,0-.38-2.86c-.1-.22-.17-.45-.27-.67s-.23-.42-.37-.61c-.29-.37-.63-.72-1-1.09a4.53,4.53,0,0,1-1.31-2.65,3.1,3.1,0,0,1,1.59-2.44,36.44,36.44,0,0,1,5.24-2.68A58.52,58.52,0,0,0,447.71,313.93Z"/><path class="cls-8" d="M414.56,289.68a20.74,20.74,0,0,0,1.95,10.21,14.8,14.8,0,0,0,3,4.23,28.36,28.36,0,0,0,4.2,3.14c1.45,1,2.9,2,4.28,3.08a13.08,13.08,0,0,1,3.5,3.94,7.07,7.07,0,0,1,.4,5.21c-.24.86-.58,1.68-.85,2.5s-.49,1.68-.7,2.52a40.55,40.55,0,0,0-1.18,10.4c.1,3.47.75,7.07,2.8,9.93a9.92,9.92,0,0,0,4,3.25,13.68,13.68,0,0,0,5.1,1.05,30.84,30.84,0,0,0,10.31-1.78,30.87,30.87,0,0,1-10.32,1.92,13.9,13.9,0,0,1-5.16-1,10,10,0,0,1-4.09-3.29c-2.1-2.9-2.77-6.54-2.89-10a41,41,0,0,1,1.14-10.47c.22-.86.45-1.71.73-2.54s.61-1.65.85-2.49a6.84,6.84,0,0,0-.36-5,12.84,12.84,0,0,0-3.43-3.88c-1.35-1.11-2.8-2.1-4.25-3.1a28,28,0,0,1-4.2-3.17,14.94,14.94,0,0,1-3.06-4.29A21,21,0,0,1,414.56,289.68Z"/><path class="cls-8" d="M451.42,359.61c-1.29.47-2.65.73-4,1.1a12.66,12.66,0,0,0-1.94.66A3.26,3.26,0,0,0,444,362.6a2.25,2.25,0,0,0-.14,1.9c.17.63.59,1.22.73,1.92a10.44,10.44,0,0,1-.28,4.13c-.3,1.34-.7,2.66-.92,4a7.57,7.57,0,0,0-.11,2,2.53,2.53,0,0,0,.83,1.74,3.45,3.45,0,0,0,1.84.71,9.19,9.19,0,0,0,2,0,27.82,27.82,0,0,0,4-.67,29,29,0,0,1-4,.81,9.55,9.55,0,0,1-2.07,0,3.79,3.79,0,0,1-1.95-.73,2.74,2.74,0,0,1-.91-1.86,7.61,7.61,0,0,1,.08-2.08c.22-1.36.6-2.69.88-4a10,10,0,0,0,.33-4c-.12-.64-.52-1.23-.71-1.91a2.52,2.52,0,0,1,.18-2.06,3.5,3.5,0,0,1,1.64-1.28,12.14,12.14,0,0,1,2-.64C448.75,360.25,450.11,360,451.42,359.61Z"/><path class="cls-8" d="M429.87,418.27c2.33.46,4.71.12,7.08.56a1.87,1.87,0,0,1,1.42,1.07,2.27,2.27,0,0,1,.11.93,8.6,8.6,0,0,1-.19.88,8.34,8.34,0,0,0-.48,1.68,5,5,0,0,0,.13,1.72c.55,2.28,1.93,4.26,3.07,6.32a14.38,14.38,0,0,1,1.46,3.25,4.12,4.12,0,0,1,.1,1.78,2.94,2.94,0,0,1-.85,1.54,2.84,2.84,0,0,0,.78-1.55,4.06,4.06,0,0,0-.16-1.73,14.7,14.7,0,0,0-1.49-3.19c-1.16-2-2.59-4-3.19-6.36a5.49,5.49,0,0,1-.11-1.81,8.48,8.48,0,0,1,.51-1.71,8.71,8.71,0,0,0,.2-.85,2,2,0,0,0-.09-.82,1.64,1.64,0,0,0-1.27-1,19.42,19.42,0,0,0-3.51-.32A21.84,21.84,0,0,1,429.87,418.27Z"/><path class="cls-8" d="M380.77,429.86c1.54-.35,3.11-.58,4.64-.95a8.35,8.35,0,0,0,4.17-2,3.79,3.79,0,0,0,.94-2.06,9,9,0,0,0,0-1.16c-.08-.38-.11-.77-.22-1.14-.23-.75-.51-1.49-.74-2.25A19.06,19.06,0,0,1,389,418c-.25-1.57-.35-3.16-.49-4.73a18.47,18.47,0,0,0-.78-4.63,2.74,2.74,0,0,0-1.45-1.7A3.61,3.61,0,0,0,384,407a17,17,0,0,0-4.2,2.14,17,17,0,0,1,4.16-2.27,3.63,3.63,0,0,1,2.37-.08,3,3,0,0,1,1.57,1.78,18.71,18.71,0,0,1,.84,4.68c.15,1.57.27,3.15.53,4.7a17.73,17.73,0,0,0,.49,2.3c.21.75.49,1.49.71,2.27a11.68,11.68,0,0,1,.22,1.18,8.14,8.14,0,0,1,0,1.21,4,4,0,0,1-1,2.16,8.4,8.4,0,0,1-4.28,2C383.89,429.37,382.32,429.55,380.77,429.86Z"/></g><path class="cls-9" d="M409.05,210.52a9.79,9.79,0,0,0,4.07,2.54c5.3,1.66,10-2.15,10.47-2.54V184.2H409.05Z"/><polygon class="cls-4" points="411.82 200.13 409.05 200.13 409.05 202.36 411.82 200.13"/><path class="cls-9" d="M401.43,191.65a8.49,8.49,0,0,0,8.59,8.48h5a8.48,8.48,0,0,0,8.59-8.48V174.84a8.62,8.62,0,0,0-8.59-8.65h-5a8.63,8.63,0,0,0-8.59,8.65Z"/><path class="cls-4" d="M400,178.23l18.5.5s2.25,6,4.75,6,5.37-3.79,6-11.77-10.75-8.35-10.75-8.35C414.38,157.61,395.36,163.36,400,178.23Z"/><path class="cls-9" d="M421.77,187.86a3.8,3.8,0,1,0,3.8-3.68A3.73,3.73,0,0,0,421.77,187.86Z"/><path class="cls-4" d="M412.44,183c0,.67.3,1.22.66,1.22s.66-.55.66-1.22-.29-1.22-.66-1.22S412.44,182.29,412.44,183Z"/><ellipse class="cls-4" cx="402.41" cy="182.96" rx="0.66" ry="1.22"/><path class="cls-4" d="M406.76,184.39a11.28,11.28,0,0,1-.28,1.91,5,5,0,0,1-.3.93,2,2,0,0,1-.25.45.61.61,0,0,1-.5.3c-.27,0-.31-.12-.47-.12a.5.5,0,0,0-.33.12.92.92,0,0,0-.12.8,3.14,3.14,0,0,0,1.1,1.49,2.8,2.8,0,0,1-1.3-1.43,1,1,0,0,1,.13-1,.73.73,0,0,1,.53-.22,4.26,4.26,0,0,1,.47.11c.18,0,.38-.31.5-.57a8.57,8.57,0,0,0,.33-.89C406.45,185.64,406.61,185,406.76,184.39Z"/><path class="cls-4" d="M415,182.11a3.55,3.55,0,0,0-.58-.3,2.11,2.11,0,0,0-.59-.18,2.72,2.72,0,0,0-1.25.11,1.58,1.58,0,0,1,.59-.34,1.55,1.55,0,0,1,.71-.05A1.66,1.66,0,0,1,415,182.11Z"/><path class="cls-4" d="M403.94,182.11a4,4,0,0,0-.58-.3,2.11,2.11,0,0,0-.59-.18,2.7,2.7,0,0,0-1.25.11,1.54,1.54,0,0,1,1.29-.39A1.65,1.65,0,0,1,403.94,182.11Z"/><path class="cls-14" d="M411.73,191.53a3.61,3.61,0,0,1-4.46.92Z"/><path class="cls-4" d="M425.9,190.2a1.4,1.4,0,0,0,.24-1.72,1.72,1.72,0,0,0-1.46-.92.15.15,0,0,1-.13-.15v0a2.25,2.25,0,0,1,1.16-1.63,1.86,1.86,0,0,1,1.92.09,2,2,0,0,0-1.82.1,2,2,0,0,0-.66.63,2.63,2.63,0,0,0-.32.86l-.13-.17a1.9,1.9,0,0,1,1.63,1.12,1.64,1.64,0,0,1,.13,1A1.38,1.38,0,0,1,425.9,190.2Z"/><ellipse class="cls-11" cx="414.38" cy="188.93" rx="1.94" ry="1.27"/><g class="cls-17"><ellipse class="cls-11" cx="401.75" cy="188.93" rx="1.94" ry="1.27"/></g><path class="cls-4" d="M442.48,287A93.93,93.93,0,0,1,430,290.68a100.22,100.22,0,0,1-12.89,2.05,72.92,72.92,0,0,1-13.05-.17,45.52,45.52,0,0,1-12.57-3.38,49.77,49.77,0,0,0,12.59,3.2,74.26,74.26,0,0,0,13,.06,98.39,98.39,0,0,0,12.88-1.95c2.12-.45,4.23-1,6.32-1.57S440.43,287.72,442.48,287Z"/><path class="cls-8" d="M415.48,307.38c-1.93-.39-3.83-.88-5.73-1.37s-3.79-1-5.66-1.63c1.93.38,3.83.88,5.73,1.36S413.61,306.76,415.48,307.38Z"/><path class="cls-8" d="M420.58,218.17c13.69-2,15.9,13.46,15.9,13.46L425.1,247.45c-5.13-3.52-11-6.11-16.53-8.72Z"/><path class="cls-9" d="M363.56,253.51l33,5.79,12-20.57c5.57,2.61,11.4,5.2,16.53,8.72l-15.64,22.14a12.66,12.66,0,0,1-13.65,4.91l-34.1-9.81Z"/><path class="cls-4" d="M393.41,258.7c1.4.11,2.8.32,4.19.53s2.78.47,4.15.81c-1.41-.11-2.8-.32-4.2-.53S394.78,259,393.41,258.7Z"/><path class="cls-4" d="M416.57,222.9c-1.23,2.69-2.55,5.34-3.87,8s-2.69,5.26-4.13,7.85c1.23-2.69,2.55-5.33,3.87-8S415.13,225.49,416.57,222.9Z"/><path class="cls-4" d="M437.58,229.55c-2,3-4.05,6-6.12,9s-4.18,5.95-6.36,8.87c2-3,4.06-6,6.13-9S435.41,232.46,437.58,229.55Z"/><path class="cls-4" d="M410.63,235.19a17.17,17.17,0,0,1,4.57,1.46,30.2,30.2,0,0,1,4.16,2.41,37.52,37.52,0,0,1,3.75,3c.59.54,1.15,1.11,1.72,1.67l1.62,1.78c-1.14-1.14-2.28-2.24-3.49-3.29a40.88,40.88,0,0,0-3.76-2.94,31.38,31.38,0,0,0-4.09-2.45A19.31,19.31,0,0,0,410.63,235.19Z"/><path class="cls-9" d="M366.29,265.25c-5.43,1.1-12.43-.09-12.31-7.54s9.58-6.34,15-2.65"/><path class="cls-9" d="M360.81,252.62c-7-.63-11.79-.7-12.4.31s6.82,2.47,6.82,2.47"/><path class="cls-9" d="M366.83,254c-3.2-2.52-8-5.35-10.42-1.08"/><path class="cls-4" d="M361.08,252.72a22.08,22.08,0,0,1-2.57-.09,19.93,19.93,0,0,1-2.54-.37,23.44,23.44,0,0,1,5.11.46Z"/><path class="cls-4" d="M356.48,255.74a4,4,0,0,1-1-.11,3.72,3.72,0,0,1-1-.39,3.64,3.64,0,0,1,1.05.11A3.52,3.52,0,0,1,356.48,255.74Z"/><path class="cls-4" d="M356.07,259.27a2.75,2.75,0,0,1-1.11-.17,4.74,4.74,0,0,1-.51-.24,2.42,2.42,0,0,1-.45-.34,7.22,7.22,0,0,1,1.06.31C355.39,259,355.73,259.09,356.07,259.27Z"/><path class="cls-4" d="M356.67,262.5a2.58,2.58,0,0,1-1.1-.15,1.51,1.51,0,0,1-.87-.7,2.76,2.76,0,0,0,.48.25c.16.06.32.13.49.18A10.64,10.64,0,0,1,356.67,262.5Z"/><polygon class="cls-4" points="8.14 443.25 65.45 443.05 122.77 442.97 237.4 442.83 352.03 442.97 409.34 443.04 466.66 443.25 409.34 443.46 352.03 443.54 237.4 443.68 122.77 443.53 65.45 443.46 8.14 443.25"/><path class="cls-4" d="M105,134a19.54,19.54,0,0,1,0,3.06c0,.51-.1,1-.19,1.52a4.46,4.46,0,0,1-.47,1.46,7.5,7.5,0,0,0,.26-1.49c0-.5.09-1,.12-1.51C104.87,136,104.92,135,105,134Z"/><path class="cls-4" d="M108.91,134.48a21.3,21.3,0,0,1-.3,2.53,21.07,21.07,0,0,1-.58,2.47,22.86,22.86,0,0,1,.88-5Z"/><path class="cls-4" d="M112.24,133.23a20.31,20.31,0,0,1,.2,2.81,14.81,14.81,0,0,1-.2,2.82A48.07,48.07,0,0,1,112.24,133.23Z"/><path class="cls-4" d="M51.62,173.93a.82.82,0,0,0-.22.72,2.23,2.23,0,0,0,.33.72,5.56,5.56,0,0,1,.71,1.47,2.41,2.41,0,0,1-.19,1.65,9.82,9.82,0,0,0-.54,1.49,7.1,7.1,0,0,0-.21,3.14,5.78,5.78,0,0,0,1.41,2.81,6.24,6.24,0,0,1-1-1.25,5.85,5.85,0,0,1-.59-1.52,6.87,6.87,0,0,1,.15-3.25c.23-1.08,1.05-2,.78-3a5.59,5.59,0,0,0-.61-1.46,2.1,2.1,0,0,1-.28-.77A.84.84,0,0,1,51.62,173.93Z"/></g></g></svg>