<svg xmlns="http://www.w3.org/2000/svg" viewBox="0 0 150.58 146.19"><defs><style>.cls-1{fill:#5d46c2;}.cls-2{fill:#8054f3;}.cls-3{fill:#19274b;}.cls-4{fill:#ff8881;}.cls-5{fill:#f55b5d;}.cls-6{fill:#d1373f;}</style></defs><g id="Layer_2" data-name="Layer 2"><g id="OBJECTS"><path class="cls-1" d="M150.58,146.19H0c.13-.85.3-1.8.49-2.81s.43-2.17.69-3.34c.39-1.78.84-3.66,1.34-5.55.3-1.12.61-2.24.94-3.34.57-1.94,1.2-3.82,1.86-5.55.45-1.2.92-2.32,1.41-3.33a17.27,17.27,0,0,1,2.14-3.54,12.23,12.23,0,0,1,2.3-2,42.76,42.76,0,0,1,5.88-3.33,142.4,142.4,0,0,1,13.73-5.55c5.15-1.82,9.13-3,9.13-3l1.27-.32,17.49-4.4H85.12l18.58,4.4,3.78.9s4.14.94,9.49,2.44a122.3,122.3,0,0,1,16.17,5.55,26.46,26.46,0,0,1,5.78,3.33,7.94,7.94,0,0,1,1,1,25,25,0,0,1,2.78,4.57c.51,1,1,2.15,1.52,3.33.75,1.75,1.48,3.63,2.17,5.55.4,1.11.78,2.23,1.15,3.34.62,1.9,1.18,3.79,1.66,5.55.31,1.17.59,2.3.83,3.34S150.45,145.35,150.58,146.19Z"/><path class="cls-2" d="M117,107.83H30.78c5.15-1.82,9.13-3,9.13-3l1.27-.32H103.7l3.78.9S111.62,106.33,117,107.83Z"/><path class="cls-2" d="M138.92,116.71H11.17a42.76,42.76,0,0,1,5.88-3.33H133.14A26.46,26.46,0,0,1,138.92,116.71Z"/><path class="cls-2" d="M144.23,125.6H5.32c.45-1.2.92-2.32,1.41-3.33h136C143.22,123.3,143.73,124.42,144.23,125.6Z"/><path class="cls-2" d="M147.55,134.49H2.52c.3-1.12.61-2.24.94-3.34H146.4C146.8,132.26,147.18,133.38,147.55,134.49Z"/><path class="cls-2" d="M150,143.38H.49c.2-1,.43-2.17.69-3.34h148C149.52,141.21,149.8,142.34,150,143.38Z"/><path class="cls-3" d="M40.63,69.55s-2.56,6.08,0,9.67a7.19,7.19,0,0,0,6.61,3S44.89,91.7,52.09,93s8.58-4.37,8.58-4.37S54.91,65.18,40.63,69.55Z"/><path class="cls-3" d="M101.67,69.55s2.56,6.08,0,9.67a7.19,7.19,0,0,1-6.61,3S97.41,91.7,90.21,93s-8.58-4.37-8.58-4.37S87.39,65.18,101.67,69.55Z"/><path class="cls-4" d="M87.49,104.24s-3.85,7.21-14.61,7.21a17.24,17.24,0,0,1-14.78-7.56l.64-5.19.1-.87,1-8.16,25.73.72.43,3.1.14,1Z"/><path class="cls-3" d="M86,93.49c-5.83,4.94-15.26,6.82-27.26,5.21l.1-.87,1-8.16,25.73.72Z"/><path class="cls-5" d="M50.18,68.44c-5.75,8-18.14,2.6-17.3-8.06.77-9.67,11.57-8.14,11.57-8.14Z"/><path class="cls-6" d="M44.88,68.64a.76.76,0,0,1-.74-.58c-1.12-4.58-5.88-8.85-5.92-8.9a.76.76,0,1,1,1-1.14c.21.18,5.16,4.62,6.39,9.67a.77.77,0,0,1-.56.93Z"/><path class="cls-6" d="M42.9,64.29a.67.67,0,0,1-.24,0A8.79,8.79,0,0,0,38.53,64a.77.77,0,1,1-.34-1.5,10.13,10.13,0,0,1,5,.32.77.77,0,0,1-.25,1.49Z"/><path class="cls-5" d="M92.79,68.44c5.75,8,18.15,2.6,17.3-8.06-.77-9.67-11.57-8.14-11.57-8.14Z"/><path class="cls-6" d="M98.09,68.64l-.19,0a.77.77,0,0,1-.56-.93c1.24-5,6.18-9.49,6.39-9.67a.76.76,0,1,1,1,1.14c0,.05-4.8,4.32-5.92,8.9A.76.76,0,0,1,98.09,68.64Z"/><path class="cls-6" d="M100.07,64.29a.77.77,0,0,1-.73-.52.76.76,0,0,1,.48-1,10.12,10.12,0,0,1,5-.32.77.77,0,1,1-.34,1.5h0a8.79,8.79,0,0,0-4.13.27A.67.67,0,0,1,100.07,64.29Z"/><path class="cls-4" d="M42.16,40.5S39.35,57.93,46.63,75c6.6,15.45,16.43,20.26,25.77,20.41,10.63.16,31.84-6,28.32-56.41C98.34,4.89,45,6.1,42.16,40.5Z"/><path class="cls-3" d="M45.46,50.91c.35,3.94-1.79,8.88-5.14,6.79-1.49-.93-1.37-3.75-2-7.18-.7-4.05,1.17-3.28-3-8.73C31,36,33.92,27.52,38.36,27.28c0,0-5.52-8.89,2.27-15.75,7-6.17,13.17-1.8,13.17-1.8S55.11,1.31,62.43.14,75.54,5.41,75.54,5.41A11.87,11.87,0,0,1,89,2c8.68,3,6,9.3,6,9.3s8.66-1,12.17,5.45a8.47,8.47,0,0,1-.94,9.79s3.84,2.52,3,9.28c-.68,5.79-5,6.24-5.09,10.22a34.74,34.74,0,0,1-.92,6.66c-.32,1.45-1.76,4-3.25,4h0c-1.93,0-3.27-3.19-3-5.1.41-3.22.54-7.81-1.44-10.46-3.28-4.36-1.3-10-6.58-11.54s-22.75,6.86-35.23-.15c0,0,.75,6.9-3.62,8.92s-5.06,9.4-4.72,12.52Z"/></g></g></svg>