<svg xmlns="http://www.w3.org/2000/svg" viewBox="0 0 2772.28 795.18"><defs><style>.cls-1{fill:#ebf3fa;}.cls-2,.cls-21,.cls-3{opacity:0.5;}.cls-3{fill:#aec3ff;}.cls-4{fill:#ffb27d;}.cls-5{fill:#2b478b;}.cls-6{fill:#f77d48;}.cls-7{fill:#2c3a64;}.cls-8{fill:#739af0;}.cls-9{fill:#6385db;}.cls-10{fill:#ed985f;}.cls-11{fill:#304b77;}.cls-12{fill:#f8fcff;}.cls-13{fill:#24406d;}.cls-14{fill:#c1514c;}.cls-15{fill:#a9453d;}.cls-16{fill:#ed975d;}.cls-17,.cls-21{fill:#233862;}.cls-18{fill:#fff;}.cls-19{fill:#ef9f6a;}.cls-20{fill:#1a2d4c;}.cls-22{fill:#6bb7bf;}.cls-23{fill:#86d1cd;}.cls-24{fill:#5685d8;}.cls-25{fill:#f99746;}.cls-26{fill:#2e3552;}</style></defs><g id="Layer_2" data-name="Layer 2"><g id="_лой_1" data-name="‘лой_1"><path class="cls-1" d="M112,788.91s-146.26-274.71,0-534,441.87-203.51,597.46-128,364.07-151,706.37-124.74,333,183.82,665.92,141.15,578.79-17.2,662.81,208.05-49.79,437.58-49.79,437.58Z"/><g class="cls-2"><path class="cls-3" d="M920.62,431.72S909,334.29,859.07,276.15c-6.64-7.73-19.34-2.81-19.12,7.37,0,.17,0,.34,0,.52C840.61,301.42,896.51,374.73,920.62,431.72Z"/><path class="cls-3" d="M926.69,459.62S876.94,337.83,792,284a11.56,11.56,0,0,0-15.68,3c-2.26,3.29-3.28,8.44-.74,16.47C782.32,324.83,877.1,396.93,926.69,459.62Z"/></g><g class="cls-2"><path class="cls-3" d="M369,732.57s-70.52-68.24-145.94-81.82c-10-1.81-16.77,10-10.18,17.78l.34.39C224.71,682,314.34,703.58,369,732.57Z"/><path class="cls-3" d="M391.33,750.37S275.88,687.31,176,699.17a11.57,11.57,0,0,0-10.29,12.19c.33,4,2.79,8.62,9.83,13.24C194.28,736.94,313.29,733.05,391.33,750.37Z"/></g><path class="cls-3" d="M430.77,388.21s-4.14,98.41-22.41,96.51,12.53-109.33,12.53-109.33-77.85-62.5-113-67.16c0,0,33,104.7,15.74,98.36S267,292.9,267,292.9s-86-37.51-112.78,12.39-9.67,81.93,2.87,88.35,98.21,25.14,93.42,35.72-66.6,14.93-96.45-2.52c0,0,15.14,95.87,62.76,102.26s68.74-19.11,98.1-14.64S363.57,531.6,347.35,536s-63.83-12.14-91.72,2.26-49.59,22.21-8.38,41.13,120.14,31.41,143.39,1.74q1.53-1.93,2.91-3.71a17.78,17.78,0,0,1-2.91,3.71c6.9,6.51,13.72,31.49,18.07,50.45.51,3.17,1.45,7.62,3,13.71h0c.55,2.73,1,5,1.28,6.5,6.39,41.7-17,105.72-17,105.72l8.67,4.62c35.9-61.65,12.64-124.54,12.64-124.54-13.25-48.68-3.38-86.13-3.38-86.13s94-27.27,69.88-99.52C483.78,452,461.73,405.92,430.77,388.21Z"/><path class="cls-3" d="M2114.57,310.1C2098.48,251.17,1999,269.8,1999,269.8s-67.36,103.33-87,105.83S1952.34,276,1952.34,276c-38.09-3.61-135,43.27-135,43.27s6.39,120.38-13.28,118-.21-106.88-.21-106.88c-36.83,11.14-71.14,54.2-71.14,54.2-42.86,70.11,49.38,121.52,49.38,121.52s1.32,41.76-24.38,89.73h0a141.67,141.67,0,0,0-11.69,23.9l10,0c.82-2.69,1.72-5.3,2.71-7.8,0,0,0,0,0,0l0-.1c.68-1.56,1.67-3.77,2.89-6.46h0v0c3.06-6,5.13-10.46,6.43-13.66a0,0,0,0,0,0,0c9.16-18.88,22.36-43.49,31.19-48.66a19.16,19.16,0,0,1-2.16-4.61c.69,1.47,1.4,3,2.16,4.61,17.27,36.82,103.28,42.78,151.17,32.86s27-23.4,1.13-45.28-79.88-16-95.87-24.55,7.34-17.21,39.28-14.82,48,34.3,99.59,39.1,90.72-92.32,90.72-92.32c-35.61,11.13-99.53-8.39-102-20.67s92.11-11.25,106.85-15S2130.66,369,2114.57,310.1Z"/><path class="cls-4" d="M574.84,493.52c12-1.19,26.28-3.31,32-6.81,8.65-5.28,23.63-27.46,32.87-43.64.27-.39.86-8.59,1.06-9,4.82-8.59,7-3.3,7.27-10.1a34,34,0,0,0-1.12-10.83,27.69,27.69,0,0,0-4.88-9.78,5.13,5.13,0,0,0-.93-1.12,22.94,22.94,0,0,0-6.27-5.35c-1.59-.66-3.3.13-5.09,2V399a30.3,30.3,0,0,0-4.55,6.73c-.07.07-.13.13-.13.2-.33.59-.67,1.25-1.06,2a1.54,1.54,0,0,0-.26.46q-1.1,2.28-2.18,4.76c-8.13,17.69-14.24,46.95-21.44,54.94-3.1,3.44-19.83,7.72-31.12,12.74C560.84,484.4,566.85,494.37,574.84,493.52Z"/><path class="cls-5" d="M629.12,398.51c-3.12,2.71-6.67,11.63-7.66,14.62,0,0,8.64-.34,12.13,6.31C633.59,419.44,633.62,394.61,629.12,398.51Z"/><path class="cls-6" d="M322,788.24,221.12,418.43l88.16-6.13,32.66,181q5.49,29.72,8.84,49.79t5.68,35.82q.07-23.49.88-45.33t2.58-42l15.35-183.85,88.15-6.14,39.67,179.78q2.46,10.85,9.61,50.23,4.29,22.95,6.93,36.22.32-34,.81-53.4t1-32.37l7.19-185,88.39-6.15L568.9,771.06l-94.73,6.59L442.92,624q-4.1-20.26-7.74-42.65t-7-46.37q0,27.88-.57,49.71t-1.68,41l-8.72,156Z"/><path class="cls-7" d="M655,303.88c.05-1.19,1-14,20.48-14.68,0,0-9.59,1.15-11.25,5.37,0,0,6.53-5.22,11.85-3.54s8.45,11,8.48,14.07-2.92,12.95-6.3,13.79a10.42,10.42,0,0,1-4.09,0,45.74,45.74,0,0,1,2.62,4.67c7.79,16-.24,31.61-6.84,29.89-4.22-1.11-5.42,6.1-5.42,6.1l-41.08-33.25S638.57,295.09,655,303.88Z"/><path class="cls-8" d="M640.73,774.81l8.73,3.25s37.9-52.56,42.56-98.81a70.13,70.13,0,0,0-1.25-23.64l1-5.86c.3-1.74.67-3.84,1.09-6.25,1.24-7.06,2.93-16.72,4.87-27.72,4.46-25.31,10.24-57.66,14.72-81.45l-2.35-.75-25.44-8.21-5.25-16.7-18.94-5s-4.24,8.27-8,47.38c-.7,5.13-1.33,10.78-1.81,16.91a335.46,335.46,0,0,0,1.8,68.5q1.31,10.18,3.33,21c1,5.28,1.15,12.49.73,20.76C654.61,716.06,640.73,774.81,640.73,774.81Z"/><path class="cls-9" d="M650.66,568l41.13,81.77c.3-1.74.67-3.84,1.09-6.25,1.24-7.06,2.93-16.72,4.87-27.72,4.46-25.31,10.24-57.66,14.72-81.45l-2.35-.75-25.44-8.21-5.25-16.7-25.91-6.82S650.66,552.39,650.66,568Z"/><path class="cls-8" d="M668.76,514.18l1-8.16c15.95,4.23,58.57-11.84,58.57-11.84s15.46,13.58,13.43,46.14c-1,15.9-2.8,83.43-4.69,103.42-.68,7.24-1.28,12.4-1.53,14.45v0A2.8,2.8,0,0,0,736,660a94.08,94.08,0,0,1,7,14.67c18.54,49.42-2.86,110.27-2.86,110.27l-5.55-2.23S722.34,715,712.44,685a59.81,59.81,0,0,0-4.76-11.45c-4.3-6.94-8.3-18.29-11.92-31.78-6.85-25.51-12.36-58.7-16-84.32C679.22,557.51,668.76,514.18,668.76,514.18Z"/><path class="cls-4" d="M638.28,415.14a49.76,49.76,0,0,0,18.37,4.31c27.43,1.5,33.65-22.54,34.79-38.5a23,23,0,0,0-9.41-1.19c-.75,0-1.5.09-2.24.16a8.07,8.07,0,0,1-7.06-3.09c-3.13-4-6.79-11.15-9.22-21.06l-1.18.55-19.79,9.3s2.1,6.44,3.66,12.6a67.17,67.17,0,0,1,1.48,7.31,4.36,4.36,0,0,1-2.62,4.51h0v0A136.24,136.24,0,0,0,638.28,415.14Z"/><path class="cls-5" d="M631.42,433.14c.21.54.44,1.08.69,1.63,6.94,15,19.8,76.92,19.8,76.92,4,12,83.73-2.18,84-12.33,3-10.75-10.69-28-18.42-36.7a24.77,24.77,0,0,1-6.1-13.72c-1.52-14.38-.94-27.86-1.07-36.06h0c-1.51-1.11-3-2.15-4.33-3.13a38.54,38.54,0,0,1-5.27-4.37,8,8,0,0,1-2.53-5,25.51,25.51,0,0,1,.11-4.18c.06-.66.15-1.32.25-2a56.43,56.43,0,0,1,4-13.27c-7.36-3-20.44-1.2-20.44-1.2s0,.73,0,1.92c0,4.78-3.9,14-8.46,20.82-4.9,7.35-22.29,13.35-27.92,2.33-1.94-3.8-.81-14.09-.62-14.77v0c-11.74,4.61-15.94,8.48-15.94,8.48C636.19,403.1,626,418.63,631.42,433.14Z"/><path class="cls-10" d="M642.54,365.62s2.1,6.44,3.65,12.61c11.57-3.23,15.08-15.39,16.14-21.91Z"/><path class="cls-4" d="M640.1,372.44s27.68-6.41,23.43-23.58-3.55-29.57-21.4-26.2-19.65,10.76-19.62,16.84S632.8,373.66,640.1,372.44Z"/><path class="cls-7" d="M621,329.75c3-6.23,6.48-5.89,8.67-4.79,13-12,25.76-2.2,25.76-2.2a33.77,33.77,0,0,0,15.55,16.7s-4.25,4.36-16.58,4.26c-3.76,0-7.54-1.76-11-4.14a66.15,66.15,0,0,0,14.43,10.76c-15.42-2.95-25.77-20.81-26.83-22.7-1.3,1.93-3.8,6-4,9.5-.29,4.72,1.33,13.87-1.37,14.22C625.58,351.36,616.49,339.08,621,329.75Z"/><path class="cls-11" d="M707.78,789.46h44s1-6.7-1.24-11.78c-2.2-4.87-5.65-7.09-4.82-13-2.8,2.88-7.35,6.1-13.7,5.24-.78,1.26-5,8-7.62,9.89C721.47,781.88,708.67,781.14,707.78,789.46Z"/><path class="cls-11" d="M613.43,789.46h43.94s1.64-7-1.24-11.78c-2.55-4.22-1.58-6.62.32-10.11A17.2,17.2,0,0,1,649,769a15.5,15.5,0,0,1-6.53-2.3c-1.89,2.16-10,11.34-12.52,13.16C627.12,781.88,614.31,781.14,613.43,789.46Z"/><path class="cls-4" d="M712.06,406.09a71.69,71.69,0,0,1-1.79,12,180.69,180.69,0,0,1-7.53,25.1c-.92,2.37-1.85,4.82-2.84,7.26-7.13,17.69-16.31,34.2-24,39.81a7.17,7.17,0,0,1-.92.67,69.71,69.71,0,0,1-13.46,6c-7.8,2.65-17,5-25.29,7h-.07c-4.82,1.05-26.77,5.65-26.77,5.65l-1.77-6.82S648.2,479.06,655.2,474c4-2.91,7.07-5.48,8.13-7.32a93.4,93.4,0,0,0,5.54-12.89c1.06-2.9,2.18-6.07,3.3-9.44,2-5.54,4-11.56,6-17.56,3.7-11,7.66-22,11.43-30.51v0a3.26,3.26,0,0,1,3.64-1.83l18.64,3.92c.13,1.36.21,2.83.22,4.41A32.18,32.18,0,0,1,712.06,406.09Z"/><path class="cls-5" d="M682.12,405.56a44.07,44.07,0,0,1,30-2.86C712,383.58,702.47,381,702.47,381,698.64,379.38,682.05,381.68,682.12,405.56Z"/><path class="cls-4" d="M611.82,500.24s-11.17,4.36-13.34,6.05-6.32,7.24-7.06,10.16c0,0,0,1.2,1.15,1.19s3.62-4.28,5.45-3.59c0,0,1.66,4.56,1.66,7.42,0,1.95-1.12,9.24-.84,10.81s7.33-4.91,8.74-9.91c1.14-4,.54-6.5,1.19-11.45.57-4.35,12.57-6.86,12.57-6.86Z"/><path class="cls-6" d="M782.92,788.42V412.5H987.47v73H870.31v69.08H978.44V630H870.31v82H987.47v76.41Z"/><path class="cls-6" d="M1225.69,788.42H1032.11V412.5H1120v300h105.7Z"/><path class="cls-6" d="M1413.62,633.9H1500q.24,3.42.37,7.32c.08,2.61.12,6.51.12,11.72q0,68.84-30.15,102.16T1378,788.42q-36.62,0-62.73-12.21A100.31,100.31,0,0,1,1273,739.35q-11.24-17.57-16.11-48.82t-4.89-99.1q0-67.86,4.89-99.11T1273,443.5a100.44,100.44,0,0,1,41.74-36.73q25.86-12.33,61.76-12.33,61.74,0,92.63,34.3T1500,531.38V535l-85.44-.24q-.48-38.32-8.78-53.83T1378,465.47q-21.24,0-29,18.92t-7.81,100v7.08q0,87.14,7.81,106.79t29,19.65q19.77,0,27.71-14.28t7.93-53.09Z"/><path class="cls-6" d="M1543.43,591.43q0-67.86,4.88-99.11t16.11-48.82a99.1,99.1,0,0,1,42.23-37q26.11-12.07,62.74-12.08,36.85,0,62.61,12.08t41.86,37q11.72,17.82,16.6,49.07t4.88,98.86q0,67.37-4.88,98.74t-16.6,49.18A98.94,98.94,0,0,1,1732,776.21q-26,12.21-62.61,12.21t-62.74-12.21a100.37,100.37,0,0,1-42.23-36.86q-11.22-17.57-16.11-48.82T1543.43,591.43Zm162.08,33.93V557.5q0-62.49-7.93-77.26t-28.68-14.77q-20.26,0-28.07,15.14T1633,557.5v67.86q0,61,7.81,76.52t28.56,15.5q20.5,0,28.31-15.13T1705.51,625.36Z"/><path class="cls-6" d="M1846.33,788.42V412.5h123l33.45,159.89q.24,1.22,4,30.14t7.94,58q3.16-21.72,7.93-53.83t5.49-35.51l33.2-158.67h121.81V788.42h-83l7.57-290.48L2048.2,788.42h-66.89l-59.56-290.48,7.57,290.48Z"/><path class="cls-12" d="M256.4,204.82s17.49-41.74,59.34-37.1c0,0,60.75-69.57,125.54-9.28,0,0,68.86-14.94,119.86,12.94,34,18.58,45.24,38.08,45.24,38.08Z"/><path class="cls-12" d="M928.48,234.55s23.13-40.1,78.46-35.65c0,0,80.32-66.85,166-8.91,0,0,91-14.36,158.47,12.43,45,17.86,59.81,36.59,59.81,36.59Z"/><path class="cls-12" d="M1322.12,141.52s16.41-30.38,55.64-27c0,0,57-50.63,117.7-6.75,0,0,64.57-10.87,112.38,9.42,31.88,13.53,42.41,27.72,42.41,27.72Z"/><path class="cls-12" d="M2183.19,284.43s11.84-21.93,40.16-19.49c0,0,41.12-36.56,85-4.88,0,0,46.61-7.85,81.12,6.8,23,9.76,30.62,20,30.62,20Z"/><path class="cls-8" d="M2526.29,440.34a184.11,184.11,0,0,1-20.12,30h0c-7.63,9.11-15.45,16-22.05,18.39l0,0c-.35.12-.68.23-1,.32H2483a11.9,11.9,0,0,1-3.83.49c-21.66-1-44.48-47.42-44.48-47.42a16.56,16.56,0,0,1,4.81-9.4,19.47,19.47,0,0,1,6.5-4.28s23.32,23.95,29,25.68c3.58,1.08,8.29-15.65,15-36.65s30.47-26.18,30.47-26.18S2544.52,406.53,2526.29,440.34Z"/><path class="cls-9" d="M2506.17,470.34h0c-7.63,9.11-15.45,16-22.05,18.39l0,0-1,.32-.06,0h0c.24-.16,7.3-3.82,8.41-10.62s-6.21-12.62,12.25-23.37C2514.41,448.84,2506.17,470.34,2506.17,470.34Z"/><path class="cls-13" d="M2489.27,788.91H2540c3.63-2.47-1-26.58-1-26.58s-13.85-5.25-16.25,5.44-17.64,14.07-25.7,15.37C2491.56,784,2489.82,787.07,2489.27,788.91Z"/><path class="cls-14" d="M2566.66,539s-1.6,29.6-3.6,63.91c-1.45,24.59-3.09,51.61-4.49,71.84-.19,2.69-.38,5.25-.55,7.68-.05.75-.11,1.5-.16,2.24a451.34,451.34,0,0,1-15.79,85.12c-14.27,3-20.71-2.5-20.71-2.5s-9.83-115.21-13.47-161.68c-2.68-34.21-5-84-5-84Z"/><path class="cls-15" d="M2563.06,602.94c-1.45,24.59-3.09,51.61-4.49,71.84-9.33-22-28.39-107.76-28.39-107.76Z"/><path class="cls-13" d="M2564.53,788.91h50.75c3.64-2.47-1-26.58-1-26.58s-13.85-5.25-16.24,5.44-17.64,14.07-25.71,15.37C2566.83,784,2565.09,787.07,2564.53,788.91Z"/><path class="cls-14" d="M2516.71,533.14s36.24,90.21,47.82,124.4c8.26,24.36,31.53,109.8,31.53,109.8s10.12,3.08,18.63-2.87c0,0,8.65-87.3-8.84-111.91-9.28-13.06-2.3-135.76-39.93-136.81S2516.71,533.14,2516.71,533.14Z"/><path class="cls-8" d="M2590.91,504.12c-.15,12.83-.29,22.25-.26,24.63.11,7.76-4.86,9.51-10,10.69,0,0-4.73,1-10.69,2a116.66,116.66,0,0,1-17.86,1.91,161,161,0,0,1-46.74-7.69c-4.79,0-7-7.41-7.76-17.74-.53-7,1.63-76.8,1.9-94.23.19-12.5,7-24.05,9-25.74,17.76-15.71,70.2-13.73,79.63-2.89,2.34,2.68,3,28.52,3.1,56.83C2591.28,470.14,2591.09,489.38,2590.91,504.12Z"/><path class="cls-4" d="M2559.43,388.87c-6.69,7.25-29.17,6.18-28.51-.15.09-.78.24-5.42.31-6.14.06-.57.12-1.14.16-1.67.15-1.56.28-2.94.38-4.13.3-3.47.4-5.35.4-5.35h0c.64-.19,15.1-4.29,22.29-6,2.41-.57,4-.87,4-.66C2556.26,380.93,2561.63,386.49,2559.43,388.87Z"/><path class="cls-16" d="M2555.24,370.2s-6,6.14-23.47,6.58c.3-3.47.4-5.35.4-5.35h0c.64-.19,15.1-4.29,22.29-6C2555.75,366,2554.07,369.33,2555.24,370.2Z"/><path class="cls-4" d="M2527.75,370.57a54.87,54.87,0,0,0,10,2.34c8.23,1.11,19.05.45,22.45-9.5,5.73-16.76,13-26.81-3.81-33.66-9-3.66-14.79-3.86-18.71-2.46a13.53,13.53,0,0,0-6.93,6C2527.51,338.43,2520.93,367.63,2527.75,370.57Z"/><path class="cls-17" d="M2532.05,320.32a8,8,0,0,0,3,14.47c4.25.75,7.82.9,9.88,1.81,4.19,1.87,7.79,3.84,6.8,10.34-.33,2.21-1.41,4.91,4.28,3.57a2.76,2.76,0,0,1,2.07.12c2.36,1.4-.66,8.19-1.57,9.66,0,0-1.31,4.86,1.6,7.23.35.29,6.06,2.78,19.82-18.27a19.57,19.57,0,0,0,.88-17.92c-3.33-7.17-12.64-16.24-30.16-16.24A33.5,33.5,0,0,0,2532.05,320.32Z"/><path class="cls-18" d="M2527.62,359.75s-.35,2.17,4.69,3.9c0,0,4.24,1.45,5-.77C2537.32,362.88,2534,359.67,2527.62,359.75Z"/><path class="cls-9" d="M2590.91,504.12c-2.56,11.9-6.72,16-9.06,11.59-8.19-15.55-8.1-22.07-4.54-33.09s-8.93-28.27,0-35.62c8.73-7.18,13.7,4.4,13.92,4.92C2591.28,470.14,2591.09,489.38,2590.91,504.12Z"/><path class="cls-4" d="M2590.52,502.59s-6,9.87-10,9.52-9.29-1.82-12.37,1.12-8,10.52-6.66,12.54,7,.23,11-2,10.32,1.09,13.69-1.42,11.42-12.49,11.42-12.49Z"/><path class="cls-8" d="M2588.13,395.09s50.07,47.11,43.57,78.44c-3,14.28-12.16,26.33-36.65,45.83,0,0-11.59-8-14.14-14.51,0,0,22.24-31.32,21.38-36.65-1.05-6.52-16.23-22.89-21.68-25.44S2575.67,400.56,2588.13,395.09Z"/><path class="cls-4" d="M2580.53,512.11s-5.27-2.31-7-3.3-1.32.61-.8,1.41a5.8,5.8,0,0,0,4,2.78A6.59,6.59,0,0,0,2580.53,512.11Z"/><g id="girl_2" data-name="girl 2"><path class="cls-17" d="M1717,521.15a37.07,37.07,0,0,1,33.27,9.49,98.79,98.79,0,0,1,12.11,13.86c9.75,13.61-8.91,27.08-6.43,31.7s8.23,8.25,5.71,17.87-19.11,22.13-24.52,22.68c-54.84,5.63-78.64-24.6-60.31-40.9s10.85-39.94,25.74-49.12A45.4,45.4,0,0,1,1717,521.15Z"/><path class="cls-19" d="M1745.3,606.39s51.26,21.56,60.64,21.15S1873.08,610,1873.08,610l-1.47,9.94S1827,645.53,1811.44,647c-15.34,1.43-67.81-13.77-72.88-17S1730.58,609.64,1745.3,606.39Z"/><path class="cls-4" d="M1751.19,630a49.59,49.59,0,0,1-17.36,7.38c-26.76,6.19-37-16.43-40.87-32a22.82,22.82,0,0,1,9.07-2.78c1.93-.23,4-.38,5.65-.47,3-2.3,7.48-11.72,8.47-26.35l1.26.34,21.1,5.77s-1,6.71-1.44,13c-.37,5-.43,9.69.51,10.85l2.64.59v0A136.15,136.15,0,0,1,1751.19,630Z"/><path class="cls-10" d="M1738.51,582s-1,6.7-1.44,13c-12-1.2-17.5-12.57-19.66-18.81Z"/><path class="cls-4" d="M1742.07,588.26s-28.36-1.56-27.11-19.21-1.58-29.74,16.58-29.49,21.21,7.24,22.22,13.23S1749.49,588.21,1742.07,588.26Z"/><path class="cls-17" d="M1753.62,542.92c-4-5.62-7.39-4.7-9.35-3.23-14.88-9.63-25.76,2.24-25.76,2.24a33.78,33.78,0,0,1-12.46,19.13s5,4,17.06,1.35c15.4-3.41,20.68-16.76,21.4-18.81,1.62,1.68,3.71,2.74,5.31,6.38,1.9,4.32,3.1,6.83,3.13,13.93C1753,563.91,1759.62,551.35,1753.62,542.92Z"/><path class="cls-8" d="M1684.88,687.7c-2.56-13.1-10.91-65.42-2.56-82.25,3-6.05,14.77-6.59,27.68-6.06,4,2.59,19.33,12.39,25.62,11.17l.35-.08c3-.74,4.08-2.82,1.61-4.62a57,57,0,0,1,14.34.88c4.49.85,16.59,7.11,16.59,7.11s-6.1,11-15.08,14.81c1.53,13.66-.75,19.69-14.92,51.26-12,26.68,1.61,50.71,1.61,50.71s-70.53,56.7-70.92,27.83C1668.9,736.73,1688.15,704.43,1684.88,687.7Z"/><path class="cls-17" d="M1743.62,792.29a13.1,13.1,0,0,0,9.43-5.74c.34-.51.71-1.06,1.09-1.65,8-12.15,11.15-49.37,29.21-89,4.4-9.65,20.19-11.39,24.49-22.3,0,0,10.6-35.37-20.28-36.42s-82.69,98.42-83.51,108.85C1703.25,756.11,1683.63,799.06,1743.62,792.29Z"/><path class="cls-20" d="M1866.35,791.48H1822.4s-1.65-7,1.24-11.78c2.55-4.22,1.57-6.63-.32-10.12a17,17,0,0,0,7.4,1.39,15.4,15.4,0,0,0,6.54-2.3c1.89,2.16,10,11.34,12.52,13.16C1852.65,783.89,1865.46,783.16,1866.35,791.48Z"/><path class="cls-9" d="M1686.61,630s5.7,23.29,50.55,32.76,10.23-22.53,10.23-22.53l-47-12.58Z"/><path class="cls-17" d="M1808.85,647.39c2.64,19.84,13,82.46,31.21,113,5.88,9.85-14.81,15.37-14.92,15.34-2.78-.72-7.4-5.15-9.53-7.07-14.8-13.33-44.84-51.1-44.84-81.38,0-14.77-.26-43,10.48-50.13C1787.86,632.74,1807.8,639.51,1808.85,647.39Z"/><path class="cls-5" d="M1778.79,673.78c-4.3,10.92-16.41,9.58-20.81,19.23-2.45,5.42-4.77,10.84-7,16.2-.22.53-.43,1-.63,1.55-2.67,6.62-5.14,13.14-7.43,19.41-3.53,9.63-6.63,18.67-9.43,26.63-4.54,12.91-8.28,23-11.66,28.1-2.84,4.31-4.47,6.57-4.47,6.57-67.33,10.39-49.31-34.62-45.62-45.47,3.37-9.9,62-112.14,92.92-111.09S1778.79,673.78,1778.79,673.78Z"/><path class="cls-17" d="M1834.08,791.48h-43.95s-1.64-7,1.25-11.78c2.55-4.22,1.57-6.63-.32-10.12a17,17,0,0,0,7.4,1.39,15.4,15.4,0,0,0,6.54-2.3c1.89,2.16,10,11.34,12.52,13.16C1820.39,783.89,1833.2,783.16,1834.08,791.48Z"/><path class="cls-21" d="M1751,709.21c-.22.53-.43,1-.63,1.55-2.67,6.62-5.14,13.14-7.43,19.41-9.3-25.33-4.47-50.25-4.47-50.25C1745.2,684.55,1749.18,696.06,1751,709.21Z"/><path class="cls-5" d="M1783.19,646c2.65,19.84,6.38,83.87,24.61,114.42,5.87,9.85-14.81,15.37-14.92,15.34-2.78-.72-7.4-5.15-9.53-7.07-14.8-13.33-44.84-51.1-44.84-81.38,0-14.77,17.32-41.78,28.06-48.95A10.8,10.8,0,0,1,1783.19,646Z"/><path class="cls-17" d="M1878.33,584.38l-45-4.78a2.9,2.9,0,0,0-3,1.86l-16.11,42.31a2.91,2.91,0,0,0,2.6,3.94l44.66,1.8a2.9,2.9,0,0,0,2.8-1.78l16.45-39.34A2.91,2.91,0,0,0,1878.33,584.38Z"/><path class="cls-5" d="M1882.24,584.79l-45-4.78a2.9,2.9,0,0,0-3,1.85l-16.1,42.32a2.9,2.9,0,0,0,2.59,3.93l44.66,1.81a2.9,2.9,0,0,0,2.8-1.78l16.45-39.34A2.91,2.91,0,0,0,1882.24,584.79Z"/><path class="cls-1" d="M1857.29,604.55c.55-1.51-.23-2.74-1.74-2.74a4.33,4.33,0,0,0-3.73,2.74c-.55,1.51.23,2.73,1.74,2.73A4.32,4.32,0,0,0,1857.29,604.55Z"/><path class="cls-1" d="M1880.89,588.79a.91.91,0,0,0-.85-1.34,2.14,2.14,0,0,0-1.84,1.34.91.91,0,0,0,.86,1.34A2.12,2.12,0,0,0,1880.89,588.79Z"/><path class="cls-4" d="M1693,605.45s62.38,23,71.75,22.5c6.06-.3,56.41-18,56.41-18l4.52,8.55s-49,31.5-62.48,31.34c-26.6-.3-71.49-16.63-76.55-19.84S1678.24,608.7,1693,605.45Z"/><path class="cls-4" d="M1821.12,610s4.52-7,9-7.16,12.27,3.07,14.93,3.58,10.23,3,8,6.65-12.69,4.5-17.19,3.68-10.23,1.8-10.23,1.8Z"/><path class="cls-4" d="M1828.92,603s7.16-3.28,9.2-3.9,1.64,0,1,1.95-4.3,3.79-4.3,4.4S1828.92,603,1828.92,603Z"/><path class="cls-4" d="M1877.6,606.27s-4.51-7.14-6-7.44c-4.5-.88-4.5,5-3.55,8.87,1,4.1,4.5,8,5.46,7.63S1878.66,610,1877.6,606.27Z"/><path class="cls-4" d="M1877.77,607.7a11.94,11.94,0,0,1-6.16,12.19l2.25-5.52Z"/><path class="cls-18" d="M1747.39,578.11s-2.69-1.06-10.23-.45c0,0,.4,3,6,3.24A4.45,4.45,0,0,0,1747.39,578.11Z"/><path class="cls-8" d="M1725.1,616.78s-5.58,17.66-24.74,21.68c0,0-31.64-9.75-15.89-31.3C1684.47,607.16,1700.05,595.58,1725.1,616.78Z"/></g><path class="cls-22" d="M1716.18,311.25s-5.71,10.6-16,14.7c-7.67,3-18.35,0-18.86-.3l-.58,13.12s17.47,1.17,27.72-6.93c3.14-2.49,7-8.89,8.21-12.81A11.14,11.14,0,0,0,1716.18,311.25Z"/><path class="cls-23" d="M1705,290.33l11.47-13.61s13.72,31.38-6.56,53.65C1710,330.37,1715,301.39,1705,290.33Z"/><path class="cls-22" d="M499.66,293.84s-10.93-8.25-13.75-20.58c-2.1-9.16,3.16-20.65,3.59-21.17l-14.65-2.91s-4.34,19.43,3,32.36c2.26,4,8.78,9.41,13,11.45A12.61,12.61,0,0,0,499.66,293.84Z"/><path class="cls-23" d="M525.11,284.93l13.33,15.25s-37.67,10-59.2-16.65C479.24,283.53,511,294.26,525.11,284.93Z"/><path class="cls-24" d="M2202.43,348.84s-23.54-2.24-21.68-27l-16.68-5.07s-2,14.63,25.25,30.44C2207.17,357.54,2202.43,348.84,2202.43,348.84Z"/><path class="cls-8" d="M2225.55,351.11s-18.12,13.25-48.54-12.46c0,0,12.31,8.55,33.72,1.29Z"/><path class="cls-24" d="M1039.75,348.84s-23.54-2.24-21.69-27l-16.67-5.07s-2,14.63,25.25,30.44C1044.48,357.54,1039.75,348.84,1039.75,348.84Z"/><path class="cls-8" d="M1062.87,351.11s-18.12,13.25-48.54-12.46c0,0,12.31,8.55,33.72,1.29Z"/><path class="cls-25" d="M1583,245.08s-13.24-8.36-14.63-18.46c0,0-12.89.69-15.68,4.87,0,0,5.92,16.73,12.89,19.86C1565.61,251.35,1581.29,252.4,1583,245.08Z"/><path class="cls-25" d="M1230.31,111.06s13.24-8.36,14.63-18.47c0,0,12.9.7,15.68,4.88,0,0-5.92,16.72-12.89,19.86C1247.73,117.33,1232.05,118.38,1230.31,111.06Z"/><path class="cls-23" d="M1338.69,322s11.57-7.31,12.79-16.13c0,0,11.26.61,13.69,4.26,0,0-5.17,14.61-11.26,17.35C1353.91,327.51,1340.22,328.42,1338.69,322Z"/><path class="cls-4" d="M1207.42,490.86c-22.67-5.77-47.58-40.93-47.58-40.93l6.38-5.54c6.61,7.79,34.08,21.21,34.08,21.21-.15-7.13,0-13.63.49-19.55,3-40.23,18.21-53.63,22.35-56.57a11,11,0,0,1,1-.67s0,.29,0,.84c.06,1.2.17,3.61.28,6.91C1225.35,421.18,1226.36,495.68,1207.42,490.86Z"/><path class="cls-8" d="M1225.59,436q-.09,3.32-.22,6.63c-.73,17.9-2.68,35.69-7.07,46.1a22.24,22.24,0,0,1-3.7,6.22c-2,2.28-4.41,3.37-7.19,3-15.32-2.23-19.31-16.52-20.12-27.15a61.17,61.17,0,0,1,.23-11.81s7.53,0,8.75-1.15c2.51-2.32,3.6-13.44,4.28-25.77.88-16.16,1.11-34.33,2.66-37.46,4.41-8.94,21.45-8.94,21.45-8.94S1226.25,409.93,1225.59,436Z"/><path class="cls-17" d="M1243.64,344.65s-12.62,7.44-4.88,21.85c0,0-11-2-13.44-5.33a8.66,8.66,0,0,0,.69,2.07s-10.16-2.3-13.48-6.54,13-55,39.39-41.87c0,0,24.15,4.48,14.69,31.29s-.52,29.18-.52,29.18a13.08,13.08,0,0,1-4,.25s-1.58-1.14-1.67-2.2a6.29,6.29,0,0,0,.27,2.22s-9.9-1.64-13.75-6.56S1240.77,349.94,1243.64,344.65Z"/><path class="cls-4" d="M1225.41,387.82l0,0C1225.29,387.82,1225.31,387.82,1225.41,387.82Z"/><path class="cls-4" d="M1256.09,379c.37,3.32.82,6.3,1,7.72.44,3.19-29.77,1.11-31.7,1.11,1.35-.58,5.44-13.58,6.74-18.54,1.57-6,2.81-12.51,2.81-12.51l21.33,1.35,1.27.07a74.09,74.09,0,0,0-1.74,8.21c0,.34-.1.69-.14,1C1255.29,370.26,1255.63,374.88,1256.09,379Z"/><path class="cls-17" d="M1232,354.62s-3.46-11-2.76-19.38c.5-6,9-26.49,29.6-17.77a30,30,0,0,1,10.83,7.73c3.81,4.36,8.71,12.9-3.69,29.47l-3.6,5.75Z"/><path class="cls-9" d="M1228.13,437.68,1227,473.89s-4,6.85-8.7,14.79c-1.2,2-2.46,4.14-3.7,6.22-2,2.28-4.41,3.37-7.19,3-15.32-2.23-19.31-16.52-20.12-27.15a61.17,61.17,0,0,1,.23-11.81s7.53,0,8.75-1.15c2.51-2.32,3.6-13.44,4.28-25.77l10.45-5.91,14.59,9.88Z"/><path class="cls-16" d="M1256.09,379c-14.92-4.38-21.25-21.61-21.25-21.61,6.31.18,14.53,4.57,21,9,0,.34-.1.69-.14,1C1255.29,370.26,1255.63,374.88,1256.09,379Z"/><path class="cls-4" d="M1257.15,372.93s-27-6.66-22.55-23.39,3.9-28.84,21.29-25.3,19,10.81,18.94,16.75S1264.28,374.23,1257.15,372.93Z"/><path class="cls-17" d="M1276.49,331.48c-8-12.69-17.59-14-17.63-14-6.85-4.59-15.92,6.68-15.92,6.68a33,33,0,0,1-15.44,16.1s4.09,4.32,16.14,4.4c3.68,0,7.4-1.6,10.8-3.88a64.89,64.89,0,0,1-14.26,10.31c14.46-2.55,24.57-18.47,26.36-21.48,2,3.13,3.88,6.77,4,9,.22,4.62-1.5,13.54,1.13,13.92C1271.65,352.54,1281.9,340,1276.49,331.48Z"/><path class="cls-18" d="M1252.94,362.21s.34,2.55,2,3.15,5.94,1.69,6.37,1.42a21.52,21.52,0,0,0,2.06-2.25S1256.53,361.92,1252.94,362.21Z"/><path class="cls-4" d="M1242.88,618c-.35,1.43-.69,2.85-1,4.25-2,8.45-3.92,16.28-5.11,22.83-1.55,8.53-1.92,14.88.12,17.54,8.37,11,0,98.09,0,98.09l-9.53,9.82s-16.57-86-21.06-99.48c-2-6.13-5-32.3-7.65-59l-.39-4c-.45-4.67-.89-9.32-1.31-13.86-2.36-25.28-4.12-46.92-4.12-46.92s17.57-12.35,33.53-13.73c9.4-.82,18.25,2.18,22.62,13.73C1255.31,564.1,1248.86,593.13,1242.88,618Z"/><path class="cls-16" d="M1240.2,623.82c-12.3-13.4-20.4-32.6-35.41-59.49-1.27-13.67,9.51-26.66,21.54-30.77,9.4-.82,18.25,2.18,22.62,13.73C1255.31,564.1,1246.18,598.92,1240.2,623.82Z"/><path class="cls-4" d="M1290.48,451.93l64.16,16.57V476s-63.85-.75-68-7.86S1290.48,451.93,1290.48,451.93Z"/><path class="cls-4" d="M1354.64,698.85l-3,12.38s-86.79-44.83-98-53.43c-4.51-3.46-10.47-22.25-16-43.49-8.22-31.67-15.46-68.82-15.46-68.82s12.17-46.79,44.73-18.15c19.49,17.14,16.46,50.16,14.33,75.84-1.42,17.24-2.44,31.17,4,34.78,12.6,7,49.6,39.44,61.3,61.74Z"/><path class="cls-8" d="M1315.13,478.46c-5.41,5.71-12.73,9.09-24.64,7.33-5.2-.76-14.35-6.57-19.13-16.18-.72-1.43-2.54-5.64-2.54-5.64s-6.6,6.61-6.85,7.87v.07c-.1.61-.46,3.58-.64,5.2l-.08.64,0,.34a23.24,23.24,0,0,0,.49,3.86s-28.52,12.46-53.75.19l-.14-.07c-1.28-.62-2.53-1.29-3.77-2,0,0-.48-3.13-1.09-8.39-1.57-13.55-4-41.28-1-66,.78-6.57,17.55-15.53,22.74-20.07a8.25,8.25,0,0,0,2-6.07c-.26-1.68,1.67-4.5,3.27-4,3.13,1,12,5.37,18.16,3.71,3.1-.83,7-4.4,10-3.59,3.67,1-.2,9.82,1.87,9.94,2.86.14,15.72.35,19.62,5.73,3.21,4.41,4.9,12.63,10.46,28.2a.06.06,0,0,1,0,0c10.45,29.21,25.78,23.72,31.88,32.37C1326.12,457.82,1323.84,469.25,1315.13,478.46Z"/><path class="cls-9" d="M1268.82,464a104,104,0,0,1-5.49-19.82c-.66-3.5-27.56,23.38-20.82,34.3S1268.82,464,1268.82,464Z"/><path class="cls-5" d="M1307.6,576h0c-.5.13-8.82,2.49-21.12,5.09-3,.64-6.26,1.28-9.69,1.92-26.48,4.9-63.84,8.94-86.34-1.09,0,0,1.63-37.38,6-65.63C1200,493.66,1204,480,1204,480s22.87,4.72,46.85.12l.69-.13c3.14-.62,6.53-.91,9.63-1.93,0,0,17.86,25.42,27.21,43.48C1294.87,534.07,1307.6,576,1307.6,576Z"/><path class="cls-17" d="M1307.6,576h0c-.5.13-8.82,2.49-21.12,5.09-3,.64-6.26,1.28-9.69,1.92-41.15-53.79-25.7-102.7-25.7-102.7l.51-.27c3.14-.62,6.53-.91,9.63-1.93,0,0,17.86,25.42,27.21,43.48C1294.87,534.07,1307.6,576,1307.6,576Z"/><path class="cls-4" d="M1354.64,468.5s11.77-5.8,16.45-6.36,12.54-.75,12.54,0-8.42,6-10.67,6.36-6.55,3.56-5.24,3.93,8.24-1.21,8.33,0-4.21,2-5,2.9-3.37,2.06-7.58,1.5-8.87-.84-8.87-.84Z"/><path class="cls-5" d="M1371.79,703.65h-.07c-.39-.1-2.18-.69-3.36-3.53-.78-1.87-1-3.4-1.73-5.25l-2.93-5.06c-3.06-4-4.14-3.09-4.14-3.09s-.8,1-2,2.38c-2,2.24-5,5.36-7.07,6.16a6.13,6.13,0,0,0-3,2.37,5.89,5.89,0,0,0-.91,2.08s6.3,1.1,5.75,4.2c-1.07,6-.82,7.09-.71,7.29l0,0s10.73,5.61,14.16,6.72c6.11,1.95,9.3,6.11,11.28,8a3.54,3.54,0,0,0,3,.95c1.61-.26,3.7-.77,4.16-1.76Z"/><path class="cls-5" d="M1246.43,774.93l-5.14,2.79c-1.87.66-3.41.85-5.3,1.57a11,11,0,0,0-5,3.66c-1.45,5.89-3.57,5.71-3.57,5.71h-20.59c-1-.49.68-4.65,1.47-5.43,2-1.93,7.79-1,9.93-7,1.2-3.4,7.12-14,7.12-14l0,0c.21-.1,1.3-.32,7.27.92,3.09.64,4.36-5.62,4.36-5.62a5.79,5.79,0,0,1,2.06,1,6.22,6.22,0,0,1,2.28,3.1c.74,2.15,3.77,5.23,6,7.25,1.32,1.22,2.32,2.06,2.32,2.06S1250.56,772,1246.43,774.93Z"/><path class="cls-4" d="M1166.22,444.39s1-6.52-.73-10.82c-1.78-4.53-2.17-9.45-3.59-7.5s-.23,7.48-1.47,7.3c-.55-.08-2.23-1-2.9-3.68-.84-3.37,1.21-7.8-1.6-7.37s-6.26,12.85-4.48,16.23,8.39,11.38,8.39,11.38Z"/><path class="cls-17" d="M1262,471.84v.07l-.64,5.2-.08.64,0,.34c-14,5.19-23.75,7.7-32.84,7.7-9.85,0-16.44-1.91-20.42-3.65l-.14-.07a23.14,23.14,0,0,1-3.77-2s-.48-3.13-1.09-8.39C1207.72,474.12,1229.81,483.79,1262,471.84Z"/><path class="cls-6" d="M2243.31,788.42V412.5h204.56v73H2330.7v69.08h108.14V630H2330.7v82h117.17v76.41Z"/><path class="cls-4" d="M2428.47,412.5a11,11,0,0,0-9-4.08c-5.72.33-8.82,3.92-6.37,6.2s7.84,2.13,11.59,0Z"/><rect class="cls-26" y="788.24" width="2732.47" height="6.94" rx="3.03"/></g></g></svg>