<svg xmlns="http://www.w3.org/2000/svg" viewBox="0 0 152.74 168.17"><defs><style>.cls-1{fill:#ffac9d;}.cls-2{fill:#cc887f;}.cls-3{fill:#6f96bd;}.cls-4{fill:#85b7e0;}.cls-5{fill:#965450;}.cls-6{fill:#76413b;}</style></defs><g id="Layer_2" data-name="Layer 2"><g id="OBJECTS"><path class="cls-1" d="M143.45,138.07c-5.95-16-42.32-23.61-48.69-28.24-8.17-6-5.57-25.64-5.57-25.64l-13.38.35-13.38-.35s2.6,19.69-5.57,25.64c-6.37,4.63-42.74,12.26-48.68,28.24A174.64,174.64,0,0,0,0,168.17H151.62A175.11,175.11,0,0,0,143.45,138.07Z"/><path class="cls-2" d="M60,106.16c6.27-.64,12.56-1.91,18-5a61.56,61.56,0,0,0,10.87-7.8,60.14,60.14,0,0,1,.35-9.21l-13.38.35-13.38-.35S64.28,98.21,60,106.16Z"/><path class="cls-3" d="M144.5,137.85c-4.63-12.44-27.56-19.86-40.7-24.74-5.71,6.59-15.86,11-27.43,11s-21.72-4.39-27.43-11C35.8,118,12.87,125.41,8.24,137.85A176.4,176.4,0,0,0,0,168.17H152.74A176.4,176.4,0,0,0,144.5,137.85Z"/><path class="cls-4" d="M76.32,129.19c14.68,0,27.27-5.84,32.67-14.18l-5.19-1.9c-5.71,6.59-15.86,11-27.43,11s-21.72-4.39-27.43-11L43.67,115C49.08,123.36,61.66,129.19,76.32,129.19Z"/><path class="cls-2" d="M53.35,53.48c-2.16-6.7-7.28-5.15-7.76-5s-5.79.85-4.88,7.83,5,10.83,8.82,9.71C53.46,65.41,55.52,60.23,53.35,53.48Z"/><path class="cls-2" d="M96.61,53.48c2.16-6.7,7.27-5.15,7.75-5s5.79.85,4.88,7.83-5,10.83-8.82,9.71C96.49,65.41,94.43,60.23,96.61,53.48Z"/><path class="cls-1" d="M102.07,42.94c-2.68-29.39-25-27.74-27.13-27.52-2.11-.22-24.45-1.87-27.13,27.52C45.12,72.5,58.29,91.81,74.94,90.74,91.59,91.81,104.76,72.5,102.07,42.94Z"/><path class="cls-5" d="M47.9,57.43s-7-29-3-37.34,8.67-5.66,8.67-5.66S59.9-2.91,73.23.43s21,9.33,28,3.33c0,0,0,5.33-4,7.67,0,0,8.34,0,11.67-8,0,0,5,17.1-6,23.1,0,0,.83,21.36,0,29.23l-3-.33s-1.67-11.34-2.67-25.67c0,0-17.33,9.33-38.33-7,0,0,3,11-9,18l1,15.33Z"/><path class="cls-6" d="M90.6,31.86a49.43,49.43,0,0,1-14-3c-9-3.46-16.76-13.73-17.38-23.68a30.89,30.89,0,0,0-5.69,9.23s-4.67-2.67-8.67,5.66,3,37.34,3,37.34l3-1.34-1-15.33c12-7,9-18,9-18C72,32.94,83.67,33.15,90.6,31.86Z"/></g></g></svg>