<svg xmlns="http://www.w3.org/2000/svg" viewBox="0 0 149.02 152.28"><defs><style>.cls-1{fill:#e9356e;}.cls-2{fill:#c4205c;}.cls-3{fill:#f5efff;}.cls-4{fill:#5d46c2;}.cls-5{fill:#ff8881;}.cls-6{fill:#19274b;}.cls-7{fill:#f55b5d;}.cls-8{fill:#d1373f;}</style></defs><g id="Layer_2" data-name="Layer 2"><g id="OBJECTS"><path class="cls-1" d="M149,152.28H0s2-9.48,4.85-19,8.75-13.51,16.37-15.47,37.7-11.32,37.7-11.32l15.5-1.24h.18l14,1.12s31.59,9.48,39.21,11.44,13.52,5.94,16.37,15.47S149,152.28,149,152.28Z"/><path class="cls-2" d="M117.88,145.27H99.7a.76.76,0,0,0-.77.77v6.24h1.54v-5.47h16.64v5.47h1.54V146A.76.76,0,0,0,117.88,145.27Z"/><circle class="cls-3" cx="73.61" cy="127.4" r="1.76"/><circle class="cls-3" cx="73.61" cy="136.72" r="1.76"/><circle class="cls-3" cx="73.61" cy="146.04" r="1.76"/><polygon class="cls-4" points="74.6 105.24 74.6 105.25 74.51 105.25 74.6 105.24"/><polygon class="cls-4" points="74.51 105.25 74.42 105.25 74.42 105.24 74.51 105.25"/><path class="cls-5" d="M88.33,110.17s-3.85,7.22-14.64,7.22a17.25,17.25,0,0,1-14.8-7.58l.63-5.19.11-.87,1-8.18,25.78.72.43,3.11.14,1Z"/><path class="cls-2" d="M59.63,103.75s-9.19,1.54-16,7.44c0,0,2,11.61,15.23,23.1l14.8-16.9S63.79,113.63,59.63,103.75Z"/><path class="cls-2" d="M87.38,103.75s9.18,1.54,16,7.44c0,0-2,11.61-15.23,23.1l-14.8-16.9S83.22,113.63,87.38,103.75Z"/><path class="cls-6" d="M86.84,99.4c-5.84,4.95-15.29,6.83-27.32,5.22l.11-.87,1-8.18,25.78.72Z"/><path class="cls-7" d="M51,74.29c-5.76,8-18.18,2.61-17.33-8.07.76-9.69,11.59-8.16,11.59-8.16Z"/><path class="cls-8" d="M45.65,74.49a.76.76,0,0,1-.75-.58C43.77,69.32,39,65,39,65a.77.77,0,1,1,1-1.15c.21.19,5.16,4.64,6.4,9.69a.77.77,0,0,1-.56.93A.55.55,0,0,1,45.65,74.49Z"/><path class="cls-8" d="M43.66,70.14a.67.67,0,0,1-.24,0,8.58,8.58,0,0,0-4.15-.27.76.76,0,0,1-.91-.59.78.78,0,0,1,.58-.92,10.13,10.13,0,0,1,5,.32.76.76,0,0,1,.49,1A.77.77,0,0,1,43.66,70.14Z"/><path class="cls-7" d="M93.64,74.29c5.77,8,18.19,2.61,17.34-8.07-.77-9.69-11.59-8.16-11.59-8.16Z"/><path class="cls-8" d="M99,74.49a.55.55,0,0,1-.18,0,.78.78,0,0,1-.57-.93c1.24-5.05,6.2-9.5,6.41-9.69a.78.78,0,0,1,1.09.06.77.77,0,0,1-.07,1.09s-4.81,4.32-5.93,8.91A.77.77,0,0,1,99,74.49Z"/><path class="cls-8" d="M100.94,70.14a.77.77,0,0,1-.73-.53.76.76,0,0,1,.48-1,10.17,10.17,0,0,1,5-.32.78.78,0,0,1,.58.92.77.77,0,0,1-.92.59,8.69,8.69,0,0,0-4.14.27A.67.67,0,0,1,100.94,70.14Z"/><path class="cls-5" d="M42.91,46.3S40.1,63.76,47.39,80.84c6.62,15.48,15.42,20.3,24.78,20.45,10.65.17,33-6,29.42-56.52C99.21,10.62,45.73,11.83,42.91,46.3Z"/><path class="cls-6" d="M102.85,58.84a116.62,116.62,0,0,1-3.24,28.47c-6,25.38-26.63,22-26.63,22s-20.22,3.39-26.23-22C43,71.48,41.38,59.67,41.38,59.67l4.74-6.27S48.43,75.26,56.8,79.05c0,0,3.72-5.66,16.18-.37,12.46-5.29,16.59.37,16.59.37,8.36-3.79,9.07-24.83,9.07-24.83Z"/><path class="cls-6" d="M49.22,35.71s2,13.11-3.57,17.9V64.43l-3.27,1S39.53,51,38.44,42.9C36.33,27.31,51,25.33,51,25.33Z"/><path class="cls-6" d="M95.07,35.71s-2,13.11,3.57,17.9V64.43l3.27,1S104.76,51,105.85,42.9C108,27.31,93.34,25.33,93.34,25.33Z"/><path class="cls-6" d="M40.49,34.87S30.7,17.58,53.89,11.25C70.07,6.84,92,11.49,99,0c0,0,2,7.85-1.91,12.89,0,0,10.55-3.16,13.48-9.37,0,0,3.63,9.73-2,17.23a9.42,9.42,0,0,0,8.2-1.64s-.35,21.21-16.06,20a31.44,31.44,0,0,0-9.06-4.28C85.86,33.12,81.2,42,66.25,38.21,52.93,34.87,47.44,32.76,40.49,34.87Z"/></g></g></svg>