<svg xmlns="http://www.w3.org/2000/svg" viewBox="0 0 151.27 140.5"><defs><style>.cls-1{fill:#5a184a;}.cls-2{fill:#e9356e;}.cls-3{fill:#c4205c;}.cls-4{fill:#5d46c2;}.cls-5{fill:#ff8881;}.cls-6{fill:#f5efff;}.cls-7{fill:#19274b;}.cls-8{fill:#f55b5d;}.cls-9{fill:#ffac32;}.cls-10{fill:#d1373f;}</style></defs><g id="Layer_2" data-name="Layer 2"><g id="OBJECTS"><path class="cls-1" d="M118.16,119.55c-19-5.65-32.45-15.64-44.83-20.14-12.39,4.5-25.82,14.49-44.83,20.14-30.18,9-37.73-31.35-16.19-45.41C31.27,61.77,29,59.71,34,38.49c.32-1.38.67-2.83,1.06-4.38.43-1.7.9-3.5,1.43-5.42.31-1.12.64-2.21,1-3.25A36.53,36.53,0,0,1,73.33,0a36.54,36.54,0,0,1,35.88,25.42c.34,1,.66,2.13,1,3.25.53,1.92,1,3.72,1.43,5.42.4,1.55.75,3,1.07,4.38,5,21.22,2.7,23.28,21.66,35.65C155.88,88.2,148.34,128.51,118.16,119.55Z"/><path class="cls-2" d="M151.27,140.5H2.25s2-9.48,4.85-19S15.85,108,23.47,106c2.15-.55,6.09-1.69,10.64-3,2.57-.77,5.35-1.6,8.1-2.44,9.6-2.91,19-5.83,19-5.83l15.5-1.24h.18l14,1.12s8.41,2.52,17.59,5.24c8.62,2.54,17.93,5.25,21.62,6.2,7.63,2,13.52,6,16.37,15.47S151.27,140.5,151.27,140.5Z"/><path class="cls-3" d="M18.61,120.32a.76.76,0,0,1-.47-.16l-4-3.09a.78.78,0,0,1-.13-1.08.77.77,0,0,1,1.08-.13L19.09,119a.77.77,0,0,1-.48,1.37Z"/><path class="cls-3" d="M18.61,137a.76.76,0,0,1-.47-.16l-4-3.1a.77.77,0,0,1,1-1.21l3.95,3.1a.77.77,0,0,1-.48,1.37Z"/><path class="cls-3" d="M41.68,114.2A.76.76,0,0,1,41,113l2.64-4.26a.75.75,0,0,1,1.05-.25.75.75,0,0,1,.25,1l-2.63,4.27A.77.77,0,0,1,41.68,114.2Z"/><path class="cls-3" d="M29,130.83a.71.71,0,0,1-.4-.11.77.77,0,0,1-.25-1.06L31,125.4a.77.77,0,0,1,1.31.8l-2.64,4.27A.74.74,0,0,1,29,130.83Z"/><path class="cls-3" d="M34.65,109.9a.71.71,0,0,1,0,.41.75.75,0,0,1-.9.6l-4.92-1a.77.77,0,1,1,.31-1.5l4.91,1A.75.75,0,0,1,34.65,109.9Z"/><path class="cls-3" d="M51.59,128.63a.76.76,0,0,1-.47-.16l-3.95-3.09a.77.77,0,1,1,.95-1.21l4,3.09a.77.77,0,0,1-.48,1.37Z"/><path class="cls-3" d="M37.47,136.89a.92.92,0,0,1-.26-.26.77.77,0,0,1,.29-1l4.34-2.5a.76.76,0,0,1,1,.28.77.77,0,0,1-.28,1l-4.35,2.5A.75.75,0,0,1,37.47,136.89Z"/><path class="cls-3" d="M105.92,120.32a.77.77,0,0,1-.48-.16l-3.94-3.09a.77.77,0,0,1,.94-1.21l4,3.09a.77.77,0,0,1-.47,1.37Z"/><path class="cls-3" d="M105.92,137a.77.77,0,0,1-.48-.16l-3.94-3.1a.75.75,0,0,1-.13-1.07.76.76,0,0,1,1.07-.14l4,3.1a.77.77,0,0,1-.47,1.37Z"/><path class="cls-3" d="M129,114.2a.71.71,0,0,1-.4-.11.77.77,0,0,1-.25-1.06l2.63-4.26a.77.77,0,0,1,1.31.8l-2.64,4.27A.76.76,0,0,1,129,114.2Z"/><path class="cls-3" d="M116.33,130.83a.76.76,0,0,1-.4-.11.77.77,0,0,1-.25-1.06l2.63-4.26a.77.77,0,0,1,1.31.8L117,130.47A.76.76,0,0,1,116.33,130.83Z"/><path class="cls-3" d="M143.25,137.89a.76.76,0,0,1-.4-.11.77.77,0,0,1-.25-1.06l2.63-4.27a.77.77,0,0,1,1.31.81l-2.63,4.27A.79.79,0,0,1,143.25,137.89Z"/><path class="cls-3" d="M122,109.9a.8.8,0,0,1,0,.41.77.77,0,0,1-.91.6l-4.91-1a.76.76,0,1,1,.3-1.5l4.92,1A.75.75,0,0,1,122,109.9Z"/><path class="cls-3" d="M138.9,125.46a.77.77,0,0,1-.48-.16l-3.94-3.09a.77.77,0,0,1,.94-1.21l4,3.09a.77.77,0,0,1-.47,1.37Z"/><path class="cls-3" d="M124.77,136.89a.78.78,0,0,1-.25-.26.77.77,0,0,1,.28-1l4.35-2.5a.76.76,0,0,1,1,.28.77.77,0,0,1-.29,1l-4.34,2.5A.77.77,0,0,1,124.77,136.89Z"/><path class="cls-3" d="M76.7,123.22a.71.71,0,0,1-.4-.11.77.77,0,0,1-.25-1.06l2.63-4.26a.77.77,0,0,1,1.31.8l-2.64,4.27A.74.74,0,0,1,76.7,123.22Z"/><path class="cls-3" d="M64.51,136.64a.72.72,0,0,1-.4-.12.75.75,0,0,1-.25-1.05l2.63-4.27a.77.77,0,0,1,1.31.81l-2.64,4.26A.75.75,0,0,1,64.51,136.64Z"/><path class="cls-3" d="M65.46,120.55a.85.85,0,0,1,0,.42.77.77,0,0,1-.91.6l-4.91-1a.76.76,0,0,1-.6-.9.77.77,0,0,1,.9-.61l4.92,1A.74.74,0,0,1,65.46,120.55Z"/><path class="cls-3" d="M94.3,125a.77.77,0,0,1-.48-.16l-3.94-3.1a.75.75,0,0,1-.13-1.07.75.75,0,0,1,1.07-.13l4,3.09A.77.77,0,0,1,94.3,125Z"/><path class="cls-3" d="M79.3,137.08a.81.81,0,0,1-.25-.27.75.75,0,0,1,.28-1l4.34-2.51a.77.77,0,0,1,1,.29.76.76,0,0,1-.28,1l-4.35,2.51A.77.77,0,0,1,79.3,137.08Z"/><polygon class="cls-4" points="76.85 93.46 76.85 93.47 76.76 93.47 76.85 93.46"/><polygon class="cls-4" points="76.76 93.47 76.67 93.47 76.67 93.46 76.76 93.47"/><path class="cls-5" d="M90.58,98.39s-3.85,7.22-14.64,7.22A17.25,17.25,0,0,1,61.14,98l.63-5.19.11-.87,1-8.18,25.78.72.43,3.11.14,1Z"/><path class="cls-6" d="M100.69,109.56c-6.41,8.26-20.33,3.81-24.85-2.23-4.52,6-18.43,10.49-24.85,2.23-6.18-8,10.56-14.88,10.56-14.88,1.71,7.7,11.1,10.17,14.29,10.77,3.19-.6,12.52-3.07,14.23-10.77C90.07,94.68,106.87,101.61,100.69,109.56Z"/><path class="cls-7" d="M89.09,87.62c-5.84,4.95-15.29,6.83-27.32,5.22l.11-.87,1-8.18,25.78.72Z"/><path class="cls-8" d="M53.2,62.51C47.44,70.56,35,65.12,35.87,54.44c.77-9.69,11.59-8.16,11.59-8.16Z"/><path class="cls-9" d="M47.22,66.69a3.59,3.59,0,1,1-3.59-3.58A3.58,3.58,0,0,1,47.22,66.69Z"/><path class="cls-10" d="M47.9,62.72a.78.78,0,0,1-.75-.59c-1.13-4.59-5.89-8.87-5.93-8.91a.77.77,0,0,1-.07-1.09.78.78,0,0,1,1.09-.06c.21.19,5.16,4.64,6.4,9.69a.77.77,0,0,1-.56.93A.57.57,0,0,1,47.9,62.72Z"/><path class="cls-10" d="M45.91,58.36a.67.67,0,0,1-.24,0,8.53,8.53,0,0,0-4.14-.27.77.77,0,0,1-.34-1.5,10,10,0,0,1,5,.31.77.77,0,0,1-.25,1.5Z"/><path class="cls-8" d="M95.9,62.51c5.76,8.05,18.18,2.61,17.33-8.07-.77-9.69-11.59-8.16-11.59-8.16Z"/><path class="cls-9" d="M109.37,66.69a3.59,3.59,0,1,1-3.59-3.58A3.58,3.58,0,0,1,109.37,66.69Z"/><path class="cls-10" d="M101.2,62.72a.57.57,0,0,1-.18,0,.76.76,0,0,1-.56-.93c1.23-5,6.19-9.5,6.4-9.69a.78.78,0,0,1,1.09.06.77.77,0,0,1-.07,1.09s-4.81,4.32-5.93,8.91A.78.78,0,0,1,101.2,62.72Z"/><path class="cls-10" d="M103.19,58.36a.77.77,0,0,1-.25-1.5,10,10,0,0,1,5-.31.77.77,0,0,1-.34,1.5h0a8.53,8.53,0,0,0-4.14.27A.67.67,0,0,1,103.19,58.36Z"/><path class="cls-5" d="M45.16,34.52S42.35,52,49.64,69.06c6.62,15.48,15.42,20.3,24.78,20.45,10.65.17,33-6,29.42-56.52C101.46-1.16,48,.05,45.16,34.52Z"/><path class="cls-1" d="M43.63,42.24s.56,10.81,5,10.41S51,27.87,51,27.87s4,5.9,11.3,5.26S63,23,63,23s6.74,9.36,12.9,9,0-11.93,0-11.93,8,13.08,13.84,12.7.88-11.29.88-11.29,4.61,12.06,9,12.95c0,0-1.11,17.76,3.6,17s3-20.61,1-26.63S91.92,3.64,72,5.56,44,18.51,43.63,42.24Z"/></g></g></svg>