<svg xmlns="http://www.w3.org/2000/svg" viewBox="0 0 2885.12 1493.6"><defs><style>.cls-1{fill:#edf4ff;}.cls-2{fill:#e58638;}.cls-3{fill:#f2d3b6;}.cls-4{fill:#ffe3ca;}.cls-5{fill:#efcdaf;}.cls-6{fill:#f9ddbf;}.cls-7{fill:#ed9f4a;}.cls-8{fill:#e0b794;}.cls-9{fill:#cea484;}.cls-10{fill:#82b378;}.cls-11{fill:#2c3a64;}.cls-12{fill:#2b478b;}.cls-13{fill:#233862;}.cls-14{fill:#223e77;}.cls-15{fill:#ffb27d;}.cls-16{fill:#ed985f;}.cls-17{fill:#fff;}.cls-18{fill:#d3671e;}.cls-19{fill:#35488b;}.cls-20{fill:#bc3f3f;}.cls-21{fill:#a02e2e;}.cls-22{fill:#d68c5b;}.cls-23{fill:#bc8d6d;}.cls-24{fill:#912f2f;}.cls-25{fill:#f99746;}.cls-26{fill:#ed7d2b;}.cls-27{fill:#ed975d;}.cls-28{fill:#2e3552;}</style></defs><g id="Layer_2" data-name="Layer 2"><g id="Layer_1-2" data-name="Layer 1"><path class="cls-1" d="M167.33,1489.62c.13.09,2603.37-.31,2603.37-.31C2850.92,1325,2893.24,1142.86,2848,964.8c-54.24-213.56-236.38-357-357.4-411.91-99.18-45.14-191.12-51-272.46-43.54-62.88,5.79-119.43,19.57-168.07,29.4-34.32,7-66.51,12.26-93.38,10.51-44.62-2.92-79.6-34.86-111.06-68.13-111.49-117.81-239.15-321.46-695-345.83-135.47-7.19-292.11,4.75-417.36,56.89C680,214.34,479.34,313.46,420.46,481.13c-18.6,52.92-23.06,112.66-4.31,179C482.51,894.75,381.48,924,255.06,1035.78,86.33,1185,32,1386.39,167.33,1489.62Z"/><polygon class="cls-2" points="836.93 600.4 836.93 927.95 279.23 927.95 299.23 600.4 836.93 600.4"/><rect class="cls-3" x="1883.2" y="535.44" width="639.28" height="958.16"/><rect class="cls-3" x="836.88" y="473.6" width="764.8" height="1017.61"/><rect class="cls-2" x="806.38" y="132.37" width="1093.29" height="496.32"/><polygon class="cls-3" points="1388.19 564.54 1962.97 21.1 2537.74 564.54 1388.19 564.54"/><path class="cls-2" d="M2584.31,618a21,21,0,0,1-14.35-5.62L1963,84.23c-193.34,176-417.91,345.58-424.66,350.07a21.11,21.11,0,0,1-24.4-34.43c13.91-11.51,267.21-241.73,434.85-394.38a21.15,21.15,0,0,1,28.56.12l621.34,575.74a21.11,21.11,0,0,1-14.35,36.6Z"/><rect class="cls-4" x="1219.28" y="473.6" width="764.8" height="1017.61"/><polygon class="cls-4" points="1219.28 473.6 1601.68 112.05 1984.08 473.6 1324.56 476.1 1219.28 473.6"/><path class="cls-5" d="M1712.32,593.5V790.42H1487.66V597.3a113.55,113.55,0,0,1,37-84.17,104.15,104.15,0,0,1,11.68-9.29,88.23,88.23,0,0,1,12.53-7.75,113.23,113.23,0,0,1,52.92-12.95,107.3,107.3,0,0,1,52.65,13.52,69.46,69.46,0,0,1,12.52,7.88,99.92,99.92,0,0,1,10.56,8.59A110,110,0,0,1,1712.32,593.5Z"/><path class="cls-6" d="M1716.05,563.94H1484.83l3.57-9.51a120.76,120.76,0,0,1,31.55-46.5,110.72,110.72,0,0,1,12.44-9.89,92.61,92.61,0,0,1,13.28-8.2,120.91,120.91,0,0,1,56.15-13.74,113.69,113.69,0,0,1,56.08,14.41,76,76,0,0,1,13.43,8.48,103.4,103.4,0,0,1,11,8.95,118.13,118.13,0,0,1,30.46,46.64Zm-210.36-14.07h190a105.24,105.24,0,0,0-23-31.63,90.17,90.17,0,0,0-9.73-7.92,64.06,64.06,0,0,0-11.59-7.33,100.19,100.19,0,0,0-49.57-12.81,106.76,106.76,0,0,0-49.64,12.14,78.36,78.36,0,0,0-11.56,7.15,97.39,97.39,0,0,0-11.16,8.83A107.33,107.33,0,0,0,1505.69,549.87Z"/><rect class="cls-5" x="1380.48" y="556.95" width="439.05" height="233.43"/><rect class="cls-6" x="1592.97" y="556.95" width="14.08" height="233.43"/><rect class="cls-6" x="1385.66" y="628.64" width="424.25" height="7.04"/><rect class="cls-6" x="1385.66" y="705.34" width="424.25" height="7.04"/><rect class="cls-6" x="1495.32" y="556.95" width="14.08" height="233.43"/><rect class="cls-6" x="1690.62" y="556.95" width="14.08" height="233.43"/><rect class="cls-6" x="1805.46" y="556.95" width="14.08" height="233.43"/><rect class="cls-6" x="1380.48" y="556.95" width="14.08" height="233.43"/><rect class="cls-6" x="1380.51" y="776.31" width="439.05" height="14.08"/><rect class="cls-6" x="1380.51" y="556.95" width="439.05" height="14.08"/><path class="cls-6" d="M1667,504.54l-66.29,70.24-64.33-70.94a88.23,88.23,0,0,1,12.53-7.75l51.94,57.3,53.63-56.73A69.46,69.46,0,0,1,1667,504.54Z"/><rect class="cls-5" x="1380.48" y="1025.26" width="439.05" height="233.43"/><rect class="cls-6" x="1592.97" y="1025.25" width="14.08" height="233.43"/><rect class="cls-6" x="1385.66" y="1096.94" width="424.25" height="7.04"/><rect class="cls-6" x="1385.66" y="1173.64" width="424.25" height="7.04"/><rect class="cls-6" x="1495.32" y="1025.25" width="14.08" height="233.43"/><rect class="cls-6" x="1690.62" y="1025.25" width="14.08" height="233.43"/><rect class="cls-6" x="1805.46" y="1025.25" width="14.08" height="233.43"/><rect class="cls-6" x="1380.48" y="1025.25" width="14.08" height="233.43"/><rect class="cls-6" x="1380.51" y="1244.62" width="439.05" height="14.08"/><rect class="cls-6" x="1380.51" y="1025.25" width="439.05" height="14.08"/><rect class="cls-5" x="941.4" y="1025.26" width="194.58" height="233.43"/><rect class="cls-6" x="1123.91" y="1025.25" width="12.09" height="233.43"/><rect class="cls-6" x="943.7" y="1096.94" width="188.02" height="7.04"/><rect class="cls-6" x="943.7" y="1173.64" width="188.02" height="7.04"/><rect class="cls-6" x="1031.67" y="1025.25" width="12.09" height="233.43"/><rect class="cls-6" x="941.4" y="1025.25" width="12.09" height="233.43"/><rect class="cls-6" x="941.41" y="1244.62" width="194.58" height="14.08"/><rect class="cls-6" x="941.41" y="1025.25" width="194.58" height="14.08"/><rect class="cls-5" x="941.4" y="690.97" width="194.58" height="233.43"/><rect class="cls-6" x="1123.91" y="690.97" width="12.09" height="233.43"/><rect class="cls-6" x="943.7" y="762.66" width="188.02" height="7.04"/><rect class="cls-6" x="943.7" y="839.36" width="188.02" height="7.04"/><rect class="cls-6" x="1031.67" y="690.97" width="12.09" height="233.43"/><rect class="cls-6" x="941.4" y="690.97" width="12.09" height="233.43"/><rect class="cls-6" x="941.41" y="910.33" width="194.58" height="14.08"/><rect class="cls-6" x="941.41" y="690.97" width="194.58" height="14.08"/><rect class="cls-5" x="2152.7" y="511.92" width="194.58" height="233.43"/><rect class="cls-6" x="2335.2" y="511.92" width="12.09" height="233.43"/><rect class="cls-6" x="2154.99" y="583.61" width="188.02" height="7.04"/><rect class="cls-6" x="2154.99" y="660.31" width="188.02" height="7.04"/><rect class="cls-6" x="2242.96" y="511.92" width="12.09" height="233.43"/><rect class="cls-6" x="2152.7" y="511.92" width="12.09" height="233.43"/><rect class="cls-6" x="2152.71" y="731.28" width="194.58" height="14.08"/><rect class="cls-6" x="2152.71" y="511.92" width="194.58" height="14.08"/><path class="cls-7" d="M1165.34,528.79a21.11,21.11,0,0,1-12.72-38c13.93-11.5,267.21-241.72,434.85-394.38a21.15,21.15,0,0,1,28.56.13l427,395.63a21.12,21.12,0,1,1-28.7,31L1597,184.52c-181.12,155.63-413.22,336.23-420,340.73A21,21,0,0,1,1165.34,528.79Z"/><rect class="cls-4" x="310.44" y="928" width="526.44" height="559.39"/><rect class="cls-2" x="1984.13" y="785.08" width="565.01" height="224.65"/><path class="cls-8" d="M2212.87,1086h9.22a96.73,96.73,0,0,1,96.73,96.73v248.68a0,0,0,0,1,0,0H2115a0,0,0,0,1,0,0V1183.84A97.86,97.86,0,0,1,2212.87,1086Z"/><path class="cls-9" d="M2299.45,1189.91v4.5H2134.33v-3.66a79.24,79.24,0,0,1,79.25-79.25H2221A78.34,78.34,0,0,1,2299.45,1189.91Z"/><rect class="cls-9" x="2134.33" y="1219.99" width="165.11" height="66.36"/><rect class="cls-9" x="2134.33" y="1308.26" width="165.11" height="108.46"/><rect class="cls-8" x="2064.28" y="1427.61" width="305.27" height="21.99"/><rect class="cls-8" x="2038.45" y="1449.61" width="356.93" height="21.99"/><rect class="cls-8" x="2017.24" y="1471.6" width="399.36" height="21.99"/><rect class="cls-5" x="454.46" y="1030.74" width="266.02" height="319.13"/><rect class="cls-6" x="703.97" y="1030.73" width="16.53" height="319.13"/><rect class="cls-6" x="457.6" y="1128.74" width="257.05" height="9.62"/><rect class="cls-6" x="457.6" y="1233.6" width="257.05" height="9.62"/><rect class="cls-6" x="577.87" y="1030.73" width="16.53" height="319.13"/><rect class="cls-6" x="454.46" y="1030.73" width="16.53" height="319.13"/><rect class="cls-6" x="454.48" y="1330.63" width="266.02" height="19.24"/><rect class="cls-6" x="454.48" y="1030.73" width="266.02" height="19.24"/><polygon class="cls-7" points="657.46 927.95 219.23 927.95 299.23 600.4 511.91 600.4 657.46 927.95"/><path class="cls-7" d="M1104.09,628.69H806.38V132.37H918.29C950.24,220.77,1048.21,480.75,1104.09,628.69Z"/><polygon class="cls-7" points="2549.14 785.08 2549.14 1009.73 2175.28 1009.73 2323.64 785.08 2549.14 785.08"/><path class="cls-3" d="M1134.11,104.11h37.78A10.88,10.88,0,0,1,1182.78,115V239.15a0,0,0,0,1,0,0H1123a0,0,0,0,1,0,0V115.2A11.09,11.09,0,0,1,1134.11,104.11Z"/><polygon class="cls-2" points="1109.02 91.38 1196.11 91.38 1152.9 50.19 1109.02 91.38"/><polygon class="cls-2" points="1134.52 104.12 1130.64 104.12 1130.05 90.21 1135.36 90.21 1134.52 104.12"/><polygon class="cls-2" points="1174.44 104.12 1170.56 104.12 1169.97 90.21 1175.29 90.21 1174.44 104.12"/><path class="cls-10" d="M2674.55,1485.94H2601.7c-3.91-3.31,2.7-10.83,9.6-11.33,3-.23,6.79.4,11.12,1.31,1-13.31,6.73-73.17,28.3-70.77,24.26,2.7,0,26.36-6.85,40.38-5.09,10.37-10.45,25.26-12.89,32.28,2,.43,4,.85,6.09,1.23,3.21-9.87,15.18-43.08,30.39-41.15,17.87,2.27,10.69,15.58-2,23.49-9.28,5.81-20.69,14.07-26.11,18.06a76.74,76.74,0,0,0,14.25,1.14C2666.09,1480.29,2672.19,1484,2674.55,1485.94Z"/><path class="cls-10" d="M837,1293.44v194.22l-458.89.13s14.67-52.07,72.48-80.53a135.29,135.29,0,0,1,17.86-7.52A187.72,187.72,0,0,1,493,1393.1a.48.48,0,0,0,.39-.13,83.11,83.11,0,0,0,11.48-3.06c81.67-27.44,85.37-154.41,319.8-99.54Q831,1291.9,837,1293.44Z"/><path class="cls-10" d="M484.86,1419.75s-68.78-91.37-99.58-66.73S484.86,1419.75,484.86,1419.75Z"/><path class="cls-10" d="M505.39,1410.51c0-4.11,1-88.29-27.71-82.13S505.39,1410.51,505.39,1410.51Z"/><path class="cls-11" d="M577.23,500.29c-.44-2.4-6.08-28.13-45.88-23.74,0,0,19.81-.51,24.42,7.57,0,0-14.79-8.66-25.1-3.69s-13.9,24.81-13.06,31,9.75,25.42,16.85,26.13a21.21,21.21,0,0,0,8.3-1.19,94.59,94.59,0,0,0-3.94,10.26c-11.09,34.73,9.81,64.07,22.67,58.63,8.26-3.5,12.81,10.79,12.81,10.79l73.56-79.58S608.05,477.61,577.23,500.29Z"/><path class="cls-12" d="M673.06,1458.72l-17.89,6.66s-77.71-107.77-87.28-202.59c-1.7-16.93-1.13-33.33,2.56-48.48,0,0-.76-4.34-2.09-12-.61-3.58-1.37-7.88-2.23-12.82-2.53-14.48-6-34.28-10-56.83-9.14-51.9-21-118.24-30.19-167l4.82-1.55,52.16-16.82L593.72,913l38.84-10.22s8.67,17,16.43,97.14c1.43,10.52,2.73,22.11,3.71,34.69a686.67,686.67,0,0,1-3.7,140.44q-2.67,20.89-6.82,43.1c-2,10.84-2.35,25.6-1.49,42.56C644.61,1338.26,673.06,1458.72,673.06,1458.72Z"/><path class="cls-13" d="M652.7,1034.64,568.36,1202.3c-.61-3.58-1.37-7.88-2.23-12.82-2.53-14.48-6-34.28-10-56.83-9.14-51.9-21-118.24-30.19-167l4.82-1.55,52.16-16.82L593.72,913l38.84-10.22s8.67,17,16.43,97.14C650.42,1010.47,651.72,1022.06,652.7,1034.64Z"/><path class="cls-12" d="M615.6,924.32l-.09.4c-.27,1.11-1.09,4.5-2.28,9.35-5.6,23.08-19.3,79.09-20.13,79-7.52,52.53-18.83,120.59-32.87,172.9-7.43,27.67-15.62,50.93-24.44,65.17-3,4.89-6.33,13.07-9.77,23.47-20.29,61.35-45.26,200.22-45.26,200.22l-11.39,4.59s-43.88-124.79-5.85-226.11a192.62,192.62,0,0,1,14.3-30.08,5.89,5.89,0,0,0,.95-3.62.11.11,0,0,0,0-.05c-.5-4.21-1.73-14.78-3.13-29.63-3.88-41-7.58-179.46-9.61-212a173.51,173.51,0,0,1,.94-33.09c2.44-19,7.92-33.25,13.27-43.21,6.76-12.57,13.32-18.32,13.32-18.32s87.39,33,120.1,24.27Z"/><path class="cls-14" d="M615.5,932.6a24.68,24.68,0,0,1-2.27,1.47C583.1,951.69,477.37,945.5,467,944.84c2.44-19,7.92-33.25,13.27-43.21,45.23,4,120.18,12.15,135.28,23.09C618.94,927.21,619.28,929.84,615.5,932.6Z"/><path class="cls-15" d="M784.17,896.88l-5.3,15.69s-1.07-.19-2.91-.66c-5.79-1.46-19.9-4.83-35.71-9.47-23.82-6.77-51.83-16.22-62-25.34-15.53-13.81-38.3-51.62-51.07-87.63a22.12,22.12,0,0,1-.9-2.63c-6.6-19.08-10.3-37.49-8.36-51.31a69.88,69.88,0,0,1,6.21-21.44,56.62,56.62,0,0,1,13.41-18,10.43,10.43,0,0,1,2.27-1.93C647.56,687.77,653,683.4,653,683.4c3.44-.76,8,3.77,10.89,8.28,0,0,4.71,9,6.72,15.38.11.16.22.32.2.45.45,1.32.87,2.77,1.41,4.38a3.26,3.26,0,0,1,.36,1c.92,3.33,1.8,6.79,2.67,10.39,10,38.66,17.66,95.9,29.28,114.64,5,8.06,31.21,26.81,52.17,41C771.81,889.15,784.17,896.88,784.17,896.88Z"/><path class="cls-15" d="M644,721.13c-9.47,6.18-21.28,11.17-36,14.14-55.21,11.12-74.92-35.83-81.92-67.87a47.35,47.35,0,0,1,18.75-5.19c4-.35,8.15-.54,11.61-.62,6.29-4.54,16-23.59,18.89-53.51l2.56.76,42.89,13s-2.36,13.69-3.7,26.65c-1,10.14-1.43,19.85.43,22.28,3.35.83,5.36,1.36,5.36,1.36a.1.1,0,0,0,0,.05A276.86,276.86,0,0,1,644,721.13Z"/><path class="cls-12" d="M663.21,755.62c-.26,1.17-.56,2.32-.9,3.51-9.69,32.4-17.53,161.93-17.53,161.93,7,22.07-170.55,20.22-174-.3-9.28-20.94,13.44-60,26.57-79.91A51.15,51.15,0,0,0,501.6,833a50,50,0,0,0,4.1-21.79c-1.16-29.63-6.3-56.81-8.45-73.47h0c2.73-2.72,5.39-5.24,7.86-7.64a78.47,78.47,0,0,0,9.41-10.43c2.56-3.62,4-7.14,3.67-10.84a55.2,55.2,0,0,0-1.45-8.44c-.32-1.33-.69-2.65-1.09-4a116.23,116.23,0,0,0-12-25.76c14.05-8.21,41.13-8.47,41.13-8.47s.18,1.48.52,3.9c1.32,9.71,5,34.6,8.81,38.86,4.74,5.31,79.6,20.7,82.21,12.19s-12.9-43.6-13.48-44.93a.1.1,0,0,1,0-.05c25.18,5.9,34.83,12.51,34.83,12.51C644.68,696.08,670,724.56,663.21,755.62Z"/><path class="cls-16" d="M620.77,621.9s-2.38,13.68-3.71,26.65c-24.42-3.14-35.13-26.78-39.19-39.7Z"/><path class="cls-15" d="M627.72,635s-58.05-4.85-54.47-41-1.51-61,35.7-59.47,43,16.06,44.77,28.4S642.9,635.34,627.72,635Z"/><path class="cls-11" d="M654,542.75c-7.87-11.76-14.87-10-19-7.17-29.93-20.58-65.78-1.06-65.78-1.06a322.39,322.39,0,0,1-13.77,42.66s9.91,7.58,34.89,3.75c7.63-1.16,14.79-5.79,21.08-11.63a136,136,0,0,1-26.11,26.09c30.43-10.54,46.16-49.82,47.75-54,3.22,3.53,9.5,11.13,10.95,18.11,2,9.48,1.37,28.53,7,28.44C651,588,665.81,560.37,654,542.75Z"/><path class="cls-13" d="M591.9,885.59c-34.3,4.61-68.45-26.74-90.3-52.58a50,50,0,0,0,4.1-21.79c-1.16-29.63-6.3-56.81-8.45-73.47h0c2.73-2.72,5.39-5.24,7.86-7.64a78.47,78.47,0,0,0,9.41-10.43C549.44,763,638.4,879.35,591.9,885.59Z"/><path class="cls-15" d="M711.55,897.34l6.07,20.59s-15.31-3.48-24.91-4.42c-2.88-.29-4.53-.55-4.53-.55-7.69-.83-16.9-2.07-26.93-3.37h-.14c-17.21-2.58-36.51-5.8-52.9-9.82-11.53-2.93-21.61-6.27-28.58-9.88a14.6,14.6,0,0,1-2-1.19c-16.78-10.09-38.45-42.18-56.16-77.06-2.46-4.82-4.78-9.65-7.09-14.34a370.76,370.76,0,0,1-19.82-49.92,144.58,144.58,0,0,1-5.77-24.1,63.12,63.12,0,0,1-.73-6.87c-.1-1.24-.17-2.46-.23-3.65,6.78-5.93,22.42-17,43.75-15.87.45.76.89,1.53,1.33,2.31,9.2,16.73,19.24,38.56,28.74,60.29C566.9,771.41,572,783.34,577,794.32c2.89,6.68,5.75,12.95,8.42,18.7,5.17,11,9.74,19.81,13.61,25.32,2.49,3.59,9.15,8.31,17.9,13.53,15.19,9.15,37.19,19.87,56.28,28.54,7.93,3.66,15.42,7,21.64,9.68C704.93,894.52,711.55,897.34,711.55,897.34Z"/><path class="cls-12" d="M532.87,699.27c-26.59-4.9-44.86,17.11-44.86,17.11-3.07-39.08,15.91-46.11,15.91-46.11C511.46,666.35,521.7,679.11,532.87,699.27Z"/><path class="cls-13" d="M535.58,1488.76H445.47S443.31,1475,448,1464.6c4.51-10,11.57-14.54,9.88-26.63,5.72,5.89,15.06,12.49,28.08,10.74,1.6,2.59,10.31,16.44,15.64,20.27C507.51,1473.21,533.76,1471.7,535.58,1488.76Z"/><path class="cls-13" d="M729.05,1488.76H638.94s-3.37-14.37,2.55-24.16c5.23-8.65,3.23-13.58-.65-20.74a35,35,0,0,0,15.17,2.86c4.49-.26,9.24-2.29,13.4-4.71,3.88,4.42,20.49,23.24,25.68,27C701,1473.21,727.23,1471.7,729.05,1488.76Z"/><path class="cls-17" d="M613.87,614.13s.81,4.78,12.57,4.79c0,0,9.88,0,9.9-5.18C636.34,613.74,627,609.45,613.87,614.13Z"/><path class="cls-16" d="M917.29,765.74c-3.81-1.47-8.5,14.65-11.43,15.23s-1.76-4.39-4.38-5.17-3.82,13.08-1.77,18.42a33.36,33.36,0,0,1,1.76,11.69S884,873.24,880.29,880.78s-65.21,62.35-65.21,62.35l13.52,43.66S901,919.9,907.15,904.18s9-96.48,9-96.48,5.42-11.64,6.59-23.36S921.1,767.2,917.29,765.74Z"/><path class="cls-16" d="M729.4,938.28S686.8,883.13,666.07,866c0,0-28.35-69.92-30.66-74.53a2,2,0,0,0-.41-.55,36.92,36.92,0,0,1-.21-12.85c1.25-6.31-2.76-21.45-5.52-20.08s-.49,6.66-3.85,6.58-11.66-17.05-15.6-14.69-6,8.9-2.41,21.66c3,10.63,9.16,20.62,11.16,23.67l-.18.1s10.41,68,21.4,88.12,45,87.76,69.08,90.27S729.4,938.28,729.4,938.28Z"/><path class="cls-18" d="M858,1457.22s4.81,9.39,15.47,11.71a26.68,26.68,0,0,1,16,9.86,6.26,6.26,0,0,1-5,10H830.41a7.79,7.79,0,0,1-7.75-8.57c.41-4,.83-8.67,1-12.25.4-7.82,8.23-14.11,8.23-14.11Z"/><path class="cls-19" d="M859.34,1459.58s-13,7.67-35,3c0,0-37.35-95.5-39.56-140.44-.1-1.81-.13-3.53-.1-5.16.75-42.27-38.27-152.34-27.75-174.89s95.59,10.14,95.59,10.14l1.69,76.69Z"/><path class="cls-11" d="M854.26,1229l-69.43,93.22c-.1-1.81-.13-3.53-.1-5.16.75-42.27-38.27-152.34-27.75-174.89s95.59,10.14,95.59,10.14Z"/><path class="cls-18" d="M718.32,1457.22s4.81,9.39,15.47,11.71c6.72,1.46,12.47,5,16,9.86a6.26,6.26,0,0,1-5,10H690.69a7.79,7.79,0,0,1-7.75-8.57c.41-4,.83-8.67,1-12.25.4-7.82,8.23-14.11,8.23-14.11Z"/><path class="cls-19" d="M802.82,1154.09s-75.18,280.53-77.48,308c0,0-14.66,7.52-38.46-5.76,0,0-13.82-125.74,0-160.1s-2.75-138.22,32.41-161.65S802.82,1154.09,802.82,1154.09Z"/><path class="cls-16" d="M811.79,931.77l-46.15,23.59-9.25-32s5.88-11.08,8.54-29.24a122,122,0,0,0,1-26.35L803.49,887a70.84,70.84,0,0,0-1.5,8.61,62.47,62.47,0,0,0,.65,20.12C804,921.83,806.73,927.65,811.79,931.77Z"/><path class="cls-20" d="M850.15,972.43c.25-3.84,23.36-19.45,23.36-19.45,4.87-29.18-13.7-50.19-13.7-50.19L832,922.59c-5.38.32-7.68,2.28-7.68,2.28-4.61-1.25-18.35-.15-18.35-.15.2,6.63-1.56,12.84-13.21,14.36-15.49,2-29.34-8.55-36.35-15.74a58.75,58.75,0,0,0-21.16,3,31.64,31.64,0,0,0-11.77-3.09l-22.79-20.48s-26.69,7.71-30.9,47.93c0,0,30,22.8,32.13,40.82h0l.82,6.83,2.91,24.19,5.11,42.42-15.22,84.51a12.79,12.79,0,0,0-.2,2.21,12.45,12.45,0,0,0,9.54,12.09s1.3.22,3.71.55c16.14,2.27,81.62,10.08,133-3.86a25,25,0,0,0,18.2-26.09L848.86,998.07h0S849.89,976.27,850.15,972.43Z"/><path class="cls-21" d="M729.35,1100.54c-1,29.48-3.9,54.47-20.78,63.8-2.41-.33-3.71-.55-3.71-.55a12.45,12.45,0,0,1-9.54-12.09,12.79,12.79,0,0,1,.2-2.21L710.74,1065l-5.11-42.42.37-1.14S730.64,1062.79,729.35,1100.54Z"/><path class="cls-22" d="M802.64,915.73c-21.38-.57-37.71-21.63-37.71-21.63L802,895.61A62.47,62.47,0,0,0,802.64,915.73Z"/><path class="cls-16" d="M813,903.82s-42.65,11.26-57.37-22.66c-15.87-36.6,1.55-63.27,16-65.07,28.89-3.59,45.66,7.42,50.74,19.07S836.55,897.82,813,903.82Z"/><path class="cls-17" d="M796.1,884.72s1.79,4.4,13,1.93c0,0,9.45-2.07,8.38-7C817.52,879.61,807.71,877.48,796.1,884.72Z"/><path class="cls-11" d="M763.26,893s-5-14.68-4.41-22.52c0,0-11.13-14.19-4.64-17.7s10,4.88,11.47,3.23,3.81-29.54,11.68-28.65,37,9.91,49.79-1.11-18.21-54.06-70.73-37.43S714.62,863.87,763.26,893Z"/><path class="cls-11" d="M730.51,811.75s-2.38-7.1.17-12.17c0,0,.13,7,2.87,10.09S730.51,811.75,730.51,811.75Z"/><path class="cls-11" d="M731.6,806.79s-6.5-.74-9.57,4.26a8.36,8.36,0,0,1,9.21.18Z"/><path class="cls-15" d="M711.55,897.34s26.45,5.44,28.78,8.27,19,22.51,11.34,24.84-20.7-6.67-24.85-8.67-9.2-3.85-9.2-3.85Z"/><rect class="cls-20" x="2506.06" y="1151.58" width="271.38" height="159.77"/><rect class="cls-9" x="2404.48" y="1106.81" width="421.75" height="28.72"/><rect class="cls-9" x="2440.46" y="1135.53" width="36.9" height="349.42"/><polygon class="cls-23" points="2477.36 1156.47 2440.46 1178.61 2440.46 1135.53 2477.36 1135.53 2477.36 1156.47"/><rect class="cls-23" x="2518.49" y="1129.15" width="7.98" height="32.51"/><rect class="cls-23" x="2755.03" y="1129.15" width="7.98" height="32.51"/><path class="cls-17" d="M2575.85,1207.55a23.44,23.44,0,0,1,7.84,1.2,19.41,19.41,0,0,1,5.65,3,13,13,0,0,1,3.42,4,10.11,10.11,0,0,1,1.3,4.09,1.49,1.49,0,0,1-.5,1.29,1.88,1.88,0,0,1-1.3.5h-4.65a2.73,2.73,0,0,1-1.69-.43,4.36,4.36,0,0,1-1-1.16,8.67,8.67,0,0,0-3-2.89,11.8,11.8,0,0,0-6-1.23,14.53,14.53,0,0,0-3.28.36,9.6,9.6,0,0,0-2.73,1.07A5.6,5.6,0,0,0,2568,1219a3.93,3.93,0,0,0-.67,2.26,4.46,4.46,0,0,0,.63,2.49,4.93,4.93,0,0,0,2.13,1.66,21.43,21.43,0,0,0,3.95,1.3q2.46.6,6.11,1.39a42.93,42.93,0,0,1,6.88,2,15.74,15.74,0,0,1,4.71,2.79,10.36,10.36,0,0,1,2.73,3.75,12.34,12.34,0,0,1,.89,4.85,12,12,0,0,1-1.32,5.55,12.85,12.85,0,0,1-3.79,4.38,19.12,19.12,0,0,1-6.05,2.89,29.92,29.92,0,0,1-15.14.17,21.12,21.12,0,0,1-6-2.59,14.35,14.35,0,0,1-4.22-4.09,10.69,10.69,0,0,1-1.79-5.31,1.47,1.47,0,0,1,.49-1.3,1.93,1.93,0,0,1,1.3-.5h4.65a3.18,3.18,0,0,1,1.73.4,3.08,3.08,0,0,1,1,1.2,13,13,0,0,0,1.13,1.72,6,6,0,0,0,1.8,1.53,10.63,10.63,0,0,0,2.82,1.1,17.29,17.29,0,0,0,4.22.43,24.12,24.12,0,0,0,3.85-.3,11,11,0,0,0,3.25-1,6.9,6.9,0,0,0,2.26-1.72,3.84,3.84,0,0,0,.87-2.56,3.24,3.24,0,0,0-.93-2.39,7.53,7.53,0,0,0-2.83-1.6,40,40,0,0,0-4.68-1.26c-1.86-.4-4-.9-6.44-1.53a34.32,34.32,0,0,1-5.82-1.89,13.63,13.63,0,0,1-4.11-2.69,10,10,0,0,1-2.43-3.75,14.94,14.94,0,0,1-.8-5.15,11.71,11.71,0,0,1,1.33-5.51,13.08,13.08,0,0,1,3.66-4.32,17.63,17.63,0,0,1,5.54-2.82A22.57,22.57,0,0,1,2575.85,1207.55Z"/><path class="cls-17" d="M2601.36,1225.56a23.69,23.69,0,0,1,1.43-7,16,16,0,0,1,3.62-5.71,17.35,17.35,0,0,1,6-3.86,23,23,0,0,1,8.5-1.43,23.25,23.25,0,0,1,8.44,1.4,16.26,16.26,0,0,1,9.63,9.57,22.56,22.56,0,0,1,1.46,7c0,.84.08,1.77.1,2.79s0,2.07,0,3.15,0,2.14,0,3.16-.05,1.95-.1,2.79a23.44,23.44,0,0,1-1.43,7,16,16,0,0,1-3.62,5.71,16.62,16.62,0,0,1-6,3.82,26.59,26.59,0,0,1-17,0,16.84,16.84,0,0,1-6-3.82,16.12,16.12,0,0,1-3.62-5.71,23.75,23.75,0,0,1-1.43-7c0-.84-.07-1.77-.1-2.79s0-2.07,0-3.16,0-2.13,0-3.15S2601.32,1226.4,2601.36,1225.56Zm30.09.33a10.43,10.43,0,0,0-3.08-7.41,10.57,10.57,0,0,0-18,7.41c-.09,1.68-.13,3.55-.13,5.61s0,3.93.13,5.62a10.36,10.36,0,0,0,3.09,7.37,12.08,12.08,0,0,0,14.95,0,10.32,10.32,0,0,0,3.08-7.37c.09-1.69.14-3.56.14-5.62S2631.54,1227.57,2631.45,1225.89Z"/><path class="cls-17" d="M2680.08,1246.42a1.81,1.81,0,0,1,1.79,1.79v4.72a1.81,1.81,0,0,1-1.79,1.79H2651a1.81,1.81,0,0,1-1.79-1.79V1210a1.81,1.81,0,0,1,1.79-1.79h5.39a1.81,1.81,0,0,1,1.79,1.79v36.41Z"/><path class="cls-17" d="M2706.45,1208.22a25.49,25.49,0,0,1,8.54,1.29,16.37,16.37,0,0,1,6,3.69,16,16,0,0,1,3.72,5.78,25.24,25.24,0,0,1,1.56,7.57,89.72,89.72,0,0,1,0,9.84,25.24,25.24,0,0,1-1.56,7.57,16.31,16.31,0,0,1-3.68,5.78,16.08,16.08,0,0,1-6,3.68,24.19,24.19,0,0,1-8.34,1.3H2690a1.81,1.81,0,0,1-1.79-1.79V1210a1.81,1.81,0,0,1,1.79-1.79Zm10.9,18.33a13.61,13.61,0,0,0-.83-4,9.18,9.18,0,0,0-2.06-3.19,9.5,9.5,0,0,0-3.42-2.12,14.2,14.2,0,0,0-4.92-.77h-8.9v29.9h9.23a13.15,13.15,0,0,0,4.72-.77,9.32,9.32,0,0,0,3.32-2.09,8.89,8.89,0,0,0,2-3.19,14,14,0,0,0,.83-4A95,95,0,0,0,2717.35,1226.55Z"/><path class="cls-10" d="M1152.17,1485.45s32.85-70,106.77-70.92,114.7-87.18,183.62-83.07,77.14,71.69,126.42,83.07,184.79-13.12,193,75.1Z"/><path class="cls-10" d="M1311.29,1414.53c0-.94-53.38-99.78-72.89-83.21S1311.29,1414.53,1311.29,1414.53Z"/><path class="cls-10" d="M1291.79,1417.7s-47.74-29.26-70.33-22.08S1291.79,1417.7,1291.79,1417.7Z"/><path class="cls-10" d="M1408.31,1357.64c.51-3.08-1-80.59-26.69-70.84S1408.31,1357.64,1408.31,1357.64Z"/><path class="cls-10" d="M1423.71,1343.26c1-1.54,16.42-43.11,5.13-43.11s-4.1,41.57-4.1,41.57Z"/><path class="cls-16" d="M1647.26,912.86c-.61-.2-1.23-.41-1.87-.64-3.17-1.13-9.59-9.43-9.59-9.43l-12.11,13.06,8.31,8.78c4.75,11.1,4.83,11.31,19.17,13.47,12.43,1.87,10.41,9.78,19.06,12S1677.7,940,1677.7,940c-3.34-19.38-7-21.92-15.32-23.64,2.76-1,4.61-2.44,4-4.27-.51-1.6-4.78.15-13.26-.91C1651.89,911,1649.45,911.91,1647.26,912.86Z"/><path class="cls-24" d="M1637.75,920a92.64,92.64,0,0,0,6.74-20.05s-81.64-53.68-88.8-59.67-81.38-115.09-81.38-115.09l-87,7s116,133.89,134.44,148.7c30.47,24.48,106.58,51,106.58,51A38.79,38.79,0,0,0,1637.75,920Z"/><path class="cls-13" d="M1577.5,1488.68h-89.37c-4.3-5.25-2.72-24.6-2.07-30.92.14-1.28.23-2,.23-2s30.52-24.41,34.71-5.72c.13.59.29,1.16.45,1.73,5.29,17.48,29,25.43,42.66,27.64C1573,1480.83,1576.29,1485.46,1577.5,1488.68Z"/><path class="cls-13" d="M1459.2,1488.68h-89.38c-4.29-5.25-2.71-24.6-2.06-30.92.13-1.28.23-2,.23-2s30.52-24.41,34.71-5.72c.13.59.28,1.16.45,1.73,5.28,17.48,29,25.43,42.66,27.64C1454.7,1480.83,1458,1485.46,1459.2,1488.68Z"/><path class="cls-12" d="M1540.26,991.71s0,54.48.17,125.4c.23,94.7-6.34,210.39-7.22,232.36-1.53,38.15-7.64,99.17-7.64,99.17s-14.48,14.5-43.48,8.39c0,0-25.84-87.11-33.22-179.29-.11-1.51-.23-3-.34-4.55-6.87-93.83-17.55-291.42-17.55-291.42Z"/><path class="cls-13" d="M1540.26,991.71s0,52.41.17,125.4l-83.86,223.8c-.11-1.51-7.93-66.2-8-67.72-6.87-93.83-17.55-291.42-17.55-291.42Z"/><path class="cls-12" d="M1496.4,973.14s-11.28,150.12-27.19,275.62c-20.26,109.51-56.14,210.29-56.14,210.29s-43.59,4.13-48.33-3.58c0,0-8.71-136.15,11.06-207.54,8.91-32.21-5.7-119.62-8.87-166-4.1-60.05,8.93-114.34,8.93-114.34Z"/><path class="cls-16" d="M1493.61,691.37c-32.64,10.3-89.12-17.5-89.12-17.5s30.09-22.58,28.52-69.55l25.24,20.34,17.14,13.82a205.62,205.62,0,0,1-1.94,22.41c-.5,3.76-1.11,7.94-1.89,12.52A78.14,78.14,0,0,1,1493.61,691.37Z"/><path class="cls-22" d="M1475.39,638.48a205.62,205.62,0,0,1-1.94,22.41c-19-3.26-40.55-34-40.55-34,9.67-2.79,18.14-3.29,25.35-2.27Z"/><path class="cls-16" d="M1485.37,637.7s-53.91,9-59-24.7-15.43-55.18,18.79-62.33,42.84,4.7,47.27,15.53S1499.27,634.5,1485.37,637.7Z"/><path class="cls-20" d="M1542.15,994.52a5.25,5.25,0,0,1-3.43,1.31c-12.26-.17-51,6.71-81.23,3.61-25.5-2.45-48.07-10-72.3-20.87-3.22-1.44-10.63-5.39-10.46-9,.11-3.94.5-9.65,1-16.85,1.71-25,4.7-68,1.79-117.68-.53-9.24-.8-18.41-.83-27.44-.25-67.28,13.09-126.45,39.89-146.48,2.29-1.64,16.35,5.23,29.27,11.6,11.93,5.89,23.86,6.54,35.14,4.25l11.27,10C1506,699.7,1521,717,1527.56,743.35c5.56,22.39,8.83,62.77,10.63,104.61.81,19,1.47,38.09,1.64,56.24v.65c.16,1.8.16,3.76.16,5.56C1540.64,957,1543,993.86,1542.15,994.52Z"/><path class="cls-13" d="M1426.35,609.76s5.53-.93,4.64-8.55-.88-17.58,5.32-15.73,6.5,6.82,9,3.92,2.59-15.1,21-15.95,25.93,5.57,34.51,1.8,9-16.75,9-16.75-2.43,4.64-6.12,6.11c0,0,14.31-19.56-2.25-33s-33.45-4.63-43-4c-21.11,1.28-34.75,2.54-41.65,16.42S1412.8,596.4,1426.35,609.76Z"/><path class="cls-13" d="M1912.23,1024.71l13.11-1.87h0c.9-.22,1.82-.4,2.77-.54l23.9-3.4-1.6-11.22a9.52,9.52,0,0,1,8.07-10.75l6.23-.89,25.1-3.58,4.53-.64a9.5,9.5,0,0,1,10.74,8.07l1.6,11.22,41.26-5.88a28.9,28.9,0,0,1,32.58,24.45l7.49,52.63a28.87,28.87,0,0,1-24.44,32.57L1943.77,1132a28.48,28.48,0,0,1-6.24.2l-9.79,1.39a28.78,28.78,0,0,1-32.46-24.36l-7.41-52A28.77,28.77,0,0,1,1912.23,1024.71Zm87-24a3.57,3.57,0,0,0-3-3,3.48,3.48,0,0,0-1.07,0l-5.33.75-19.75,2.82-10.77,1.54a3.54,3.54,0,0,0-3,4l1.6,11.22,42.88-6.11Z"/><path class="cls-24" d="M1375.8,952.81c1.71-25,4.7-68,1.79-117.68-.53-9.24-.8-18.41-.84-27.44,11.17-27.09,20.3-46.73,20.3-46.73h28.14S1445.83,901.91,1375.8,952.81Z"/><path class="cls-16" d="M1316.23,971.38c0-.64.07-1.3.12-2,.25-3.36,6.55-11.75,6.55-11.75l-15.8-8.21-6.26,10.35c-9.45,7.52-9.63,7.65-7.9,22.05,1.49,12.48-6.68,12.63-6.48,21.55s11.68,4.53,11.68,4.53c17.8-8.36,19.27-12.56,18.72-21,1.69,2.4,3.58,3.79,5.19,2.75,1.41-.92-1.41-4.57-2.64-13C1319.23,975.35,1317.73,973.24,1316.23,971.38Z"/><path class="cls-20" d="M1306.87,964.09a92.1,92.1,0,0,0,21.12,1.18s30.09-93,34-101.45,89.37-109,89.37-109l-35.62-89.15s-92.48,154.49-101.87,176.2c-15.52,35.87-20.9,116.29-20.9,116.29A38.71,38.71,0,0,0,1306.87,964.09Z"/><path class="cls-15" d="M1966.19,978.2c.08-.64.15-1.29.21-2,.31-3.35-4.51-12.68-4.51-12.68l16.95-5.46,4.45,11.25c8.07,9,8.35,10.85,9.49,23.41s-1.25,10.69-4.78,12.14a61.07,61.07,0,0,1-11.61,3.39,19.55,19.55,0,0,1-10.74-.89c-4.47-1.74-5-4.09-4.45-7.25a2.8,2.8,0,0,0-3-3.21,1.31,1.31,0,0,1-.93-.37c-1.24-1.14,2.27-5.6,4.89-13.73C1962.57,981.62,1964.4,979.78,1966.19,978.2Z"/><path class="cls-13" d="M1976.63,972.57a92.22,92.22,0,0,1-21-2.36s-14.2-96.66-16.61-105.68-70-122.35-70-122.35l61.46-48.52s54,134.27,59.63,157.24c9.33,38,1.26,118.15,1.26,118.15A38.89,38.89,0,0,1,1976.63,972.57Z"/><path class="cls-13" d="M1998.7,1488.68h39.08c4.92-2.67,9.31-8.79,10.69-17.91,1.91-12.59,16-19.46,19.08-29.76s-12.6-24.78-12.6-24.78l-2.61-3.38-2.72-3.5-25.94,6.11s-.64,6.18-1,14a176.84,176.84,0,0,0-.12,18c.77,13.73-3.84,28.52-16,31.2C1997.47,1480.67,1997.87,1486,1998.7,1488.68Z"/><path class="cls-13" d="M1771.88,1488.68h89.38c4.3-5.25,2.71-24.6,2.06-30.92-.13-1.28-.22-2-.22-2s-30.52-24.41-34.72-5.72c-.12.59-.28,1.16-.45,1.73-5.28,17.48-29,25.43-42.65,27.64C1776.38,1480.83,1773.1,1485.46,1771.88,1488.68Z"/><path class="cls-25" d="M1788.91,989.78s4.64,57.82,10.08,127.33c7.41,94.41,16.31,210.39,17.19,232.36,1.52,38.15,7.63,99.17,7.63,99.17s14.49,14.5,43.49,8.39c0,0,25.83-87.11,33.22-179.29.11-1.51.22-3,.34-4.55,6.86-93.83,17.54-291.42,17.54-291.42Z"/><path class="cls-26" d="M1788.91,989.78s4.64,57.82,10.08,127.33l101.53,160.63c.11-1.51.22-3,.34-4.55,6.86-93.83,17.54-291.42,17.54-291.42Z"/><path class="cls-25" d="M1810.08,996.65s83.53,209.4,138.46,307.81,72.09,125.88,72.09,125.88,31.47-12.59,34.33-21.17c0,0-21-190-57.79-236.3-20.79-26.17-45.2-104.71-46.35-132.17s-7.43-81.82-7.43-81.82Z"/><path class="cls-15" d="M1830.87,691.37c32.64,10.3,89.12-17.5,89.12-17.5s-30.09-22.58-28.52-69.55l-25.24,20.34-17.14,13.82a204.47,204.47,0,0,0,2,22.41c.49,3.76,1.1,7.94,1.88,12.52A78.14,78.14,0,0,0,1830.87,691.37Z"/><path class="cls-27" d="M1849.09,638.48a204.47,204.47,0,0,0,2,22.41c19-3.26,40.54-34,40.54-34-9.67-2.79-18.14-3.29-25.35-2.27Z"/><path class="cls-15" d="M1839.11,637.7s53.91,9,59-24.7,15.43-55.18-18.79-62.33-42.84,4.7-47.26,15.53S1825.21,634.5,1839.11,637.7Z"/><path class="cls-12" d="M1785.31,994.6a5.29,5.29,0,0,0,3.43,1.3c12.26-.16,48,6.64,78.25,3.54,25.5-2.45,48.07-10,72.3-20.87,3.22-1.44,10.63-5.39,10.46-9-.11-3.94-.5-9.65-1-16.85-1.71-25-4.7-68-1.79-117.68.53-9.24.8-18.41.83-27.44.25-67.28-13.09-126.45-39.89-146.48-2.29-1.64-16.35,5.23-29.27,11.6-11.93,5.89-23.86,6.54-35.14,4.25l-11.27,10c-13.74,12.75-28.78,30.08-35.31,56.4-5.56,22.39-8.83,62.77-10.63,104.61-.81,19-1.47,38.09-1.64,56.24v.65c-.16,1.8-.16,3.76-.16,5.56C1783.84,957,1784.49,993.94,1785.31,994.6Z"/><path class="cls-15" d="M1677.22,912.86c.61-.2,1.23-.41,1.87-.64,3.17-1.13,9.59-9.43,9.59-9.43l12.11,13.06-8.31,8.78c-4.75,11.1-4.83,11.31-19.17,13.47-12.43,1.87-10.41,9.78-19.06,12s-7.47-10.06-7.47-10.06c3.34-19.38,7-21.92,15.32-23.64-2.76-1-4.61-2.44-4-4.27.51-1.6,4.78.15,13.26-.91C1672.59,911,1675,911.91,1677.22,912.86Z"/><path class="cls-12" d="M1686.73,920A92.64,92.64,0,0,1,1680,899.9s81.64-53.68,88.8-59.67,81.38-115.09,81.38-115.09l87,7s-116,133.89-134.44,148.7c-30.47,24.48-106.58,51-106.58,51A38.79,38.79,0,0,1,1686.73,920Z"/><path class="cls-12" d="M1898.13,609.76s-5.53-.93-4.64-8.55.88-17.58-5.32-15.73-6.5,6.82-9.05,3.92-2.59-15.1-21-15.95-25.92,5.57-34.5,1.8-9-16.75-9-16.75,2.43,4.64,6.12,6.11c0,0-14.31-19.56,2.25-33s33.45-4.63,43-4c21.11,1.28,34.75,2.54,41.65,16.42S1911.68,596.4,1898.13,609.76Z"/><path class="cls-13" d="M1784.82,892.75s71.07-23.54,96.16-52.45c25.46-29.33,71.44-83,71.44-83l-.44-1.79a232.6,232.6,0,0,0-15-42.57h0s-6.21,36.88-25.3,62.34l-19.1,25.46S1861.19,854.7,1784.82,892.75Z"/><rect class="cls-28" y="1485.94" width="2885.12" height="7.65" rx="3.27"/></g></g></svg>