<svg xmlns="http://www.w3.org/2000/svg" viewBox="0 0 106.8 149.33"><defs><style>.cls-1{fill:#a4def6;}.cls-2{fill:#46c6e6;}.cls-3{fill:#6fcff3;}.cls-4{fill:#5c79bc;}.cls-5{fill:#4f69a3;}</style></defs><g id="Layer_2" data-name="Layer 2"><g id="Capa_1" data-name="Capa 1"><path class="cls-1" d="M9.92,111.69a25,25,0,0,1,13.21-10.1l19.34-7.16H60.93l19.34,7.16a25,25,0,0,1,13.2,10.1Z"/><path class="cls-2" d="M76.92,149.33H106.8c0-5.11-.34-12.38-.34-12.38-1.75-30.55-24-35.36-24-35.36-17.36-4.2-7.9,22.65-7.9,22.65C74.09,130.72,75.05,139.42,76.92,149.33Z"/><rect class="cls-1" x="39.03" y="76.29" width="25.35" height="24.71"/><path class="cls-3" d="M64.37,87.78V76.29H39V82C46.25,88,55,88.76,64.37,87.78Z"/><path class="cls-2" d="M91.36,149.33c.48-13.33.33-17,.21-21.53-.26-10.13-2.42-18.68-9.1-26.2h0L64.37,95.7s3.8,6.65-12.81,6.65c0,0-10.94-.42-12.53-6.65l-18.36,5.89S5,105.45,2.3,122l9.22,17-.33,10.41Z"/><path class="cls-4" d="M81.87,39.48c0-5.88-.25-11.74-.11-17.6.09-3.75.44-2.79-3.91-3.2-6-.57-8,10.61-8.45,15.45-.58,6.67.86,13.85,2,20.35.4,2.35.29,7.05,2.75,8.16,2.1.94,4.3-1.38,5.4-3.1,2.54-4,2.09-10,2.26-14.49C81.85,43.19,81.87,41.33,81.87,39.48Z"/><path class="cls-1" d="M79.27,72.85c-2.56,10-7.08,12.79-7.08,12.79l-6,1.18C62.66,86.38,56.66,85,56.66,85c-13.83-4.7-17.83-6-20-11.22C36.59,73.51,25.79,36,25.79,36,24,16.7,44.23,12.68,47.28,12.18c3-.7,22.26-6,27.94,12.49A100.62,100.62,0,0,1,79.27,72.85Z"/><path class="cls-5" d="M23.71,18.29c-6.71,3.23-6.94,9.23-6.63,16,.25,5.29,1.88,9.8,3.77,14.92C24.07,58,24.07,58,26.93,63A58.69,58.69,0,0,0,37.11,74.69c-1.66-6.58-2.12-11.5-3.63-16.55a31.88,31.88,0,0,1,1.41-20.42s1.53-4.14,7.81-5.32h0l-19-14.11"/><path class="cls-1" d="M34.75,56.84s-3.42-7.45-8.79-3c0,0-2.44,1.91.57,6.89,0,0,4.37,7.17,9.61,3.2Z"/><path class="cls-5" d="M34.21,39.48s0,13.32,2.47,20.39l-2.59.52S32.72,51.25,28,51.14Z"/><path class="cls-4" d="M85.2,10.94c21.6,22-43.77,21.77-43.77,21.77s-6.86,3.17-17.72-14.42c0,0-2.92-13.77,28-18.1C51.7.19,72.13-2.32,85.2,10.94Z"/><path class="cls-2" d="M27.93,149.33H0s.1-6.63.11-7.1a131.41,131.41,0,0,1,1.8-19.51c1.68-9.19,6.14-17.33,16-19.67,4.49-1.07,8.48,1.65,10.92,5.35C28.79,108.4,33.23,113.88,27.93,149.33Z"/></g></g></svg>