<svg xmlns="http://www.w3.org/2000/svg" xmlns:xlink="http://www.w3.org/1999/xlink" viewBox="0 0 2810.82 2800"><defs><style>.cls-1{fill:url(#linear-gradient);}.cls-2{fill:#bdd0fb;}.cls-13,.cls-3,.cls-7{fill:#fff;}.cls-3{opacity:0.5;}.cls-4{fill:#7d97f4;}.cls-5{fill:#91b3fa;}.cls-6{opacity:0.89;}.cls-7{opacity:0.67;}.cls-8{fill:url(#linear-gradient-2);}.cls-9{fill:url(#linear-gradient-3);}.cls-10{fill:url(#linear-gradient-4);}.cls-11{fill:url(#linear-gradient-5);}.cls-12{fill:url(#linear-gradient-6);}.cls-14{fill:url(#linear-gradient-7);}.cls-15{fill:url(#linear-gradient-8);}.cls-16{fill:url(#linear-gradient-9);}.cls-17{fill:url(#linear-gradient-10);}.cls-18{fill:url(#linear-gradient-11);}.cls-19{fill:url(#linear-gradient-12);}.cls-20{fill:url(#linear-gradient-13);}.cls-21{fill:url(#linear-gradient-14);}.cls-22{fill:url(#linear-gradient-15);}.cls-23{fill:url(#linear-gradient-16);}.cls-24{fill:url(#linear-gradient-17);}.cls-25{fill:url(#linear-gradient-18);}.cls-26{fill:url(#linear-gradient-19);}.cls-27{fill:url(#linear-gradient-20);}.cls-28{fill:url(#linear-gradient-21);}.cls-29{fill:url(#linear-gradient-22);}.cls-30{fill:url(#linear-gradient-23);}.cls-31{fill:url(#linear-gradient-24);}.cls-32{fill:url(#linear-gradient-25);}.cls-33{fill:url(#linear-gradient-26);}.cls-34{fill:url(#linear-gradient-27);}.cls-35{fill:url(#linear-gradient-28);}.cls-36{fill:url(#linear-gradient-29);}.cls-37{fill:url(#linear-gradient-30);}.cls-38{fill:url(#linear-gradient-31);}.cls-39{fill:url(#linear-gradient-32);}.cls-40{fill:url(#linear-gradient-33);}.cls-41{fill:url(#linear-gradient-34);}.cls-42{fill:url(#linear-gradient-35);}.cls-43{fill:url(#linear-gradient-36);}.cls-44{fill:url(#linear-gradient-37);}.cls-45{fill:url(#linear-gradient-38);}.cls-46{fill:url(#linear-gradient-39);}.cls-47{fill:url(#linear-gradient-40);}.cls-48{fill:url(#linear-gradient-41);}.cls-49{fill:url(#linear-gradient-42);}.cls-50{fill:url(#linear-gradient-43);}.cls-51{fill:url(#linear-gradient-44);}.cls-52{fill:url(#linear-gradient-45);}.cls-53,.cls-54,.cls-55,.cls-56,.cls-57,.cls-58,.cls-59,.cls-60,.cls-61,.cls-62,.cls-63,.cls-64,.cls-65,.cls-66,.cls-67,.cls-68{fill-rule:evenodd;}.cls-53{fill:url(#linear-gradient-46);}.cls-54{fill:url(#linear-gradient-47);}.cls-55{fill:url(#linear-gradient-48);}.cls-56{fill:url(#linear-gradient-49);}.cls-57{fill:url(#linear-gradient-50);}.cls-58{fill:url(#linear-gradient-51);}.cls-59{fill:url(#linear-gradient-52);}.cls-60{fill:url(#linear-gradient-53);}.cls-61{fill:url(#linear-gradient-54);}.cls-62{fill:url(#linear-gradient-55);}.cls-63{fill:url(#linear-gradient-56);}.cls-64{fill:url(#linear-gradient-57);}.cls-65{fill:url(#linear-gradient-58);}.cls-66{fill:url(#linear-gradient-59);}.cls-67{fill:url(#linear-gradient-60);}.cls-68{fill:url(#linear-gradient-61);}.cls-69{fill:url(#linear-gradient-62);}.cls-70{fill:url(#linear-gradient-63);}.cls-71{fill:url(#linear-gradient-64);}.cls-72{fill:url(#linear-gradient-65);}.cls-73{fill:url(#linear-gradient-66);}.cls-74{fill:url(#linear-gradient-67);}.cls-75{fill:url(#linear-gradient-68);}.cls-76{fill:url(#linear-gradient-69);}.cls-77{fill:url(#linear-gradient-70);}.cls-78{fill:url(#linear-gradient-71);}.cls-79{fill:url(#linear-gradient-72);}.cls-80{fill:url(#linear-gradient-73);}.cls-81{fill:url(#linear-gradient-74);}.cls-82{fill:url(#linear-gradient-75);}.cls-83{fill:url(#linear-gradient-76);}</style><linearGradient id="linear-gradient" x1="2958.13" y1="3154.3" x2="904.85" y2="938.06" gradientUnits="userSpaceOnUse"><stop offset="0" stop-color="#dae3fe"/><stop offset="1" stop-color="#e9effd"/></linearGradient><linearGradient id="linear-gradient-2" x1="3212.12" y1="-652.92" x2="2848.92" y2="180.29" gradientUnits="userSpaceOnUse"><stop offset="0" stop-color="#4f52ff"/><stop offset="1" stop-color="#4042e2"/></linearGradient><linearGradient id="linear-gradient-3" x1="2336.08" y1="930.96" x2="2503.03" y2="-20.14" xlink:href="#linear-gradient-2"/><linearGradient id="linear-gradient-4" x1="1387.43" y1="-495.09" x2="682.41" y2="872.23" xlink:href="#linear-gradient-2"/><linearGradient id="linear-gradient-5" x1="570.43" y1="621.03" x2="737.38" y2="-330.07" xlink:href="#linear-gradient-2"/><linearGradient id="linear-gradient-6" x1="1265.55" y1="2081.29" x2="1547.4" y2="2081.29" xlink:href="#linear-gradient-2"/><linearGradient id="linear-gradient-7" x1="2255.17" y1="-1102.23" x2="2036.95" y2="-485.19" xlink:href="#linear-gradient-2"/><linearGradient id="linear-gradient-8" x1="1620.18" y1="-1020.89" x2="1492" y2="68.7" xlink:href="#linear-gradient-2"/><linearGradient id="linear-gradient-9" x1="-6274.92" y1="2737.47" x2="-6160.25" y2="2737.47" gradientTransform="matrix(-1, 0, 0, 1, -3977.14, 0)" gradientUnits="userSpaceOnUse"><stop offset="0" stop-color="#09005d"/><stop offset="1" stop-color="#1a0f91"/></linearGradient><linearGradient id="linear-gradient-10" x1="-6243.03" y1="2606.93" x2="-6264.93" y2="2798.09" gradientTransform="matrix(-1, 0, 0, 1, -3977.14, 0)" gradientUnits="userSpaceOnUse"><stop offset="0" stop-color="#a22b25"/><stop offset="1" stop-color="#c0423c"/></linearGradient><linearGradient id="linear-gradient-11" x1="-6100.31" y1="2740.39" x2="-5935.25" y2="2740.39" xlink:href="#linear-gradient-9"/><linearGradient id="linear-gradient-12" x1="-5950.01" y1="2220.73" x2="-5971.91" y2="2411.89" gradientTransform="matrix(-1, -0.06, -0.06, 1, -3707.97, 36.58)" xlink:href="#linear-gradient-10"/><linearGradient id="linear-gradient-13" x1="2617.11" y1="2787.27" x2="2843.82" y2="1706.21" gradientTransform="translate(-496.4)" xlink:href="#linear-gradient-9"/><linearGradient id="linear-gradient-14" x1="11102.28" y1="-10708.28" x2="10596.38" y2="-10288.38" gradientTransform="matrix(-1, 0, 0, 1, -1556.55, 0)" gradientUnits="userSpaceOnUse"><stop offset="0" stop-color="#ff928e"/><stop offset="1" stop-color="#fe7062"/></linearGradient><linearGradient id="linear-gradient-15" x1="2229.42" y1="1611.57" x2="2138.35" y2="2070.28" gradientUnits="userSpaceOnUse"><stop offset="0" stop-color="#febbba"/><stop offset="1" stop-color="#ff928e"/></linearGradient><linearGradient id="linear-gradient-16" x1="2114.44" y1="1493.54" x2="2175.15" y2="1185.48" gradientTransform="matrix(1, 0, 0, 1, 0, 0)" xlink:href="#linear-gradient-10"/><linearGradient id="linear-gradient-17" x1="-1975.46" y1="-4894.8" x2="-2177.83" y2="-4159.52" xlink:href="#linear-gradient-14"/><linearGradient id="linear-gradient-18" x1="-1949.25" y1="-4887.59" x2="-2151.62" y2="-4152.3" xlink:href="#linear-gradient-14"/><linearGradient id="linear-gradient-19" x1="-1833.87" y1="-9515.65" x2="-1923.81" y2="-9286.3" xlink:href="#linear-gradient-10"/><linearGradient id="linear-gradient-20" x1="-6147.63" y1="1204.98" x2="-6008.7" y2="1383.84" xlink:href="#linear-gradient-9"/><linearGradient id="linear-gradient-21" x1="-1876.66" y1="-9532.43" x2="-1966.6" y2="-9303.07" xlink:href="#linear-gradient-10"/><linearGradient id="linear-gradient-22" x1="2227.34" y1="1346.57" x2="2543.17" y2="1619.39" gradientTransform="translate(-496.4)" xlink:href="#linear-gradient-10"/><linearGradient id="linear-gradient-23" x1="1915.45" y1="1431.73" x2="1839.56" y2="2043.88" gradientTransform="matrix(1, 0, 0, 1, 0, 0)" xlink:href="#linear-gradient-10"/><linearGradient id="linear-gradient-24" x1="2215.65" y1="1360.11" x2="2531.47" y2="1632.92" gradientTransform="translate(-496.4)" xlink:href="#linear-gradient-10"/><linearGradient id="linear-gradient-25" x1="-606.93" y1="2140.24" x2="-1215.21" y2="3416.29" gradientTransform="translate(890.04 -1477.94) rotate(-34.57)" gradientUnits="userSpaceOnUse"><stop offset="0" stop-color="#e1473d"/><stop offset="1" stop-color="#e9605a"/></linearGradient><linearGradient id="linear-gradient-26" x1="4123.85" y1="992.36" x2="3790.3" y2="1656.01" gradientTransform="matrix(-0.66, 0.75, 0.75, 0.66, 3118.68, -2164.71)" xlink:href="#linear-gradient-14"/><linearGradient id="linear-gradient-27" x1="-1027.85" y1="2503.82" x2="-535.33" y2="3659.01" gradientTransform="translate(890.04 -1477.94) rotate(-34.57)" gradientUnits="userSpaceOnUse"><stop offset="0" stop-color="#ff9085"/><stop offset="1" stop-color="#fb6fbb"/></linearGradient><linearGradient id="linear-gradient-28" x1="-1107.45" y1="2661.66" x2="-901.94" y2="3415.22" gradientTransform="translate(890.04 -1477.94) rotate(-34.57)" xlink:href="#linear-gradient-15"/><linearGradient id="linear-gradient-29" x1="1745.25" y1="1024.73" x2="1488.92" y2="2677.43" gradientTransform="matrix(1, 0, 0, 1, 0, 0)" xlink:href="#linear-gradient-14"/><linearGradient id="linear-gradient-30" x1="2597.31" y1="1092.91" x2="2293.77" y2="1330.69" gradientTransform="matrix(1, 0, 0, 1, 0, 0)" xlink:href="#linear-gradient-10"/><linearGradient id="linear-gradient-31" x1="2348.78" y1="1309.73" x2="3001.76" y2="2023.8" gradientTransform="matrix(1, 0, 0, 1, 0, 0)" xlink:href="#linear-gradient-9"/><linearGradient id="linear-gradient-32" x1="3322.21" y1="970.77" x2="2816.31" y2="1390.67" gradientTransform="matrix(1, 0, 0, 1, 0, 0)" xlink:href="#linear-gradient-14"/><linearGradient id="linear-gradient-33" x1="-7090.32" y1="2748.88" x2="-7073.34" y2="2628.32" gradientTransform="translate(9975.17 767.67) rotate(15.3)" xlink:href="#linear-gradient-15"/><linearGradient id="linear-gradient-34" x1="-7168.17" y1="2490.56" x2="-7009.4" y2="2673.1" gradientTransform="translate(9975.17 767.67) rotate(15.3)" xlink:href="#linear-gradient-15"/><linearGradient id="linear-gradient-35" x1="2449.35" y1="1243.3" x2="3155.36" y2="2015.36" gradientTransform="matrix(1, 0, 0, 1, 0, 0)" xlink:href="#linear-gradient-9"/><linearGradient id="linear-gradient-36" x1="-7128.5" y1="2456.05" x2="-6969.73" y2="2638.59" gradientTransform="translate(9975.17 767.67) rotate(15.3)" xlink:href="#linear-gradient-15"/><linearGradient id="linear-gradient-37" x1="5614.91" y1="2947.37" x2="5993.71" y2="2278.71" gradientTransform="matrix(-1, 0.01, 0.01, 1, 8308.61, -58.48)" xlink:href="#linear-gradient-15"/><linearGradient id="linear-gradient-38" x1="5697.48" y1="2710.96" x2="5808.21" y2="2710.96" gradientTransform="matrix(-1, 0.01, 0.01, 1, 8308.61, -58.48)" xlink:href="#linear-gradient-9"/><linearGradient id="linear-gradient-39" x1="6044.18" y1="2452.71" x2="5477.67" y2="2633.86" gradientTransform="matrix(-1, 0.01, 0.01, 1, 8308.61, -58.48)" xlink:href="#linear-gradient-15"/><linearGradient id="linear-gradient-40" x1="5800.14" y1="2730.96" x2="5932.13" y2="2730.96" gradientTransform="matrix(-1, 0.01, 0.01, 1, 8308.61, -58.48)" xlink:href="#linear-gradient-9"/><linearGradient id="linear-gradient-41" x1="2439.23" y1="2114.79" x2="2626.41" y2="1806.19" gradientTransform="matrix(1, 0, 0, 1, 0, 0)" xlink:href="#linear-gradient-25"/><linearGradient id="linear-gradient-42" x1="5683.17" y1="1977.34" x2="6311.53" y2="1258.59" gradientTransform="matrix(-0.99, -0.11, -0.11, 0.99, 8525.27, 541.6)" xlink:href="#linear-gradient-15"/><linearGradient id="linear-gradient-43" x1="3877.25" y1="3223.82" x2="3971.22" y2="3437.62" gradientTransform="translate(-2640.05 -218.4) rotate(-12.16)" xlink:href="#linear-gradient-15"/><linearGradient id="linear-gradient-44" x1="3879.72" y1="3240.03" x2="3982.03" y2="3472.81" gradientTransform="translate(-2640.05 -218.4) rotate(-12.16)" xlink:href="#linear-gradient-15"/><linearGradient id="linear-gradient-45" x1="1766.24" y1="2056.78" x2="1794.15" y2="2056.78" gradientTransform="matrix(1, 0, 0, 1, 0, 0)" xlink:href="#linear-gradient-14"/><linearGradient id="linear-gradient-46" x1="-6393.18" y1="1926.4" x2="-6500.82" y2="2021.38" gradientTransform="matrix(-1, 0, 0, 1, -4539.99, 0)" xlink:href="#linear-gradient-9"/><linearGradient id="linear-gradient-47" x1="-7341.47" y1="785.78" x2="-7254.1" y2="785.78" gradientTransform="matrix(-0.98, -0.18, -0.18, 0.98, -4920.18, -40.12)" xlink:href="#linear-gradient-9"/><linearGradient id="linear-gradient-48" x1="-2653.26" y1="-2324.96" x2="-3125.08" y2="-1995.73" gradientTransform="matrix(-0.98, -0.18, -0.18, 0.98, -4920.18, -40.12)" xlink:href="#linear-gradient-9"/><linearGradient id="linear-gradient-49" x1="-6488.35" y1="2743.19" x2="-6404.68" y2="2743.19" gradientTransform="matrix(-1, 0, 0, 1, -4539.99, 0)" xlink:href="#linear-gradient-25"/><linearGradient id="linear-gradient-50" x1="-6594.26" y1="2770.32" x2="-6547.72" y2="2770.32" gradientTransform="matrix(-1, 0, 0, 1, -4539.99, 0)" xlink:href="#linear-gradient-25"/><linearGradient id="linear-gradient-51" x1="-6540.77" y1="2242.14" x2="-6534.04" y2="2173.71" gradientTransform="matrix(-1, 0, 0, 1, -4539.99, 0)" xlink:href="#linear-gradient-15"/><linearGradient id="linear-gradient-52" x1="-6239.27" y1="1536.16" x2="-5957.42" y2="672.99" gradientTransform="matrix(-1, 0, 0, 1, -4539.99, 0)" xlink:href="#linear-gradient-15"/><linearGradient id="linear-gradient-53" x1="-6154.98" y1="1563.68" x2="-5873.13" y2="700.51" gradientTransform="matrix(-1, 0, 0, 1, -4539.99, 0)" xlink:href="#linear-gradient-15"/><linearGradient id="linear-gradient-54" x1="-6800.2" y1="2519.06" x2="-6574.27" y2="2208.64" gradientTransform="matrix(-1, 0, 0, 1, -4539.99, 0)" xlink:href="#linear-gradient-15"/><linearGradient id="linear-gradient-55" x1="3400.31" y1="1064.87" x2="2894.41" y2="1484.77" gradientTransform="matrix(1, 0, 0, 1, 0, 0)" xlink:href="#linear-gradient-14"/><linearGradient id="linear-gradient-56" x1="3504.41" y1="1190.28" x2="2998.5" y2="1610.18" gradientTransform="matrix(1, 0, 0, 1, 0, 0)" xlink:href="#linear-gradient-14"/><linearGradient id="linear-gradient-57" x1="3423.93" y1="1093.33" x2="2918.03" y2="1513.24" gradientTransform="matrix(1, 0, 0, 1, 0, 0)" xlink:href="#linear-gradient-25"/><linearGradient id="linear-gradient-58" x1="-7180.17" y1="810.81" x2="-7171.2" y2="677.48" gradientTransform="matrix(-0.99, -0.17, -0.19, 1.03, -4948.34, 67.73)" xlink:href="#linear-gradient-15"/><linearGradient id="linear-gradient-59" x1="-7105.43" y1="932.07" x2="-7096.46" y2="798.58" gradientTransform="matrix(-0.98, -0.18, -0.18, 0.98, -4920.18, -40.12)" xlink:href="#linear-gradient-15"/><linearGradient id="linear-gradient-60" x1="-7231.36" y1="923.61" x2="-7222.39" y2="790.11" gradientTransform="matrix(-0.98, -0.18, -0.18, 0.98, -4920.18, -40.12)" xlink:href="#linear-gradient-15"/><linearGradient id="linear-gradient-61" x1="-2662.13" y1="-2337.66" x2="-3133.94" y2="-2008.43" gradientTransform="matrix(-0.98, -0.18, -0.18, 0.98, -4920.18, -40.12)" xlink:href="#linear-gradient-9"/><linearGradient id="linear-gradient-62" x1="1148.02" y1="3878.17" x2="1188.17" y2="3104.34" gradientTransform="matrix(-1, 0, 0, 1, 1962.48, 0)" xlink:href="#linear-gradient-9"/><linearGradient id="linear-gradient-63" x1="2587.36" y1="2614.41" x2="2566.04" y2="2800.51" gradientTransform="translate(-1811.84)" xlink:href="#linear-gradient-15"/><linearGradient id="linear-gradient-64" x1="2837.09" y1="3108.44" x2="2877.24" y2="2334.62" gradientTransform="translate(-1811.84)" xlink:href="#linear-gradient-9"/><linearGradient id="linear-gradient-65" x1="2812" y1="2638.22" x2="2792.05" y2="2812.31" gradientTransform="translate(-1811.84)" xlink:href="#linear-gradient-15"/><linearGradient id="linear-gradient-66" x1="1215.68" y1="1399.18" x2="766.68" y2="2713.35" gradientTransform="matrix(1, 0, 0, 1, 0, 0)" xlink:href="#linear-gradient-25"/><linearGradient id="linear-gradient-67" x1="923.77" y1="1702.7" x2="410.94" y2="1953.25" gradientTransform="matrix(1, 0, 0, 1, 0, 0)" xlink:href="#linear-gradient-9"/><linearGradient id="linear-gradient-68" x1="790.72" y1="1434.65" x2="886.35" y2="1434.65" xlink:href="#linear-gradient-15"/><linearGradient id="linear-gradient-69" x1="10723.29" y1="-1818.91" x2="10890.81" y2="-1859.68" gradientTransform="matrix(0.88, -0.48, 0.48, 0.88, 297.46, 821.53)" xlink:href="#linear-gradient-15"/><linearGradient id="linear-gradient-70" x1="169.17" y1="671.54" x2="341.72" y2="671.54" gradientTransform="matrix(0.88, -0.48, 0.48, 0.88, 297.46, 821.53)" xlink:href="#linear-gradient-9"/><linearGradient id="linear-gradient-71" x1="10717.4" y1="-1843.18" x2="10884.92" y2="-1883.95" gradientTransform="matrix(0.88, -0.48, 0.48, 0.88, 297.46, 821.53)" xlink:href="#linear-gradient-15"/><linearGradient id="linear-gradient-72" x1="895.69" y1="1645.23" x2="382.86" y2="1895.78" gradientTransform="matrix(1, 0, 0, 1, 0, 0)" xlink:href="#linear-gradient-9"/><linearGradient id="linear-gradient-73" x1="814" y1="1922.61" x2="643.83" y2="2067.96" xlink:href="#linear-gradient-15"/><linearGradient id="linear-gradient-74" x1="920.99" y1="1697.01" x2="408.16" y2="1947.56" gradientTransform="matrix(1, 0, 0, 1, 0, 0)" xlink:href="#linear-gradient-9"/><linearGradient id="linear-gradient-75" x1="1191.64" y1="1683.53" x2="1555.91" y2="1558.74" xlink:href="#linear-gradient-15"/><linearGradient id="linear-gradient-76" x1="1191.15" y1="1682.09" x2="1555.42" y2="1557.29" xlink:href="#linear-gradient-15"/></defs><g id="Layer_2" data-name="Layer 2"><g id="Illustration"><path class="cls-1" d="M2675.25,1890.16c-282.87,658-1029.57,940.58-1614.61,892.39-159.75-13.15-481.15-39.63-732.1-275.79C-153.41,2053.22-79.18,1105.2,382.17,547.06,441.59,475.19,852.84-6.38,1493.69.06c469.2,4.72,798.52,268.48,838.57,301.34C2382.85,342.9,2494.42,441.54,2595,598,2831.25,965.71,2852,1479,2675.25,1890.16Z"/><path class="cls-2" d="M9.71,2092.11C280.28,2979,2416,3050.62,2801.31,2204.43c26.41-58-20.24-121.73-90-123L61.69,2032.5C26.56,2031.85.43,2061.7,9.71,2092.11Z"/><path class="cls-2" d="M1854.44,2080.78S1949.51,811.66,2462.53,49.55C2497-1.68,2577,4,2603.51,59.65,2780.46,432.11,3193.4,1580.61,1854.44,2080.78Z"/><path class="cls-3" d="M1968.13,1982.68c-2.62,3.39,2.29,7.39,5.36,4.37,113.24-111.37,534.76-638.19,566.34-1565.81.1-3-4.51-3.41-4.88-.45C2507.73,638.82,2382.28,1446.58,1968.13,1982.68Z"/><path class="cls-2" d="M416.38,796.73c23.06-48.05,39.56-98.35,43.41-153.12,9.69-138-70.53-265.08-129.46-383.9C276.16,150.51,235.9-12.21,418.67,2.27,564.28,13.81,735.46,158.92,755,310.23c23.11,179.08-64.07,404.92,39.3,567.59,144.6,227.58,248.91,175.42,248.91,559.46,0,164.09-90.9,254.61-195,304.46A435.67,435.67,0,0,1,357,1661.93C241.35,1550,172.57,1389.09,195.83,1227.54,219.33,1064.37,347.3,940.64,416.38,796.73Z"/><path class="cls-4" d="M538.54,2031.45a5.1,5.1,0,0,0,4.94-3.86C634.07,1666,683.37,1338.26,690,1053.42c5.33-228.09-16.51-429.38-64.92-598.28C542.43,166.67,412.74,74,407.26,70.22a5.09,5.09,0,1,0-5.81,8.37c1.31.92,132.72,95.1,214.26,380.71,75.36,264,122.29,749.91-82.11,1565.81a5.08,5.08,0,0,0,3.7,6.18A4.85,4.85,0,0,0,538.54,2031.45Z"/><path class="cls-2" d="M271.29,391.88a60.9,60.9,0,0,1,23-1.56c45.55,5.24,64.25,53.27,77.64,90.83,11.46,32.16,25,71.2,18.19,106.05-7.31,37.67-47.32,68.4-76.35,30.15-33-43.48-82.51-110.23-82.81-167.84C230.82,420.87,246.9,398.49,271.29,391.88Z"/><path class="cls-5" d="M16.42,1671c-20-131.92,27.92-283.38,51.86-422.89,12.65-73.76,18.5-147,6.65-221.27C63.15,953,28.44,873.09,60.45,799.48c64.5-148.3,217.82-80.81,305.65,30.83C468,959.86,495.89,1171.56,534.6,1334.58c23.33,98.28,58.49,199.08,70.8,299.22,20.39,165.9-17.12,281.08-96.48,358.86a240.17,240.17,0,0,1-285.16,38.22C139.64,1984,48.73,1883.86,16.42,1671Z"/><path class="cls-4" d="M367.19,2283.12a4.76,4.76,0,0,1-.84-.07,5.06,5.06,0,0,1-4.15-5.83c.33-2,33.55-202.49,34.4-479.33.79-255.35-26.57-629.72-161.42-963.14a5.06,5.06,0,1,1,9.38-3.79c135.49,335,163,710.85,162.16,967.16-.87,277.62-34.21,478.79-34.54,480.78A5.06,5.06,0,0,1,367.19,2283.12Z"/><path class="cls-4" d="M2094.5,1374.21h537.58a0,0,0,0,1,0,0v1016.3a20.46,20.46,0,0,1-20.46,20.46H2094.5a0,0,0,0,1,0,0V1374.21A0,0,0,0,1,2094.5,1374.21Z"/><g class="cls-6"><rect class="cls-7" x="2211.29" y="1655.81" width="307.19" height="473.58" rx="1.12"/><rect class="cls-4" x="2376.82" y="1681.4" width="119.27" height="422.39" rx="0.62"/><rect class="cls-4" x="2233.69" y="1681.4" width="119.27" height="422.39" rx="0.62"/></g><path class="cls-8" d="M2733.29,1456.08H2069l-27.1-478.2,549.19-10.42,168.4,447.63A28.85,28.85,0,0,1,2733.29,1456.08Z"/><path class="cls-9" d="M2593.31,989.45l-527.89-5.9,3.31-53.44,493.4,3.76c19,1.18,33.59,16.65,32.48,34.54Z"/><path class="cls-4" d="M207.12,1370.62H722.39a22.31,22.31,0,0,1,22.31,22.31V2407.38a0,0,0,0,1,0,0H207.12a0,0,0,0,1,0,0V1370.62A0,0,0,0,1,207.12,1370.62Z" transform="translate(951.83 3778) rotate(180)"/><g class="cls-6"><rect class="cls-7" x="320.72" y="1652.21" width="307.19" height="473.58" rx="1.12" transform="translate(948.63 3778) rotate(180)"/><rect class="cls-4" x="343.12" y="1677.81" width="119.27" height="422.39" rx="0.62" transform="translate(805.51 3778) rotate(180)"/><rect class="cls-4" x="486.24" y="1677.81" width="119.27" height="422.39" rx="0.62" transform="translate(1091.75 3778) rotate(180)"/></g><path class="cls-10" d="M105.91,1452.48H770.23l27.1-478.2L248.15,963.86,79.74,1411.49A28.85,28.85,0,0,0,105.91,1452.48Z"/><path class="cls-11" d="M245.89,985.85l527.9-5.9-3.32-53.44-493.39,3.76c-19.06,1.18-33.6,16.65-32.49,34.54Z"/><path class="cls-5" d="M670.41,1307.86v1061a84.32,84.32,0,0,0,84.32,84.32H2137.18a27,27,0,0,0,27-27V1307.86Z"/><path class="cls-4" d="M1257.61,1783.94h297.72a3.56,3.56,0,0,1,3.56,3.56v591.13a0,0,0,0,1,0,0H1254.05a0,0,0,0,1,0,0V1787.5A3.56,3.56,0,0,1,1257.61,1783.94Z"/><path class="cls-12" d="M1269.11,1806.37h274.73a3.56,3.56,0,0,1,3.56,3.56v546.28a0,0,0,0,1,0,0H1265.55a0,0,0,0,1,0,0V1809.93A3.56,3.56,0,0,1,1269.11,1806.37Z"/><path class="cls-2" d="M1537.37,1743.92H1275.58a21.53,21.53,0,0,1-21.53-21.53v-18.8a21.53,21.53,0,0,1,20-21.47l261.79-18.19a21.53,21.53,0,0,1,23,21.48v37A21.52,21.52,0,0,1,1537.37,1743.92Z"/><path class="cls-2" d="M1556.84,2415.47H1259.7a24.43,24.43,0,0,1-24.43-24.43V2369.7c0-12.84,9.77-48.34,22.58-49.23l297.3,4.21a24.44,24.44,0,0,1,26.12,24.38v42A24.43,24.43,0,0,1,1556.84,2415.47Z"/><path class="cls-4" d="M1557.63,2461.94H1260.49a24.43,24.43,0,0,1-24.43-24.43v-21.34c0-12.84,2.81-36.65,15.61-37.54l304.27-7.48a24.43,24.43,0,0,1,26.12,24.38v42A24.43,24.43,0,0,1,1557.63,2461.94Z"/><rect class="cls-13" x="1653.02" y="1628" width="434.92" height="696.04" rx="3.14"/><rect class="cls-4" x="1677.12" y="1657.21" width="385.83" height="641.13" rx="2.93"/><rect class="cls-13" x="1851.04" y="1648.4" width="22.12" height="675.65"/><rect class="cls-13" x="744.71" y="1628" width="434.92" height="696.04" rx="3.14"/><rect class="cls-4" x="768.8" y="1657.21" width="385.83" height="641.13" rx="2.93"/><rect class="cls-13" x="942.72" y="1648.4" width="22.12" height="675.65"/><polygon class="cls-5" points="2181.6 667.27 2168.91 657.68 2168.91 644.33 2151.25 644.33 1417.27 89.58 675.17 644.33 675.17 1307.86 2168.91 1307.86 2168.91 735.69 2181.6 667.27"/><rect class="cls-4" x="1744.94" y="154.11" width="123.55" height="201.17"/><path class="cls-14" d="M1715.6,124.93h184.33a9.28,9.28,0,0,1,9.28,9.28v52.5a0,0,0,0,1,0,0h-199.7a0,0,0,0,1,0,0V131A6.1,6.1,0,0,1,1715.6,124.93Z"/><path class="cls-15" d="M625.23,750l792.66-607.89L2170.3,725.71c27.35,21.22,67.47,6.36,74.4-27.55l10.55-51.62L1417.89,8.66,607.36,627.75a40.37,40.37,0,0,0-12.84,47.42Z"/><g class="cls-6"><rect class="cls-13" x="1257.85" y="735.95" width="307.19" height="473.58" rx="1.12" transform="translate(2822.89 1945.49) rotate(180)"/><rect class="cls-4" x="1280.25" y="761.55" width="119.27" height="422.39" rx="0.62"/><rect class="cls-4" x="1423.37" y="761.55" width="119.27" height="422.39" rx="0.62"/></g><g class="cls-6"><rect class="cls-13" x="826.75" y="739.3" width="307.19" height="473.58" rx="1.12" transform="translate(1960.68 1952.19) rotate(180)"/><rect class="cls-4" x="849.14" y="764.9" width="119.27" height="422.39" rx="0.62"/><rect class="cls-4" x="992.27" y="764.9" width="119.27" height="422.39" rx="0.62"/></g><g class="cls-6"><rect class="cls-13" x="1670.27" y="743.58" width="307.19" height="473.58" rx="1.12" transform="translate(3647.72 1960.75) rotate(180)"/><rect class="cls-4" x="1692.67" y="769.18" width="119.27" height="422.39" rx="0.62"/><rect class="cls-4" x="1835.79" y="769.18" width="119.27" height="422.39" rx="0.62"/></g><rect class="cls-4" x="627.91" y="1294.24" width="1578.73" height="85.55" rx="7.91"/><path class="cls-16" d="M2183.11,2778.3a10,10,0,0,1,.26-2.59c12.92-51.2,77-83.09,77-83.09l25.4,2c14.6,45.13,12.73,72.81,10.38,85.13-.06.35-.17.68-.26,1C2275,2782.63,2231.83,2783.85,2183.11,2778.3Z"/><path class="cls-4" d="M2295.91,2780.75a11,11,0,0,1-8.06,8.14c-29.81,6.27-77.18,1.23-97.07-1.37-4.39-.58-7.6-4.64-7.67-9.22C2231.83,2783.85,2275,2782.63,2295.91,2780.75Z"/><path class="cls-17" d="M2296,2656.78l-10.76,51.79a8.45,8.45,0,0,1-7.23,7,71.51,71.51,0,0,1-16.67-.26c-5.55-.82-9.41-6.46-8.43-12.51l7.48-46Z"/><path class="cls-4" d="M2073.1,2780.1c28.06-.79,42.57-4.09,50.07-7.16,0,2.79,0,5.63-.09,8.57a5.54,5.54,0,0,1-5.29,5.63l-154-1c-4.91,0-7.79-5.73-5.66-10.24C1978.3,2777.58,2029.74,2781.31,2073.1,2780.1Z"/><path class="cls-18" d="M1958.1,2775.91a8,8,0,0,1,.61-1.16c13.61-19,48.25-56.86,116.71-73.27l32.85-1s14.62,25.42,14.9,72.5c-7.5,3.07-22,6.37-50.07,7.16C2029.74,2781.31,1978.3,2777.58,1958.1,2775.91Z"/><path class="cls-19" d="M2115.82,2652.19c-.52,2.42-7.35,39.28-10,53.56a7.15,7.15,0,0,1-6.42,6.07c-5.62.31-14.69.35-22.49-1.77-4.21-1.14-7-5.43-6.74-10.19l3.68-58.29Z"/><path class="cls-20" d="M2140.71,1971.79s-45.18,310.45-77.79,679.87c-.6,6.88,4.88,12.87,11.64,14.29,10,2.1,24.6,4.59,36.72,4.25a13.61,13.61,0,0,0,13-11.36c11.1-65.13,90.36-414.71,111.16-491.65,0,0,23.89,326.82,16.26,496.37a8,8,0,0,0,7.09,8.36,135.63,135.63,0,0,0,29.48-.08,10.76,10.76,0,0,0,9.58-9.13c7.91-55.13,53.45-383.26,51.51-619.63-.11-13.33-15.64-122.85-15.64-122.85Z"/><path class="cls-21" d="M2123.2,1449.72l-6,162.45a446.41,446.41,0,0,1-49.11,13.95c-9.74-31.37-31.2-69.86-48.76-98.49C2083.82,1504.82,2123.2,1449.72,2123.2,1449.72Z"/><path class="cls-22" d="M2340.48,1989.68a12.78,12.78,0,0,0,8.39-10.76c6-58.29,35.1-419.69-148.55-568.36,0,0-10.53-27.56-97.1,40.18s-40.22,138.73-19.49,236.65c25.08,118.5,69.08,215.36,49.61,288.28a10.11,10.11,0,0,0,6.19,12.12C2206.78,2012.57,2273.76,2013.39,2340.48,1989.68Z"/><path class="cls-23" d="M2128.68,1302.27c.06,5.15,73.39,109.31,73.39,109.31s-13.16,25.92-76,47L2071.83,1347Z"/><path class="cls-24" d="M2165,1658.69a2.34,2.34,0,0,0,1.33-.41c58.58-39.58,86.14-103.47,86.41-104.11a2.38,2.38,0,0,0-4.38-1.86c-.27.63-27.31,63.25-84.69,102a2.38,2.38,0,0,0,1.33,4.36Z"/><path class="cls-25" d="M2077.75,1570.14a2.4,2.4,0,0,0,2-1.1c.17-.27,18.07-28.13,52.16-89.17,10.48-18.77,24.26-30.65,40.94-35.32,27.64-7.72,54.27,7.09,54.53,7.24a2.38,2.38,0,1,0,2.36-4.14c-1.15-.65-28.54-16-58.13-7.7-18,5-32.73,17.67-43.86,37.6-34,60.88-51.83,88.64-52,88.92a2.39,2.39,0,0,0,.71,3.29A2.36,2.36,0,0,0,2077.75,1570.14Z"/><path class="cls-26" d="M2071,1242.59s-26.1,59.94-27.85,91.4-8.53,51.87,27.85,58.21,67-11.79,83.62-43.12c0,0,26-48.29,20.18-68.07S2071,1242.59,2071,1242.59Z"/><path class="cls-27" d="M2142.14,1326.54l-2.07-.91a5,5,0,0,1-2.44-6.86c5.13-9.91,15.13-32.62,2.21-37.92-16.65-6.83-82.6-20.28-96.83-43.68-13.67-22.49-1.55-51.52,16.65-59.77a2.5,2.5,0,0,1,3.28,1.06l1.52,2.88a2.47,2.47,0,0,0,4.56-.47h0a2.46,2.46,0,0,1,4.45-.64c4.38,7,16.19,18.35,47.76,24.18,44.88,8.28,74.55,26.44,75.29,57.45a2.47,2.47,0,0,0,3.82,2c3.32-2,8.62-3,15.71,3,12.32,10.37,7.28,37.25-19.74,59.36a2.46,2.46,0,0,0,.12,4c4.89,3.19,12.2,10.78-6.72,20.89-19.57,10.46-34.19,9.6-39.81,8.67a2.46,2.46,0,0,1-2-3l6-27.25a2.48,2.48,0,0,0-2.42-3Z"/><path class="cls-28" d="M2141,1332.29s9.95-38.28,27.12-27.55-8.91,42.9-22.71,44.34Z"/><path class="cls-29" d="M1803.13,1437.5s13.08-23.18,12.25-34.45,6.19-27.81-1.28-26.59-9,.23-11,13.75S1777.45,1462.77,1803.13,1437.5Z"/><path class="cls-30" d="M1800.67,1400.64l.3,46.32c88.54,95.59,160.2,101.21,218.31,80.67,17.56,28.63,39,67.12,48.76,98.49-236.43,52.12-292.1-165.23-292.1-165.23-32-13.26-38.48-21-37.11-29.71Z"/><path class="cls-31" d="M1732.59,1354.68c7.55-3.07,22.34-31.26,25.17-22s-1.19,22,0,25.92,19.63,49.32,16,59.4c-2.66,7.27-17.29,6.2-19.53,18.1a7.6,7.6,0,0,1-15.12,0C1738.76,1434.54,1725,1357.75,1732.59,1354.68Z"/><path class="cls-32" d="M1474.83,1318.71c1.73,107.53,74,197.37,172.09,226.1l.38,23.35h0l.87,54.55,24.1-.39.62,38.8-24.1.39.32,19.4,24.09-.38.36,22.38-24.09.39.5,31.34,11.41-.18.65,40.3-11.41.18.28,17.91,22.17-.36.77,48.07-22.17.36.6,37,24.09-.39.64,39.55-24.1.39.74,46a22.33,22.33,0,0,0,5.82,14.67l59.28,65a22.27,22.27,0,0,0,21.69,6.65h0c.73-.18,1.44-.4,2.15-.65.19-.06.37-.13.56-.21.55-.21,1.1-.44,1.64-.7.2-.09.4-.18.6-.29a20.32,20.32,0,0,0,2.06-1.19l39-25.65a22.3,22.3,0,0,0,10-19l-7.38-459.66c97.08-31.86,166.47-124,164.75-231.5-2.13-132.3-111.09-237.82-243.39-235.7S1472.71,1186.41,1474.83,1318.71Zm237-159.81a48.51,48.51,0,1,1-47.72,49.28A48.52,48.52,0,0,1,1711.87,1158.9Z"/><path class="cls-33" d="M1630.36,1406.06l3.49,217.9,24.1-.38.62,38.8-24.09.39.31,19.4,24.1-.39.35,22.39-24.09.39.5,31.34,11.41-.18.65,40.29-11.41.19.28,17.91,22.17-.36.77,48.07-22.16.35.59,37,24.1-.39.63,39.55-24.1.39.74,46a22.31,22.31,0,0,0,5.82,14.66l59.28,65a22.31,22.31,0,0,0,28.73,3.61l39-25.65a22.32,22.32,0,0,0,10-19l-8.9-554.88Z"/><path class="cls-34" d="M1696.21,1076.58c-132.29,2.12-237.82,111.09-235.69,243.38s111.09,237.82,243.38,235.7,237.82-111.09,235.7-243.38S1828.51,1074.46,1696.21,1076.58Zm2.9,180.59a48.51,48.51,0,1,1,47.73-49.29A48.51,48.51,0,0,1,1699.11,1257.17Z"/><path class="cls-35" d="M1939.6,1312.28c-2.12-132.3-111.09-237.82-243.39-235.7S1458.39,1187.67,1460.52,1320c1.72,107.53,74,197.37,172.08,226.1l.38,23.36c30.19-1.09,45.32,7.16,53.48,16.38,22.92,25.91,7.27,413.43,27.38,464.76a22.26,22.26,0,0,0,19.31-2.48l39-25.65a22.32,22.32,0,0,0,10-19l-7.38-459.65C1871.93,1511.92,1941.32,1419.8,1939.6,1312.28Zm-242-152.12a48.51,48.51,0,1,1-47.72,49.28A48.52,48.52,0,0,1,1697.55,1160.16Z"/><path class="cls-36" d="M1697,1123.59c-106.33,1.71-191.15,89.29-189.44,195.62s89.29,191.14,195.62,189.44,191.14-89.29,189.44-195.62S1803.3,1121.88,1697,1123.59Zm2.14,133.58a48.51,48.51,0,1,1,47.73-49.29A48.51,48.51,0,0,1,1699.11,1257.17Z"/><path class="cls-37" d="M2165,1658.69s-225.61,75.52-351.8-20.56a35.79,35.79,0,0,0-27.41-7l-48.22,7.86a38.55,38.55,0,0,1-43.87-29.85c-2.49-11.43-3.69-23.93-1.15-34.66l91-5.49-2.6-11.81s40.22,9.84,41,41.31c0,0,94.36,61.81,266.47-34.13C2088.47,1564.38,2155.49,1616.83,2165,1658.69Z"/><path class="cls-38" d="M2366.63,1530.47c9.27-19.47,25.44-32.26,35.2-51.34,12.29-24,12.71-55.87,4.66-82.65-6.68-22.22-18.58-41.4-25.4-63.56-9.17-29.81-9.34-42.64-5.16-72.57,3.68-26.37,11.74-54.45,31.64-69.58,24.62-18.7,54.73-22.25,82.91-15.48,29.25,7,57.61,22.82,79,49.13s35.35,63.24,35,101.09c-.24,25.61-6.72,52-.26,76.26,5,18.87,18.06,33.92,33.31,38.45,16.95,5,34.57-2.33,52-2,17.25.29,34.36,8.42,47.52,22.6a86.61,86.61,0,0,1,22.28,49.44c2,19.27-3.31,40-15,52.58-8,8.6-19.18,14.43-22.12,27.18-3.29,14.27,6.36,28.6,17.13,34.39s22.89,6.29,33.85,11.48c24.52,11.6,39.37,46.74,37.46,79.92s-18.43,63.21-40.07,81.89-47.92,27.06-74,29.76-52.28.06-78.41-1.5c-29.89-1.79-60.37-2.29-88.72-14.49-28.66-12.33-53.43-35.91-76.52-60.78-10.93-11.77-22-24.65-26.93-41.77-3.57-12.43-3.58-26.23-7.68-38.39-8.79-26.09-33.17-37.18-47.27-59.19C2356.76,1589,2354.9,1555.09,2366.63,1530.47Z"/><path class="cls-2" d="M2690.91,1577.36a.5.5,0,0,0,.17,0c12.36-2.89,23.25-14.4,27.75-29.32s2.46-32.75-5.21-45.41c-11.39-18.81-31.45-23.67-51-27l-35.46-6.11c-20-3.45-40.51-8.39-52-27.2-12.28-20.06-9.83-47.46-7.46-74,.27-3,.54-6,.78-9,3.1-37.86,0-70.77-9.26-97.82-11.28-33-32.32-57.29-56.26-65-.49-.17-1,.21-1.1.83a1.18,1.18,0,0,0,.66,1.39c23.4,7.5,44,31.28,55,63.64,9.12,26.69,12.19,59.21,9.13,96.67-.25,3-.51,6-.78,9-2.41,27-4.91,54.84,7.82,75.63,11.93,19.49,32.82,24.55,53.2,28.07l35.46,6.11c19.19,3.31,38.85,8.06,49.82,26.17,7.3,12,9.25,29,5,43.18s-14.65,25.14-26.4,27.89a1.17,1.17,0,0,0-.73,1.34A1,1,0,0,0,2690.91,1577.36Z"/><path class="cls-2" d="M2679.73,1563.52a1.63,1.63,0,0,0,1.23-.62c4.34-5.16,9.25-11,12.16-18.44,2.65-6.74,4-16.74-.27-24.61-2.76-5.13-7.27-8.07-11.73-10.48a123.74,123.74,0,0,0-33.83-12.46c-7.56-1.57-15.3-2.39-22.78-3.19-9.66-1-19.65-2.08-29.21-4.76-11.44-3.21-32-12-40.87-34.83-7.21-18.46-4.53-39-1.7-60.82,2.3-17.67,4.68-35.94,1.42-53.3-.24-1.23-1.21-2-2.18-1.7a2.39,2.39,0,0,0-1.34,2.77c3.09,16.46.78,34.26-1.46,51.48-2.81,21.54-5.71,43.83,2,63.61,9.6,24.55,31.26,33.89,43.33,37.28,9.79,2.75,19.91,3.82,29.69,4.86,7.41.78,15.08,1.59,22.5,3.13a121.13,121.13,0,0,1,33,12.15c3.69,2,7.83,4.49,10.17,8.85,2.77,5.13,2.77,13,0,20-2.62,6.69-7.09,12-11.4,17.14a2.76,2.76,0,0,0-.08,3.25A1.62,1.62,0,0,0,2679.73,1563.52Z"/><path class="cls-39" d="M2400.85,1491.79c21.11-6.7,82.68-19.44,142.3,33.83a36.4,36.4,0,0,1,11.07,36.08c-14.85,58.35-53.71,230.65-16,304.32,0,0-63.19,72-134.29,15.93,0,0-33.7-136.73-75.91-196.31-29.15-41.14,42.89-156.93,61.13-184.91A21.89,21.89,0,0,1,2400.85,1491.79Z"/><path class="cls-40" d="M2457.56,1375.43s32.8,88.23,35.79,127.34c0,0-34.42,16.33-67.52-9.76,0,0-4.85-88.57-10.06-104.37Z"/><path class="cls-41" d="M2412,1255.14s-80.2,116.16-30.62,148.72,106.69-50,106.69-50,18-63.16-2.23-84.16S2412,1255.14,2412,1255.14Z"/><path class="cls-42" d="M2449.57,1227.09s-37.55,9.54-42.56,26.68,54,32,70.46,32.52l14.37,68.61s38.16-65.37,22-102.52S2449.57,1227.09,2449.57,1227.09Z"/><path class="cls-43" d="M2472.06,1345.69s31.34-37.51,44.43-13.6-28.07,42.68-42.61,31.07Z"/><path class="cls-44" d="M2326.63,2171.41c.34,6.23-9.8,55.82-15.33,82.27a43.46,43.46,0,0,0,5.18,31.07l211.75,343.67a47.24,47.24,0,0,1,5.64,13.41c4,16.23,12.51,56,9,92.38l-10.31,22.32,46-11.22,8-124-13.19-7.75a62.12,62.12,0,0,1-25.57-29c-19.37-45-67.52-159.5-80.36-215.49-14.59-63.62-86.32-114.34-86.32-114.34l12-29.64Z"/><path class="cls-45" d="M2629.1,2701.86s-25.54-39.09-28.72-54.41-11.77-42.34-27-33.92c0,0-6,74.79-3.07,103.93s-32.53,28.77-32.53,28.77-9.75,1.53-16.8,8.81c-4.86,5-1.19,13.54,5.79,13.88a199.61,199.61,0,0,0,49.38-3.6,15.12,15.12,0,0,0,12-14.14l3.72-86,32.06,39.17Z"/><path class="cls-46" d="M2450.69,2224.7S2463,2535,2464.65,2579s-4.68,141.88-48.4,171.79l19.46,13.93s23.7-20.81,46.55-60.5c25.66-44.58,33.5-52.78,33.5-52.78l-9-17.78a39.44,39.44,0,0,1-3.61-25.22c8.8-46.38,38.18-200.62,46.34-233.87,9.62-39.24,9.51-91.45-26.88-134.56S2450.69,2224.7,2450.69,2224.7Z"/><path class="cls-47" d="M2500.41,2777.7a2.71,2.71,0,0,0,2.69-2.37c1.31-10.37,6.76-51.95,11.6-62.78,5.54-12.39,23.45-64.47-1.12-68.47,0,0-59.46,89.94-70.95,102.13s-26.38,4.61-26.38,4.61a44,44,0,0,0-19.74,14.67,8.06,8.06,0,0,0,6.56,12.85l41-.27a28.87,28.87,0,0,0,26.76-18.62c6.93-18.15,18.91-44.8,33.17-56.76l-6.35,72a2.73,2.73,0,0,0,2.74,3Z"/><path class="cls-48" d="M2393.67,1848.64s9.72,29.31-3.7,78.06l-83.13,309a9.53,9.53,0,0,0,6.14,11.49c26.5,9,113.55,34.37,231.65,24.31a13.42,13.42,0,0,0,12.07-10.65c7.23-35.19,31.88-155.26,37-179.93,19.35-94,41-195.41-62.42-254.84C2484.36,1847.08,2440.52,1859.71,2393.67,1848.64Z"/><path class="cls-49" d="M2551.74,1537.08s101.57,81.67,128.27,195.08-144.42,128.27-144.42,128.27-23.67-25.6-51.14-15.89-2.86-45.29,29.44-45.67,17.76,25.41,63.12,4c44.2-20.88,70.71-83.69-44.4-176.4a51.39,51.39,0,0,1-15.33-20.19C2494.32,1551.06,2511.24,1514.37,2551.74,1537.08Z"/><path class="cls-50" d="M1789.57,2048s57.57,155.14,145.14,136.1c0,0,9,52.79-5.71,59,0,0-131.36,3.81-144.41-176.6Z"/><path class="cls-51" d="M1792,2084.36c-.24,2.68,9.75,4.54,12.94-6.92-.88-5-2.43-26.77-6.25-30.16-20.32-18-56.56-38.32-56.56-38.32a7.42,7.42,0,0,0,1.26,10.27l18.09,12.2c-1.89,6.26-4.64,11.78-5,18.92a21.19,21.19,0,0,0,5.34,14.79c3.6,4.12,8.45,9.43,12.82,13.46C1783,2086.23,1792,2084.36,1792,2084.36Z"/><path class="cls-52" d="M1782,2075.54c-2.44-5.95-9.47-22.1-12.6-25.39-2.27-2.36-3.31-4.53-3.18-6.63a6.72,6.72,0,0,1,2.81-4.8l.87-.71,17.3,9.25,6.92,10.83-2.85,1.82-6.44-10.09-14.46-7.73a2.71,2.71,0,0,0-.78,1.64c-.07,1.07.71,2.49,2.24,4.09,4.15,4.34,12.36,24.19,13.29,26.44Z"/><path class="cls-53" d="M1933.87,1983.17s27.8-25.11-7.94-52.34c-33.59-25.57-58.14,8.75-47,30.84a2.69,2.69,0,0,1-1.81,3.84c-2.94.64-5.48,3.56-.85,13.88a2.7,2.7,0,0,1-.31,2.71c-4.12,5.52-17.85,27.64,23.57,31a2.76,2.76,0,0,0,2-.7Z"/><path class="cls-54" d="M2079.92,2020s2.67-32,19.82-42.49,50.44-19.33,64.39,15.51c6.66,16.62,4.45,24.53.33,28.25-3.76,3.4-4.18,8.68-1.7,13.12,2.83,5,3.2,11.28-5.31,16.94a10.77,10.77,0,0,0-4.74,6.92c-2.22,11.62-14.11,39.49-77.65,9Z"/><path class="cls-55" d="M2006.46,1962.41c12.5-5.36,39-10.82,59.59,25.21a15.74,15.74,0,0,0,6.06,6c12.27,6.77,47.8,31.36,15.45,75.75a15.36,15.36,0,0,0-2.81,6.88c-1.09,7.52-4.67,24.18-15.43,28.3a15.41,15.41,0,0,0-7.7,6.43c-7.23,11.9-27.85,36.95-62.55,10.79a15.48,15.48,0,0,0-6-2.76l-47.91-10.55a15.58,15.58,0,0,0-7.7.28c-5.86,1.71-17.69,3.21-22.1-10.57a15.72,15.72,0,0,0-4.8-7.21c-8-6.83-25.09-25.35-12.19-51.31a15.61,15.61,0,0,0,1.48-9.38c-1.51-9.72-2.31-31.31,17.87-40.63a15,15,0,0,0,7.1-6.65c6.73-13,28.66-46.13,67.31-21.8A15.4,15.4,0,0,0,2006.46,1962.41Z"/><path class="cls-56" d="M1941.39,2723.8l7,8.06-4.79,17.5a12.35,12.35,0,0,1-9.7,8.9c-15.57,2.85-50.88,8-69,.18,0,0-5.65-37.86,56.94-26.58Z"/><path class="cls-57" d="M2050.55,2743.91l3.71,9.11-1.5,32.82c-.21,4.61-3.93,8.48-9,9.25a118.81,118.81,0,0,1-26.16,1.4c-7.34-.57-11.93-7.45-9.06-13.6l11-23.67a14.42,14.42,0,0,1,8.37-7.53Z"/><path class="cls-58" d="M2018.77,2104.26l7.13,70.59s-38.38,13-63.65-1.67l6.83-70.88Z"/><path class="cls-59" d="M2080.32,2490.76s-18.21,203.07-30.24,265.21c0,0-9,6.55-22.47-1.9l-16.34-271Z"/><path class="cls-60" d="M1999.38,2503l-49.9,227.42s-13.58,14.08-31.22,0l8.6-239.08Z"/><path class="cls-61" d="M2062.51,2180.17l12.48,1.39c24.18,25.92,68.52,204,84.51,241.91l65.08-10.64a3.25,3.25,0,0,1,3.65,4.43c-2.89,7.06-13.73,27.43-56,27.43-19.74,0,11.07,15.31-.73,20.57,0,0-25.94-9.34-26-25.77,0,0-74.35-169.35-89.64-187.17S2062.51,2180.17,2062.51,2180.17Z"/><path class="cls-62" d="M2075,2181.56s-66.14-24.5-148.7.86c0,0-9.26,62.51-4.49,92.26l142.27,5.15Z"/><path class="cls-63" d="M1923.74,2294.22s-45.47,146-52.21,243.21a9.06,9.06,0,0,0,8.41,9.68c9.47.68,26.15,3,48.82,10.56,36.77,12.24,67.2,8.2,94.69.31,21.57-6.19,75.51-11.61,97.72-13.65a9.05,9.05,0,0,0,8.08-10.62c-6.45-36-31-163.7-68.19-250.51Z"/><path class="cls-64" d="M1921.33,2271.31l2.41,22.91s43.75.17,140.41-3.08l.5-16.57S1957.57,2276.66,1921.33,2271.31Z"/><path class="cls-65" d="M1921.65,2035.82c-11,42.44-7.78,91.22,42.16,102.17,34.55,7.57,70.86-27.63,81.84-70.08s-7.82-74.77-42.06-83.64S1932.63,1993.37,1921.65,2035.82Z"/><path class="cls-66" d="M1925.4,2048.91s-1.63-25.67-14.43-17.75,4.94,38.68,12.86,40.48S1925.4,2048.91,1925.4,2048.91Z"/><path class="cls-67" d="M2034.92,2078.51s3.83-19.58,17.7-10.53-12.6,41-28.91,33.93Z"/><path class="cls-68" d="M2055.45,2063s-39.72,43-60.35-46.22c0,0-20.59,26.65-30,3.08,0,0-41,14-45.52-3.2s55.41-64,103.62-30.44S2055.45,2063,2055.45,2063Z"/><path class="cls-69" d="M703.77,2775.54a9.23,9.23,0,0,1,.24-2.44c12.17-48.22,61.9-72.94,61.9-72.94l23.92,1.88c13.75,42.5,22.62,63.25,20.41,74.86-.06.32-.16.63-.25.94C790.26,2779.61,749.65,2780.76,703.77,2775.54Z"/><path class="cls-4" d="M810,2777.84a10.35,10.35,0,0,1-7.59,7.67c-28.07,5.9-72.68,1.15-91.41-1.3-4.13-.54-7.16-4.36-7.22-8.67C749.65,2780.76,790.26,2779.61,810,2777.84Z"/><path class="cls-70" d="M746.21,2662.94l10.47,50.42a8.25,8.25,0,0,0,7.05,6.78,69.31,69.31,0,0,0,16.22-.26c5.41-.79,9.17-6.28,8.21-12.17l-7.28-44.77Z"/><path class="cls-4" d="M1013.24,2777.43c-25.54-.72-38.76-3.73-45.59-6.52,0,2.54,0,5.13.08,7.8a5,5,0,0,0,4.82,5.13l140.27-.9c4.47,0,7.09-5.22,5.15-9.33C1099.58,2775.13,1052.74,2778.53,1013.24,2777.43Z"/><path class="cls-71" d="M1118,2773.61a7.13,7.13,0,0,0-.55-1.06c-12.39-17.3-43.94-51.77-106.29-66.72l-29.91-.95s-13.32,23.15-13.57,66c6.83,2.79,20.05,5.8,45.59,6.52C1052.74,2778.53,1099.58,2775.13,1118,2773.61Z"/><path class="cls-72" d="M975.67,2659.56c.33,2.23,4.44,36.11,6,49.25a6.52,6.52,0,0,0,5.49,5.88c5.09.6,13.34,1.16,20.55-.32a8.84,8.84,0,0,0,6.7-8.88V2652.3Z"/><path class="cls-73" d="M766.2,2000.87s-47.87,425.42-21.28,691.32c0,0,31.91,0,47.86-5.32,0,0,49.74-416,65.83-535a4,4,0,0,1,7.89-.25c19.85,100.14,97.82,492.84,107.09,529.92,0,0,26.59,10.64,47.86,0,0,0-42.54-569-74.45-670.05Z"/><path class="cls-74" d="M670.47,1506.31s202.08-31.91,361.62,10.63l-10.64,164.86S978.91,1910.46,947,2011.5c0,0-122.31,21.27-180.8-10.63,0,0-47.87-287.17-74.45-329.71C691.75,1671.16,665.16,1559.48,670.47,1506.31Z"/><path class="cls-75" d="M810.86,1361l-20.14,136.13S847,1523,886.35,1496L877.87,1400Z"/><path class="cls-76" d="M897.53,1272.35c.63,1.15,12.77,69.8,20.24,112.29a29.81,29.81,0,0,1-27.62,34.92l-16.29,1a58.09,58.09,0,0,1-60.85-49.2l-11.78-77S882.14,1244.43,897.53,1272.35Z"/><path class="cls-77" d="M783.66,1294.55c-6.25-7.77-11.7-20.33,1.61-33.54,13.47-13.38,28.75-10,38.44-5.56a10.71,10.71,0,0,0,12.63-2.5,6.81,6.81,0,0,1,6.36-2.36,10,10,0,0,0,11.34-8.72c1.15-9.65,6.29-21,23.36-24.32,31.3-6,46.92,25.28,46.36,47.3s-34.87,26.65-54.34,23c-14.3-2.69-26.66,9.88-32.22,16.74a10.32,10.32,0,0,0-2,8.87l4.94,21.27c-3.42,6.62-6.79,13.37-11.6,19a21,21,0,0,1-11.3,7.26c-5.84-10.87-22.16-12.71-29.75-13a10.45,10.45,0,0,1-7.52-3.56c-5.72-6.57-14.68-21.21,2.46-35.6A10.32,10.32,0,0,0,783.66,1294.55Z"/><path class="cls-78" d="M822.84,1383.77s-.67-38.41-16.22-42-32.32,7.63-19,30.63C804.14,1401,822.84,1383.77,822.84,1383.77Z"/><path class="cls-79" d="M670.47,1506.31s-313.75,340.34,55.84,470.63v-26.59s-138.26-117-31.91-276.53C694.4,1673.82,681.11,1522.26,670.47,1506.31Z"/><path class="cls-80" d="M729,1953s47.86-31.91,69.13-21.28,21.27,26.59,21.27,26.59-10.63,21.27-26.59,16-53.17,5.31-69.13,0C723.65,1974.28,718.33,1953,729,1953Z"/><path class="cls-81" d="M1276.75,1626.52c-101.29,15.2-158.2-54-207.4-92.73-64.95-51.19-124.62-21-124.62-21l63.92,149.2c103.45,97.53,214.87,58.88,281.73,27.28A128.82,128.82,0,0,0,1276.75,1626.52Z"/><path class="cls-82" d="M1419.13,1566.09l-33.59,18.07c-40.29,24.53-76.34,37.49-108.79,42.36a128.82,128.82,0,0,1,13.63,62.7c42.57-20.12,69.25-44.27,69.25-44.27C1435.73,1599.57,1419.13,1566.09,1419.13,1566.09Z"/><path class="cls-83" d="M1518.09,1613.42a24.79,24.79,0,0,0-14.48-15.85l-68.18-27.41s-1-8.75,14.41-14.69,11.82-23.23,11.82-23.23-21.08,9.62-52,24.88c-17.66,8.72-27.56,24.13-32.81,35.72l17.55,23.08c42,12.62,84.53,15,127.41,10Z"/></g></g></svg>